<?xml version="1.0" encoding="UTF-8"?>
<svg xmlns="http://www.w3.org/2000/svg" xmlns:xlink="http://www.w3.org/1999/xlink" version="1.2" >
<font id="Univers Medium">
<font-face  font-family="Univers SB Medium" units-per-em="1000" ascent="736.084" descent="-158.691" font-style="normal" font-weight="500" font-stretch="normal" cap-height="750" x-height="500" underline-position="-87.5" underline-thickness="69" />
<missing-glyph  horiz-adv-x="240" d="" />
<glyph glyph-name="NULL" d="" />
<glyph glyph-name="CR" unicode="&#xd;" horiz-adv-x="250" d="" />
<glyph glyph-name="space" unicode="&#x20;" horiz-adv-x="240" d="" />
<glyph glyph-name="exclam" unicode="&#x21;" horiz-adv-x="279" d="M81 736 L101 202 L204 202 L219 736 L81 736 Z M86 0 L216 0 L216 136 L86 136 L86 0 Z " />
<glyph glyph-name="quotedbl" unicode="&#x22;" horiz-adv-x="419" d="M153 442 L167 736 L70 736 L84 442 L153 442 Z M336 442 L350 736 L253 736 L267 442 L336 442 Z " />
<glyph glyph-name="numbersign" unicode="&#x23;" horiz-adv-x="650" d="M576 295 L506 295 C484 295 478 295 458 292 C464 311 465 316 468 339 L485 442 L598 442 L608 510 L540 510 C517 510 512 510 492 507 C498 526 499 531 503 554 L531 736 L455 736 L420 510 L321 510 C298 510 293 510 273 507 C279 526 280 531 284 554 L313 736 L237 736 L202 510 L87 510 L76 442 L147 442 C170 442 174 442 195 445 C189 426 187 420 184 398 L167 295 L53 295 L42 227 L113 227 C136 227 140 227 161 230 C155 211 153 206 150 183 L121 0 L196 0 L232 227 L331 227 C354 227 358 227 379 230 C373 211 371 206 368 183 L339 0 L415 0 L451 227 L566 227 L576 295 Z M386 295 L287 295 C265 295 259 295 239 292 C245 311 246 317 250 339 L266 442 L365 442 C388 442 392 442 413 445 C407 426 405 420 402 398 L386 295 Z " />
<glyph glyph-name="dollar" unicode="&#x24;" horiz-adv-x="657" d="M21 238 C23 146 38 98 76 59 C120 14 191 -10 295 -15 L295 -130 L351 -130 L351 -13 C511 -1 613 91 613 224 C613 289 590 337 542 370 C504 396 477 406 351 442 L351 591 C351 614 350 619 346 638 C410 630 437 599 442 529 L591 529 C591 613 575 653 523 696 C481 731 425 749 351 752 L351 849 L295 849 L295 749 C141 739 44 651 44 521 C44 453 69 407 124 368 C160 343 190 332 295 304 L295 145 C295 124 295 119 300 101 C218 109 188 144 183 238 L21 238 Z M295 532 C295 495 295 488 300 455 C231 475 206 499 206 544 C206 596 241 632 300 638 C295 620 295 615 295 594 L295 532 Z M351 218 C351 254 351 262 346 293 C427 273 451 251 451 198 C451 142 411 106 346 101 C351 116 351 120 351 138 L351 218 Z " />
<glyph glyph-name="percent" unicode="&#x25;" horiz-adv-x="798" d="M606 363 C495 363 436 298 436 173 C436 54 496 -12 604 -12 C709 -12 770 56 770 175 C770 296 712 363 606 363 L606 363 Z M602 283 C646 283 660 255 660 170 C660 95 645 66 604 66 C561 66 546 93 546 170 C546 256 559 283 602 283 L602 283 Z M164 -20 L249 -20 L632 741 L550 741 L164 -20 Z M195 734 C85 734 26 668 26 546 C26 425 86 359 194 359 C299 359 360 428 360 545 C360 666 301 734 195 734 L195 734 Z M192 655 C234 655 249 627 249 548 C249 466 235 438 193 438 C151 438 136 466 136 543 C136 627 150 655 192 655 L192 655 Z " />
<glyph glyph-name="ampersand" unicode="&#x26;" horiz-adv-x="793" d="M608 0 L795 0 L648 153 C709 237 727 302 731 455 L583 455 C581 339 575 305 549 254 C525 285 520 291 489 323 L454 359 C431 383 426 387 404 406 C507 458 547 510 547 591 C547 694 470 754 336 754 C193 754 107 693 107 591 C107 538 129 497 188 441 L202 427 C92 367 45 298 45 195 C45 62 148 -19 318 -19 C420 -19 480 2 553 63 L608 0 Z M462 148 C425 109 385 92 329 92 C251 92 204 137 204 211 C204 263 224 297 278 337 L462 148 Z M328 484 C274 535 260 557 260 590 C260 631 289 658 332 658 C377 658 404 631 404 587 C404 547 388 525 328 484 L328 484 Z " />
<glyph glyph-name="quotesingle" unicode="&#x27;" horiz-adv-x="238" d="M154 442 L168 736 L71 736 L85 442 L154 442 Z " />
<glyph glyph-name="parenleft" unicode="&#x28;" horiz-adv-x="281" d="M260 -156 C237 -85 228 -56 217 -20 C184 95 170 190 170 298 C170 426 186 513 237 667 L260 736 L145 736 C116 661 104 626 91 582 C59 474 42 373 42 286 C42 157 69 44 147 -156 L260 -156 Z " />
<glyph glyph-name="parenright" unicode="&#x29;" horiz-adv-x="281" d="M19 736 L42 667 C93 514 109 426 109 294 C109 156 90 60 19 -156 L132 -156 C210 45 237 158 237 286 C237 365 223 455 196 554 C181 609 167 648 134 736 L19 736 Z " />
<glyph glyph-name="asterisk" unicode="&#x2a;" horiz-adv-x="440" d="M41 519 L75 456 L130 489 C152 502 162 509 187 526 C184 495 184 485 184 454 L184 386 L255 386 L255 454 C255 482 255 494 252 526 C276 510 285 505 308 491 L361 461 L400 522 L346 554 C320 569 313 573 287 584 L287 587 C312 598 318 601 345 617 L398 648 L362 708 L309 676 C285 662 277 657 252 640 C255 672 255 684 255 712 L255 780 L184 780 L184 714 C184 683 184 673 187 643 C162 660 152 666 129 679 L75 711 L37 649 L94 616 C122 600 129 597 156 584 L156 582 C130 570 123 567 96 551 L41 519 Z " />
<glyph glyph-name="plus" unicode="&#x2b;" horiz-adv-x="591" d="M48 414 L48 322 L224 322 C236 322 239 322 250 326 C246 315 246 312 246 300 L246 121 L346 121 L346 300 C346 312 346 315 342 326 C353 322 356 322 368 322 L543 322 L543 414 L368 414 C356 414 353 414 342 410 C346 421 346 424 346 436 L346 616 L246 616 L246 436 C246 424 246 421 250 410 C239 414 236 414 224 414 L48 414 Z " />
<glyph glyph-name="comma" unicode="&#x2c;" horiz-adv-x="299" d="M29 -115 L142 -115 L257 136 L106 136 L29 -115 Z " />
<glyph glyph-name="hyphen" unicode="&#x2d;" horiz-adv-x="361" d="M42 213 L318 213 L318 338 L42 338 L42 213 Z " />
<glyph glyph-name="period" unicode="&#x2e;" horiz-adv-x="238" d="M65 0 L198 0 L198 136 L65 136 L65 0 Z " />
<glyph glyph-name="slash" unicode="&#x2f;" horiz-adv-x="440" d="M19 0 L133 0 L420 736 L308 736 L19 0 Z " />
<glyph glyph-name="zero" unicode="0" horiz-adv-x="591" d="M292 716 C134 716 44 583 44 352 C44 115 134 -16 296 -16 C455 -16 546 116 546 346 C546 588 458 716 292 716 L292 716 Z M295 599 C360 599 393 517 393 357 C393 185 361 101 295 101 C269 101 245 116 232 141 C212 177 198 270 198 361 C198 517 231 599 295 599 L295 599 Z " />
<glyph glyph-name="one" unicode="1" horiz-adv-x="591" d="M88 463 C161 488 187 502 254 553 L257 551 C253 490 252 476 252 407 L252 0 L408 0 L408 711 L266 711 C197 658 161 636 88 604 L88 463 Z " />
<glyph glyph-name="two" unicode="2" horiz-adv-x="591" d="M45 0 L541 0 L541 113 L372 113 C289 113 270 112 195 106 L193 110 C345 232 398 278 456 340 C512 401 539 462 539 527 C539 646 448 719 299 719 C210 719 140 693 99 645 C69 610 58 576 58 509 L214 509 C220 578 248 609 303 609 C352 609 383 579 383 532 C383 498 373 473 344 435 C317 398 297 378 181 268 L45 141 L45 0 Z " />
<glyph glyph-name="three" unicode="3" horiz-adv-x="591" d="M40 192 C43 52 119 -17 273 -17 C426 -17 531 68 531 191 C531 277 466 352 383 362 C472 376 526 436 526 520 C526 636 430 717 293 717 C215 717 147 694 105 655 C69 621 56 588 51 517 L203 517 C213 578 240 605 294 605 C344 605 377 571 377 519 C377 455 327 417 244 417 L201 417 L201 294 L251 294 C331 294 378 256 378 193 C378 138 339 99 285 99 C230 99 205 124 193 192 L40 192 Z " />
<glyph glyph-name="four" unicode="4" horiz-adv-x="591" d="M35 151 L305 151 C317 151 320 151 331 155 C327 144 327 141 327 129 L327 0 L465 0 L465 129 C465 141 465 144 461 155 C472 151 475 151 487 151 L557 151 L557 269 L487 269 C475 269 472 269 461 265 C465 276 465 279 465 291 L465 711 L309 711 L35 289 L35 151 Z M235 264 C196 264 181 264 138 261 C170 310 181 327 209 372 L235 413 C280 486 291 506 329 578 L333 577 C328 507 327 488 327 413 L327 286 C327 274 327 271 331 260 C320 264 317 264 305 264 L235 264 Z " />
<glyph glyph-name="five" unicode="5" horiz-adv-x="591" d="M52 179 C61 124 72 94 95 65 C134 17 205 -13 283 -13 C437 -13 544 94 544 249 C544 383 461 472 335 472 C273 472 236 454 202 408 L198 409 C206 451 207 463 209 507 L213 595 L502 595 L502 710 L78 711 L62 292 L213 292 C224 334 256 359 298 359 C356 359 391 314 391 239 C391 154 353 103 291 103 C245 103 217 129 208 179 L52 179 Z " />
<glyph glyph-name="six" unicode="6" horiz-adv-x="591" d="M193 375 C195 390 197 407 199 421 C203 455 204 461 206 471 C213 512 224 545 236 561 C255 586 281 599 312 599 C352 599 378 576 387 532 L538 532 C536 651 460 716 323 716 C229 716 155 682 110 618 C62 550 42 453 42 291 C42 159 60 100 116 42 C153 4 214 -17 288 -17 C449 -17 552 80 552 232 C552 372 472 459 344 459 C271 459 235 438 197 373 L193 375 Z M305 342 C364 342 398 298 398 221 C398 142 363 97 302 97 C241 97 205 142 205 220 C205 296 242 342 305 342 L305 342 Z " />
<glyph glyph-name="seven" unicode="7" horiz-adv-x="591" d="M47 593 L276 593 C325 593 335 593 378 596 C359 557 355 549 335 503 L113 0 L290 0 L530 588 L530 711 L47 711 L47 593 Z " />
<glyph glyph-name="eight" unicode="8" horiz-adv-x="591" d="M405 369 C484 375 542 440 542 523 C542 639 443 717 295 717 C145 717 42 635 42 517 C42 435 99 375 187 364 C97 351 32 275 32 184 C32 64 137 -17 294 -17 C395 -17 450 3 500 57 C536 96 552 136 552 189 C552 280 493 352 405 369 L405 369 Z M295 302 C359 302 399 262 399 198 C399 134 356 91 293 91 C229 91 190 131 190 196 C190 264 228 302 295 302 L295 302 Z M294 604 C352 604 390 568 390 513 C390 456 356 424 295 424 C233 424 198 457 198 513 C198 569 235 604 294 604 L294 604 Z " />
<glyph glyph-name="nine" unicode="9" horiz-adv-x="591" d="M283 604 C345 604 381 559 381 482 C381 404 344 359 279 359 C222 359 188 404 188 481 C188 559 223 604 283 604 L283 604 Z M394 326 C392 310 390 295 388 280 C383 246 382 240 381 230 C373 189 362 155 350 139 C331 114 305 101 274 101 C235 101 211 122 199 169 L48 169 C51 50 127 -16 263 -16 C413 -16 510 72 532 228 C540 283 544 357 544 436 C544 623 462 717 298 717 C137 717 35 620 35 467 C35 328 114 242 242 242 C315 242 351 263 389 328 L394 326 Z " />
<glyph glyph-name="colon" unicode="&#x3a;" horiz-adv-x="238" d="M65 0 L198 0 L198 136 L65 136 L65 0 Z M65 378 L198 378 L198 514 L65 514 L65 378 Z " />
<glyph glyph-name="semicolon" unicode="&#x3b;" horiz-adv-x="297" d="M28 -115 L141 -115 L256 136 L105 136 L28 -115 Z M102 376 L235 376 L235 511 L102 511 L102 376 Z " />
<glyph glyph-name="less" unicode="&#x3c;" horiz-adv-x="591" d="M496 645 L95 413 L95 323 L496 91 L496 194 L297 306 C242 337 231 343 182 367 L182 369 C231 394 242 399 297 430 L496 542 L496 645 Z " />
<glyph glyph-name="equal" unicode="&#x3d;" horiz-adv-x="591" d="M57 510 L57 418 L535 418 L535 510 L57 510 Z M57 319 L57 227 L535 227 L535 319 L57 319 Z " />
<glyph glyph-name="greater" unicode="&#x3e;" horiz-adv-x="591" d="M95 645 L95 542 L295 430 C350 399 361 394 411 369 L411 367 C361 343 350 337 295 306 L95 194 L95 91 L496 323 L496 413 L95 645 Z " />
<glyph glyph-name="question" unicode="&#x3f;" horiz-adv-x="501" d="M136 0 L261 0 L261 123 L136 123 L136 0 Z M44 625 C117 644 144 649 183 649 C250 649 301 606 301 549 C301 504 281 472 192 370 C156 328 141 298 141 266 L141 165 L259 165 L259 247 C259 286 271 306 323 349 C426 434 459 487 459 564 C459 680 359 752 197 752 C145 752 104 746 44 730 L44 625 Z " />
<glyph glyph-name="at" unicode="&#x40;" horiz-adv-x="846" d="M567 547 L559 510 C558 502 557 493 557 481 L557 459 L553 458 C531 527 491 561 431 561 C319 561 234 462 234 331 C234 230 302 154 390 154 C447 154 494 183 528 239 L532 238 C533 190 564 157 609 157 C710 157 800 283 800 423 C800 613 646 751 436 751 C220 751 47 581 47 370 C47 144 214 -15 451 -15 C543 -15 623 2 701 38 L683 94 C606 58 536 42 451 42 C249 42 111 175 111 369 C111 550 256 694 438 694 C615 694 739 581 739 421 C739 311 680 214 614 214 C587 214 569 235 570 264 C571 277 573 293 576 311 L622 547 L567 547 Z M436 499 C493 499 529 457 529 392 C529 292 474 216 403 216 C343 216 302 265 302 338 C302 426 363 499 436 499 L436 499 Z " />
<glyph glyph-name="A" unicode="A" horiz-adv-x="708" d="M209 159 L498 159 L544 0 L708 0 L457 736 L265 736 L1 0 L160 0 L209 159 Z M331 282 C294 282 285 282 250 279 C263 310 266 317 278 354 L307 447 C333 529 339 548 357 625 L362 625 C379 548 384 530 408 447 L436 350 C447 316 449 309 461 279 C429 282 420 282 385 282 L331 282 Z " />
<glyph glyph-name="B" unicode="B" horiz-adv-x="690" d="M80 0 L413 0 C553 0 651 85 651 205 C651 298 586 369 490 383 C581 408 621 458 621 546 C621 661 531 736 394 736 L80 736 L80 0 Z M378 320 C450 320 490 282 490 214 C490 146 455 115 378 115 L261 115 C250 115 246 115 235 111 C239 122 239 125 239 137 L239 298 C239 310 239 313 235 324 C246 320 249 320 261 320 L378 320 Z M372 621 C432 621 467 586 467 527 C467 464 434 435 365 435 L261 435 C249 435 246 435 235 431 C239 442 239 445 239 457 L239 599 C239 611 239 614 235 625 C246 621 249 621 261 621 L372 621 Z " />
<glyph glyph-name="C" unicode="C" horiz-adv-x="683" d="M487 235 C478 137 442 96 368 96 C268 96 216 184 216 352 C216 537 271 639 372 639 C442 639 477 600 491 505 L650 505 C646 581 635 618 602 661 C556 720 481 752 385 752 C168 752 44 604 44 347 C44 108 155 -17 368 -17 C546 -17 648 74 652 235 L487 235 Z " />
<glyph glyph-name="D" unicode="D" horiz-adv-x="742" d="M79 0 L347 0 C420 0 491 19 546 52 C646 112 697 217 697 362 C697 606 564 736 312 736 L79 736 L79 0 Z M325 616 C466 616 526 541 526 365 C526 193 465 120 321 120 L260 120 C248 120 245 120 234 116 C238 127 238 130 238 142 L238 594 C238 606 238 609 234 620 C245 616 248 616 260 616 L325 616 Z " />
<glyph glyph-name="E" unicode="E" horiz-adv-x="616" d="M81 0 L580 0 L580 120 L262 120 C250 120 247 120 236 116 C240 127 240 130 240 142 L240 298 C240 310 240 313 236 324 C247 320 250 320 262 320 L546 320 L546 440 L262 440 C250 440 247 440 236 436 C240 447 240 450 240 462 L240 594 C240 606 240 609 236 620 C247 616 250 616 262 616 L567 616 L567 736 L81 736 L81 0 Z " />
<glyph glyph-name="F" unicode="F" horiz-adv-x="578" d="M81 0 L240 0 L240 293 C240 305 240 308 236 319 C247 315 250 315 262 315 L531 315 L531 435 L262 435 C251 435 247 435 236 431 C240 442 240 445 240 457 L240 594 C240 606 240 609 236 620 C247 616 250 616 262 616 L552 616 L552 736 L81 736 L81 0 Z " />
<glyph glyph-name="G" unicode="G" horiz-adv-x="788" d="M715 391 L416 391 L416 271 L532 271 C544 271 547 271 558 275 C554 264 554 261 554 249 L554 113 C498 103 472 101 438 101 C291 101 216 189 216 362 C216 536 290 640 415 640 C506 640 552 599 559 511 L725 511 C722 670 622 753 432 753 C301 753 219 724 152 655 C85 585 45 470 45 346 C45 230 75 146 137 85 C201 22 309 -16 421 -16 C464 -16 518 -12 572 -6 C626 1 649 6 715 26 L715 391 Z " />
<glyph glyph-name="H" unicode="H" horiz-adv-x="747" d="M81 0 L240 0 L240 297 C240 309 240 312 236 323 C247 319 250 319 262 319 L487 319 C499 319 502 319 513 323 C509 312 509 309 509 297 L509 0 L667 0 L667 736 L509 736 L509 464 C509 452 509 449 513 438 C502 442 499 442 487 442 L262 442 C250 442 247 442 236 438 C240 449 240 452 240 464 L240 736 L81 736 L81 0 Z " />
<glyph glyph-name="I" unicode="I" horiz-adv-x="320" d="M81 0 L240 0 L240 736 L81 736 L81 0 Z " />
<glyph glyph-name="J" unicode="J" horiz-adv-x="560" d="M8 230 C9 155 19 112 42 75 C77 21 148 -11 234 -11 C394 -11 487 82 487 242 L487 736 L328 736 L328 213 C328 145 297 107 242 107 C186 107 163 141 162 230 L8 230 Z " />
<glyph glyph-name="K" unicode="K" horiz-adv-x="683" d="M81 0 L240 0 L240 222 C240 294 240 310 236 376 L240 378 C274 321 282 308 323 247 L488 0 L685 0 L393 405 L659 736 L475 736 L325 535 C284 481 275 467 240 415 L236 416 C240 479 240 495 240 563 L240 736 L81 736 L81 0 Z " />
<glyph glyph-name="L" unicode="L" horiz-adv-x="578" d="M81 0 L554 0 L554 120 L262 120 C250 120 247 120 236 116 C240 127 240 130 240 142 L240 736 L81 736 L81 0 Z " />
<glyph glyph-name="M" unicode="M" horiz-adv-x="987" d="M81 0 L229 0 L229 316 C229 456 228 489 222 620 L228 620 C261 494 271 460 313 329 L419 0 L554 0 L663 329 C707 462 716 493 750 617 L756 616 C750 487 749 454 749 315 L749 0 L907 0 L907 736 L653 736 L557 446 C525 348 518 324 494 231 L489 231 C466 324 460 346 428 447 L335 736 L81 736 L81 0 Z " />
<glyph glyph-name="N" unicode="N" horiz-adv-x="803" d="M81 0 L229 0 L229 300 C229 424 228 452 222 565 L227 566 C271 462 283 437 337 325 L496 0 L723 0 L723 736 L575 736 L575 408 C575 285 576 256 582 143 L577 142 C533 246 521 271 467 383 L296 736 L81 736 L81 0 Z " />
<glyph glyph-name="O" unicode="O" horiz-adv-x="790" d="M394 753 C171 753 44 615 44 372 C44 117 166 -16 400 -16 C503 -16 592 19 655 83 C715 145 746 239 746 363 C746 617 623 753 394 753 L394 753 Z M396 640 C515 640 576 547 576 367 C576 192 514 97 398 97 C277 97 214 188 214 364 C214 544 277 640 396 640 L396 640 Z " />
<glyph glyph-name="P" unicode="P" horiz-adv-x="650" d="M80 0 L239 0 L239 262 C239 274 238 277 235 288 C246 284 250 284 261 284 L336 284 C415 284 481 297 517 321 C583 363 618 431 618 516 C618 592 590 656 540 692 C502 721 428 736 328 736 L80 736 L80 0 Z M347 616 C420 616 451 584 451 509 C451 435 417 404 338 404 L259 404 C247 404 243 404 232 400 C236 411 236 414 236 426 L236 594 C236 606 236 609 232 620 C243 616 247 616 259 616 L347 616 Z " />
<glyph glyph-name="Q" unicode="Q" horiz-adv-x="767" d="M596 96 C678 160 721 256 721 375 C721 618 599 753 379 753 C280 753 187 715 129 652 C75 593 45 492 45 369 C45 267 62 189 97 129 C149 38 253 -16 377 -16 C417 -16 457 -13 501 -6 C589 7 599 8 635 8 C654 8 671 7 695 6 L755 1 L773 0 L773 113 L721 113 C675 113 643 107 598 91 L596 96 Z M380 639 C493 639 551 546 551 367 C551 190 493 97 383 97 C269 97 218 183 218 375 C218 549 273 639 380 639 L380 639 Z " />
<glyph glyph-name="R" unicode="R" horiz-adv-x="698" d="M79 0 L238 0 L238 272 C238 284 238 287 234 298 C245 294 248 294 260 294 L374 294 C437 294 455 264 468 140 C476 67 477 59 491 0 L665 0 L660 15 C641 71 635 107 624 212 C613 320 579 359 496 361 C593 383 645 446 645 540 C645 661 557 736 415 736 L79 736 L79 0 Z M377 618 C442 618 476 584 476 520 C476 454 441 417 377 417 L260 417 C248 417 245 417 234 413 C238 424 238 427 238 439 L238 596 C238 608 238 611 234 622 C245 618 248 618 260 618 L377 618 Z " />
<glyph glyph-name="S" unicode="S" horiz-adv-x="662" d="M29 238 C30 161 40 119 63 83 C104 22 199 -16 316 -16 C499 -16 619 78 619 221 C619 333 555 387 356 441 C245 471 213 494 213 544 C213 602 259 640 330 640 C405 640 448 600 450 529 L599 529 C599 594 591 625 567 658 C523 719 444 752 342 752 C167 752 51 661 51 524 C51 466 71 419 110 385 C153 347 200 329 343 294 C428 274 459 248 459 199 C459 139 405 97 329 97 C238 97 193 143 190 238 L29 238 Z " />
<glyph glyph-name="T" unicode="T" horiz-adv-x="629" d="M22 613 L215 613 C227 613 230 613 241 617 C237 606 237 603 237 591 L237 0 L395 0 L395 591 C395 603 395 606 391 617 C402 613 405 613 417 613 L610 613 L610 736 L22 736 L22 613 Z " />
<glyph glyph-name="U" unicode="U" horiz-adv-x="775" d="M702 736 L543 736 L543 256 C543 169 476 104 386 104 C293 104 232 165 232 259 L232 736 L73 736 L73 264 C73 81 182 -16 388 -16 C592 -16 702 82 702 262 L702 736 Z " />
<glyph glyph-name="V" unicode="V" horiz-adv-x="719" d="M1 736 L267 0 L446 0 L717 736 L558 736 L430 355 C398 257 391 235 366 145 L362 145 C338 236 332 258 300 355 L177 736 L1 736 Z " />
<glyph glyph-name="W" unicode="W" horiz-adv-x="1000" d="M1 736 L185 0 L365 0 L446 331 C475 451 481 477 501 587 L506 587 C525 476 531 447 558 330 L634 0 L814 0 L998 736 L845 736 L779 419 C754 297 749 267 731 151 L726 151 C706 266 701 293 673 418 L601 736 L423 736 L345 415 C316 296 310 266 288 153 L283 153 C266 267 261 296 236 417 L170 736 L1 736 Z " />
<glyph glyph-name="X" unicode="X" horiz-adv-x="701" d="M0 0 L176 0 L282 176 C312 225 318 236 343 283 L345 283 C368 235 375 223 403 174 L501 0 L701 0 L445 382 L689 736 L514 736 L423 587 C393 538 387 527 363 481 L361 481 C338 528 332 538 304 589 L220 736 L27 736 L258 380 L0 0 Z " />
<glyph glyph-name="Y" unicode="Y" horiz-adv-x="655" d="M1 736 L246 270 L246 0 L407 0 L407 266 L652 736 L484 736 L405 555 C371 479 365 462 338 391 L335 391 C309 462 304 476 270 556 L192 736 L1 736 Z " />
<glyph glyph-name="Z" unicode="Z" horiz-adv-x="624" d="M35 0 L590 0 L590 115 L353 115 C279 115 263 115 196 111 L194 113 C239 163 248 174 295 234 L585 601 L585 736 L58 736 L58 621 L267 621 C342 621 357 621 424 625 L426 623 C381 572 370 560 324 502 L35 135 L35 0 Z " />
<glyph glyph-name="bracketleft" unicode="&#x5b;" horiz-adv-x="335" d="M73 -156 L313 -156 L313 -61 L213 -61 C201 -61 198 -61 187 -65 C191 -54 191 -51 191 -39 L191 619 C191 631 191 634 187 645 C198 641 202 641 213 641 L313 641 L313 736 L73 736 L73 -156 Z " />
<glyph glyph-name="backslash" unicode="&#x5c;" horiz-adv-x="440" d="M420 0 L131 736 L19 736 L307 0 L420 0 Z " />
<glyph glyph-name="bracketright" unicode="&#x5d;" horiz-adv-x="335" d="M20 641 L120 641 C131 641 135 641 146 645 C142 634 142 631 142 619 L142 -39 C142 -51 142 -54 146 -65 C135 -61 132 -61 120 -61 L20 -61 L20 -156 L260 -156 L260 736 L20 736 L20 641 Z " />
<glyph glyph-name="asciicircum" unicode="&#x5e;" horiz-adv-x="591" d="M547 368 L339 736 L251 736 L43 368 L137 368 L233 540 C263 593 269 605 294 656 L296 656 C321 605 326 594 357 540 L453 368 L547 368 Z " />
<glyph glyph-name="underscore" unicode="&#x5f;" horiz-adv-x="476" d="M0 -88 L0 -157 L475 -157 L475 -88 L0 -88 Z " />
<glyph glyph-name="grave" unicode="&#x60;" d="M-169 744 L-31 588 L84 588 L0 744 L-169 744 Z " />
<glyph glyph-name="a" unicode="a" horiz-adv-x="583" d="M384 71 C382 62 381 51 381 47 C381 38 381 38 382 31 L386 0 L521 0 C515 44 512 66 512 81 L512 346 C512 471 440 531 290 531 C143 531 76 482 68 368 L216 368 C224 424 243 442 291 442 C343 442 367 413 367 350 L367 330 C235 329 196 325 152 306 C83 276 42 213 42 139 C42 44 108 -13 218 -13 C300 -13 340 8 380 72 L384 71 Z M372 243 C368 236 367 233 367 224 L367 205 C367 125 334 84 270 84 C222 84 190 112 190 155 C190 218 237 243 357 243 L372 243 Z " />
<glyph glyph-name="b" unicode="b" horiz-adv-x="629" d="M71 0 L210 0 L214 36 C215 44 215 50 215 53 C215 59 214 67 212 78 L216 79 C254 14 293 -8 368 -8 C505 -8 587 87 587 244 C587 421 504 525 363 525 C298 525 265 509 223 457 L220 459 C224 513 225 527 225 586 L225 736 L71 736 L71 0 Z M323 428 C394 428 431 365 431 242 C431 146 395 92 332 92 C257 92 217 152 217 266 C217 369 255 428 323 428 L323 428 Z " />
<glyph glyph-name="c" unicode="c" horiz-adv-x="550" d="M367 187 C362 118 340 90 290 90 C227 90 201 140 201 260 C201 375 231 433 290 433 C337 433 360 405 367 338 L516 338 C509 467 436 533 300 533 C139 533 42 431 42 262 C42 82 132 -16 296 -16 C438 -16 512 52 516 187 L367 187 Z " />
<glyph glyph-name="d" unicode="d" horiz-adv-x="632" d="M307 428 C377 428 414 370 414 259 C414 152 373 92 299 92 C232 92 198 147 198 256 C198 365 238 428 307 428 L307 428 Z M420 84 C418 71 417 63 417 56 C417 51 417 45 418 39 L421 0 L565 0 C561 21 559 45 559 86 L559 736 L406 736 L406 588 C406 528 407 514 411 459 L408 457 C368 508 334 525 269 525 C126 525 43 423 43 249 C43 85 123 -8 263 -8 C339 -8 387 22 415 85 L420 84 Z " />
<glyph glyph-name="e" unicode="e" horiz-adv-x="580" d="M385 156 C374 107 342 81 295 81 C228 81 199 124 194 228 C205 224 208 223 221 223 L539 223 C538 323 533 362 517 401 C483 486 405 533 296 533 C137 533 42 428 42 252 C42 73 125 -16 293 -16 C440 -16 522 45 526 156 L385 156 Z M226 320 C212 320 209 319 198 315 C202 396 235 439 295 439 C352 439 378 404 383 315 C367 319 363 320 344 320 L226 320 Z " />
<glyph glyph-name="f" unicode="f" horiz-adv-x="371" d="M24 417 L79 417 C91 417 94 417 105 421 C101 410 101 407 101 395 L101 0 L254 0 L254 395 C254 407 254 410 250 421 C261 417 264 417 276 417 L346 417 L346 517 L276 517 C264 517 261 517 250 513 C254 524 254 527 254 539 L254 565 C254 623 275 646 328 646 C333 646 346 645 356 644 L356 749 C328 751 315 751 289 751 C148 751 101 713 101 601 L101 539 C101 527 101 524 105 513 C94 517 91 517 79 517 L24 517 L24 417 Z " />
<glyph glyph-name="g" unicode="g" horiz-adv-x="616" d="M396 88 C391 70 390 62 390 48 L390 13 C390 -69 363 -103 297 -103 C250 -103 221 -79 213 -33 L62 -33 C66 -80 72 -102 90 -124 C128 -174 194 -197 300 -197 C460 -197 543 -132 543 -6 L543 430 C543 450 544 469 548 517 L411 517 L408 479 C407 472 407 465 407 464 C407 456 408 449 410 435 L406 434 C371 499 333 523 260 523 C127 523 41 424 41 269 C41 111 125 12 260 12 C327 12 359 31 391 89 L396 88 Z M295 420 C361 420 394 372 394 278 C394 166 364 117 296 117 C227 117 196 165 196 275 C196 367 232 420 295 420 L295 420 Z " />
<glyph glyph-name="h" unicode="h" horiz-adv-x="624" d="M73 0 L226 0 L226 304 C226 376 262 421 320 421 C376 421 403 386 403 314 L403 0 L556 0 L556 324 C556 457 490 530 369 530 C301 530 265 509 225 447 L221 448 C225 511 226 528 226 595 L226 736 L73 736 L73 0 Z " />
<glyph glyph-name="i" unicode="i" horiz-adv-x="299" d="M66 606 L232 606 L232 736 L66 736 L66 606 Z M72 0 L225 0 L225 517 L72 517 L72 0 Z " />
<glyph glyph-name="j" unicode="j" horiz-adv-x="299" d="M73 517 L73 -12 C73 -70 60 -87 6 -97 L6 -199 C27 -200 48 -201 61 -201 C176 -201 226 -152 226 -37 L226 517 L73 517 Z M67 606 L231 606 L231 736 L67 736 L67 606 Z " />
<glyph glyph-name="k" unicode="k" horiz-adv-x="560" d="M73 0 L226 0 L226 136 C226 202 226 217 222 278 L226 279 C258 217 265 204 304 136 L382 0 L558 0 L372 293 L546 517 L374 517 L300 411 C265 361 256 347 226 297 L222 299 C226 364 226 380 226 451 L226 736 L73 736 L73 0 Z " />
<glyph glyph-name="l" unicode="l" horiz-adv-x="302" d="M74 0 L227 0 L227 736 L74 736 L74 0 Z " />
<glyph glyph-name="m" unicode="m" horiz-adv-x="946" d="M224 0 L224 317 C224 381 257 421 312 421 C369 421 398 385 398 316 L398 0 L551 0 L551 317 C551 378 588 423 640 423 C694 423 725 385 725 319 L725 0 L878 0 L878 332 C878 455 808 530 694 530 C619 530 569 499 536 433 L533 433 C501 501 455 530 377 530 C298 530 253 505 213 439 L209 440 C211 451 212 459 212 465 C212 467 212 473 211 481 L208 517 L65 517 C69 495 71 472 71 430 L71 0 L224 0 Z " />
<glyph glyph-name="n" unicode="n" horiz-adv-x="624" d="M555 0 L555 328 C555 383 547 420 529 449 C498 500 438 530 368 530 C295 530 257 506 212 433 L208 434 C210 447 211 454 211 463 L211 478 L208 517 L67 517 C72 492 72 489 72 456 L73 430 L73 0 L226 0 L226 304 C226 376 262 421 320 421 C373 421 402 387 402 326 L402 0 L555 0 Z " />
<glyph glyph-name="o" unicode="o" horiz-adv-x="614" d="M308 533 C137 533 41 433 41 256 C41 83 139 -16 310 -16 C473 -16 572 86 572 253 C572 435 479 533 308 533 L308 533 Z M306 428 C379 428 416 371 416 261 C416 146 380 89 307 89 C233 89 197 145 197 259 C197 372 233 428 306 428 L306 428 Z " />
<glyph glyph-name="p" unicode="p" horiz-adv-x="627" d="M68 517 L72 474 C73 455 74 440 74 431 L74 -199 L227 -199 L227 -62 C227 -5 227 7 222 58 L225 59 C277 5 303 -8 365 -8 C504 -8 587 95 587 266 C587 431 509 525 372 525 C295 525 247 496 219 432 L214 433 C216 447 217 454 217 461 C217 464 217 471 216 478 L212 517 L68 517 Z M332 425 C397 425 431 371 431 266 C431 152 394 89 327 89 C256 89 219 147 219 259 C219 364 261 425 332 425 L332 425 Z " />
<glyph glyph-name="q" unicode="q" horiz-adv-x="632" d="M409 58 C405 5 404 -8 404 -65 L404 -199 L557 -199 L557 517 L419 517 L415 478 C415 471 414 464 414 461 C414 454 415 447 417 433 L412 432 C384 495 336 525 262 525 C121 525 42 432 42 267 C42 95 126 -8 266 -8 C326 -8 361 9 406 59 L409 58 Z M299 425 C372 425 412 363 412 251 C412 149 374 89 308 89 C236 89 198 150 198 264 C198 371 232 425 299 425 L299 425 Z " />
<glyph glyph-name="r" unicode="r" horiz-adv-x="409" d="M69 517 C70 498 70 483 71 474 C72 451 73 436 73 430 L73 0 L226 0 L226 286 C226 350 275 387 361 387 C363 387 376 387 385 386 L385 520 C279 519 238 491 211 401 L206 402 C209 427 211 447 211 460 L211 470 L209 517 L69 517 Z " />
<glyph glyph-name="s" unicode="s" horiz-adv-x="524" d="M34 151 C39 44 116 -16 250 -16 C388 -16 485 58 485 164 C485 233 447 280 372 302 L233 343 C206 351 193 366 193 388 C193 418 219 439 257 439 C298 439 315 423 323 379 L466 379 C461 480 392 533 268 533 C131 533 44 469 44 367 C44 301 82 253 149 233 L287 192 C320 182 336 166 336 143 C336 108 304 82 259 82 C209 82 188 100 180 151 L34 151 Z " />
<glyph glyph-name="t" unicode="t" horiz-adv-x="422" d="M17 417 L95 417 C107 417 110 417 121 421 C117 410 117 407 117 395 L117 116 C117 33 168 -8 270 -8 C323 -8 349 -5 390 8 L390 103 C363 101 353 101 345 101 C294 101 270 123 270 172 L270 395 C270 407 270 410 266 421 C277 417 280 417 292 417 L390 417 L390 517 L292 517 C280 517 277 517 266 513 C270 524 270 527 270 539 L270 678 L117 622 L117 539 C117 527 117 524 121 513 C110 517 107 517 95 517 L17 517 L17 417 Z " />
<glyph glyph-name="u" unicode="u" horiz-adv-x="624" d="M67 517 L67 189 C67 134 75 97 93 68 C124 17 184 -13 255 -13 C328 -13 366 11 411 84 L415 83 C413 70 412 61 412 55 L412 39 L415 0 L556 0 C551 25 551 28 551 61 L550 87 L550 517 L397 517 L397 213 C397 141 361 96 302 96 C249 96 220 130 220 191 L220 517 L67 517 Z " />
<glyph glyph-name="v" unicode="v" horiz-adv-x="547" d="M1 517 L193 0 L364 0 L546 517 L397 517 L341 339 C313 249 307 230 287 148 L283 148 C262 231 256 249 227 339 L170 517 L1 517 Z " />
<glyph glyph-name="w" unicode="w" horiz-adv-x="882" d="M1 517 L165 0 L333 0 L385 191 C410 286 415 308 433 397 L438 397 C456 309 460 289 487 191 L538 0 L704 0 L881 517 L730 517 L681 320 C657 222 652 198 635 106 L630 106 C612 199 606 224 580 320 L528 517 L362 517 L309 320 C283 223 278 198 259 105 L254 106 C238 198 233 221 209 320 L162 517 L1 517 Z " />
<glyph glyph-name="x" unicode="x" horiz-adv-x="545" d="M1 0 L163 0 L215 95 C239 140 245 152 264 196 L267 196 C286 152 290 142 314 95 L363 0 L544 0 L370 268 L534 517 L376 517 L330 433 C307 391 302 382 285 343 L282 343 C265 382 260 392 239 433 L194 517 L15 517 L174 276 L1 0 Z " />
<glyph glyph-name="y" unicode="y" horiz-adv-x="552" d="M1 517 L209 -1 L126 -197 L293 -197 L551 517 L392 517 L339 339 C312 250 306 230 287 147 L283 147 C263 230 258 250 231 339 L177 517 L1 517 Z " />
<glyph glyph-name="z" unicode="z" horiz-adv-x="509" d="M37 0 L472 0 L472 100 L336 100 C269 100 255 99 194 95 L193 98 C246 150 260 165 313 223 L459 384 L459 517 L45 517 L45 417 L171 417 C234 417 248 418 304 422 L306 419 C253 367 241 355 185 294 L37 131 L37 0 Z " />
<glyph glyph-name="braceleft" unicode="&#x7b;" horiz-adv-x="355" d="M313 -156 L313 -55 L304 -55 C253 -55 236 -36 236 23 L236 160 C236 231 212 266 144 290 C210 312 236 348 236 420 L236 557 C236 617 251 634 306 635 L313 635 L313 736 L246 736 C154 736 115 687 115 573 L115 428 C115 376 98 353 53 343 L53 237 C98 227 115 204 115 152 L115 7 C115 -107 154 -156 246 -156 L313 -156 Z " />
<glyph glyph-name="bar" unicode="&#x7c;" horiz-adv-x="253" d="M83 736 L83 -221 L170 -221 L170 736 L83 736 Z " />
<glyph glyph-name="braceright" unicode="&#x7d;" horiz-adv-x="355" d="M43 -156 L109 -156 C201 -156 240 -107 240 7 L240 152 C240 204 257 226 303 237 L303 343 C257 354 240 376 240 428 L240 573 C240 687 201 736 109 736 L43 736 L43 635 L50 635 L53 635 C104 633 119 616 119 557 L119 420 C119 348 145 312 212 290 C143 266 119 231 119 160 L119 23 C119 -36 102 -55 52 -55 L43 -55 L43 -156 Z " />
<glyph glyph-name="asciitilde" unicode="&#x7e;" horiz-adv-x="591" d="M97 296 C132 347 155 363 191 363 C211 363 245 351 279 331 L336 298 C353 288 384 280 405 280 C459 280 506 313 550 381 L495 441 C458 388 438 374 397 374 C387 374 371 377 356 383 C341 388 344 386 283 420 C235 446 208 456 179 456 C130 456 86 425 41 356 L97 296 Z " />
<glyph glyph-name="exclamdown" unicode="&#xa1;" horiz-adv-x="279" d="M60 -220 L198 -220 L183 315 L80 315 L60 -220 Z M65 381 L195 381 L195 517 L65 517 L65 381 Z " />
<glyph glyph-name="cent" unicode="&#xa2;" horiz-adv-x="552" d="M260 -107 L314 -107 L314 -15 C386 -10 434 9 471 50 C503 84 514 116 516 187 L368 187 C363 122 350 102 309 91 C314 126 314 133 314 173 L314 325 C314 377 314 386 309 431 C351 414 362 395 368 338 L516 338 C514 458 446 523 314 532 L314 611 L260 611 L260 529 C118 514 42 420 42 261 C42 95 117 1 260 -14 L260 -107 Z M260 209 C260 152 260 142 265 93 C215 116 200 156 200 263 C200 367 216 407 265 430 C260 380 260 370 260 314 L260 209 Z " />
<glyph glyph-name="sterling" unicode="&#xa3;" horiz-adv-x="619" d="M27 0 L584 0 L584 115 L297 115 C286 115 282 115 271 111 C275 122 275 125 275 137 L275 338 C275 350 275 353 271 364 C282 360 285 360 297 360 L423 360 L423 465 L297 465 C285 465 282 465 271 461 C275 472 275 475 275 487 L275 551 C275 626 308 668 366 668 C419 668 448 633 451 565 L610 565 C601 697 519 765 372 765 C259 765 200 742 155 681 C128 646 114 599 114 549 L114 487 C114 475 114 472 118 461 C107 465 104 465 92 465 L27 465 L27 360 L92 360 C104 360 107 360 118 364 C114 353 114 350 114 338 L114 137 C114 125 114 122 118 111 C107 115 103 115 92 115 L27 115 L27 0 Z " />
<glyph glyph-name="currency" unicode="&#xa4;" horiz-adv-x="591" d="M401 542 C363 563 334 571 296 571 C258 571 228 563 190 542 L112 620 L44 552 L122 473 C101 436 93 406 93 368 C93 330 101 300 122 263 L44 185 L112 117 L190 195 C227 173 257 165 296 165 C334 165 364 173 401 195 L479 117 L547 185 L469 263 C490 300 498 329 498 368 C498 407 490 437 469 473 L547 552 L479 620 L401 542 Z M295 484 C359 484 411 432 411 368 C411 304 359 252 295 252 C231 252 180 303 180 368 C180 432 232 484 295 484 L295 484 Z " />
<glyph glyph-name="yen" unicode="&#xa5;" horiz-adv-x="688" d="M620 423 L547 423 C510 423 503 423 470 419 L469 421 C504 469 513 481 548 534 L680 736 L571 736 L399 470 C372 427 366 418 344 379 C322 418 318 425 289 470 L120 736 L8 736 L140 534 C175 480 183 468 218 421 L217 419 C184 423 177 423 140 423 L67 423 L67 374 L242 374 L268 335 C281 315 285 310 300 293 L298 291 C248 295 235 295 181 295 L67 295 L67 246 L272 246 C284 246 287 246 298 250 C294 239 294 236 294 224 L294 0 L392 0 L392 224 C392 236 392 239 388 250 C399 246 402 246 414 246 L620 246 L620 295 L506 295 C451 295 438 295 388 291 L386 293 C401 310 405 315 418 335 L445 374 L620 374 L620 423 Z " />
<glyph glyph-name="brokenbar" unicode="&#xa6;" horiz-adv-x="253" d="M83 736 L83 368 L170 368 L170 736 L83 736 Z M83 147 L83 -221 L170 -221 L170 147 L83 147 Z " />
<glyph glyph-name="section" unicode="&#xa7;" horiz-adv-x="488" d="M59 13 C134 -10 180 -17 242 -17 C367 -17 446 45 446 143 C446 197 422 230 361 262 L361 264 C423 301 446 335 446 391 C446 456 410 502 340 526 L251 557 C220 568 202 585 202 606 C202 632 227 649 263 649 C307 649 342 640 398 614 L417 606 L417 715 L398 722 C342 741 307 747 260 747 C131 747 56 695 56 605 C56 547 78 517 138 490 L138 487 C77 468 41 420 41 358 C41 283 80 243 192 204 C285 172 297 164 297 135 C297 106 261 83 215 83 C170 83 132 93 59 123 L59 13 Z M236 450 C293 438 315 418 315 381 C315 340 295 319 244 302 C190 319 166 341 166 375 C166 412 192 440 236 450 L236 450 Z " />
<glyph glyph-name="dieresis" unicode="&#xa8;" d="M-157 606 L-29 606 L-29 726 L-157 726 L-157 606 Z M30 606 L158 606 L158 726 L30 726 L30 606 Z " />
<glyph glyph-name="copyright" unicode="&#xa9;" horiz-adv-x="862" d="M437 751 C217 751 44 582 44 368 C44 157 217 -15 431 -15 C644 -15 817 157 817 368 C817 576 644 751 437 751 L437 751 Z M436 696 C609 696 754 547 754 368 C754 187 609 40 431 40 C252 40 107 187 107 368 C107 552 252 696 436 696 L436 696 Z M506 297 C500 241 481 220 438 220 C379 220 350 266 350 363 C350 460 383 517 440 517 C481 517 500 496 509 441 L609 441 C604 540 551 588 445 588 C314 588 241 503 241 350 C241 220 311 149 440 149 C547 149 608 203 610 297 L506 297 Z " />
<glyph glyph-name="ordfeminine" unicode="&#xaa;" horiz-adv-x="399" d="M254 356 C253 348 252 343 252 339 L252 333 L254 317 L345 317 L344 321 C341 346 339 360 339 369 L339 525 C339 600 293 637 198 637 C106 637 63 607 58 538 L58 534 L156 534 C161 567 171 577 200 577 C229 577 242 562 242 527 L242 519 C164 518 141 516 112 504 C69 487 42 448 42 403 C42 344 84 309 154 309 C210 309 247 327 251 357 L254 356 Z M242 442 C242 397 224 374 186 374 C159 374 141 389 141 412 C141 448 169 460 247 460 C243 457 242 456 242 451 L242 442 Z " />
<glyph glyph-name="guillemotleft" unicode="&#xab;" horiz-adv-x="563" d="M43 267 L153 68 L291 68 L194 267 L291 464 L153 464 L43 267 Z M272 267 L379 68 L518 68 L422 267 L521 464 L381 464 L272 267 Z " />
<glyph glyph-name="logicalnot" unicode="&#xac;" horiz-adv-x="591" d="M54 521 L54 429 L416 429 C428 429 431 429 442 433 C438 422 438 419 438 407 L438 216 L536 216 L536 521 L54 521 Z " />
<glyph glyph-name="registered" unicode="&#xae;" horiz-adv-x="862" d="M437 751 C217 751 44 582 44 368 C44 157 217 -15 431 -15 C644 -15 817 157 817 368 C817 576 644 751 437 751 L437 751 Z M436 696 C609 696 754 547 754 368 C754 187 609 40 431 40 C252 40 107 187 107 368 C107 552 252 696 436 696 L436 696 Z M270 158 L370 158 L370 301 C370 312 370 316 366 327 C377 323 380 323 392 323 L451 323 C482 323 494 302 498 240 C499 216 502 198 511 158 L621 158 L616 171 C605 200 602 216 593 280 C587 334 572 353 531 364 L530 367 C586 389 608 416 608 464 C608 535 556 578 470 578 L270 578 L270 158 Z M370 483 C370 494 370 498 366 509 C377 505 380 505 392 505 L447 505 C484 505 502 488 502 453 C502 418 483 399 447 399 L392 399 C380 399 377 399 366 395 C370 406 370 410 370 421 L370 483 Z " />
<glyph glyph-name="macron" unicode="&#xaf;" d="M-141 627 L140 627 L140 716 L-141 716 L-141 627 Z " />
<glyph glyph-name="degree" unicode="&#xb0;" horiz-adv-x="399" d="M199 743 C113 743 44 674 44 590 C44 505 113 437 199 437 C285 437 354 506 354 590 C354 674 285 743 199 743 L199 743 Z M199 686 C253 686 297 643 297 589 C297 536 253 493 199 493 C145 493 101 536 101 589 C101 643 145 686 199 686 L199 686 Z " />
<glyph glyph-name="plusminus" unicode="&#xb1;" horiz-adv-x="591" d="M57 492 L57 400 L225 400 C237 400 240 400 251 404 C247 393 247 390 247 378 L247 232 L345 232 L345 378 C345 389 345 393 341 404 C352 400 355 400 367 400 L535 400 L535 492 L367 492 C355 492 352 492 341 488 C345 499 345 503 345 514 L345 662 L247 662 L247 514 C247 502 247 499 251 488 C240 492 237 492 225 492 L57 492 Z M57 156 L57 64 L535 64 L535 156 L57 156 Z " />
<glyph glyph-name="twosuperior" unicode="&#xb2;" horiz-adv-x="414" d="M49 294 L361 294 L361 368 L261 368 C212 368 198 367 151 361 L150 365 C324 498 360 539 360 609 C360 682 302 726 209 726 C108 726 58 684 57 599 L57 595 L160 595 C163 637 178 654 211 654 C239 654 257 638 257 612 C257 585 239 556 198 518 C143 467 80 410 50 384 L49 383 L49 294 Z " />
<glyph glyph-name="threesuperior" unicode="&#xb3;" horiz-adv-x="414" d="M49 405 C49 317 97 275 197 275 C292 275 358 326 358 400 C358 447 334 477 275 500 L275 503 C332 522 355 549 355 596 C355 666 293 714 203 714 C154 714 111 698 83 669 C65 650 58 631 55 589 L156 589 C162 626 176 641 209 641 C237 641 256 622 256 594 C256 558 227 537 178 537 L148 537 L148 458 L183 458 C229 458 256 437 256 403 C256 371 235 350 203 350 C170 350 158 363 150 405 L49 405 Z " />
<glyph glyph-name="acute" unicode="&#xb4;" d="M-85 588 L30 588 L169 744 L2 744 L-85 588 Z " />
<glyph glyph-name="mu" unicode="&#xb5;" horiz-adv-x="624" d="M542 531 L451 531 L451 245 C451 131 395 61 303 61 C249 61 206 85 187 126 C175 150 172 171 172 228 L172 531 L81 531 L81 -81 C81 -119 79 -147 72 -198 C71 -203 70 -211 69 -221 L159 -221 C163 -184 165 -158 165 -136 L165 -41 C165 6 164 18 158 63 L162 64 C166 60 169 56 170 54 C207 7 245 -14 294 -14 C373 -14 422 26 458 122 L464 121 C457 85 455 69 455 51 L455 0 L542 0 L542 531 Z " />
<glyph glyph-name="paragraph" unicode="&#xb6;" horiz-adv-x="629" d="M263 -221 L327 -221 L327 639 C327 651 327 654 323 665 C334 661 337 661 349 661 L404 661 C415 661 419 661 430 665 C426 654 426 651 426 639 L426 -221 L490 -221 L490 639 C490 650 490 654 486 665 C497 661 500 661 512 661 L605 661 L605 736 L286 736 C122 736 38 673 38 548 C38 443 121 364 230 364 C237 364 251 365 267 368 C263 357 263 353 263 341 L263 -221 Z " />
<glyph glyph-name="periodcentered" unicode="&#xb7;" horiz-adv-x="591" d="M296 450 C251 450 214 413 214 368 C214 324 251 287 296 287 C340 287 377 324 377 368 C377 414 341 450 296 450 L296 450 Z " />
<glyph glyph-name="periodcentered" unicode="&#xb7;" horiz-adv-x="591" d="M296 450 C251 450 214 413 214 368 C214 324 251 287 296 287 C340 287 377 324 377 368 C377 414 341 450 296 450 L296 450 Z " />
<glyph glyph-name="cedilla" unicode="&#xb8;" d="M-118 -194 C-88 -212 -56 -219 -11 -219 C71 -219 119 -186 119 -129 C119 -83 84 -50 34 -50 C26 -50 12 -52 -3 -54 L-4 -52 C9 -39 13 -35 23 -19 L43 13 L-11 13 L-75 -82 L-57 -105 C-36 -101 -27 -100 -17 -100 C11 -100 28 -113 28 -132 C28 -153 10 -167 -17 -167 C-42 -167 -65 -162 -96 -148 L-118 -194 Z " />
<glyph glyph-name="onesuperior" unicode="&#xb9;" horiz-adv-x="338" d="M43 556 C91 572 108 581 146 609 L149 608 C144 548 144 534 144 469 L144 284 L247 284 L247 711 L156 711 C152 711 142 704 130 693 C125 689 117 684 105 677 L73 660 C69 657 58 653 43 646 L43 556 Z " />
<glyph glyph-name="ordmasculine" unicode="&#xba;" horiz-adv-x="417" d="M209 638 C102 638 41 578 41 471 C41 368 103 307 207 307 C313 307 375 367 375 469 C375 578 316 638 209 638 L209 638 Z M208 569 C250 569 272 537 272 474 C272 409 251 376 208 376 C165 376 144 407 144 473 C144 537 165 569 208 569 L208 569 Z " />
<glyph glyph-name="guillemotright" unicode="&#xbb;" horiz-adv-x="563" d="M44 464 L141 267 L45 67 L185 67 L292 267 L182 464 L44 464 Z M274 464 L370 267 L273 67 L411 67 L521 267 L411 464 L274 464 Z " />
<glyph glyph-name="onequarter" unicode="&#xbc;" horiz-adv-x="872" d="M43 556 C91 572 108 581 146 609 L149 608 C144 548 144 534 144 469 L144 284 L247 284 L247 711 L156 711 C152 711 142 704 130 693 C125 689 117 684 105 677 L73 660 C69 657 58 653 43 646 L43 556 Z M567 711 L208 0 L290 0 L649 711 L567 711 Z M501 89 L658 89 C670 89 673 89 684 93 C680 82 680 79 680 67 L680 0 L772 0 L772 67 C772 78 772 82 768 93 C779 89 782 89 794 89 L829 89 L829 166 L794 166 C782 166 779 166 768 162 C772 173 772 177 772 188 L772 427 L671 427 L501 176 L501 89 Z M686 337 C681 296 680 284 680 243 L680 185 C680 174 680 170 684 159 C673 162 669 163 658 163 L629 163 C603 163 597 163 573 159 L572 161 C629 238 646 265 682 338 L686 337 Z " />
<glyph glyph-name="onehalf" unicode="&#xbd;" horiz-adv-x="918" d="M43 556 C91 572 108 581 146 609 L149 608 C144 548 144 534 144 469 L144 284 L247 284 L247 711 L156 711 C152 711 142 704 130 693 C125 689 117 684 105 677 L73 660 C69 657 58 653 43 646 L43 556 Z M567 711 L208 0 L289 0 L649 711 L567 711 Z M553 0 L866 0 L866 74 L765 74 C715 74 703 73 657 67 L655 71 C813 187 864 246 864 314 C864 389 809 432 714 432 C610 432 561 389 561 300 L664 300 C668 343 682 360 715 360 C745 360 761 344 761 316 C761 291 742 260 702 224 C659 184 609 139 553 88 L553 0 Z " />
<glyph glyph-name="threequarters" unicode="&#xbe;" horiz-adv-x="949" d="M49 405 C49 317 97 275 197 275 C292 275 358 326 358 400 C358 447 334 477 275 500 L275 503 C332 522 355 549 355 596 C355 666 293 714 203 714 C154 714 111 698 83 669 C65 650 58 631 55 589 L156 589 C162 626 176 641 209 641 C237 641 256 622 256 594 C256 558 227 537 178 537 L148 537 L148 458 L183 458 C229 458 256 437 256 403 C256 371 235 350 203 350 C170 350 158 363 150 405 L49 405 Z M635 711 L276 0 L358 0 L717 711 L635 711 Z M568 89 L725 89 C737 89 740 89 751 93 C747 82 747 79 747 67 L747 0 L839 0 L839 67 C839 79 839 82 835 93 C846 89 849 89 861 89 L896 89 L896 166 L861 166 C849 166 846 166 835 162 C839 173 839 176 839 188 L839 427 L738 427 L568 176 L568 89 Z M753 337 C748 296 747 284 747 243 L747 185 C747 174 747 170 751 159 C740 162 736 163 725 163 L696 163 C670 163 664 163 640 159 L639 161 C696 238 713 265 749 338 L753 337 Z " />
<glyph glyph-name="questiondown" unicode="&#xbf;" horiz-adv-x="501" d="M457 -109 C383 -128 357 -132 319 -132 C250 -132 201 -90 201 -31 C201 4 223 49 262 94 L309 147 C345 189 360 219 360 251 L360 352 L242 352 L242 270 C242 230 230 210 178 168 C76 84 42 30 42 -46 C42 -163 142 -235 305 -235 C357 -235 397 -229 457 -214 L457 -109 Z M239 394 L364 394 L364 517 L239 517 L239 394 Z " />
<glyph glyph-name="Agrave" unicode="&#xc0;" horiz-adv-x="708" d="M209 159 L498 159 L544 0 L708 0 L457 736 L265 736 L1 0 L160 0 L209 159 Z M331 282 C294 282 285 282 250 279 C263 310 266 317 278 354 L307 447 C333 529 339 548 357 625 L362 625 C379 548 384 530 408 447 L436 350 C447 316 449 309 461 279 C429 282 420 282 385 282 L331 282 Z M193 928 L331 772 L446 772 L362 928 L193 928 Z " />
<glyph glyph-name="Aacute" unicode="&#xc1;" horiz-adv-x="708" d="M209 159 L498 159 L544 0 L708 0 L457 736 L265 736 L1 0 L160 0 L209 159 Z M331 282 C294 282 285 282 250 279 C263 310 266 317 278 354 L307 447 C333 529 339 548 357 625 L362 625 C379 548 384 530 408 447 L436 350 C447 316 449 309 461 279 C429 282 420 282 385 282 L331 282 Z M277 772 L392 772 L531 928 L364 928 L277 772 Z " />
<glyph glyph-name="Acircumflex" unicode="&#xc2;" horiz-adv-x="708" d="M209 159 L498 159 L544 0 L708 0 L457 736 L265 736 L1 0 L160 0 L209 159 Z M331 282 C294 282 285 282 250 279 C263 310 266 317 278 354 L307 447 C333 529 339 548 357 625 L362 625 C379 548 384 530 408 447 L436 350 C447 316 449 309 461 279 C429 282 420 282 385 282 L331 282 Z M191 770 L312 770 L338 809 C351 829 354 834 364 854 C372 834 374 831 387 809 L410 770 L532 770 L430 926 L295 926 L191 770 Z " />
<glyph glyph-name="Atilde" unicode="&#xc3;" horiz-adv-x="708" d="M209 159 L498 159 L544 0 L708 0 L457 736 L265 736 L1 0 L160 0 L209 159 Z M331 282 C294 282 285 282 250 279 C263 310 266 317 278 354 L307 447 C333 529 339 548 357 625 L362 625 C379 548 384 530 408 447 L436 350 C447 316 449 309 461 279 C429 282 420 282 385 282 L331 282 Z M259 782 C266 806 278 819 293 819 C300 819 311 815 339 803 C381 784 414 774 436 774 C496 774 533 824 537 910 L466 910 C459 883 452 875 434 875 C428 875 421 877 402 884 L351 903 C327 913 317 915 299 915 C239 915 195 863 187 782 L259 782 Z " />
<glyph glyph-name="Adieresis" unicode="&#xc4;" horiz-adv-x="708" d="M209 159 L498 159 L544 0 L708 0 L457 736 L265 736 L1 0 L160 0 L209 159 Z M331 282 C294 282 285 282 250 279 C263 310 266 317 278 354 L307 447 C333 529 339 548 357 625 L362 625 C379 548 384 530 408 447 L436 350 C447 316 449 309 461 279 C429 282 420 282 385 282 L331 282 Z M205 790 L333 790 L333 910 L205 910 L205 790 Z M392 790 L520 790 L520 910 L392 910 L392 790 Z " />
<glyph glyph-name="Aring" unicode="&#xc5;" horiz-adv-x="708" d="M209 159 L498 159 L544 0 L708 0 L457 736 L265 736 L1 0 L160 0 L209 159 Z M331 282 C294 282 285 282 250 279 C263 310 266 317 278 354 L307 447 C333 529 339 548 357 625 L362 625 C379 548 384 530 408 447 L436 350 C447 316 449 309 461 279 C429 282 420 282 385 282 L331 282 Z M362 944 C307 944 263 900 263 845 C263 790 307 746 362 746 C417 746 461 790 461 845 C461 900 417 944 362 944 L362 944 Z M362 885 C384 885 402 867 402 845 C402 823 384 805 362 805 C340 805 322 823 322 845 C322 867 340 885 362 885 L362 885 Z " />
<glyph glyph-name="AE" unicode="&#xc6;" horiz-adv-x="985" d="M-1 0 L161 0 L235 156 L516 156 L539 0 L943 0 L943 120 L675 120 L648 273 C644 297 643 302 636 323 C658 320 663 320 687 320 L915 320 L915 440 L618 440 L596 569 C591 594 590 599 584 619 C605 616 610 616 635 616 L935 616 L935 736 L370 736 L-1 0 Z M395 274 C344 274 334 274 289 271 C310 312 316 323 336 367 L373 446 C412 533 421 552 452 633 L457 633 C462 553 464 534 476 446 L495 314 C498 293 499 289 505 271 C486 274 480 274 460 274 L395 274 Z " />
<glyph glyph-name="Ccedilla" unicode="&#xc7;" horiz-adv-x="683" d="M266 -82 L284 -105 C305 -101 314 -100 324 -100 C352 -100 369 -113 369 -132 C369 -153 351 -167 324 -167 C299 -167 277 -162 244 -148 L223 -194 C253 -212 285 -219 330 -219 C412 -219 460 -186 460 -129 C460 -83 424 -50 375 -50 C367 -50 353 -52 338 -54 L336 -52 C350 -39 353 -35 365 -17 C547 -16 648 73 652 235 L487 235 C478 138 442 97 368 97 C268 97 216 185 216 352 C216 537 271 639 372 639 C442 639 477 600 491 505 L650 505 C646 581 635 618 602 661 C556 720 481 752 385 752 C168 752 44 604 44 347 C44 128 130 12 313 -13 L266 -82 Z " />
<glyph glyph-name="Egrave" unicode="&#xc8;" horiz-adv-x="616" d="M81 0 L580 0 L580 120 L262 120 C250 120 247 120 236 116 C240 127 240 130 240 142 L240 298 C240 310 240 313 236 324 C247 320 250 320 262 320 L546 320 L546 440 L262 440 C250 440 247 440 236 436 C240 447 240 450 240 462 L240 594 C240 606 240 609 236 620 C247 616 250 616 262 616 L567 616 L567 736 L81 736 L81 0 Z M140 928 L278 772 L393 772 L309 928 L140 928 Z " />
<glyph glyph-name="Eacute" unicode="&#xc9;" horiz-adv-x="616" d="M81 0 L580 0 L580 120 L262 120 C250 120 247 120 236 116 C240 127 240 130 240 142 L240 298 C240 310 240 313 236 324 C247 320 250 320 262 320 L546 320 L546 440 L262 440 C250 440 247 440 236 436 C240 447 240 450 240 462 L240 594 C240 606 240 609 236 620 C247 616 250 616 262 616 L567 616 L567 736 L81 736 L81 0 Z M224 772 L339 772 L478 928 L311 928 L224 772 Z " />
<glyph glyph-name="Ecircumflex" unicode="&#xca;" horiz-adv-x="616" d="M81 0 L580 0 L580 120 L262 120 C250 120 247 120 236 116 C240 127 240 130 240 142 L240 298 C240 310 240 313 236 324 C247 320 250 320 262 320 L546 320 L546 440 L262 440 C250 440 247 440 236 436 C240 447 240 450 240 462 L240 594 C240 606 240 609 236 620 C247 616 250 616 262 616 L567 616 L567 736 L81 736 L81 0 Z M138 770 L259 770 L285 809 C298 829 301 834 311 854 C319 834 321 831 334 809 L357 770 L479 770 L377 926 L242 926 L138 770 Z " />
<glyph glyph-name="Edieresis" unicode="&#xcb;" horiz-adv-x="616" d="M81 0 L580 0 L580 120 L262 120 C250 120 247 120 236 116 C240 127 240 130 240 142 L240 298 C240 310 240 313 236 324 C247 320 250 320 262 320 L546 320 L546 440 L262 440 C250 440 247 440 236 436 C240 447 240 450 240 462 L240 594 C240 606 240 609 236 620 C247 616 250 616 262 616 L567 616 L567 736 L81 736 L81 0 Z M152 790 L280 790 L280 910 L152 910 L152 790 Z M339 790 L467 790 L467 910 L339 910 L339 790 Z " />
<glyph glyph-name="Igrave" unicode="&#xcc;" horiz-adv-x="320" d="M81 0 L240 0 L240 736 L81 736 L81 0 Z M-9 928 L129 772 L244 772 L160 928 L-9 928 Z " />
<glyph glyph-name="Iacute" unicode="&#xcd;" horiz-adv-x="320" d="M81 0 L240 0 L240 736 L81 736 L81 0 Z M75 772 L190 772 L329 928 L162 928 L75 772 Z " />
<glyph glyph-name="Icircumflex" unicode="&#xce;" horiz-adv-x="320" d="M81 0 L240 0 L240 736 L81 736 L81 0 Z M-11 770 L110 770 L136 809 C149 829 152 834 162 854 C170 834 172 831 185 809 L208 770 L330 770 L228 926 L93 926 L-11 770 Z " />
<glyph glyph-name="Idieresis" unicode="&#xcf;" horiz-adv-x="320" d="M81 0 L240 0 L240 736 L81 736 L81 0 Z M3 790 L131 790 L131 910 L3 910 L3 790 Z M190 790 L318 790 L318 910 L190 910 L190 790 Z " />
<glyph glyph-name="Eth" unicode="&#xd0;" horiz-adv-x="749" d="M16 402 L16 344 L64 344 C76 344 79 344 90 348 C86 337 86 334 86 322 L86 0 L354 0 C426 0 497 19 552 52 C652 112 703 217 703 362 C703 606 570 736 319 736 L86 736 L86 424 C86 412 86 409 90 398 C79 402 76 402 64 402 L16 402 Z M342 402 L267 402 C255 402 252 402 241 398 C245 409 245 412 245 424 L245 594 C245 606 245 609 241 620 C252 616 255 616 267 616 L332 616 C472 616 532 541 532 365 C532 193 471 120 328 120 L267 120 C255 120 252 120 241 116 C245 127 245 130 245 142 L245 322 C245 334 245 337 241 348 C252 344 255 344 267 344 L342 344 L342 402 Z " />
<glyph glyph-name="Ntilde" unicode="&#xd1;" horiz-adv-x="803" d="M81 0 L229 0 L229 300 C229 424 228 452 222 565 L227 566 C271 462 283 437 337 325 L496 0 L723 0 L723 736 L575 736 L575 408 C575 285 576 256 582 143 L577 142 C533 246 521 271 467 383 L296 736 L81 736 L81 0 Z M299 782 C306 806 318 819 333 819 C340 819 351 815 379 803 C421 784 454 774 476 774 C536 774 573 824 577 910 L506 910 C499 883 492 875 474 875 C468 875 461 877 442 884 L391 903 C367 913 357 915 339 915 C279 915 235 863 227 782 L299 782 Z " />
<glyph glyph-name="Ograve" unicode="&#xd2;" horiz-adv-x="790" d="M394 753 C171 753 44 615 44 372 C44 117 166 -16 400 -16 C503 -16 592 19 655 83 C715 145 746 239 746 363 C746 617 623 753 394 753 L394 753 Z M396 640 C515 640 576 547 576 367 C576 192 514 97 398 97 C277 97 214 188 214 364 C214 544 277 640 396 640 L396 640 Z M227 928 L365 772 L480 772 L396 928 L227 928 Z " />
<glyph glyph-name="Oacute" unicode="&#xd3;" horiz-adv-x="790" d="M394 753 C171 753 44 615 44 372 C44 117 166 -16 400 -16 C503 -16 592 19 655 83 C715 145 746 239 746 363 C746 617 623 753 394 753 L394 753 Z M396 640 C515 640 576 547 576 367 C576 192 514 97 398 97 C277 97 214 188 214 364 C214 544 277 640 396 640 L396 640 Z M311 772 L426 772 L565 928 L398 928 L311 772 Z " />
<glyph glyph-name="Ocircumflex" unicode="&#xd4;" horiz-adv-x="790" d="M394 753 C171 753 44 615 44 372 C44 117 166 -16 400 -16 C503 -16 592 19 655 83 C715 145 746 239 746 363 C746 617 623 753 394 753 L394 753 Z M396 640 C515 640 576 547 576 367 C576 192 514 97 398 97 C277 97 214 188 214 364 C214 544 277 640 396 640 L396 640 Z M225 770 L346 770 L372 809 C385 829 388 834 398 854 C406 834 408 831 421 809 L444 770 L566 770 L464 926 L329 926 L225 770 Z " />
<glyph glyph-name="Otilde" unicode="&#xd5;" horiz-adv-x="790" d="M394 753 C171 753 44 615 44 372 C44 117 166 -16 400 -16 C503 -16 592 19 655 83 C715 145 746 239 746 363 C746 617 623 753 394 753 L394 753 Z M396 640 C515 640 576 547 576 367 C576 192 514 97 398 97 C277 97 214 188 214 364 C214 544 277 640 396 640 L396 640 Z M293 782 C300 806 312 819 327 819 C334 819 345 815 373 803 C415 784 448 774 470 774 C530 774 567 824 571 910 L500 910 C493 883 486 875 468 875 C462 875 455 877 436 884 L385 903 C361 913 351 915 333 915 C273 915 229 863 221 782 L293 782 Z " />
<glyph glyph-name="Odieresis" unicode="&#xd6;" horiz-adv-x="790" d="M394 753 C171 753 44 615 44 372 C44 117 166 -16 400 -16 C503 -16 592 19 655 83 C715 145 746 239 746 363 C746 617 623 753 394 753 L394 753 Z M396 640 C515 640 576 547 576 367 C576 192 514 97 398 97 C277 97 214 188 214 364 C214 544 277 640 396 640 L396 640 Z M239 790 L367 790 L367 910 L239 910 L239 790 Z M426 790 L554 790 L554 910 L426 910 L426 790 Z " />
<glyph glyph-name="multiply" unicode="&#xd7;" horiz-adv-x="591" d="M136 595 L68 527 L211 384 C220 375 222 374 232 368 C222 363 220 361 211 353 L68 209 L136 141 L279 285 C288 293 290 295 295 305 C300 295 302 293 311 285 L454 141 L522 209 L379 353 C370 361 368 363 358 368 C368 374 370 375 379 384 L522 527 L454 595 L311 452 C302 444 300 441 295 431 C290 441 288 444 279 452 L136 595 Z " />
<glyph glyph-name="Oslash" unicode="&#xd8;" horiz-adv-x="790" d="M642 772 L594 703 C532 738 470 753 393 753 C171 753 44 614 44 372 C44 225 75 137 153 65 L105 -3 L149 -36 L197 33 C253 0 319 -16 393 -16 C504 -16 591 17 655 82 C716 145 747 238 747 363 C747 510 715 599 638 671 L686 741 L642 772 Z M473 434 C510 486 516 497 545 545 C569 495 577 450 577 367 C577 192 514 97 398 97 C350 97 304 116 275 146 L473 434 Z M317 303 C278 247 273 239 244 190 C222 240 214 286 214 365 C214 543 278 639 396 639 C446 639 483 623 515 589 L317 303 Z " />
<glyph glyph-name="Ugrave" unicode="&#xd9;" horiz-adv-x="775" d="M702 736 L543 736 L543 256 C543 169 476 104 386 104 C293 104 232 165 232 259 L232 736 L73 736 L73 264 C73 81 182 -16 388 -16 C592 -16 702 82 702 262 L702 736 Z M219 928 L357 772 L472 772 L388 928 L219 928 Z " />
<glyph glyph-name="Uacute" unicode="&#xda;" horiz-adv-x="775" d="M702 736 L543 736 L543 256 C543 169 476 104 386 104 C293 104 232 165 232 259 L232 736 L73 736 L73 264 C73 81 182 -16 388 -16 C592 -16 702 82 702 262 L702 736 Z M303 772 L418 772 L557 928 L390 928 L303 772 Z " />
<glyph glyph-name="Ucircumflex" unicode="&#xdb;" horiz-adv-x="775" d="M702 736 L543 736 L543 256 C543 169 476 104 386 104 C293 104 232 165 232 259 L232 736 L73 736 L73 264 C73 81 182 -16 388 -16 C592 -16 702 82 702 262 L702 736 Z M217 770 L338 770 L364 809 C377 829 380 834 390 854 C398 834 400 831 413 809 L436 770 L558 770 L456 926 L321 926 L217 770 Z " />
<glyph glyph-name="Udieresis" unicode="&#xdc;" horiz-adv-x="775" d="M702 736 L543 736 L543 256 C543 169 476 104 386 104 C293 104 232 165 232 259 L232 736 L73 736 L73 264 C73 81 182 -16 388 -16 C592 -16 702 82 702 262 L702 736 Z M231 790 L359 790 L359 910 L231 910 L231 790 Z M418 790 L546 790 L546 910 L418 910 L418 790 Z " />
<glyph glyph-name="Yacute" unicode="&#xdd;" horiz-adv-x="655" d="M1 736 L246 270 L246 0 L407 0 L407 266 L652 736 L484 736 L405 555 C371 479 365 462 338 391 L335 391 C309 462 304 476 270 556 L192 736 L1 736 Z M242 772 L357 772 L496 928 L329 928 L242 772 Z " />
<glyph glyph-name="Thorn" unicode="&#xde;" horiz-adv-x="650" d="M105 736 L105 0 L204 0 L204 153 C204 161 203 167 200 179 C211 175 215 175 226 175 L342 175 C413 175 464 186 501 210 C558 248 590 312 590 387 C590 471 557 539 498 575 C461 597 418 606 342 606 L226 606 C215 606 211 606 200 602 C203 614 204 620 204 628 L204 736 L105 736 Z M340 530 C443 530 491 485 491 387 C491 293 438 249 327 249 L226 249 C214 249 211 249 199 245 C203 256 203 259 203 271 L203 508 C203 520 203 523 199 534 C211 530 214 530 226 530 L340 530 Z " />
<glyph glyph-name="germandbls" unicode="&#xdf;" horiz-adv-x="678" d="M70 0 L223 0 L223 529 C223 610 263 662 325 662 C367 662 399 633 399 594 C399 569 389 554 348 521 C304 485 285 451 285 407 C285 360 312 325 373 289 L460 238 C488 221 501 196 501 158 C501 110 482 83 448 83 C418 83 401 103 396 143 L268 143 C272 29 323 -18 444 -18 C573 -18 647 49 647 165 C647 246 626 281 549 327 L478 371 C446 390 434 406 434 430 C434 453 443 464 483 489 C532 521 550 551 550 599 C550 695 461 755 320 755 C154 755 70 690 70 561 L70 0 Z " />
<glyph glyph-name="agrave" unicode="&#xe0;" horiz-adv-x="583" d="M384 71 C382 62 381 51 381 47 C381 38 381 38 382 31 L386 0 L521 0 C515 44 512 66 512 81 L512 346 C512 471 440 531 290 531 C143 531 76 482 68 368 L216 368 C224 424 243 442 291 442 C343 442 367 413 367 350 L367 330 C235 329 196 325 152 306 C83 276 42 213 42 139 C42 44 108 -13 218 -13 C300 -13 340 8 380 72 L384 71 Z M372 243 C368 236 367 233 367 224 L367 205 C367 125 334 84 270 84 C222 84 190 112 190 155 C190 218 237 243 357 243 L372 243 Z M123 744 L261 588 L376 588 L292 744 L123 744 Z " />
<glyph glyph-name="aacute" unicode="&#xe1;" horiz-adv-x="583" d="M384 71 C382 62 381 51 381 47 C381 38 381 38 382 31 L386 0 L521 0 C515 44 512 66 512 81 L512 346 C512 471 440 531 290 531 C143 531 76 482 68 368 L216 368 C224 424 243 442 291 442 C343 442 367 413 367 350 L367 330 C235 329 196 325 152 306 C83 276 42 213 42 139 C42 44 108 -13 218 -13 C300 -13 340 8 380 72 L384 71 Z M372 243 C368 236 367 233 367 224 L367 205 C367 125 334 84 270 84 C222 84 190 112 190 155 C190 218 237 243 357 243 L372 243 Z M207 588 L322 588 L461 744 L294 744 L207 588 Z " />
<glyph glyph-name="acircumflex" unicode="&#xe2;" horiz-adv-x="583" d="M384 71 C382 62 381 51 381 47 C381 38 381 38 382 31 L386 0 L521 0 C515 44 512 66 512 81 L512 346 C512 471 440 531 290 531 C143 531 76 482 68 368 L216 368 C224 424 243 442 291 442 C343 442 367 413 367 350 L367 330 C235 329 196 325 152 306 C83 276 42 213 42 139 C42 44 108 -13 218 -13 C300 -13 340 8 380 72 L384 71 Z M372 243 C368 236 367 233 367 224 L367 205 C367 125 334 84 270 84 C222 84 190 112 190 155 C190 218 237 243 357 243 L372 243 Z M121 586 L242 586 L268 625 C281 645 284 650 294 670 C302 650 304 647 317 625 L340 586 L462 586 L360 742 L225 742 L121 586 Z " />
<glyph glyph-name="atilde" unicode="&#xe3;" horiz-adv-x="583" d="M384 71 C382 62 381 51 381 47 C381 38 381 38 382 31 L386 0 L521 0 C515 44 512 66 512 81 L512 346 C512 471 440 531 290 531 C143 531 76 482 68 368 L216 368 C224 424 243 442 291 442 C343 442 367 413 367 350 L367 330 C235 329 196 325 152 306 C83 276 42 213 42 139 C42 44 108 -13 218 -13 C300 -13 340 8 380 72 L384 71 Z M372 243 C368 236 367 233 367 224 L367 205 C367 125 334 84 270 84 C222 84 190 112 190 155 C190 218 237 243 357 243 L372 243 Z M189 598 C196 622 208 635 223 635 C230 635 241 631 269 619 C311 600 344 590 366 590 C426 590 463 640 467 726 L396 726 C389 699 382 691 364 691 C358 691 351 693 332 700 L281 719 C257 729 247 731 229 731 C169 731 125 679 117 598 L189 598 Z " />
<glyph glyph-name="adieresis" unicode="&#xe4;" horiz-adv-x="583" d="M384 71 C382 62 381 51 381 47 C381 38 381 38 382 31 L386 0 L521 0 C515 44 512 66 512 81 L512 346 C512 471 440 531 290 531 C143 531 76 482 68 368 L216 368 C224 424 243 442 291 442 C343 442 367 413 367 350 L367 330 C235 329 196 325 152 306 C83 276 42 213 42 139 C42 44 108 -13 218 -13 C300 -13 340 8 380 72 L384 71 Z M372 243 C368 236 367 233 367 224 L367 205 C367 125 334 84 270 84 C222 84 190 112 190 155 C190 218 237 243 357 243 L372 243 Z M135 606 L263 606 L263 726 L135 726 L135 606 Z M322 606 L450 606 L450 726 L322 726 L322 606 Z " />
<glyph glyph-name="aring" unicode="&#xe5;" horiz-adv-x="583" d="M384 71 C382 62 381 51 381 47 C381 38 381 38 382 31 L386 0 L521 0 C515 44 512 66 512 81 L512 346 C512 471 440 531 290 531 C143 531 76 482 68 368 L216 368 C224 424 243 442 291 442 C343 442 367 413 367 350 L367 330 C235 329 196 325 152 306 C83 276 42 213 42 139 C42 44 108 -13 218 -13 C300 -13 340 8 380 72 L384 71 Z M372 243 C368 236 367 233 367 224 L367 205 C367 125 334 84 270 84 C222 84 190 112 190 155 C190 218 237 243 357 243 L372 243 Z M292 760 C237 760 193 716 193 661 C193 606 237 562 292 562 C347 562 391 606 391 661 C391 716 347 760 292 760 L292 760 Z M292 701 C314 701 332 683 332 661 C332 639 314 621 292 621 C270 621 252 639 252 661 C252 683 270 701 292 701 L292 701 Z " />
<glyph glyph-name="ae" unicode="&#xe6;" horiz-adv-x="900" d="M705 156 C690 104 664 83 616 83 C546 83 514 127 510 228 C520 224 523 223 535 223 L858 223 C857 341 847 394 818 439 C775 504 713 533 620 533 C546 533 505 521 459 484 C407 520 366 532 291 532 C145 532 73 479 68 368 L216 368 C224 418 248 440 294 440 C343 440 367 412 367 357 L367 344 C367 336 368 334 371 326 C360 330 357 330 345 330 L286 330 C136 330 42 256 42 139 C42 44 111 -15 223 -15 C295 -15 363 16 407 68 C459 8 517 -16 612 -16 C761 -16 842 44 845 156 L705 156 Z M367 211 C367 125 335 84 270 84 C222 84 190 113 190 155 C190 212 236 243 322 243 L345 243 C357 243 360 243 371 247 C367 239 367 236 367 227 L367 211 Z M547 320 C531 320 528 319 515 315 C521 396 555 439 613 439 C672 439 696 406 703 315 C686 319 682 320 662 320 L547 320 Z " />
<glyph glyph-name="ccedilla" unicode="&#xe7;" horiz-adv-x="550" d="M200 -82 L218 -105 C238 -100 247 -99 258 -99 C285 -99 302 -112 302 -132 C302 -153 284 -167 258 -167 C232 -167 210 -162 178 -148 L157 -194 C186 -212 218 -219 263 -219 C345 -219 393 -186 393 -128 C393 -82 358 -49 309 -49 C301 -49 287 -51 272 -54 L270 -52 C284 -39 287 -35 299 -16 C442 -13 512 53 516 187 L367 187 C362 118 340 90 290 90 C227 90 201 140 201 259 C201 375 231 433 290 433 C337 433 360 405 367 338 L516 338 C509 467 436 533 300 533 C139 533 42 431 42 261 C42 99 108 10 247 -12 L200 -82 Z " />
<glyph glyph-name="egrave" unicode="&#xe8;" horiz-adv-x="580" d="M385 156 C374 107 342 81 295 81 C228 81 199 124 194 228 C205 224 208 223 221 223 L539 223 C538 323 533 362 517 401 C483 486 405 533 296 533 C137 533 42 428 42 252 C42 73 125 -16 293 -16 C440 -16 522 45 526 156 L385 156 Z M226 320 C212 320 209 319 198 315 C202 396 235 439 295 439 C352 439 378 404 383 315 C367 319 363 320 344 320 L226 320 Z M121 744 L259 588 L374 588 L290 744 L121 744 Z " />
<glyph glyph-name="eacute" unicode="&#xe9;" horiz-adv-x="580" d="M385 156 C374 107 342 81 295 81 C228 81 199 124 194 228 C205 224 208 223 221 223 L539 223 C538 323 533 362 517 401 C483 486 405 533 296 533 C137 533 42 428 42 252 C42 73 125 -16 293 -16 C440 -16 522 45 526 156 L385 156 Z M226 320 C212 320 209 319 198 315 C202 396 235 439 295 439 C352 439 378 404 383 315 C367 319 363 320 344 320 L226 320 Z M205 588 L320 588 L459 744 L292 744 L205 588 Z " />
<glyph glyph-name="ecircumflex" unicode="&#xea;" horiz-adv-x="580" d="M385 156 C374 107 342 81 295 81 C228 81 199 124 194 228 C205 224 208 223 221 223 L539 223 C538 323 533 362 517 401 C483 486 405 533 296 533 C137 533 42 428 42 252 C42 73 125 -16 293 -16 C440 -16 522 45 526 156 L385 156 Z M226 320 C212 320 209 319 198 315 C202 396 235 439 295 439 C352 439 378 404 383 315 C367 319 363 320 344 320 L226 320 Z M119 586 L240 586 L266 625 C279 645 282 650 292 670 C300 650 302 647 315 625 L338 586 L460 586 L358 742 L223 742 L119 586 Z " />
<glyph glyph-name="edieresis" unicode="&#xeb;" horiz-adv-x="580" d="M385 156 C374 107 342 81 295 81 C228 81 199 124 194 228 C205 224 208 223 221 223 L539 223 C538 323 533 362 517 401 C483 486 405 533 296 533 C137 533 42 428 42 252 C42 73 125 -16 293 -16 C440 -16 522 45 526 156 L385 156 Z M226 320 C212 320 209 319 198 315 C202 396 235 439 295 439 C352 439 378 404 383 315 C367 319 363 320 344 320 L226 320 Z M133 606 L261 606 L261 726 L133 726 L133 606 Z M320 606 L448 606 L448 726 L320 726 L320 606 Z " />
<glyph glyph-name="igrave" unicode="&#xec;" horiz-adv-x="299" d="M73 0 L226 0 L226 517 L73 517 L73 0 Z M-19 744 L119 588 L234 588 L150 744 L-19 744 Z " />
<glyph glyph-name="iacute" unicode="&#xed;" horiz-adv-x="299" d="M73 0 L226 0 L226 517 L73 517 L73 0 Z M65 588 L180 588 L319 744 L152 744 L65 588 Z " />
<glyph glyph-name="icircumflex" unicode="&#xee;" horiz-adv-x="299" d="M73 0 L226 0 L226 517 L73 517 L73 0 Z M-21 586 L100 586 L126 625 C139 645 142 650 152 670 C160 650 162 647 175 625 L198 586 L320 586 L218 742 L83 742 L-21 586 Z " />
<glyph glyph-name="idieresis" unicode="&#xef;" horiz-adv-x="299" d="M73 0 L226 0 L226 517 L73 517 L73 0 Z M-7 606 L121 606 L121 726 L-7 726 L-7 606 Z M180 606 L308 606 L308 726 L180 726 L180 606 Z " />
<glyph glyph-name="eth" unicode="&#xf0;" horiz-adv-x="614" d="M273 691 C218 711 179 722 122 732 L94 681 C141 671 163 664 202 650 L212 646 C186 635 181 632 154 616 L101 584 L126 548 L259 629 C300 610 353 571 374 543 L402 508 C402 507 404 505 407 501 L404 497 C372 527 349 535 298 535 C166 535 85 432 85 262 C85 85 165 -13 308 -13 C451 -13 529 87 529 270 C529 460 457 596 318 670 L318 672 C343 683 349 686 374 702 L426 733 L401 768 L273 691 Z M308 476 C393 476 437 407 437 272 C437 125 394 52 309 52 C221 52 178 124 178 272 C178 405 223 476 308 476 L308 476 Z " />
<glyph glyph-name="ntilde" unicode="&#xf1;" horiz-adv-x="624" d="M555 0 L555 328 C555 383 547 420 529 449 C498 500 438 530 368 530 C295 530 257 506 212 433 L208 434 C210 447 211 454 211 463 L211 478 L208 517 L67 517 C72 492 72 489 72 456 L73 430 L73 0 L226 0 L226 304 C226 376 262 421 320 421 C373 421 402 387 402 326 L402 0 L555 0 Z M209 598 C216 622 228 635 243 635 C250 635 261 631 289 619 C331 600 364 590 386 590 C446 590 483 640 487 726 L416 726 C409 699 402 691 384 691 C378 691 371 693 352 700 L301 719 C277 729 267 731 249 731 C189 731 145 679 137 598 L209 598 Z " />
<glyph glyph-name="ograve" unicode="&#xf2;" horiz-adv-x="614" d="M308 533 C137 533 41 433 41 256 C41 83 139 -16 310 -16 C473 -16 572 86 572 253 C572 435 479 533 308 533 L308 533 Z M306 428 C379 428 416 371 416 261 C416 146 380 89 307 89 C233 89 197 145 197 259 C197 372 233 428 306 428 L306 428 Z M138 744 L276 588 L391 588 L307 744 L138 744 Z " />
<glyph glyph-name="oacute" unicode="&#xf3;" horiz-adv-x="614" d="M308 533 C137 533 41 433 41 256 C41 83 139 -16 310 -16 C473 -16 572 86 572 253 C572 435 479 533 308 533 L308 533 Z M306 428 C379 428 416 371 416 261 C416 146 380 89 307 89 C233 89 197 145 197 259 C197 372 233 428 306 428 L306 428 Z M222 588 L337 588 L476 744 L309 744 L222 588 Z " />
<glyph glyph-name="ocircumflex" unicode="&#xf4;" horiz-adv-x="614" d="M308 533 C137 533 41 433 41 256 C41 83 139 -16 310 -16 C473 -16 572 86 572 253 C572 435 479 533 308 533 L308 533 Z M306 428 C379 428 416 371 416 261 C416 146 380 89 307 89 C233 89 197 145 197 259 C197 372 233 428 306 428 L306 428 Z M136 586 L257 586 L283 625 C296 645 299 650 309 670 C317 650 319 647 332 625 L355 586 L477 586 L375 742 L240 742 L136 586 Z " />
<glyph glyph-name="otilde" unicode="&#xf5;" horiz-adv-x="614" d="M308 533 C137 533 41 433 41 256 C41 83 139 -16 310 -16 C473 -16 572 86 572 253 C572 435 479 533 308 533 L308 533 Z M306 428 C379 428 416 371 416 261 C416 146 380 89 307 89 C233 89 197 145 197 259 C197 372 233 428 306 428 L306 428 Z M204 598 C211 622 223 635 238 635 C245 635 256 631 284 619 C326 600 359 590 381 590 C441 590 478 640 482 726 L411 726 C404 699 397 691 379 691 C373 691 366 693 347 700 L296 719 C272 729 262 731 244 731 C184 731 140 679 132 598 L204 598 Z " />
<glyph glyph-name="odieresis" unicode="&#xf6;" horiz-adv-x="614" d="M308 533 C137 533 41 433 41 256 C41 83 139 -16 310 -16 C473 -16 572 86 572 253 C572 435 479 533 308 533 L308 533 Z M306 428 C379 428 416 371 416 261 C416 146 380 89 307 89 C233 89 197 145 197 259 C197 372 233 428 306 428 L306 428 Z M150 606 L278 606 L278 726 L150 726 L150 606 Z M337 606 L465 606 L465 726 L337 726 L337 606 Z " />
<glyph glyph-name="divide" unicode="&#xf7;" horiz-adv-x="591" d="M296 619 C262 619 235 592 235 558 C235 525 263 497 296 497 C329 497 357 524 357 558 C357 592 330 619 296 619 L296 619 Z M296 240 C262 240 235 213 235 179 C235 146 263 118 296 118 C329 118 357 146 357 179 C357 213 330 240 296 240 L296 240 Z M57 414 L57 322 L535 322 L535 414 L57 414 Z " />
<glyph glyph-name="oslash" unicode="&#xf8;" horiz-adv-x="616" d="M537 539 L492 573 L445 506 C406 524 359 533 310 533 C139 533 43 434 43 256 C43 161 67 99 126 44 L80 -24 L125 -56 L172 13 C211 -6 258 -16 307 -16 C476 -16 574 83 574 253 C574 354 549 421 492 474 L537 539 Z M324 231 C364 290 372 301 404 354 C415 310 418 289 418 253 C418 147 380 89 309 89 C282 89 264 95 237 115 C245 119 247 120 252 128 L324 231 Z M293 285 C252 225 245 215 212 162 C202 206 199 224 199 259 C199 371 236 428 308 428 C338 428 353 423 375 404 L293 285 Z " />
<glyph glyph-name="ugrave" unicode="&#xf9;" horiz-adv-x="624" d="M67 517 L67 189 C67 134 75 97 93 68 C124 17 184 -13 255 -13 C328 -13 366 11 411 84 L415 83 C413 70 412 61 412 55 L412 39 L415 0 L556 0 C551 25 551 28 551 61 L550 87 L550 517 L397 517 L397 213 C397 141 361 96 302 96 C249 96 220 130 220 191 L220 517 L67 517 Z M144 744 L282 588 L397 588 L313 744 L144 744 Z " />
<glyph glyph-name="uacute" unicode="&#xfa;" horiz-adv-x="624" d="M67 517 L67 189 C67 134 75 97 93 68 C124 17 184 -13 255 -13 C328 -13 366 11 411 84 L415 83 C413 70 412 61 412 55 L412 39 L415 0 L556 0 C551 25 551 28 551 61 L550 87 L550 517 L397 517 L397 213 C397 141 361 96 302 96 C249 96 220 130 220 191 L220 517 L67 517 Z M228 588 L343 588 L482 744 L315 744 L228 588 Z " />
<glyph glyph-name="ucircumflex" unicode="&#xfb;" horiz-adv-x="624" d="M67 517 L67 189 C67 134 75 97 93 68 C124 17 184 -13 255 -13 C328 -13 366 11 411 84 L415 83 C413 70 412 61 412 55 L412 39 L415 0 L556 0 C551 25 551 28 551 61 L550 87 L550 517 L397 517 L397 213 C397 141 361 96 302 96 C249 96 220 130 220 191 L220 517 L67 517 Z M142 586 L263 586 L289 625 C302 645 305 650 315 670 C323 650 325 647 338 625 L361 586 L483 586 L381 742 L246 742 L142 586 Z " />
<glyph glyph-name="udieresis" unicode="&#xfc;" horiz-adv-x="624" d="M67 517 L67 189 C67 134 75 97 93 68 C124 17 184 -13 255 -13 C328 -13 366 11 411 84 L415 83 C413 70 412 61 412 55 L412 39 L415 0 L556 0 C551 25 551 28 551 61 L550 87 L550 517 L397 517 L397 213 C397 141 361 96 302 96 C249 96 220 130 220 191 L220 517 L67 517 Z M156 606 L284 606 L284 726 L156 726 L156 606 Z M343 606 L471 606 L471 726 L343 726 L343 606 Z " />
<glyph glyph-name="yacute" unicode="&#xfd;" horiz-adv-x="552" d="M1 517 L209 -1 L126 -197 L293 -197 L551 517 L392 517 L339 339 C312 250 306 230 287 147 L283 147 C263 230 258 250 231 339 L177 517 L1 517 Z M191 588 L306 588 L445 744 L278 744 L191 588 Z " />
<glyph glyph-name="thorn" unicode="&#xfe;" horiz-adv-x="627" d="M203 736 L110 736 L110 -182 L203 -182 L203 92 C232 20 279 -12 355 -12 C477 -12 546 89 546 268 C546 451 479 550 355 550 C282 550 228 512 203 445 L203 736 Z M327 479 C410 479 452 408 452 267 C452 127 410 57 327 57 C241 57 200 126 200 267 C200 409 242 479 327 479 L327 479 Z " />
<glyph glyph-name="ydieresis" unicode="&#xff;" horiz-adv-x="552" d="M1 517 L209 -1 L126 -197 L293 -197 L551 517 L392 517 L339 339 C312 250 306 230 287 147 L283 147 C263 230 258 250 231 339 L177 517 L1 517 Z M119 606 L247 606 L247 726 L119 726 L119 606 Z M306 606 L434 606 L434 726 L306 726 L306 606 Z " />
<glyph glyph-name="dotlessi" unicode="&#x131;" horiz-adv-x="299" d="M73 0 L226 0 L226 517 L73 517 L73 0 Z " />
<glyph glyph-name="Lslash" unicode="&#x141;" horiz-adv-x="586" d="M247 385 L342 423 L342 481 L294 462 C271 453 265 450 244 439 C247 479 247 488 247 534 L247 736 L88 736 L88 380 L16 351 L16 293 L52 308 C70 315 75 317 91 327 C88 286 88 277 88 231 L88 0 L562 0 L562 120 L269 120 C257 120 254 120 243 116 C247 127 247 131 247 142 L247 385 Z " />
<glyph glyph-name="lslash" unicode="&#x142;" horiz-adv-x="302" d="M227 382 L296 409 L296 467 L262 453 C243 446 239 444 224 435 C227 476 227 485 227 531 L227 736 L74 736 L74 378 L5 351 L5 293 L40 307 C57 314 61 316 77 325 C74 285 74 276 74 230 L74 0 L227 0 L227 382 Z " />
<glyph glyph-name="OE" unicode="&#x152;" horiz-adv-x="1020" d="M983 0 L983 120 L696 120 C684 120 681 120 670 116 C674 127 674 130 674 142 L674 293 C674 305 674 308 670 319 C681 315 684 315 696 315 L952 315 L952 435 L696 435 C685 435 681 435 670 431 C674 442 674 445 674 457 L674 594 C674 606 674 609 670 619 C681 616 684 616 696 616 L964 616 L964 736 L434 736 C335 736 246 717 194 685 C98 625 44 509 44 364 C44 222 85 125 172 62 C233 18 320 -2 448 -2 C471 -2 489 -2 511 0 L524 0 L983 0 Z M515 132 C515 120 515 117 519 106 C508 110 505 110 493 110 L443 110 C278 110 213 183 213 368 C213 542 283 623 433 623 L493 623 C505 623 508 623 519 627 C515 616 515 613 515 602 L515 132 Z " />
<glyph glyph-name="oe" unicode="&#x153;" horiz-adv-x="972" d="M776 156 C764 106 737 83 688 83 C620 83 586 129 582 228 C592 224 595 223 608 223 L930 223 C929 328 924 364 906 407 C869 491 799 533 694 533 C604 533 546 508 503 451 C454 508 395 533 307 533 C139 533 42 433 42 260 C42 84 137 -16 305 -16 C398 -16 455 9 496 66 C537 7 589 -16 684 -16 C832 -16 909 41 917 156 L776 156 Z M623 320 C605 320 602 319 587 315 C594 396 628 440 686 440 C743 440 769 404 775 315 C758 319 755 320 736 320 L623 320 Z M306 431 C379 431 416 375 416 265 C416 149 380 91 308 91 C233 91 197 147 197 265 C197 374 234 431 306 431 L306 431 Z " />
<glyph glyph-name="Scaron" unicode="&#x160;" horiz-adv-x="662" d="M29 238 C30 161 40 119 63 83 C104 22 199 -16 316 -16 C499 -16 619 78 619 221 C619 333 555 387 356 441 C245 471 213 494 213 544 C213 602 259 640 330 640 C405 640 448 600 450 529 L599 529 C599 594 591 625 567 658 C523 719 444 752 342 752 C167 752 51 661 51 524 C51 466 71 419 110 385 C153 347 200 329 343 294 C428 274 459 248 459 199 C459 139 405 97 329 97 C238 97 193 143 190 238 L29 238 Z M161 925 L263 770 L399 770 L501 925 L378 925 L355 886 C343 865 341 861 332 841 C323 861 320 865 307 886 L281 925 L161 925 Z " />
<glyph glyph-name="scaron" unicode="&#x161;" horiz-adv-x="524" d="M34 151 C39 44 116 -16 250 -16 C388 -16 485 58 485 164 C485 233 447 280 372 302 L233 343 C206 351 193 366 193 388 C193 418 219 439 257 439 C298 439 315 423 323 379 L466 379 C461 480 392 533 268 533 C131 533 44 469 44 367 C44 301 82 253 149 233 L287 192 C320 182 336 166 336 143 C336 108 304 82 259 82 C209 82 188 100 180 151 L34 151 Z M92 741 L194 586 L330 586 L432 741 L309 741 L286 702 C274 681 272 677 263 657 C254 677 251 681 238 702 L212 741 L92 741 Z " />
<glyph glyph-name="Ydieresis" unicode="&#x178;" horiz-adv-x="655" d="M1 736 L246 270 L246 0 L407 0 L407 266 L652 736 L484 736 L405 555 C371 479 365 462 338 391 L335 391 C309 462 304 476 270 556 L192 736 L1 736 Z M170 790 L298 790 L298 910 L170 910 L170 790 Z M357 790 L485 790 L485 910 L357 910 L357 790 Z " />
<glyph glyph-name="Zcaron" unicode="&#x17d;" horiz-adv-x="624" d="M35 0 L590 0 L590 115 L353 115 C279 115 263 115 196 111 L194 113 C239 163 248 174 295 234 L585 601 L585 736 L58 736 L58 621 L267 621 C342 621 357 621 424 625 L426 623 C381 572 370 560 324 502 L35 135 L35 0 Z M142 925 L244 770 L380 770 L482 925 L359 925 L336 886 C324 865 322 861 313 841 C304 861 301 865 288 886 L262 925 L142 925 Z " />
<glyph glyph-name="zcaron" unicode="&#x17e;" horiz-adv-x="509" d="M37 0 L472 0 L472 100 L336 100 C269 100 255 99 194 95 L193 98 C246 150 260 165 313 223 L459 384 L459 517 L45 517 L45 417 L171 417 C234 417 248 418 304 422 L306 419 C253 367 241 355 185 294 L37 131 L37 0 Z M84 741 L186 586 L322 586 L424 741 L301 741 L278 702 C266 681 264 677 255 657 C246 677 243 681 230 702 L204 741 L84 741 Z " />
<glyph glyph-name="florin" unicode="&#x192;" horiz-adv-x="455" d="M47 411 L91 411 C114 411 118 411 139 414 C132 393 130 388 126 364 L68 34 L56 -22 C42 -95 24 -114 -26 -114 C-40 -114 -57 -113 -83 -111 L-101 -208 C-91 -209 -83 -210 -78 -211 L-31 -218 C-18 -219 -6 -220 14 -220 C74 -220 120 -202 152 -167 C181 -134 192 -104 208 -12 L283 411 L390 411 L406 500 L346 500 C321 500 316 500 294 497 C301 515 302 520 305 539 L312 578 C322 636 337 653 377 653 C394 653 404 652 439 646 L455 738 C445 739 437 741 432 741 C371 752 363 753 332 753 C283 753 246 741 218 718 C189 692 180 670 165 584 L150 500 L62 500 L47 411 Z " />
<glyph glyph-name="circumflex" unicode="&#x2c6;" d="M-171 586 L-50 586 L-24 625 C-11 645 -8 650 2 670 C10 650 12 647 25 625 L48 586 L170 586 L68 742 L-67 742 L-171 586 Z " />
<glyph glyph-name="caron" unicode="&#x2c7;" d="M-170 741 L-68 586 L68 586 L170 741 L47 741 L24 702 C12 681 10 677 1 657 C-8 677 -11 681 -24 702 L-50 741 L-170 741 Z " />
<glyph glyph-name="breve" unicode="&#x2d8;" d="M-142 734 C-140 650 -83 593 0 593 C84 593 138 647 142 734 L63 734 C50 701 31 686 0 686 C-31 686 -51 701 -63 734 L-142 734 Z " />
<glyph glyph-name="dotaccent" unicode="&#x2d9;" d="M-83 601 L83 601 L83 731 L-83 731 L-83 601 Z " />
<glyph glyph-name="ring" unicode="&#x2da;" d="M0 760 C-55 760 -99 716 -99 661 C-99 606 -55 562 0 562 C55 562 99 606 99 661 C99 716 55 760 0 760 L0 760 Z M0 701 C22 701 40 683 40 661 C40 639 22 621 0 621 C-22 621 -40 639 -40 661 C-40 683 -22 701 0 701 L0 701 Z " />
<glyph glyph-name="ogonek" unicode="&#x2db;" d="M-4 3 C-70 -32 -91 -56 -91 -98 C-91 -160 -44 -196 37 -196 C54 -196 65 -195 91 -191 L92 -123 C78 -126 71 -127 59 -127 C18 -127 -4 -110 -4 -77 C-4 -51 14 -31 65 3 L-4 3 Z " />
<glyph glyph-name="tilde" unicode="&#x2dc;" d="M-103 598 C-96 622 -84 635 -69 635 C-62 635 -51 631 -23 619 C19 600 52 590 74 590 C134 590 171 640 175 726 L104 726 C97 699 90 691 72 691 C66 691 59 693 40 700 L-11 719 C-35 729 -45 731 -63 731 C-123 731 -167 679 -175 598 L-103 598 Z " />
<glyph glyph-name="hungarumlaut" unicode="&#x2dd;" d="M-189 588 L-85 588 L58 744 L-102 744 L-189 588 Z M29 588 L133 588 L261 744 L116 744 L29 588 Z " />
<glyph glyph-name="endash" unicode="&#x2013;" horiz-adv-x="642" d="M45 220 L597 220 L597 333 L45 333 L45 220 Z " />
<glyph glyph-name="emdash" unicode="&#x2014;" horiz-adv-x="946" d="M44 220 L901 220 L901 333 L44 333 L44 220 Z " />
<glyph glyph-name="quoteleft" unicode="&#x2018;" horiz-adv-x="309" d="M41 486 L192 486 L269 736 L154 736 L41 486 Z " />
<glyph glyph-name="quoteright" unicode="&#x2019;" horiz-adv-x="309" d="M45 486 L158 486 L265 736 L109 736 L45 486 Z " />
<glyph glyph-name="quotesinglbase" unicode="&#x201a;" horiz-adv-x="299" d="M29 -115 L142 -115 L257 136 L106 136 L29 -115 Z " />
<glyph glyph-name="quotedblleft" unicode="&#x201c;" horiz-adv-x="504" d="M39 486 L190 486 L267 736 L152 736 L39 486 Z M240 486 L396 486 L460 736 L348 736 L240 486 Z " />
<glyph glyph-name="quotedblright" unicode="&#x201d;" horiz-adv-x="511" d="M44 486 L157 486 L264 736 L108 736 L44 486 Z M243 486 L357 486 L470 736 L320 736 L243 486 Z " />
<glyph glyph-name="quotedblbase" unicode="&#x201e;" horiz-adv-x="517" d="M45 -115 L158 -115 L265 136 L109 136 L45 -115 Z M248 -115 L362 -115 L475 136 L325 136 L248 -115 Z " />
<glyph glyph-name="dagger" unicode="&#x2020;" horiz-adv-x="558" d="M44 414 L193 414 C205 414 208 414 219 418 C215 407 215 404 215 392 L215 0 L343 0 L343 392 C343 404 343 407 339 418 C350 414 353 414 365 414 L515 414 L515 527 L365 527 C353 527 350 527 339 523 C343 534 343 537 343 549 L343 736 L215 736 L215 549 C215 537 215 534 219 523 C208 527 205 527 193 527 L44 527 L44 414 Z " />
<glyph glyph-name="daggerdbl" unicode="&#x2021;" horiz-adv-x="558" d="M343 736 L215 736 L215 571 C215 559 215 556 219 545 C208 549 205 549 193 549 L44 549 L44 436 L193 436 C205 436 208 436 219 440 C215 429 215 426 215 414 L215 323 C215 311 215 308 219 297 C208 301 205 301 193 301 L44 301 L44 188 L193 188 C205 188 208 188 219 192 C215 181 215 178 215 166 L215 0 L343 0 L343 166 C343 178 343 181 339 192 C350 188 353 188 365 188 L515 188 L515 301 L365 301 C353 301 350 301 339 297 C343 308 343 311 343 323 L343 414 C343 426 343 429 339 440 C350 436 353 436 365 436 L515 436 L515 549 L365 549 C353 549 350 549 339 545 C343 556 343 559 343 571 L343 736 Z " />
<glyph glyph-name="bullet" unicode="&#x2022;" horiz-adv-x="591" d="M295 558 C191 558 106 473 106 369 C106 265 192 179 295 179 C399 179 485 265 485 369 C485 473 400 558 295 558 L295 558 Z " />
<glyph glyph-name="ellipsis" unicode="&#x2026;" horiz-adv-x="713" d="M65 0 L198 0 L198 136 L65 136 L65 0 Z M303 0 L436 0 L436 136 L303 136 L303 0 Z M541 0 L674 0 L674 136 L541 136 L541 0 Z " />
<glyph glyph-name="perthousand" unicode="&#x2030;" horiz-adv-x="1982" d="M606 363 C495 363 436 298 436 173 C436 54 496 -12 604 -12 C709 -12 770 56 770 175 C770 296 712 363 606 363 L606 363 Z M602 283 C646 283 660 255 660 170 C660 95 645 66 604 66 C561 66 546 93 546 170 C546 256 559 283 602 283 L602 283 Z M164 -20 L249 -20 L632 741 L550 741 L164 -20 Z M195 734 C85 734 26 668 26 546 C26 425 86 359 194 359 C299 359 360 428 360 545 C360 666 301 734 195 734 L195 734 Z M192 655 C234 655 249 627 249 548 C249 466 235 438 193 438 C151 438 136 466 136 543 C136 627 150 655 192 655 L192 655 Z M1403 363 C1292 363 1234 298 1234 173 C1234 54 1294 -12 1401 -12 C1507 -12 1567 56 1567 175 C1567 296 1509 363 1403 363 L1403 363 Z M1400 283 C1443 283 1457 255 1457 170 C1457 95 1442 66 1401 66 C1359 66 1344 93 1344 170 C1344 256 1357 283 1400 283 L1400 283 Z M962 -20 L1046 -20 L1430 741 L1348 741 L962 -20 Z M993 734 C883 734 824 669 824 546 C824 425 884 359 992 359 C1097 359 1158 428 1158 545 C1158 667 1099 734 993 734 L993 734 Z M990 655 C1032 655 1047 627 1047 548 C1047 466 1033 438 991 438 C949 438 934 466 934 543 C934 627 948 655 990 655 L990 655 Z M1791 364 C1681 364 1622 298 1622 176 C1622 55 1682 -12 1790 -12 C1895 -12 1956 57 1956 175 C1956 296 1897 364 1791 364 L1791 364 Z M1788 284 C1830 284 1845 256 1845 177 C1845 95 1831 66 1789 66 C1747 66 1732 94 1732 172 C1732 256 1746 284 1788 284 L1788 284 Z " />
<glyph glyph-name="guilsinglleft" unicode="&#x2039;" horiz-adv-x="338" d="M44 267 L154 68 L292 68 L195 267 L291 464 L154 464 L44 267 Z " />
<glyph glyph-name="guilsinglright" unicode="&#x203a;" horiz-adv-x="332" d="M42 464 L139 267 L42 67 L180 67 L290 267 L180 464 L42 464 Z " />
<glyph glyph-name="fraction" unicode="&#x2044;" horiz-adv-x="184" d="M230 711 L-129 0 L-47 0 L312 711 L230 711 Z " />
<glyph glyph-name="trademark" unicode="&#x2122;" horiz-adv-x="977" d="M21 660 L125 660 C137 660 140 660 151 664 C147 653 147 650 147 638 L147 317 L247 317 L247 638 C247 650 247 653 243 664 C254 660 257 660 269 660 L372 660 L372 736 L21 736 L21 660 Z M413 317 L507 317 L507 473 C507 553 506 577 500 655 L506 656 C526 576 532 554 559 473 L611 317 L696 317 L749 473 C776 551 784 575 804 655 L810 654 C804 576 803 552 803 473 L803 317 L903 317 L903 736 L748 736 L702 603 C679 535 675 521 659 458 L654 458 C639 521 635 535 612 603 L568 736 L413 736 L413 317 Z " />
<glyph glyph-name="minus" unicode="&#x2212;" horiz-adv-x="642" d="M45 220 L597 220 L597 333 L45 333 L45 220 Z " />
<glyph glyph-name="fi" unicode="&#xfb01;" horiz-adv-x="647" d="M573 517 L276 517 C264 517 261 517 250 513 C254 524 254 527 254 539 L254 564 C254 621 276 645 326 645 L330 645 L356 644 L356 749 C330 751 316 751 291 751 C221 751 190 746 160 729 C126 711 101 666 101 623 L101 539 C101 527 101 524 105 513 C94 517 91 517 79 517 L24 517 L24 417 L79 417 C91 417 94 417 105 421 C101 410 101 407 101 395 L101 0 L254 0 L254 395 C254 407 254 410 250 421 C261 417 264 417 276 417 L398 417 C409 417 413 417 424 421 C420 410 420 407 420 395 L420 0 L573 0 L573 517 Z M413 606 L579 606 L579 736 L413 736 L413 606 Z " />
<glyph glyph-name="fl" unicode="&#xfb02;" horiz-adv-x="647" d="M254 0 L254 395 C254 407 254 410 250 421 C261 417 264 417 276 417 L346 417 L346 517 L276 517 C264 517 261 517 250 513 C254 524 254 527 254 539 L254 564 C254 621 276 645 326 645 L330 645 L356 644 L356 749 C329 751 315 751 291 751 C221 751 190 746 160 729 C126 711 101 666 101 623 L101 539 C101 527 101 524 105 513 C94 517 91 517 79 517 L24 517 L24 417 L79 417 C91 417 94 417 105 421 C101 410 101 407 101 395 L101 0 L254 0 Z M420 736 L420 0 L573 0 L573 736 L420 736 Z " />
</font>
</svg>
