<?xml version="1.0" encoding="UTF-8"?>
<svg xmlns="http://www.w3.org/2000/svg" xmlns:xlink="http://www.w3.org/1999/xlink" version="1.2" >
<font id="Univers Italic">
<font-face  font-family="Univers SB Italic" units-per-em="1000" ascent="736.084" descent="-158.691" font-style="normal" font-weight="400" font-stretch="normal" slope="-16" cap-height="750" x-height="500" underline-position="-92.5" underline-thickness="59" />
<missing-glyph  horiz-adv-x="256" d="" />
<glyph glyph-name="NULL" d="" />
<glyph glyph-name="CR" unicode="&#xd;" horiz-adv-x="250" d="" />
<glyph glyph-name="space" unicode="&#x20;" horiz-adv-x="256" d="" />
<glyph glyph-name="exclam" unicode="&#x21;" horiz-adv-x="289" d="M-122 0 L-11 0 L21 107 L-91 107 L-122 0 Z M-50 174 L24 174 L204 736 L84 736 L-50 174 Z " />
<glyph glyph-name="quotedbl" unicode="&#x22;" horiz-adv-x="407" d="M49 442 L147 736 L64 736 L-11 442 L49 442 Z M224 442 L323 736 L239 736 L164 442 L224 442 Z " />
<glyph glyph-name="numbersign" unicode="&#x23;" horiz-adv-x="624" d="M410 294 L354 294 C324 294 319 294 293 291 C310 324 314 331 331 369 L365 444 L476 444 L502 503 L447 503 C418 503 413 503 387 500 C408 539 412 547 433 594 L498 736 L432 736 L326 503 L255 503 C218 503 211 503 179 500 C200 540 204 548 225 594 L289 736 L224 736 L118 503 L6 503 L-21 444 L36 444 C65 444 70 444 96 447 C78 414 74 405 58 369 L24 294 L-88 294 L-115 235 L-59 235 C-30 235 -24 235 2 238 C-19 198 -23 189 -44 143 L-109 0 L-44 0 L62 235 L134 235 C170 235 177 235 209 238 C189 198 184 189 164 143 L99 0 L164 0 L271 235 L383 235 L410 294 Z M232 294 L160 294 C124 294 117 294 85 291 C102 324 106 331 123 369 L157 444 L228 444 C264 444 272 444 304 447 C286 414 282 405 266 369 L232 294 Z " />
<glyph glyph-name="dollar" unicode="&#x24;" horiz-adv-x="624" d="M9 -112 L60 -112 L87 -19 L106 -19 C282 -19 412 79 412 212 C412 304 371 352 230 427 L219 432 L289 669 C352 659 378 632 378 577 C378 567 377 559 373 545 L477 545 C480 559 481 568 481 580 C481 682 430 732 309 751 C316 766 318 770 323 787 L339 841 L289 841 L264 757 L261 757 C99 757 -13 669 -13 543 C-13 466 24 421 144 349 L63 72 C1 87 -22 116 -22 180 C-22 193 -21 202 -18 217 L-120 217 C-128 186 -131 165 -131 143 C-131 63 -72 10 42 -12 C36 -22 35 -25 31 -37 L9 -112 Z M195 519 C185 487 184 481 180 453 C119 488 95 517 95 559 C95 623 153 667 244 671 C229 636 226 627 214 586 L195 519 Z M171 269 C179 297 180 302 183 328 L207 315 C278 277 304 246 304 199 C304 122 227 65 124 65 C121 65 114 65 106 66 C119 93 121 99 131 132 L171 269 Z " />
<glyph glyph-name="percent" unicode="&#x25;" horiz-adv-x="851" d="M154 731 C47 731 -35 639 -35 517 C-35 418 14 365 105 365 C210 365 291 461 291 586 C291 678 241 731 154 731 L154 731 Z M3 -28 L72 -28 L604 747 L536 747 L3 -28 Z M149 673 C194 673 218 642 218 586 C218 496 168 423 107 423 C64 423 42 453 42 511 C42 598 91 673 149 673 L149 673 Z M515 361 C408 361 326 269 326 148 C326 48 375 -5 466 -5 C571 -5 652 91 652 216 C652 308 602 361 515 361 L515 361 Z M509 303 C554 303 578 272 578 215 C578 126 528 53 467 53 C423 53 401 83 401 140 C401 228 450 303 509 303 L509 303 Z " />
<glyph glyph-name="ampersand" unicode="&#x26;" horiz-adv-x="754" d="M401 0 L509 0 L412 132 C497 209 574 353 593 471 L506 471 C470 341 433 268 363 190 C351 215 349 219 330 245 L249 357 C235 376 232 381 217 396 C373 471 434 534 434 622 C434 703 371 753 271 753 C144 753 44 667 44 558 C44 514 60 472 94 428 C-54 365 -141 265 -141 155 C-141 47 -56 -17 87 -17 C182 -17 265 15 345 82 C348 73 349 70 355 62 L401 0 Z M302 136 C252 85 168 52 86 52 C8 52 -43 97 -43 167 C-43 246 30 327 135 365 L302 136 Z M176 458 C151 492 139 525 139 561 C139 631 194 685 265 685 C313 685 339 661 339 616 C339 557 282 501 176 458 L176 458 Z " />
<glyph glyph-name="quotesingle" unicode="&#x27;" horiz-adv-x="230" d="M48 442 L146 736 L63 736 L-12 442 L48 442 Z " />
<glyph glyph-name="parenleft" unicode="&#x28;" horiz-adv-x="271" d="M145 736 L137 726 C34 590 -41 459 -80 343 C-108 262 -120 158 -120 7 C-120 -79 -119 -114 -114 -198 L-57 -198 C-51 175 -12 330 150 629 L202 724 L209 736 L145 736 Z " />
<glyph glyph-name="parenright" unicode="&#x29;" horiz-adv-x="271" d="M-180 -198 L-172 -187 C-99 -88 -32 20 10 110 C74 248 94 356 94 573 C94 639 93 671 88 736 L31 736 C28 545 21 468 2 372 C-30 218 -81 87 -179 -91 L-231 -186 L-238 -198 L-180 -198 Z " />
<glyph glyph-name="asterisk" unicode="&#x2a;" horiz-adv-x="453" d="M-35 520 L-12 472 L54 502 C87 517 95 522 124 539 L127 537 C112 503 109 495 97 456 L74 379 L136 379 L158 454 C169 493 171 500 179 535 C200 515 205 511 231 491 L281 453 L318 497 L267 536 C243 555 236 560 211 575 L211 577 C245 588 252 591 289 608 L362 640 L342 688 L276 660 C247 648 236 642 206 624 L204 626 C217 659 221 668 231 703 L252 775 L192 775 L170 702 C159 666 157 658 150 624 C129 644 122 650 99 668 L49 706 L12 662 L61 624 C87 604 92 601 116 587 L116 584 C82 573 74 569 38 553 L-35 520 Z " />
<glyph glyph-name="plus" unicode="&#x2b;" horiz-adv-x="565" d="M-73 408 L-73 329 L99 329 C111 329 114 329 125 333 C121 322 121 319 121 307 L121 132 L206 132 L206 307 C206 319 206 322 202 333 C213 329 216 329 228 329 L400 329 L400 408 L228 408 C216 408 213 408 202 404 C206 415 206 418 206 430 L206 605 L121 605 L121 430 C121 418 121 415 125 404 C114 408 111 408 99 408 L-73 408 Z " />
<glyph glyph-name="comma" unicode="&#x2c;" horiz-adv-x="279" d="M-231 -125 L-152 -125 L35 125 L-98 125 L-231 -125 Z " />
<glyph glyph-name="hyphen" unicode="&#x2d;" horiz-adv-x="350" d="M-104 234 L139 234 L162 316 L-81 316 L-104 234 Z " />
<glyph glyph-name="period" unicode="&#x2e;" horiz-adv-x="212" d="M-177 0 L-58 0 L-24 120 L-141 120 L-177 0 Z " />
<glyph glyph-name="slash" unicode="&#x2f;" horiz-adv-x="325" d="M-187 0 L-103 0 L275 736 L190 736 L-187 0 Z " />
<glyph glyph-name="zero" unicode="0" horiz-adv-x="565" d="M232 724 C149 724 76 678 23 593 C-46 482 -100 299 -100 179 C-100 120 -73 55 -37 24 C-7 -1 37 -15 88 -15 C187 -15 266 45 323 165 C380 283 415 425 415 535 C415 648 342 724 232 724 L232 724 Z M228 642 C282 642 315 601 315 532 C315 412 262 221 207 142 C175 95 128 66 86 66 C34 66 0 110 0 177 C0 275 48 450 102 544 C139 609 181 642 228 642 L228 642 Z " />
<glyph glyph-name="one" unicode="1" horiz-adv-x="565" d="M37 0 L131 0 L340 711 L258 711 C170 651 142 636 65 608 L37 503 C129 537 168 555 215 590 L217 588 C187 506 180 487 153 395 L37 0 Z " />
<glyph glyph-name="two" unicode="2" horiz-adv-x="565" d="M-151 0 L298 0 L322 85 L155 85 C72 85 53 84 -22 78 L-24 82 L-13 89 C299 312 408 432 408 553 C408 656 329 725 210 725 C70 725 -12 654 -27 519 L78 519 C89 605 127 643 200 643 C264 643 305 606 305 548 C305 471 242 399 14 215 L-86 136 L-125 104 L-151 0 Z " />
<glyph glyph-name="three" unicode="3" horiz-adv-x="565" d="M222 361 C335 371 415 450 415 549 C415 654 334 723 211 723 C78 723 6 664 -26 529 L81 529 C95 605 133 640 202 640 C271 640 310 605 310 541 C310 461 234 407 121 407 L100 407 L77 325 L102 325 C188 325 237 284 237 211 C237 131 171 68 86 68 C16 68 -28 107 -28 167 C-28 174 -28 179 -26 192 L-130 192 C-132 179 -133 172 -133 162 C-133 50 -57 -14 75 -14 C228 -14 343 84 343 214 C343 288 300 337 222 355 L222 361 Z " />
<glyph glyph-name="four" unicode="4" horiz-adv-x="565" d="M-154 151 L90 151 C125 151 134 151 166 154 C154 124 151 116 141 82 L117 0 L212 0 L258 151 L360 151 L384 235 L333 235 C306 235 300 235 277 232 C288 262 291 268 301 304 L421 711 L293 711 L-116 275 L-154 151 Z M187 235 L70 235 C12 235 -1 235 -53 230 L-55 233 C0 286 15 301 70 359 L128 421 C212 512 230 532 302 617 L306 615 C275 531 269 511 241 417 L187 235 Z " />
<glyph glyph-name="five" unicode="5" horiz-adv-x="565" d="M54 399 C77 450 83 466 98 520 L130 629 L420 629 L443 710 L62 711 L-62 286 L29 286 C58 351 100 382 160 382 C226 382 264 339 264 264 C264 156 184 68 87 68 C25 68 -13 101 -13 154 C-13 157 -12 164 -12 171 L-113 171 C-114 160 -115 151 -115 145 C-115 47 -34 -17 90 -17 C168 -17 227 7 279 59 C337 118 370 199 370 283 C370 390 298 466 197 466 C145 466 102 444 59 397 L54 399 Z " />
<glyph glyph-name="six" unicode="6" horiz-adv-x="565" d="M34 386 C97 568 159 641 251 641 C306 641 340 612 340 564 C340 560 339 551 338 542 L440 542 C443 549 443 552 443 557 C443 665 379 726 265 726 C165 726 92 683 28 586 C-42 480 -93 310 -93 186 C-93 62 -15 -16 108 -16 C255 -16 373 117 373 283 C373 389 303 462 200 462 C138 462 89 438 38 383 L34 386 Z M171 381 C232 381 275 337 275 273 C275 161 198 63 110 63 C41 63 2 107 2 186 C2 293 79 381 171 381 L171 381 Z " />
<glyph glyph-name="seven" unicode="7" horiz-adv-x="565" d="M-78 0 L33 0 L441 617 L464 711 L14 711 L-13 627 L207 627 C274 627 288 627 347 631 L348 629 C312 581 303 568 267 514 L-78 0 Z " />
<glyph glyph-name="eight" unicode="8" horiz-adv-x="565" d="M247 369 C355 383 430 459 430 555 C430 656 350 726 234 726 C101 726 -4 634 -4 518 C-4 456 28 412 89 390 C-44 371 -127 285 -127 167 C-127 57 -42 -15 89 -15 C237 -15 351 86 351 217 C351 291 324 331 247 369 L247 369 Z M132 333 C199 333 249 284 249 220 C249 134 184 68 100 68 C27 68 -23 114 -23 182 C-23 267 45 333 132 333 L132 333 Z M228 646 C288 646 332 602 332 542 C332 473 273 417 199 417 C135 417 94 456 94 517 C94 587 156 646 228 646 L228 646 Z " />
<glyph glyph-name="nine" unicode="9" horiz-adv-x="565" d="M282 323 L277 310 C253 245 245 223 238 207 C223 175 200 139 181 119 C150 86 115 70 71 70 C9 70 -25 99 -25 152 C-25 155 -25 163 -24 169 L-120 169 C-122 155 -122 149 -122 140 C-122 42 -57 -16 53 -16 C157 -16 246 41 303 144 C368 261 411 410 411 519 C411 651 341 725 217 725 C132 725 63 691 13 625 C-29 569 -55 495 -55 428 C-55 318 15 248 123 248 C184 248 230 271 277 325 L282 323 Z M212 646 C279 646 316 601 316 522 C316 406 249 328 148 328 C81 328 42 372 42 445 C42 551 122 646 212 646 L212 646 Z " />
<glyph glyph-name="colon" unicode="&#x3a;" horiz-adv-x="248" d="M-144 0 L-25 0 L9 120 L-108 120 L-144 0 Z M-26 394 L91 394 L127 514 L9 514 L-26 394 Z " />
<glyph glyph-name="semicolon" unicode="&#x3b;" horiz-adv-x="256" d="M-223 -125 L-144 -125 L43 125 L-90 125 L-223 -125 Z M-27 394 L90 394 L126 514 L8 514 L-27 394 Z " />
<glyph glyph-name="less" unicode="&#x3c;" horiz-adv-x="565" d="M323 633 L-62 406 L-62 330 L323 104 L323 192 L122 307 C70 338 60 343 12 367 L12 369 C60 393 70 399 122 429 L323 545 L323 633 Z " />
<glyph glyph-name="equal" unicode="&#x3d;" horiz-adv-x="565" d="M-65 498 L-65 419 L394 419 L394 498 L-65 498 Z M-65 317 L-65 238 L394 238 L394 317 L-65 317 Z " />
<glyph glyph-name="greater" unicode="&#x3e;" horiz-adv-x="565" d="M5 633 L5 545 L206 429 C256 401 269 394 318 369 L318 367 C269 343 256 336 206 307 L5 192 L5 104 L390 330 L390 406 L5 633 Z " />
<glyph glyph-name="question" unicode="&#x3f;" horiz-adv-x="509" d="M-61 0 L51 0 L83 107 L-30 107 L-61 0 Z M-1 171 L90 171 C126 292 113 276 240 364 C356 444 401 506 401 585 C401 690 317 756 182 756 C143 756 110 751 53 738 L39 734 L13 643 C63 664 105 672 157 672 C246 672 293 640 293 579 C293 523 260 478 174 420 L101 369 C46 332 44 328 8 200 L-1 171 Z " />
<glyph glyph-name="at" unicode="&#x40;" horiz-adv-x="859" d="M467 547 L460 507 C458 498 457 487 457 475 L457 453 L452 453 C431 526 390 561 328 561 C217 561 132 461 132 331 C132 229 198 153 288 153 C345 153 392 183 426 242 L430 240 C431 189 461 156 507 156 C604 156 694 282 694 418 C694 612 544 750 332 750 C117 750 -54 581 -54 368 C-54 144 113 -15 349 -15 C442 -15 522 3 602 41 L586 90 C505 51 435 35 349 35 C144 35 2 171 2 367 C2 552 149 699 334 699 C513 699 640 584 640 420 C640 306 579 206 510 206 C482 206 464 226 464 258 C464 268 467 289 470 308 L517 547 L467 547 Z M332 506 C393 506 430 462 430 392 C430 287 373 207 299 207 C235 207 192 259 192 337 C192 429 256 506 332 506 L332 506 Z " />
<glyph glyph-name="A" unicode="A" horiz-adv-x="698" d="M-216 0 L-103 0 L14 184 L349 184 L362 0 L462 0 L398 736 L270 736 L-216 0 Z M197 266 C133 266 120 266 62 262 L61 264 C95 311 101 321 136 376 L203 481 C258 568 270 587 316 669 L320 668 C321 580 322 560 329 461 L341 292 C342 279 343 275 347 262 C334 266 331 266 317 266 L197 266 Z " />
<glyph glyph-name="B" unicode="B" horiz-adv-x="632" d="M-142 0 L149 0 C313 0 420 90 420 228 C420 301 386 345 304 375 C433 401 500 470 500 576 C500 677 427 736 302 736 L74 736 L-142 0 Z M57 339 L141 339 C201 339 232 336 254 327 C294 311 315 278 315 231 C315 186 294 147 257 119 C228 97 180 87 111 87 L47 87 C15 87 7 87 -22 84 C-10 114 -8 122 3 156 L57 339 Z M150 652 L232 652 C295 652 336 647 354 636 C380 621 395 594 395 564 C395 510 358 459 303 437 C276 426 236 421 180 421 L130 421 C105 421 99 421 76 418 C88 448 91 455 101 490 L150 652 Z " />
<glyph glyph-name="C" unicode="C" horiz-adv-x="644" d="M526 538 C527 551 527 558 527 565 C527 684 444 757 308 757 C218 757 129 721 71 661 C-26 563 -84 406 -84 247 C-84 73 7 -22 172 -22 C309 -22 418 58 447 180 L334 180 C309 104 252 62 173 62 C82 62 24 129 24 235 C24 346 70 495 128 577 C175 642 232 674 299 674 C376 674 425 628 425 557 C425 551 425 547 423 538 L526 538 Z " />
<glyph glyph-name="D" unicode="D" horiz-adv-x="721" d="M-142 0 L134 0 C224 0 290 14 343 44 C480 122 568 288 568 468 C568 569 536 641 470 690 C425 723 368 736 267 736 L76 736 L-142 0 Z M150 649 L257 649 C404 649 461 601 461 477 C461 341 400 200 314 138 C267 104 204 87 127 87 L56 87 C21 87 13 87 -20 84 C-8 114 -6 120 5 155 L150 649 Z " />
<glyph glyph-name="E" unicode="E" horiz-adv-x="578" d="M-142 0 L312 0 L337 86 L55 86 C19 86 11 86 -21 83 C-9 113 -6 121 3 154 L60 346 L376 346 L399 429 L156 429 C121 429 113 429 81 426 C93 455 95 461 105 496 L149 650 L480 650 L505 736 L75 736 L-142 0 Z " />
<glyph glyph-name="F" unicode="F" horiz-adv-x="517" d="M-143 0 L-43 0 L51 319 L348 319 L372 402 L147 402 C112 402 104 402 72 399 C83 429 85 435 96 470 L149 650 L449 650 L475 736 L74 736 L-143 0 Z " />
<glyph glyph-name="G" unicode="G" horiz-adv-x="726" d="M527 390 L265 390 L241 306 L332 306 C367 306 375 306 407 309 C396 279 393 272 383 238 L340 88 C294 71 266 66 221 66 C89 66 25 124 25 243 C25 374 80 521 161 607 C201 649 260 672 329 672 C422 672 474 632 474 560 C474 555 474 551 473 541 L577 541 C579 557 580 565 580 576 C580 685 484 756 336 756 C224 756 134 723 71 658 C-24 560 -83 400 -83 240 C-83 67 12 -18 208 -18 C284 -18 350 -6 419 20 L527 390 Z " />
<glyph glyph-name="H" unicode="H" horiz-adv-x="719" d="M-142 0 L-42 0 L59 340 L332 340 C367 340 375 340 407 343 C395 313 393 307 383 272 L304 0 L404 0 L620 736 L520 736 L430 425 L155 425 C119 425 112 425 79 422 C91 452 93 459 104 494 L176 736 L75 736 L-142 0 Z " />
<glyph glyph-name="I" unicode="I" horiz-adv-x="274" d="M-141 0 L-40 0 L176 736 L76 736 L-141 0 Z " />
<glyph glyph-name="J" unicode="J" horiz-adv-x="514" d="M414 736 L315 736 L161 219 C132 119 91 80 18 80 C-34 80 -65 106 -65 150 C-65 172 -63 186 -53 228 L-155 228 C-166 187 -170 162 -170 133 C-170 38 -110 -9 11 -9 C134 -9 212 55 251 187 L414 736 Z " />
<glyph glyph-name="K" unicode="K" horiz-adv-x="644" d="M-139 0 L-39 0 L27 224 C51 305 55 321 72 394 L75 394 C110 328 117 314 161 241 L303 0 L420 0 L181 390 L554 736 L426 736 L252 575 C168 497 150 480 77 405 L73 407 C101 479 107 499 131 578 L178 736 L77 736 L-139 0 Z " />
<glyph glyph-name="L" unicode="L" horiz-adv-x="511" d="M-143 0 L284 0 L309 86 L54 86 C19 86 10 86 -22 83 C-10 113 -8 121 3 155 L174 736 L74 736 L-143 0 Z " />
<glyph glyph-name="M" unicode="M" horiz-adv-x="913" d="M-144 0 L-43 0 L99 482 C123 564 130 588 150 669 L155 668 C155 585 156 565 160 474 L182 0 L292 0 L598 494 C646 572 658 593 701 670 L707 667 C679 585 672 564 645 473 L507 0 L607 0 L823 736 L649 736 L384 307 C327 215 316 195 269 110 L265 111 L265 188 C265 233 264 276 261 339 L242 736 L73 736 L-144 0 Z " />
<glyph glyph-name="N" unicode="N" horiz-adv-x="747" d="M-144 0 L-44 0 L77 411 C110 524 116 548 140 650 L145 650 C164 546 170 522 197 408 L296 0 L436 0 L654 736 L554 736 L432 324 C399 214 393 189 368 86 L363 86 C344 190 339 214 312 328 L214 736 L73 736 L-144 0 Z " />
<glyph glyph-name="O" unicode="O" horiz-adv-x="744" d="M324 754 C194 754 103 705 26 593 C-41 496 -81 366 -81 243 C-81 69 11 -20 189 -20 C322 -20 432 46 502 167 C558 263 591 388 591 500 C591 664 496 754 324 754 L324 754 Z M317 673 C430 673 485 612 485 488 C485 384 434 229 375 151 C334 97 261 62 189 62 C84 62 25 125 25 237 C25 368 81 520 162 609 C200 650 256 673 317 673 L317 673 Z " />
<glyph glyph-name="P" unicode="P" horiz-adv-x="611" d="M-143 0 L-43 0 L46 304 L205 304 C288 304 338 315 383 343 C455 386 498 469 498 562 C498 681 437 736 306 736 L74 736 L-143 0 Z M150 653 L232 653 C355 653 393 628 393 548 C393 445 317 386 185 386 L128 386 C99 386 93 386 66 383 C78 413 81 422 91 455 L150 653 Z " />
<glyph glyph-name="Q" unicode="Q" horiz-adv-x="759" d="M408 68 C526 174 590 322 590 488 C590 665 500 755 325 755 C225 755 135 719 74 656 C-22 556 -81 399 -81 243 C-81 160 -60 90 -23 53 C19 10 99 -18 177 -18 C195 -18 215 -17 236 -14 L313 -5 C332 -2 368 0 387 0 L572 0 L595 82 C574 83 555 83 538 83 C495 83 466 79 410 64 L408 68 Z M318 674 C428 674 484 614 484 499 C484 361 429 207 353 129 C316 91 252 65 195 65 C85 65 23 127 23 237 C23 365 81 519 162 610 C199 650 256 674 318 674 L318 674 Z " />
<glyph glyph-name="R" unicode="R" horiz-adv-x="650" d="M-143 0 L-43 0 L58 338 L188 338 C282 338 303 317 303 222 C303 194 302 168 301 143 C299 109 298 83 298 74 C298 51 300 33 306 0 L405 0 C399 19 397 32 397 51 L397 133 L399 204 C400 216 400 229 400 247 C400 323 385 346 323 372 C442 395 521 476 521 577 C521 679 443 736 305 736 L75 736 L-143 0 Z M150 654 L286 654 C379 654 418 626 418 558 C418 474 345 419 235 419 L152 419 C117 419 109 419 77 416 C89 446 92 455 101 487 L150 654 Z " />
<glyph glyph-name="S" unicode="S" horiz-adv-x="621" d="M476 545 L477 555 C479 571 480 588 480 597 C480 695 398 756 265 756 C105 756 -10 668 -10 547 C-10 460 26 419 186 330 C273 281 304 247 304 200 C304 121 224 65 112 65 C20 65 -24 101 -24 179 C-24 187 -23 199 -20 217 L-122 217 C-128 181 -130 164 -130 145 C-130 42 -42 -19 105 -19 C288 -19 412 75 412 213 C412 295 373 345 259 409 C158 466 145 474 123 497 C108 512 98 536 98 558 C98 624 164 671 256 671 C335 671 376 640 376 581 C376 573 376 565 375 555 L374 545 L476 545 Z " />
<glyph glyph-name="T" unicode="T" horiz-adv-x="532" d="M-28 650 L109 650 C144 650 152 650 185 653 C173 623 171 617 160 582 L-10 0 L88 0 L280 650 L473 650 L497 736 L-4 736 L-28 650 Z " />
<glyph glyph-name="U" unicode="U" horiz-adv-x="736" d="M645 736 L545 736 L417 301 C373 153 290 75 175 75 C82 75 22 127 22 208 C22 227 27 257 37 288 L168 736 L68 736 L-58 306 C-69 269 -74 234 -74 198 C-74 71 20 -12 164 -12 C345 -12 455 86 518 303 L645 736 Z " />
<glyph glyph-name="V" unicode="V" horiz-adv-x="611" d="M-20 736 L54 0 L187 0 L589 736 L479 736 L238 282 C185 183 175 162 133 71 L128 72 C126 173 125 197 116 308 L82 736 L-20 736 Z " />
<glyph glyph-name="W" unicode="W" horiz-adv-x="961" d="M-22 736 L-4 0 L129 0 L323 408 C376 518 387 544 429 648 L435 646 C432 583 431 530 431 501 L431 454 C432 431 432 408 433 384 L440 0 L573 0 L940 736 L831 736 L633 324 C580 214 568 187 525 83 L520 84 C523 156 525 212 525 248 L524 348 L520 736 L386 736 L189 325 C136 214 124 188 80 83 L75 84 C80 183 81 223 81 291 L81 349 L79 736 L-22 736 Z " />
<glyph glyph-name="X" unicode="X" horiz-adv-x="642" d="M-224 0 L-103 0 L108 228 C144 267 149 274 178 309 C193 266 197 256 217 209 L303 0 L413 0 L250 378 L587 736 L468 736 L285 538 C250 500 243 493 214 458 C199 501 195 510 176 558 L103 736 L-7 736 L147 386 L-224 0 Z " />
<glyph glyph-name="Y" unicode="Y" horiz-adv-x="588" d="M-22 736 L112 261 L34 0 L134 0 L212 263 L572 736 L456 736 L270 486 C224 424 214 411 176 353 L173 354 C161 422 157 437 139 512 L84 736 L-22 736 Z " />
<glyph glyph-name="Z" unicode="Z" horiz-adv-x="611" d="M-161 0 L366 0 L390 86 L150 86 C65 86 47 86 -29 81 L-30 84 C25 136 36 147 96 210 L509 644 L527 736 L30 736 L5 650 L213 650 C298 650 316 651 392 655 L393 652 C337 599 323 586 267 526 L-147 92 L-161 0 Z " />
<glyph glyph-name="bracketleft" unicode="&#x5b;" horiz-adv-x="333" d="M125 669 L261 669 L280 736 L63 736 L-213 -198 L3 -198 L24 -131 L-44 -131 C-77 -131 -84 -131 -115 -134 C-103 -104 -101 -97 -91 -62 L125 669 Z " />
<glyph glyph-name="backslash" unicode="&#x5c;" horiz-adv-x="325" d="M57 0 L114 736 L29 736 L-27 0 L57 0 Z " />
<glyph glyph-name="bracketright" unicode="&#x5d;" horiz-adv-x="333" d="M-92 -131 L-229 -131 L-248 -198 L-29 -198 L246 736 L29 736 L9 669 L76 669 C110 669 118 669 148 672 C136 642 134 635 124 600 L-92 -131 Z " />
<glyph glyph-name="asciicircum" unicode="&#x5e;" horiz-adv-x="565" d="M410 368 L207 736 L132 736 L-71 368 L8 368 L107 548 C137 603 144 616 168 668 L171 668 C195 616 202 604 232 548 L331 368 L410 368 Z " />
<glyph glyph-name="underscore" unicode="&#x5f;" horiz-adv-x="455" d="M-254 -93 L-271 -152 L184 -152 L201 -93 L-254 -93 Z " />
<glyph glyph-name="grave" unicode="&#x60;" d="M-149 763 L-54 610 L15 610 L-39 763 L-149 763 Z " />
<glyph glyph-name="a" unicode="a" horiz-adv-x="534" d="M177 77 C169 48 165 33 159 0 L250 0 C258 51 265 77 290 166 L303 209 L338 327 C343 345 347 371 347 389 C347 482 287 529 168 529 C40 529 -37 479 -54 386 L47 386 C66 440 97 462 155 462 C215 462 252 435 252 391 C252 381 250 365 248 355 L242 327 L214 327 C117 327 47 318 0 300 C-89 265 -140 199 -140 120 C-140 41 -83 -13 0 -13 C73 -13 136 21 172 79 L177 77 Z M198 261 C210 261 213 262 223 266 C194 131 124 54 30 54 C-12 54 -40 83 -40 126 C-40 213 37 261 175 261 L198 261 Z " />
<glyph glyph-name="b" unicode="b" horiz-adv-x="586" d="M-148 0 L-57 0 L-46 37 C-40 54 -39 61 -38 80 L-34 80 C-8 15 32 -12 107 -12 C267 -12 401 156 401 356 C401 460 336 525 231 525 C169 525 117 499 78 447 L73 450 C97 512 103 530 123 596 L165 736 L69 736 L-148 0 Z M199 451 C265 451 298 415 298 340 C298 191 203 54 100 54 C37 54 0 90 0 150 C0 205 20 281 51 339 C91 415 138 451 199 451 L199 451 Z " />
<glyph glyph-name="c" unicode="c" horiz-adv-x="493" d="M281 158 L182 158 C157 88 121 58 65 58 C10 58 -21 89 -21 144 C-21 207 9 323 40 376 C72 433 110 458 161 458 C211 458 236 433 236 383 C236 373 235 366 230 353 L329 353 L330 361 C332 374 334 387 334 394 C334 478 272 528 168 528 C79 528 10 492 -40 419 C-91 345 -122 241 -122 145 C-122 42 -57 -15 59 -15 C174 -15 244 38 279 149 L281 158 Z " />
<glyph glyph-name="d" unicode="d" horiz-adv-x="580" d="M216 77 C206 43 203 33 196 0 L285 0 C297 61 303 87 311 115 L494 736 L401 736 L349 561 C332 501 328 488 317 433 L313 432 C283 500 242 527 170 527 C104 527 48 503 2 456 C-71 381 -115 272 -115 163 C-115 54 -55 -10 48 -10 C114 -10 163 17 211 79 L216 77 Z M183 459 C241 459 281 420 281 362 C281 275 241 172 182 106 C156 78 118 60 84 60 C22 60 -13 99 -13 168 C-13 323 79 459 183 459 L183 459 Z " />
<glyph glyph-name="e" unicode="e" horiz-adv-x="537" d="M340 240 C356 289 363 326 363 368 C363 472 298 529 179 529 C103 529 37 504 -7 457 C-77 383 -123 263 -123 153 C-123 45 -55 -17 65 -17 C187 -17 275 43 308 148 L202 148 C178 85 139 58 75 58 C7 58 -25 93 -25 167 C-25 189 -21 208 -11 240 L340 240 Z M86 309 C48 309 40 309 7 304 C39 408 94 459 174 459 C235 459 267 428 267 368 C267 348 265 333 258 309 L86 309 Z " />
<glyph glyph-name="f" unicode="f" horiz-adv-x="332" d="M-128 0 L-35 0 L98 447 L212 447 L233 514 L175 514 C146 514 139 514 113 511 C120 524 121 527 125 542 L134 570 C156 646 183 668 253 668 L276 668 L297 738 C257 742 243 743 219 743 C125 743 79 705 48 601 L23 514 L-76 514 L-95 447 L-46 447 C-21 447 -15 447 7 450 C-4 420 -7 414 -17 379 L-128 0 Z " />
<glyph glyph-name="g" unicode="g" horiz-adv-x="565" d="M416 514 L327 514 L317 478 C312 461 310 454 309 435 L306 435 C275 500 230 530 161 530 C18 530 -114 363 -114 182 C-114 79 -50 10 45 10 C106 10 156 35 195 86 L200 83 C188 61 184 50 179 36 L167 -5 C140 -98 91 -141 12 -141 C-50 -141 -76 -118 -76 -62 C-76 -56 -76 -49 -74 -36 L-173 -36 C-176 -51 -177 -59 -177 -74 C-177 -162 -120 -205 -3 -205 C164 -205 219 -152 285 69 L416 514 Z M171 465 C228 465 272 422 272 366 C272 306 239 207 200 153 C166 104 123 78 80 78 C21 78 -14 117 -14 182 C-14 265 24 360 83 424 C108 451 137 465 171 465 L171 465 Z " />
<glyph glyph-name="h" unicode="h" horiz-adv-x="583" d="M-151 0 L-58 0 L10 228 C34 308 51 344 87 384 C125 427 172 451 218 451 C262 451 296 422 296 383 C296 370 292 346 284 319 L274 281 L190 0 L286 0 L371 289 C386 341 394 384 394 412 C394 477 334 524 252 524 C180 524 127 496 68 428 L63 430 C88 496 95 515 115 585 L160 736 L65 736 L-151 0 Z " />
<glyph glyph-name="i" unicode="i" horiz-adv-x="243" d="M-153 0 L-58 0 L94 514 L-1 514 L-153 0 Z M30 637 L136 637 L165 736 L59 736 L30 637 Z " />
<glyph glyph-name="j" unicode="j" horiz-adv-x="251" d="M-289 -189 C-260 -192 -249 -193 -232 -193 C-138 -193 -105 -164 -67 -45 L-52 5 L97 514 L3 514 L-151 -3 C-179 -96 -200 -118 -261 -118 L-269 -118 L-289 -189 Z M33 636 L138 636 L169 736 L63 736 L33 636 Z " />
<glyph glyph-name="k" unicode="k" horiz-adv-x="504" d="M-148 0 L-55 0 L-5 171 C13 231 16 243 29 298 L33 299 C55 246 61 233 88 179 L177 0 L280 0 L131 288 L386 514 L261 514 L151 416 C94 365 85 356 38 310 L34 312 C57 376 61 390 83 464 L163 736 L68 736 L-148 0 Z " />
<glyph glyph-name="l" unicode="l" horiz-adv-x="243" d="M-153 0 L-57 0 L159 736 L64 736 L-153 0 Z " />
<glyph glyph-name="m" unicode="m" horiz-adv-x="908" d="M-149 0 L-56 0 L4 206 C50 362 123 451 206 451 C253 451 283 425 283 384 C283 354 281 344 264 284 L180 0 L275 0 L333 197 C357 281 377 330 399 364 C432 416 489 451 539 451 C587 451 616 425 616 382 C616 357 612 335 596 284 L512 0 L606 0 L687 271 L697 307 C711 358 714 372 714 394 C714 473 657 523 566 523 C496 523 436 490 380 422 L378 422 C358 489 312 523 243 523 C174 523 123 496 68 428 L64 430 C76 466 79 477 85 514 L-4 514 C-12 470 -17 451 -22 432 L-149 0 Z " />
<glyph glyph-name="n" unicode="n" horiz-adv-x="588" d="M-151 0 L-58 0 L13 241 C52 371 129 451 215 451 C265 451 296 423 296 377 C296 361 293 346 283 313 C279 302 276 292 273 281 L190 0 L286 0 L370 289 C389 355 394 378 394 405 C394 478 338 524 249 524 C174 524 126 498 67 427 L63 429 C76 466 79 478 86 514 L-4 514 C-14 466 -20 445 -30 412 L-151 0 Z " />
<glyph glyph-name="o" unicode="o" horiz-adv-x="573" d="M172 527 C78 527 10 490 -45 411 C-89 346 -119 250 -119 172 C-119 56 -36 -14 100 -14 C190 -14 262 26 315 105 C358 170 387 264 387 342 C387 457 306 527 172 527 L172 527 Z M174 458 C246 458 287 418 287 348 C287 262 248 158 194 98 C171 72 133 56 96 56 C22 56 -19 96 -19 168 C-19 252 21 357 75 416 C99 443 134 458 174 458 L174 458 Z " />
<glyph glyph-name="p" unicode="p" horiz-adv-x="578" d="M-208 -197 L-113 -197 L-69 -47 C-52 12 -48 25 -37 80 L-33 80 C-5 14 34 -12 106 -12 C262 -12 393 156 393 357 C393 460 330 526 231 526 C164 526 110 497 75 441 L70 444 C80 475 82 484 87 514 L-4 514 C-16 460 -22 436 -29 412 L-208 -197 Z M198 452 C261 452 292 416 292 341 C292 191 200 54 99 54 C36 54 -1 90 -1 152 C-1 235 41 345 97 408 C121 435 159 452 198 452 L198 452 Z " />
<glyph glyph-name="q" unicode="q" horiz-adv-x="580" d="M427 514 L336 514 L325 477 C319 460 318 453 317 434 L313 434 C287 499 247 526 172 526 C14 526 -119 358 -119 157 C-119 53 -55 -12 48 -12 C110 -12 161 14 201 66 L206 63 C184 7 178 -9 160 -69 L122 -197 L218 -197 L427 514 Z M179 460 C241 460 278 424 278 364 C278 308 258 233 227 174 C187 98 141 62 80 62 C16 62 -16 98 -16 173 C-16 323 77 460 179 460 L179 460 Z " />
<glyph glyph-name="r" unicode="r" horiz-adv-x="373" d="M-150 0 L-57 0 L7 215 C51 363 99 413 197 413 C212 413 224 412 249 410 L277 510 C254 514 245 515 228 515 C157 515 112 487 62 410 L56 413 C73 457 77 470 85 514 L-4 514 C-14 469 -19 449 -25 428 L-150 0 Z " />
<glyph glyph-name="s" unicode="s" horiz-adv-x="478" d="M307 371 C308 383 308 389 308 397 C308 486 256 528 145 528 C10 528 -68 470 -68 369 C-68 316 -40 282 36 244 C134 194 152 178 152 140 C152 87 110 56 38 56 C-27 56 -53 77 -53 129 C-53 138 -52 147 -50 164 L-147 164 C-152 140 -154 128 -154 112 C-154 28 -94 -14 26 -14 C171 -14 257 51 257 161 C257 221 231 253 148 292 C57 335 35 353 35 389 C35 430 74 459 130 459 C185 459 210 437 210 388 C210 386 209 377 209 371 L307 371 Z " />
<glyph glyph-name="t" unicode="t" horiz-adv-x="330" d="M110 67 C88 63 75 61 57 61 C21 61 1 79 1 112 C1 129 5 152 15 184 L92 448 L197 448 L216 514 L164 514 C137 514 131 514 107 511 C119 540 122 548 131 580 L151 647 L50 629 L17 514 L-74 514 L-94 448 L-48 448 C-25 448 -20 448 2 451 C-10 422 -12 415 -22 380 L-89 148 C-95 127 -98 106 -98 83 C-98 17 -63 -14 12 -14 C40 -14 56 -12 92 -4 L110 67 Z " />
<glyph glyph-name="u" unicode="u" horiz-adv-x="588" d="M438 514 L345 514 L273 273 C234 143 158 63 71 63 C22 63 -9 91 -9 137 C-9 153 -6 166 4 201 L14 233 L97 514 L1 514 L-84 225 C-102 163 -107 136 -107 109 C-107 36 -51 -10 38 -10 C112 -10 161 16 219 87 L224 85 C210 48 207 36 201 0 L290 0 C301 48 306 69 316 102 L438 514 Z " />
<glyph glyph-name="v" unicode="v" horiz-adv-x="509" d="M-91 514 L-19 0 L78 0 L420 514 L314 514 L156 268 C104 187 92 167 48 90 L44 91 C39 180 37 202 26 298 L2 514 L-91 514 Z " />
<glyph glyph-name="w" unicode="w" horiz-adv-x="811" d="M-91 514 L-51 0 L59 0 L182 218 C237 315 248 338 294 429 L298 428 C297 388 297 363 297 338 C297 317 298 269 301 207 L309 0 L419 0 L722 514 L623 514 L499 296 C444 200 432 176 386 83 L381 84 C383 134 383 162 383 195 C383 213 382 255 380 306 L373 514 L256 514 L133 293 C79 194 68 173 23 81 L19 82 L19 133 C19 190 18 215 13 305 L2 514 L-91 514 Z " />
<glyph glyph-name="x" unicode="x" horiz-adv-x="517" d="M-226 0 L-110 0 L29 141 C60 171 65 177 89 206 C103 171 106 164 125 125 L184 0 L287 0 L151 264 L406 514 L289 514 L174 397 C145 367 138 360 113 330 C99 366 96 374 77 413 L30 514 L-73 514 L51 271 L-226 0 Z " />
<glyph glyph-name="y" unicode="y" horiz-adv-x="506" d="M-134 -192 L-32 -192 L418 514 L316 514 L160 268 C108 185 97 168 55 91 L51 92 C44 180 42 201 30 296 L2 514 L-93 514 L-10 -5 L-134 -192 Z " />
<glyph glyph-name="z" unicode="z" horiz-adv-x="473" d="M-174 0 L214 0 L233 69 L91 69 C20 69 6 69 -57 64 L-59 67 C0 120 14 133 75 194 L318 437 L331 514 L-42 514 L-62 445 L71 445 C139 445 152 445 212 450 L213 447 C155 394 141 380 81 320 L-160 77 L-174 0 Z " />
<glyph glyph-name="braceleft" unicode="&#x7b;" horiz-adv-x="345" d="M-21 271 C38 294 70 331 89 398 L139 565 C162 644 194 669 271 668 L291 736 L235 736 C144 736 93 688 59 572 L9 403 C-9 343 -33 317 -83 303 L-103 235 C-74 225 -62 210 -62 184 C-62 169 -65 154 -70 135 L-120 -34 C-130 -69 -135 -98 -135 -122 C-135 -172 -103 -198 -40 -198 L16 -198 L36 -130 L28 -130 L24 -130 C-21 -129 -46 -112 -46 -81 C-46 -77 -44 -65 -41 -50 C-39 -41 -37 -33 -36 -27 L13 140 C20 163 24 186 24 204 C24 235 12 252 -21 268 L-21 271 Z " />
<glyph glyph-name="bar" unicode="&#x7c;" horiz-adv-x="246" d="M75 736 L-207 -221 L-131 -221 L150 736 L75 736 Z " />
<glyph glyph-name="braceright" unicode="&#x7d;" horiz-adv-x="345" d="M71 267 C12 243 -20 207 -39 140 L-88 -27 C-112 -106 -144 -131 -221 -130 L-241 -198 L-185 -198 C-94 -198 -43 -150 -9 -34 L41 135 C59 195 83 221 133 235 L153 303 C124 313 112 328 112 354 C112 369 115 384 120 403 L170 572 C180 606 185 635 185 660 C185 710 153 736 90 736 L34 736 L14 668 L22 668 L26 668 C71 667 97 649 96 619 C96 614 94 604 91 588 C89 579 87 571 86 565 L37 398 C30 376 26 351 26 334 C26 303 38 287 71 270 L71 267 Z " />
<glyph glyph-name="asciitilde" unicode="&#x7e;" horiz-adv-x="565" d="M-31 302 L-25 312 C4 354 28 371 61 371 C81 371 113 359 146 338 L203 304 C220 293 250 285 272 285 C319 285 363 317 406 383 L359 434 C324 381 303 366 263 366 C236 366 223 372 155 412 C109 440 79 451 54 451 C6 451 -34 422 -79 353 L-31 302 Z " />
<glyph glyph-name="exclamdown" unicode="&#xa1;" horiz-adv-x="289" d="M-217 -222 L-99 -222 L37 340 L-37 340 L-217 -222 Z M-35 407 L78 407 L110 514 L-3 514 L-35 407 Z " />
<glyph glyph-name="cent" unicode="&#xa2;" horiz-adv-x="486" d="M225 601 L180 601 L159 529 C112 529 68 517 30 494 C-58 440 -125 290 -125 145 C-125 60 -85 12 4 -7 C-2 -16 -3 -19 -6 -30 L-25 -92 L20 -92 L43 -15 L51 -15 C118 -15 175 7 217 49 C242 73 254 96 270 149 L273 158 L173 158 C149 88 119 62 59 58 C76 99 80 110 93 154 L182 455 C213 447 228 423 228 380 C228 372 227 366 226 353 L320 353 L321 361 C322 371 322 380 322 384 C322 467 289 504 198 522 C205 534 206 537 210 551 L225 601 Z M32 99 C27 82 26 78 26 62 C-9 76 -24 100 -24 144 C-24 207 5 322 35 376 C65 430 93 451 143 458 C125 412 121 400 105 348 L32 99 Z " />
<glyph glyph-name="sterling" unicode="&#xa3;" horiz-adv-x="558" d="M107 366 L265 366 L289 450 L202 450 C167 450 159 450 127 447 C135 463 136 466 142 487 L153 523 C182 624 228 672 295 672 C346 672 379 642 379 596 C379 591 379 587 378 578 L489 578 C491 586 491 591 491 595 C491 689 416 753 306 753 C184 753 107 688 64 550 L34 450 L-46 450 L-71 366 L-31 366 C-10 366 -5 366 13 369 C2 339 -1 333 -11 297 L-74 84 L-160 84 L-185 0 L302 0 L327 84 L95 84 C59 84 51 84 19 81 C31 111 33 119 43 153 L107 366 Z " />
<glyph glyph-name="currency" unicode="&#xa4;" horiz-adv-x="565" d="M270 532 C235 553 202 563 165 563 C127 563 94 553 59 532 L-18 609 L-76 551 L1 474 C-20 439 -30 406 -30 368 C-30 329 -21 297 1 263 L-76 186 L-18 128 L59 205 C93 183 126 173 165 173 C203 173 236 183 270 204 L347 128 L405 186 L328 262 C350 297 359 330 359 368 C359 406 350 439 328 474 L405 551 L347 609 L270 532 Z M165 488 C231 488 284 434 284 368 C284 301 231 248 165 248 C99 248 46 301 46 369 C46 434 99 488 165 488 L165 488 Z " />
<glyph glyph-name="yen" unicode="&#xa5;" horiz-adv-x="680" d="M509 423 L435 423 C396 423 388 422 353 418 L352 421 C408 473 419 484 480 547 L661 736 L567 736 L298 454 C260 413 253 406 222 370 C207 416 204 428 186 478 L94 736 L-2 736 L83 503 C99 461 101 455 117 420 C84 423 79 423 38 423 L-36 423 L-49 380 L127 380 L142 339 C149 319 152 313 161 295 C123 298 115 298 71 298 L-73 298 L-86 255 L73 255 C108 255 116 255 148 258 C137 228 134 221 124 186 L69 0 L154 0 L229 255 L459 255 L472 298 L357 298 C298 298 286 297 234 293 L233 296 C255 313 261 318 281 339 L321 380 L496 380 L509 423 Z " />
<glyph glyph-name="brokenbar" unicode="&#xa6;" horiz-adv-x="246" d="M75 736 L-34 368 L42 368 L150 736 L75 736 Z M-99 147 L-207 -221 L-131 -221 L-23 147 L-99 147 Z " />
<glyph glyph-name="section" unicode="&#xa7;" horiz-adv-x="473" d="M-178 6 C-110 -12 -54 -21 -1 -21 C132 -21 224 44 224 139 C224 182 208 210 161 249 C254 283 298 326 298 383 C298 427 278 452 195 512 C149 546 133 568 133 595 C133 633 175 657 242 657 C282 657 294 655 368 635 L394 709 C327 728 278 736 224 736 C114 736 31 673 31 589 C31 553 47 527 93 488 L92 486 C-15 461 -68 417 -68 354 C-68 330 -58 306 -40 284 C-25 267 -27 268 36 226 L76 199 C112 175 124 158 124 133 C124 89 70 60 -13 60 C-55 60 -77 63 -159 83 L-178 6 Z M107 283 C51 310 29 334 29 366 C29 405 64 431 143 451 C186 421 201 399 201 371 C201 327 179 306 107 283 L107 283 Z " />
<glyph glyph-name="dieresis" unicode="&#xa8;" d="M-183 634 L-86 634 L-55 739 L-152 739 L-183 634 Z M-9 634 L88 634 L119 739 L22 739 L-9 634 Z " />
<glyph glyph-name="copyright" unicode="&#xa9;" horiz-adv-x="877" d="M327 747 C109 747 -62 580 -62 368 C-62 159 109 -11 321 -11 C533 -11 704 159 704 368 C704 574 532 747 327 747 L327 747 Z M326 697 C501 697 647 547 647 368 C647 186 501 39 321 39 C141 39 -5 186 -5 368 C-5 552 141 697 326 697 L326 697 Z M413 275 C402 227 376 207 326 207 C250 207 212 261 212 369 C212 474 252 531 326 531 C375 531 402 509 411 463 L482 463 C476 542 420 585 325 585 C212 585 142 505 142 375 L142 358 C142 228 210 152 326 152 C417 152 476 198 486 275 L413 275 Z " />
<glyph glyph-name="ordfeminine" unicode="&#xaa;" horiz-adv-x="368" d="M128 359 C125 348 122 340 121 335 L118 323 C117 322 117 320 116 317 L179 317 L180 320 C185 348 189 366 205 417 L213 443 L234 512 C237 522 240 539 240 551 C240 607 201 637 126 637 C49 637 -3 606 -13 554 L-14 549 C-14 548 -15 547 -15 545 L54 545 L55 547 C66 578 84 590 118 590 C153 590 174 575 174 551 C174 546 173 535 172 531 L168 517 L154 517 C9 517 -67 474 -67 391 C-67 342 -30 309 23 309 C68 309 115 330 122 353 C122 355 123 357 124 361 L128 359 Z M143 471 C149 471 151 471 156 476 C134 394 97 356 42 356 C18 356 2 371 2 395 C2 444 48 471 131 471 L143 471 Z " />
<glyph glyph-name="guillemotleft" unicode="&#xab;" horiz-adv-x="460" d="M-89 265 L-38 63 L36 63 L3 265 L151 466 L71 466 L-89 265 Z M94 265 L145 63 L219 63 L186 265 L333 466 L253 466 L94 265 Z " />
<glyph glyph-name="logicalnot" unicode="&#xac;" horiz-adv-x="565" d="M-67 511 L-67 432 L289 432 C301 432 304 432 315 436 C311 425 311 421 311 410 L311 225 L395 225 L395 511 L-67 511 Z " />
<glyph glyph-name="registered" unicode="&#xae;" horiz-adv-x="877" d="M327 747 C109 747 -62 580 -62 368 C-62 159 109 -11 321 -11 C533 -11 704 159 704 368 C704 574 532 747 327 747 L327 747 Z M326 697 C501 697 647 547 647 368 C647 186 501 39 321 39 C141 39 -5 186 -5 368 C-5 552 141 697 326 697 L326 697 Z M176 158 L242 158 L242 323 C242 335 242 338 238 349 C249 345 252 345 264 345 L325 345 C375 345 390 330 397 273 C402 235 406 211 418 158 L489 158 L485 171 C474 209 472 220 463 275 C453 338 441 357 403 370 L403 373 C456 394 477 422 477 471 C477 544 428 578 324 578 L176 578 L176 158 Z M242 500 C242 512 242 515 238 526 C249 522 252 522 264 522 L328 522 C385 522 408 504 408 461 C408 419 384 400 331 400 L264 400 C252 400 249 400 238 396 C242 407 242 410 242 422 L242 500 Z " />
<glyph glyph-name="macron" unicode="&#xaf;" d="M-184 653 L100 653 L119 720 L-165 720 L-184 653 Z " />
<glyph glyph-name="degree" unicode="&#xb0;" horiz-adv-x="417" d="M156 744 C71 744 3 677 3 593 C3 510 72 443 156 443 C240 443 309 511 309 593 C309 677 241 744 156 744 L156 744 Z M156 694 C212 694 258 649 258 593 C258 538 212 493 156 493 C100 493 54 538 54 593 C54 649 100 694 156 694 L156 694 Z " />
<glyph glyph-name="plusminus" unicode="&#xb1;" horiz-adv-x="565" d="M-94 477 L-94 398 L71 398 C83 398 86 398 97 402 C93 391 93 388 93 376 L93 231 L177 231 L177 376 C177 388 177 391 173 402 C184 398 187 398 199 398 L365 398 L365 477 L199 477 C187 477 184 477 173 473 C177 484 177 487 177 499 L177 647 L93 647 L93 499 C93 487 93 484 97 473 C86 477 83 477 71 477 L-94 477 Z M-94 151 L-94 72 L365 72 L365 151 L-94 151 Z " />
<glyph glyph-name="twosuperior" unicode="&#xb2;" horiz-adv-x="396" d="M-75 295 L208 295 L226 352 L126 352 C76 352 63 351 16 345 L15 349 C215 486 277 551 277 624 C277 687 227 729 152 729 C64 729 11 685 2 605 L2 601 L74 601 L75 604 C81 654 102 674 146 674 C183 674 206 654 206 622 C206 585 172 541 95 481 L29 428 C9 413 -11 397 -32 381 C-44 373 -52 366 -57 363 L-58 362 L-75 295 Z " />
<glyph glyph-name="threesuperior" unicode="&#xb3;" horiz-adv-x="396" d="M172 500 C245 523 276 556 276 614 C276 677 224 718 146 718 C61 718 15 681 -3 597 L69 597 C78 644 98 662 142 662 C181 662 204 641 204 606 C204 561 160 532 93 532 L77 532 L61 476 L80 476 C131 476 161 452 161 412 C161 366 124 332 75 332 C31 332 6 354 6 390 C6 393 7 400 7 405 L-64 405 C-66 395 -66 392 -66 384 C-66 314 -18 276 68 276 C162 276 234 336 234 413 C234 454 218 476 171 497 L172 500 Z " />
<glyph glyph-name="acute" unicode="&#xb4;" d="M-112 610 L-39 610 L113 763 L0 763 L-112 610 Z " />
<glyph glyph-name="mu" unicode="&#xb5;" horiz-adv-x="588" d="M449 530 L370 530 L285 241 C251 124 169 50 73 50 C7 50 -31 83 -31 140 C-31 160 -27 178 -13 225 L76 530 L-2 530 L-185 -93 C-197 -131 -210 -167 -234 -221 L-156 -221 L-149 -203 C-138 -177 -131 -155 -126 -138 L-97 -39 C-82 9 -80 21 -72 68 L-68 68 L-63 58 C-41 9 -5 -15 47 -15 C131 -15 197 30 258 128 L264 125 C245 86 238 70 233 53 L217 0 L293 0 L449 530 Z " />
<glyph glyph-name="paragraph" unicode="&#xb6;" horiz-adv-x="621" d="M-28 -221 L28 -221 L291 671 L341 671 C367 671 373 671 396 674 C384 644 382 637 372 603 L130 -221 L186 -221 L448 671 L568 671 L587 736 L274 736 C183 736 125 721 73 686 C8 641 -35 566 -35 495 C-35 420 25 368 112 368 C121 368 133 369 150 371 C138 341 135 334 125 299 L-28 -221 Z " />
<glyph glyph-name="periodcentered" unicode="&#xb7;" horiz-adv-x="565" d="M163 441 C123 441 91 409 91 369 C91 329 124 296 163 296 C203 296 236 329 236 369 C236 409 204 441 163 441 L163 441 Z " />
<glyph glyph-name="periodcentered" unicode="&#xb7;" horiz-adv-x="565" d="M163 441 C123 441 91 409 91 369 C91 329 124 296 163 296 C203 296 236 329 236 369 C236 409 204 441 163 441 L163 441 Z " />
<glyph glyph-name="cedilla" unicode="&#xb8;" d="M-355 -193 C-316 -207 -292 -212 -259 -212 C-187 -212 -135 -173 -135 -119 C-135 -79 -172 -48 -219 -48 C-225 -48 -238 -50 -251 -52 L-252 -49 C-239 -38 -235 -34 -225 -19 L-205 10 L-248 10 L-316 -76 L-302 -92 C-279 -90 -272 -89 -262 -89 C-231 -89 -213 -104 -213 -128 C-213 -152 -233 -166 -264 -166 C-287 -166 -302 -163 -340 -152 L-355 -193 Z " />
<glyph glyph-name="onesuperior" unicode="&#xb9;" horiz-adv-x="284" d="M-8 284 L57 284 L182 711 L122 711 C79 678 58 666 6 650 L-13 580 C23 592 38 599 76 619 L96 630 L99 627 C73 558 67 541 45 463 L-8 284 Z " />
<glyph glyph-name="ordmasculine" unicode="&#xba;" horiz-adv-x="391" d="M131 637 C72 637 29 615 -5 567 C-33 528 -52 471 -52 423 C-52 353 1 310 87 310 C143 310 189 334 222 382 C249 421 267 477 267 524 C267 594 215 637 131 637 L131 637 Z M132 589 C174 589 198 567 198 527 C198 438 144 358 84 358 C42 358 17 380 17 419 C17 469 41 531 74 566 C88 581 109 589 132 589 L132 589 Z " />
<glyph glyph-name="guillemotright" unicode="&#xbb;" horiz-adv-x="460" d="M-141 62 L-60 62 L98 264 L47 466 L-27 466 L6 264 L-141 62 Z M41 62 L121 62 L281 264 L230 466 L156 466 L189 264 L41 62 Z " />
<glyph glyph-name="onequarter" unicode="&#xbc;" horiz-adv-x="857" d="M-8 284 L57 284 L182 711 L122 711 C79 678 58 666 6 650 L-13 580 C23 592 38 599 76 619 L96 630 L99 627 C73 558 67 541 45 463 L-8 284 Z M494 711 L7 0 L74 0 L561 711 L494 711 Z M297 89 L420 89 C459 89 464 89 495 92 C487 72 485 68 478 44 L465 0 L530 0 L558 89 L621 89 L637 146 L605 146 C587 146 584 146 569 143 C581 173 583 180 594 215 L656 427 L572 427 L321 167 L297 89 Z M579 360 C558 311 553 296 538 246 L509 146 L442 146 C408 146 400 145 368 141 L367 144 C448 218 510 283 574 362 L579 360 Z " />
<glyph glyph-name="onehalf" unicode="&#xbd;" horiz-adv-x="915" d="M-8 284 L57 284 L182 711 L122 711 C79 678 58 666 6 650 L-13 580 C23 592 38 599 76 619 L96 630 L99 627 C73 558 67 541 45 463 L-8 284 Z M494 711 L7 0 L74 0 L561 711 L494 711 Z M359 0 L643 0 L659 57 L559 57 C510 57 496 56 449 50 L448 54 C552 126 592 158 639 203 C683 246 707 291 707 330 C707 393 656 435 582 435 C492 435 441 391 432 306 L504 306 C510 358 530 379 574 379 C611 379 636 358 636 327 C636 280 605 246 462 133 L402 86 L375 65 L359 0 Z " />
<glyph glyph-name="threequarters" unicode="&#xbe;" horiz-adv-x="954" d="M172 500 C245 523 276 556 276 614 C276 677 224 718 146 718 C61 718 15 681 -3 597 L69 597 C78 644 98 662 142 662 C181 662 204 641 204 606 C204 561 160 532 93 532 L77 532 L61 476 L80 476 C131 476 161 452 161 412 C161 366 124 332 75 332 C31 332 6 354 6 390 C6 393 7 400 7 405 L-64 405 C-66 395 -66 392 -66 384 C-66 314 -18 276 68 276 C162 276 234 336 234 413 C234 454 218 476 171 497 L172 500 Z M591 711 L104 0 L171 0 L658 711 L591 711 Z M395 89 L517 89 C557 89 561 89 593 92 C584 72 583 68 576 44 L562 0 L628 0 L655 89 L718 89 L735 146 L703 146 C685 146 682 146 667 143 C679 173 681 180 691 215 L754 427 L670 427 L418 167 L395 89 Z M676 360 C656 311 650 296 635 246 L606 146 L539 146 C506 146 497 145 466 141 L464 144 C546 218 608 283 672 362 L676 360 Z " />
<glyph glyph-name="questiondown" unicode="&#xbf;" horiz-adv-x="509" d="M269 514 L157 514 L125 407 L238 407 L269 514 Z M118 343 C82 221 95 238 -33 150 C-151 69 -196 8 -196 -71 C-196 -177 -111 -243 26 -243 C65 -243 100 -238 154 -224 L168 -221 L194 -130 C145 -150 102 -159 51 -159 C-40 -159 -88 -127 -88 -66 C-88 -10 -54 35 32 94 L106 144 C161 182 164 186 200 314 C202 320 205 331 209 343 L118 343 Z " />
<glyph glyph-name="Agrave" unicode="&#xc0;" horiz-adv-x="698" d="M-216 0 L-103 0 L14 184 L349 184 L362 0 L462 0 L398 736 L270 736 L-216 0 Z M197 266 C133 266 120 266 62 262 L61 264 C95 311 101 321 136 376 L203 481 C258 568 270 587 316 669 L320 668 C321 580 322 560 329 461 L341 292 C342 279 343 275 347 262 C334 266 331 266 317 266 L197 266 Z M233 919 L328 766 L397 766 L343 919 L233 919 Z " />
<glyph glyph-name="Aacute" unicode="&#xc1;" horiz-adv-x="698" d="M-216 0 L-103 0 L14 184 L349 184 L362 0 L462 0 L398 736 L270 736 L-216 0 Z M197 266 C133 266 120 266 62 262 L61 264 C95 311 101 321 136 376 L203 481 C258 568 270 587 316 669 L320 668 C321 580 322 560 329 461 L341 292 C342 279 343 275 347 262 C334 266 331 266 317 266 L197 266 Z M270 766 L343 766 L495 919 L382 919 L270 766 Z " />
<glyph glyph-name="Acircumflex" unicode="&#xc2;" horiz-adv-x="698" d="M-216 0 L-103 0 L14 184 L349 184 L362 0 L462 0 L398 736 L270 736 L-216 0 Z M197 266 C133 266 120 266 62 262 L61 264 C95 311 101 321 136 376 L203 481 C258 568 270 587 316 669 L320 668 C321 580 322 560 329 461 L341 292 C342 279 343 275 347 262 C334 266 331 266 317 266 L197 266 Z M183 766 L266 766 L313 820 C337 846 342 852 360 878 L363 878 C368 853 370 847 379 820 L398 766 L471 766 L418 919 L319 919 L183 766 Z " />
<glyph glyph-name="Atilde" unicode="&#xc3;" horiz-adv-x="698" d="M-216 0 L-103 0 L14 184 L349 184 L362 0 L462 0 L398 736 L270 736 L-216 0 Z M197 266 C133 266 120 266 62 262 L61 264 C95 311 101 321 136 376 L203 481 C258 568 270 587 316 669 L320 668 C321 580 322 560 329 461 L341 292 C342 279 343 275 347 262 C334 266 331 266 317 266 L197 266 Z M249 795 C259 819 271 828 290 828 C302 828 326 820 355 806 C383 793 396 789 413 789 C458 789 497 831 508 892 L454 892 C444 871 433 862 418 863 C401 864 377 871 348 885 C326 895 307 899 288 899 C242 899 205 858 193 795 L249 795 Z " />
<glyph glyph-name="Adieresis" unicode="&#xc4;" horiz-adv-x="698" d="M-216 0 L-103 0 L14 184 L349 184 L362 0 L462 0 L398 736 L270 736 L-216 0 Z M197 266 C133 266 120 266 62 262 L61 264 C95 311 101 321 136 376 L203 481 C258 568 270 587 316 669 L320 668 C321 580 322 560 329 461 L341 292 C342 279 343 275 347 262 C334 266 331 266 317 266 L197 266 Z M199 790 L296 790 L327 895 L230 895 L199 790 Z M373 790 L470 790 L501 895 L404 895 L373 790 Z " />
<glyph glyph-name="Aring" unicode="&#xc5;" horiz-adv-x="698" d="M-216 0 L-103 0 L14 184 L349 184 L362 0 L462 0 L398 736 L270 736 L-216 0 Z M197 266 C133 266 120 266 62 262 L61 264 C95 311 101 321 136 376 L203 481 C258 568 270 587 316 669 L320 668 C321 580 322 560 329 461 L341 292 C342 279 343 275 347 262 C334 266 331 266 317 266 L197 266 Z M352 941 C294 941 250 897 250 840 C250 784 292 743 350 743 C407 743 450 786 450 843 C450 898 407 941 352 941 L352 941 Z M350 891 C379 891 399 871 399 842 C399 813 379 792 350 792 C321 792 301 812 301 842 C301 871 321 891 350 891 L350 891 Z " />
<glyph glyph-name="AE" unicode="&#xc6;" horiz-adv-x="931" d="M-231 0 L-107 0 L38 184 L252 184 C279 184 285 184 310 187 C302 164 300 157 295 131 L268 0 L669 0 L695 86 L436 86 C409 86 403 86 379 83 C387 106 388 111 394 138 L436 347 L732 347 L756 430 L506 430 C479 430 473 430 449 427 C457 450 458 456 464 482 L498 650 L838 650 L863 736 L376 736 L-231 0 Z M323 266 L214 266 C160 266 148 266 100 262 L99 264 C142 314 150 324 198 385 L252 455 C330 554 343 571 405 661 L410 658 C386 571 380 546 361 455 L323 266 Z " />
<glyph glyph-name="Ccedilla" unicode="&#xc7;" horiz-adv-x="644" d="M7 -76 L21 -92 C43 -90 51 -89 61 -89 C91 -89 110 -104 110 -128 C110 -152 90 -166 59 -166 C36 -166 21 -163 -17 -152 L-33 -193 C7 -207 30 -212 64 -212 C135 -212 188 -173 188 -119 C188 -79 151 -48 104 -48 C97 -48 85 -50 71 -52 L70 -49 C84 -38 87 -34 97 -19 L101 -14 C127 -20 146 -22 172 -22 C309 -22 418 58 447 180 L334 180 C309 104 252 62 173 62 C82 62 24 129 24 235 C24 346 70 495 128 577 C175 642 232 674 299 674 C376 674 425 628 425 557 C425 551 425 547 423 538 L526 538 C527 551 527 558 527 565 C527 684 444 757 308 757 C217 757 129 721 71 661 C-26 562 -84 406 -84 247 C-84 113 -37 33 64 -3 L7 -76 Z " />
<glyph glyph-name="Egrave" unicode="&#xc8;" horiz-adv-x="578" d="M-142 0 L312 0 L337 86 L55 86 C19 86 11 86 -21 83 C-9 113 -6 121 3 154 L60 346 L376 346 L399 429 L156 429 C121 429 113 429 81 426 C93 455 95 461 105 496 L149 650 L480 650 L505 736 L75 736 L-142 0 Z M153 919 L248 766 L317 766 L263 919 L153 919 Z " />
<glyph glyph-name="Eacute" unicode="&#xc9;" horiz-adv-x="578" d="M-142 0 L312 0 L337 86 L55 86 C19 86 11 86 -21 83 C-9 113 -6 121 3 154 L60 346 L376 346 L399 429 L156 429 C121 429 113 429 81 426 C93 455 95 461 105 496 L149 650 L480 650 L505 736 L75 736 L-142 0 Z M190 766 L263 766 L415 919 L302 919 L190 766 Z " />
<glyph glyph-name="Ecircumflex" unicode="&#xca;" horiz-adv-x="578" d="M-142 0 L312 0 L337 86 L55 86 C19 86 11 86 -21 83 C-9 113 -6 121 3 154 L60 346 L376 346 L399 429 L156 429 C121 429 113 429 81 426 C93 455 95 461 105 496 L149 650 L480 650 L505 736 L75 736 L-142 0 Z M103 766 L186 766 L233 820 C257 846 262 852 280 878 L283 878 C288 853 290 847 299 820 L318 766 L391 766 L338 919 L239 919 L103 766 Z " />
<glyph glyph-name="Edieresis" unicode="&#xcb;" horiz-adv-x="578" d="M-142 0 L312 0 L337 86 L55 86 C19 86 11 86 -21 83 C-9 113 -6 121 3 154 L60 346 L376 346 L399 429 L156 429 C121 429 113 429 81 426 C93 455 95 461 105 496 L149 650 L480 650 L505 736 L75 736 L-142 0 Z M119 790 L216 790 L247 895 L150 895 L119 790 Z M293 790 L390 790 L421 895 L324 895 L293 790 Z " />
<glyph glyph-name="Igrave" unicode="&#xcc;" horiz-adv-x="274" d="M-141 0 L-40 0 L176 736 L76 736 L-141 0 Z M0 919 L95 766 L164 766 L110 919 L0 919 Z " />
<glyph glyph-name="Iacute" unicode="&#xcd;" horiz-adv-x="274" d="M-141 0 L-40 0 L176 736 L76 736 L-141 0 Z M37 766 L110 766 L262 919 L149 919 L37 766 Z " />
<glyph glyph-name="Icircumflex" unicode="&#xce;" horiz-adv-x="274" d="M-141 0 L-40 0 L176 736 L76 736 L-141 0 Z M-50 766 L33 766 L80 820 C104 846 109 852 127 878 L130 878 C135 853 137 847 146 820 L165 766 L238 766 L185 919 L86 919 L-50 766 Z " />
<glyph glyph-name="Idieresis" unicode="&#xcf;" horiz-adv-x="274" d="M-141 0 L-40 0 L176 736 L76 736 L-141 0 Z M-34 790 L63 790 L94 895 L-3 895 L-34 790 Z M140 790 L237 790 L268 895 L171 895 L140 790 Z " />
<glyph glyph-name="Eth" unicode="&#xd0;" horiz-adv-x="729" d="M-17 399 L-94 399 L-109 349 L-71 349 C-51 349 -46 349 -28 352 C-40 322 -42 315 -52 280 L-135 0 L141 0 C231 0 297 14 350 44 C486 122 575 289 575 468 C575 569 543 641 477 690 C432 723 375 736 274 736 L83 736 L-17 399 Z M222 399 L153 399 C118 399 110 399 79 396 C91 426 93 433 103 467 L157 649 L264 649 C411 649 468 601 468 477 C468 342 406 200 321 138 C273 104 211 87 134 87 L63 87 C28 87 20 87 -13 84 C-1 114 1 121 12 155 L68 349 L208 349 L222 399 Z " />
<glyph glyph-name="Ntilde" unicode="&#xd1;" horiz-adv-x="747" d="M-144 0 L-44 0 L77 411 C110 524 116 548 140 650 L145 650 C164 546 170 522 197 408 L296 0 L436 0 L654 736 L554 736 L432 324 C399 214 393 189 368 86 L363 86 C344 190 339 214 312 328 L214 736 L73 736 L-144 0 Z M253 795 C263 819 275 828 294 828 C306 828 330 820 359 806 C387 793 400 789 417 789 C462 789 501 831 512 892 L458 892 C448 871 437 862 422 863 C405 864 381 871 352 885 C330 895 311 899 292 899 C246 899 209 858 197 795 L253 795 Z " />
<glyph glyph-name="Ograve" unicode="&#xd2;" horiz-adv-x="744" d="M324 754 C194 754 103 705 26 593 C-41 496 -81 366 -81 243 C-81 69 11 -20 189 -20 C322 -20 432 46 502 167 C558 263 591 388 591 500 C591 664 496 754 324 754 L324 754 Z M317 673 C430 673 485 612 485 488 C485 384 434 229 375 151 C334 97 261 62 189 62 C84 62 25 125 25 237 C25 368 81 520 162 609 C200 650 256 673 317 673 L317 673 Z M236 919 L331 766 L400 766 L346 919 L236 919 Z " />
<glyph glyph-name="Oacute" unicode="&#xd3;" horiz-adv-x="744" d="M324 754 C194 754 103 705 26 593 C-41 496 -81 366 -81 243 C-81 69 11 -20 189 -20 C322 -20 432 46 502 167 C558 263 591 388 591 500 C591 664 496 754 324 754 L324 754 Z M317 673 C430 673 485 612 485 488 C485 384 434 229 375 151 C334 97 261 62 189 62 C84 62 25 125 25 237 C25 368 81 520 162 609 C200 650 256 673 317 673 L317 673 Z M273 766 L346 766 L498 919 L385 919 L273 766 Z " />
<glyph glyph-name="Ocircumflex" unicode="&#xd4;" horiz-adv-x="744" d="M324 754 C194 754 103 705 26 593 C-41 496 -81 366 -81 243 C-81 69 11 -20 189 -20 C322 -20 432 46 502 167 C558 263 591 388 591 500 C591 664 496 754 324 754 L324 754 Z M317 673 C430 673 485 612 485 488 C485 384 434 229 375 151 C334 97 261 62 189 62 C84 62 25 125 25 237 C25 368 81 520 162 609 C200 650 256 673 317 673 L317 673 Z M186 766 L269 766 L316 820 C340 846 345 852 363 878 L366 878 C371 853 373 847 382 820 L401 766 L474 766 L421 919 L322 919 L186 766 Z " />
<glyph glyph-name="Otilde" unicode="&#xd5;" horiz-adv-x="744" d="M324 754 C194 754 103 705 26 593 C-41 496 -81 366 -81 243 C-81 69 11 -20 189 -20 C322 -20 432 46 502 167 C558 263 591 388 591 500 C591 664 496 754 324 754 L324 754 Z M317 673 C430 673 485 612 485 488 C485 384 434 229 375 151 C334 97 261 62 189 62 C84 62 25 125 25 237 C25 368 81 520 162 609 C200 650 256 673 317 673 L317 673 Z M252 795 C262 819 274 828 293 828 C305 828 329 820 358 806 C386 793 399 789 416 789 C461 789 500 831 511 892 L457 892 C447 871 436 862 421 863 C404 864 380 871 351 885 C329 895 310 899 291 899 C245 899 208 858 196 795 L252 795 Z " />
<glyph glyph-name="Odieresis" unicode="&#xd6;" horiz-adv-x="744" d="M324 754 C194 754 103 705 26 593 C-41 496 -81 366 -81 243 C-81 69 11 -20 189 -20 C322 -20 432 46 502 167 C558 263 591 388 591 500 C591 664 496 754 324 754 L324 754 Z M317 673 C430 673 485 612 485 488 C485 384 434 229 375 151 C334 97 261 62 189 62 C84 62 25 125 25 237 C25 368 81 520 162 609 C200 650 256 673 317 673 L317 673 Z M202 790 L299 790 L330 895 L233 895 L202 790 Z M376 790 L473 790 L504 895 L407 895 L376 790 Z " />
<glyph glyph-name="multiply" unicode="&#xd7;" horiz-adv-x="565" d="M6 584 L-52 526 L90 384 C98 375 101 374 111 368 C101 363 98 361 90 353 L-52 211 L6 152 L148 294 C157 303 158 305 164 315 C169 305 171 303 179 294 L321 152 L380 211 L238 353 C229 361 227 363 217 368 C227 374 229 375 238 384 L380 526 L321 584 L179 442 C171 434 169 431 164 421 C158 431 157 434 148 442 L6 584 Z " />
<glyph glyph-name="Oslash" unicode="&#xd8;" horiz-adv-x="741" d="M533 792 L480 719 C438 741 380 754 321 754 C217 754 136 722 72 654 C-26 550 -84 397 -84 241 C-84 154 -62 91 -17 48 L-70 -24 L-29 -57 L25 17 C65 -7 124 -20 184 -20 C300 -20 404 32 469 121 C542 221 588 368 588 501 C588 578 565 644 522 687 L574 758 L533 792 Z M387 506 C422 553 429 563 457 607 C474 570 482 539 482 505 C482 386 434 233 372 151 C331 97 258 62 186 62 C143 62 111 72 77 96 C86 100 88 102 95 111 L387 506 Z M116 228 C82 182 75 172 48 129 C30 164 22 195 22 234 C22 369 77 520 160 609 C198 650 253 673 315 673 C359 673 396 662 428 641 C418 636 416 634 409 624 L116 228 Z " />
<glyph glyph-name="Ugrave" unicode="&#xd9;" horiz-adv-x="736" d="M645 736 L545 736 L417 301 C373 153 290 75 175 75 C82 75 22 127 22 208 C22 227 27 257 37 288 L168 736 L68 736 L-58 306 C-69 269 -74 234 -74 198 C-74 71 20 -12 164 -12 C345 -12 455 86 518 303 L645 736 Z M232 919 L327 766 L396 766 L342 919 L232 919 Z " />
<glyph glyph-name="Uacute" unicode="&#xda;" horiz-adv-x="736" d="M645 736 L545 736 L417 301 C373 153 290 75 175 75 C82 75 22 127 22 208 C22 227 27 257 37 288 L168 736 L68 736 L-58 306 C-69 269 -74 234 -74 198 C-74 71 20 -12 164 -12 C345 -12 455 86 518 303 L645 736 Z M269 766 L342 766 L494 919 L381 919 L269 766 Z " />
<glyph glyph-name="Ucircumflex" unicode="&#xdb;" horiz-adv-x="736" d="M645 736 L545 736 L417 301 C373 153 290 75 175 75 C82 75 22 127 22 208 C22 227 27 257 37 288 L168 736 L68 736 L-58 306 C-69 269 -74 234 -74 198 C-74 71 20 -12 164 -12 C345 -12 455 86 518 303 L645 736 Z M182 766 L265 766 L312 820 C336 846 341 852 359 878 L362 878 C367 853 369 847 378 820 L397 766 L470 766 L417 919 L318 919 L182 766 Z " />
<glyph glyph-name="Udieresis" unicode="&#xdc;" horiz-adv-x="736" d="M645 736 L545 736 L417 301 C373 153 290 75 175 75 C82 75 22 127 22 208 C22 227 27 257 37 288 L168 736 L68 736 L-58 306 C-69 269 -74 234 -74 198 C-74 71 20 -12 164 -12 C345 -12 455 86 518 303 L645 736 Z M198 790 L295 790 L326 895 L229 895 L198 790 Z M372 790 L469 790 L500 895 L403 895 L372 790 Z " />
<glyph glyph-name="Yacute" unicode="&#xdd;" horiz-adv-x="588" d="M-22 736 L112 261 L34 0 L134 0 L212 263 L572 736 L456 736 L270 486 C224 424 214 411 176 353 L173 354 C161 422 157 437 139 512 L84 736 L-22 736 Z M195 766 L268 766 L420 919 L307 919 L195 766 Z " />
<glyph glyph-name="Thorn" unicode="&#xde;" horiz-adv-x="611" d="M86 736 L-131 0 L-46 0 L6 178 L141 178 C223 178 278 191 326 223 C410 277 461 371 461 471 C461 519 436 563 396 583 C370 597 331 603 272 603 L202 603 C167 603 159 603 127 600 C139 629 141 636 151 670 L171 736 L86 736 Z M112 538 L250 538 C335 538 372 510 372 446 C372 379 336 310 281 274 C246 250 211 242 149 242 L87 242 C56 242 49 242 21 239 C32 269 35 276 45 311 L112 538 Z " />
<glyph glyph-name="germandbls" unicode="&#xdf;" horiz-adv-x="614" d="M-148 0 L-55 0 L105 539 C132 630 188 679 264 679 C322 679 357 649 357 599 C357 565 340 540 302 518 L241 483 C198 458 175 423 175 383 C175 348 190 312 222 273 L274 209 C289 190 299 166 299 145 C299 98 258 62 203 62 C160 62 139 79 139 115 C139 123 140 132 145 148 L53 148 C45 122 43 111 43 99 C43 30 101 -10 201 -10 C321 -10 397 53 397 151 C397 196 377 236 325 298 C294 335 279 363 278 383 C277 404 296 430 326 446 L392 483 C433 507 453 545 453 600 C453 693 382 750 266 750 C194 750 130 726 85 681 C47 644 34 619 11 539 L-148 0 Z " />
<glyph glyph-name="agrave" unicode="&#xe0;" horiz-adv-x="534" d="M177 77 C169 48 165 33 159 0 L250 0 C258 51 265 77 290 166 L303 209 L338 327 C343 345 347 371 347 389 C347 482 287 529 168 529 C40 529 -37 479 -54 386 L47 386 C66 440 97 462 155 462 C215 462 252 435 252 391 C252 381 250 365 248 355 L242 327 L214 327 C117 327 47 318 0 300 C-89 265 -140 199 -140 120 C-140 41 -83 -13 0 -13 C73 -13 136 21 172 79 L177 77 Z M198 261 C210 261 213 262 223 266 C194 131 124 54 30 54 C-12 54 -40 83 -40 126 C-40 213 37 261 175 261 L198 261 Z M119 763 L214 610 L283 610 L229 763 L119 763 Z " />
<glyph glyph-name="aacute" unicode="&#xe1;" horiz-adv-x="534" d="M177 77 C169 48 165 33 159 0 L250 0 C258 51 265 77 290 166 L303 209 L338 327 C343 345 347 371 347 389 C347 482 287 529 168 529 C40 529 -37 479 -54 386 L47 386 C66 440 97 462 155 462 C215 462 252 435 252 391 C252 381 250 365 248 355 L242 327 L214 327 C117 327 47 318 0 300 C-89 265 -140 199 -140 120 C-140 41 -83 -13 0 -13 C73 -13 136 21 172 79 L177 77 Z M198 261 C210 261 213 262 223 266 C194 131 124 54 30 54 C-12 54 -40 83 -40 126 C-40 213 37 261 175 261 L198 261 Z M156 610 L229 610 L381 763 L268 763 L156 610 Z " />
<glyph glyph-name="acircumflex" unicode="&#xe2;" horiz-adv-x="534" d="M177 77 C169 48 165 33 159 0 L250 0 C258 51 265 77 290 166 L303 209 L338 327 C343 345 347 371 347 389 C347 482 287 529 168 529 C40 529 -37 479 -54 386 L47 386 C66 440 97 462 155 462 C215 462 252 435 252 391 C252 381 250 365 248 355 L242 327 L214 327 C117 327 47 318 0 300 C-89 265 -140 199 -140 120 C-140 41 -83 -13 0 -13 C73 -13 136 21 172 79 L177 77 Z M198 261 C210 261 213 262 223 266 C194 131 124 54 30 54 C-12 54 -40 83 -40 126 C-40 213 37 261 175 261 L198 261 Z M69 610 L152 610 L199 664 C223 690 228 696 246 722 L249 722 C254 697 256 691 265 664 L284 610 L357 610 L304 763 L205 763 L69 610 Z " />
<glyph glyph-name="atilde" unicode="&#xe3;" horiz-adv-x="534" d="M177 77 C169 48 165 33 159 0 L250 0 C258 51 265 77 290 166 L303 209 L338 327 C343 345 347 371 347 389 C347 482 287 529 168 529 C40 529 -37 479 -54 386 L47 386 C66 440 97 462 155 462 C215 462 252 435 252 391 C252 381 250 365 248 355 L242 327 L214 327 C117 327 47 318 0 300 C-89 265 -140 199 -140 120 C-140 41 -83 -13 0 -13 C73 -13 136 21 172 79 L177 77 Z M198 261 C210 261 213 262 223 266 C194 131 124 54 30 54 C-12 54 -40 83 -40 126 C-40 213 37 261 175 261 L198 261 Z M135 639 C145 663 157 672 176 672 C188 672 212 664 241 650 C269 637 282 633 299 633 C344 633 383 675 394 736 L340 736 C330 715 319 706 304 707 C287 708 263 715 234 729 C212 739 193 743 174 743 C128 743 91 702 79 639 L135 639 Z " />
<glyph glyph-name="adieresis" unicode="&#xe4;" horiz-adv-x="534" d="M177 77 C169 48 165 33 159 0 L250 0 C258 51 265 77 290 166 L303 209 L338 327 C343 345 347 371 347 389 C347 482 287 529 168 529 C40 529 -37 479 -54 386 L47 386 C66 440 97 462 155 462 C215 462 252 435 252 391 C252 381 250 365 248 355 L242 327 L214 327 C117 327 47 318 0 300 C-89 265 -140 199 -140 120 C-140 41 -83 -13 0 -13 C73 -13 136 21 172 79 L177 77 Z M198 261 C210 261 213 262 223 266 C194 131 124 54 30 54 C-12 54 -40 83 -40 126 C-40 213 37 261 175 261 L198 261 Z M85 634 L182 634 L213 739 L116 739 L85 634 Z M259 634 L356 634 L387 739 L290 739 L259 634 Z " />
<glyph glyph-name="aring" unicode="&#xe5;" horiz-adv-x="534" d="M177 77 C169 48 165 33 159 0 L250 0 C258 51 265 77 290 166 L303 209 L338 327 C343 345 347 371 347 389 C347 482 287 529 168 529 C40 529 -37 479 -54 386 L47 386 C66 440 97 462 155 462 C215 462 252 435 252 391 C252 381 250 365 248 355 L242 327 L214 327 C117 327 47 318 0 300 C-89 265 -140 199 -140 120 C-140 41 -83 -13 0 -13 C73 -13 136 21 172 79 L177 77 Z M198 261 C210 261 213 262 223 266 C194 131 124 54 30 54 C-12 54 -40 83 -40 126 C-40 213 37 261 175 261 L198 261 Z M238 785 C180 785 136 741 136 684 C136 628 178 587 236 587 C293 587 336 630 336 687 C336 742 293 785 238 785 L238 785 Z M236 735 C265 735 285 715 285 686 C285 657 265 636 236 636 C207 636 187 656 187 686 C187 715 207 735 236 735 L236 735 Z " />
<glyph glyph-name="ae" unicode="&#xe6;" horiz-adv-x="867" d="M530 148 C510 88 468 58 405 58 C339 58 308 93 308 167 C308 190 311 208 318 241 L670 241 C684 290 690 326 690 368 C690 472 625 529 509 529 C432 529 381 508 329 455 C293 507 244 529 163 529 C45 529 -38 473 -52 386 L48 386 C65 436 105 463 162 463 C220 463 256 435 256 390 C256 369 254 357 242 308 L198 308 C115 308 43 298 -4 279 C-85 246 -139 180 -139 112 C-139 37 -76 -13 17 -13 C101 -13 152 15 217 98 C254 14 304 -17 398 -17 C516 -17 603 44 636 148 L530 148 Z M199 241 C211 241 214 242 224 246 C189 122 122 54 34 54 C-8 54 -36 79 -36 115 C-36 195 42 241 177 241 L199 241 Z M418 310 C383 310 372 309 338 304 C367 406 425 459 506 459 C565 459 596 428 596 369 C596 348 595 334 590 310 L418 310 Z " />
<glyph glyph-name="ccedilla" unicode="&#xe7;" horiz-adv-x="493" d="M-69 -76 L-55 -92 C-32 -90 -25 -89 -15 -89 C16 -89 34 -104 34 -128 C34 -152 14 -166 -17 -166 C-40 -166 -55 -163 -93 -152 L-108 -193 C-69 -207 -45 -212 -12 -212 C60 -212 112 -173 112 -119 C112 -79 76 -48 28 -48 C22 -48 9 -50 -4 -52 L-5 -49 C8 -38 12 -33 22 -19 L26 -13 C40 -15 47 -15 59 -15 C174 -15 244 38 279 149 L281 158 L182 158 C157 88 121 58 65 58 C10 58 -21 89 -21 144 C-21 207 9 323 40 376 C72 433 110 458 161 458 C211 458 236 433 236 383 C236 373 235 366 230 353 L329 353 L330 361 C332 374 334 387 334 394 C334 478 272 528 168 528 C79 528 10 492 -40 419 C-91 345 -122 241 -122 145 C-122 64 -88 18 -13 -5 L-69 -76 Z " />
<glyph glyph-name="egrave" unicode="&#xe8;" horiz-adv-x="537" d="M340 240 C356 289 363 326 363 368 C363 472 298 529 179 529 C103 529 37 504 -7 457 C-77 383 -123 263 -123 153 C-123 45 -55 -17 65 -17 C187 -17 275 43 308 148 L202 148 C178 85 139 58 75 58 C7 58 -25 93 -25 167 C-25 189 -21 208 -11 240 L340 240 Z M86 309 C48 309 40 309 7 304 C39 408 94 459 174 459 C235 459 267 428 267 368 C267 348 265 333 258 309 L86 309 Z M119 763 L214 610 L283 610 L229 763 L119 763 Z " />
<glyph glyph-name="eacute" unicode="&#xe9;" horiz-adv-x="537" d="M340 240 C356 289 363 326 363 368 C363 472 298 529 179 529 C103 529 37 504 -7 457 C-77 383 -123 263 -123 153 C-123 45 -55 -17 65 -17 C187 -17 275 43 308 148 L202 148 C178 85 139 58 75 58 C7 58 -25 93 -25 167 C-25 189 -21 208 -11 240 L340 240 Z M86 309 C48 309 40 309 7 304 C39 408 94 459 174 459 C235 459 267 428 267 368 C267 348 265 333 258 309 L86 309 Z M156 610 L229 610 L381 763 L268 763 L156 610 Z " />
<glyph glyph-name="ecircumflex" unicode="&#xea;" horiz-adv-x="537" d="M340 240 C356 289 363 326 363 368 C363 472 298 529 179 529 C103 529 37 504 -7 457 C-77 383 -123 263 -123 153 C-123 45 -55 -17 65 -17 C187 -17 275 43 308 148 L202 148 C178 85 139 58 75 58 C7 58 -25 93 -25 167 C-25 189 -21 208 -11 240 L340 240 Z M86 309 C48 309 40 309 7 304 C39 408 94 459 174 459 C235 459 267 428 267 368 C267 348 265 333 258 309 L86 309 Z M69 610 L152 610 L199 664 C223 690 228 696 246 722 L249 722 C254 697 256 691 265 664 L284 610 L357 610 L304 763 L205 763 L69 610 Z " />
<glyph glyph-name="edieresis" unicode="&#xeb;" horiz-adv-x="537" d="M340 240 C356 289 363 326 363 368 C363 472 298 529 179 529 C103 529 37 504 -7 457 C-77 383 -123 263 -123 153 C-123 45 -55 -17 65 -17 C187 -17 275 43 308 148 L202 148 C178 85 139 58 75 58 C7 58 -25 93 -25 167 C-25 189 -21 208 -11 240 L340 240 Z M86 309 C48 309 40 309 7 304 C39 408 94 459 174 459 C235 459 267 428 267 368 C267 348 265 333 258 309 L86 309 Z M85 634 L182 634 L213 739 L116 739 L85 634 Z M259 634 L356 634 L387 739 L290 739 L259 634 Z " />
<glyph glyph-name="igrave" unicode="&#xec;" horiz-adv-x="243" d="M-153 0 L-58 0 L94 514 L-1 514 L-153 0 Z M-28 763 L67 610 L136 610 L82 763 L-28 763 Z " />
<glyph glyph-name="iacute" unicode="&#xed;" horiz-adv-x="243" d="M-153 0 L-58 0 L94 514 L-1 514 L-153 0 Z M9 610 L82 610 L234 763 L121 763 L9 610 Z " />
<glyph glyph-name="icircumflex" unicode="&#xee;" horiz-adv-x="243" d="M-153 0 L-58 0 L94 514 L-1 514 L-153 0 Z M-78 610 L5 610 L52 664 C76 690 81 696 99 722 L102 722 C107 697 109 691 118 664 L137 610 L210 610 L157 763 L58 763 L-78 610 Z " />
<glyph glyph-name="idieresis" unicode="&#xef;" horiz-adv-x="243" d="M-153 0 L-58 0 L94 514 L-1 514 L-153 0 Z M-62 634 L35 634 L66 739 L-31 739 L-62 634 Z M112 634 L209 634 L240 739 L143 739 L112 634 Z " />
<glyph glyph-name="eth" unicode="&#xf0;" horiz-adv-x="573" d="M230 685 C189 704 148 717 95 728 L56 684 C104 672 126 664 165 646 C135 635 129 632 97 616 L34 583 L46 551 L201 631 C234 612 275 572 287 545 L304 509 C304 508 305 506 307 503 L303 499 C280 527 258 535 211 535 C136 535 63 500 14 439 C-52 360 -96 237 -96 135 C-96 34 -48 -13 57 -13 C163 -13 245 42 305 154 C351 242 378 347 378 442 C378 542 339 617 263 666 L263 668 C292 679 298 682 329 697 L390 729 L377 761 L230 685 Z M206 484 C261 484 292 451 292 391 C292 336 273 258 242 188 C201 94 143 44 74 44 C14 44 -16 77 -16 141 C-16 196 5 281 35 347 C76 439 133 484 206 484 L206 484 Z " />
<glyph glyph-name="ntilde" unicode="&#xf1;" horiz-adv-x="588" d="M-151 0 L-58 0 L13 241 C52 371 129 451 215 451 C265 451 296 423 296 377 C296 361 293 346 283 313 C279 302 276 292 273 281 L190 0 L286 0 L370 289 C389 355 394 378 394 405 C394 478 338 524 249 524 C174 524 126 498 67 427 L63 429 C76 466 79 478 86 514 L-4 514 C-14 466 -20 445 -30 412 L-151 0 Z M161 639 C171 663 183 672 202 672 C214 672 238 664 267 650 C295 637 308 633 325 633 C370 633 409 675 420 736 L366 736 C356 715 345 706 330 707 C313 708 289 715 260 729 C238 739 219 743 200 743 C154 743 117 702 105 639 L161 639 Z " />
<glyph glyph-name="ograve" unicode="&#xf2;" horiz-adv-x="573" d="M172 527 C78 527 10 490 -45 411 C-89 346 -119 250 -119 172 C-119 56 -36 -14 100 -14 C190 -14 262 26 315 105 C358 170 387 264 387 342 C387 457 306 527 172 527 L172 527 Z M174 458 C246 458 287 418 287 348 C287 262 248 158 194 98 C171 72 133 56 96 56 C22 56 -19 96 -19 168 C-19 252 21 357 75 416 C99 443 134 458 174 458 L174 458 Z M137 763 L232 610 L301 610 L247 763 L137 763 Z " />
<glyph glyph-name="oacute" unicode="&#xf3;" horiz-adv-x="573" d="M172 527 C78 527 10 490 -45 411 C-89 346 -119 250 -119 172 C-119 56 -36 -14 100 -14 C190 -14 262 26 315 105 C358 170 387 264 387 342 C387 457 306 527 172 527 L172 527 Z M174 458 C246 458 287 418 287 348 C287 262 248 158 194 98 C171 72 133 56 96 56 C22 56 -19 96 -19 168 C-19 252 21 357 75 416 C99 443 134 458 174 458 L174 458 Z M174 610 L247 610 L399 763 L286 763 L174 610 Z " />
<glyph glyph-name="ocircumflex" unicode="&#xf4;" horiz-adv-x="573" d="M172 527 C78 527 10 490 -45 411 C-89 346 -119 250 -119 172 C-119 56 -36 -14 100 -14 C190 -14 262 26 315 105 C358 170 387 264 387 342 C387 457 306 527 172 527 L172 527 Z M174 458 C246 458 287 418 287 348 C287 262 248 158 194 98 C171 72 133 56 96 56 C22 56 -19 96 -19 168 C-19 252 21 357 75 416 C99 443 134 458 174 458 L174 458 Z M87 610 L170 610 L217 664 C241 690 246 696 264 722 L267 722 C272 697 274 691 283 664 L302 610 L375 610 L322 763 L223 763 L87 610 Z " />
<glyph glyph-name="otilde" unicode="&#xf5;" horiz-adv-x="573" d="M172 527 C78 527 10 490 -45 411 C-89 346 -119 250 -119 172 C-119 56 -36 -14 100 -14 C190 -14 262 26 315 105 C358 170 387 264 387 342 C387 457 306 527 172 527 L172 527 Z M174 458 C246 458 287 418 287 348 C287 262 248 158 194 98 C171 72 133 56 96 56 C22 56 -19 96 -19 168 C-19 252 21 357 75 416 C99 443 134 458 174 458 L174 458 Z M153 639 C163 663 175 672 194 672 C206 672 230 664 259 650 C287 637 300 633 317 633 C362 633 401 675 412 736 L358 736 C348 715 337 706 322 707 C305 708 281 715 252 729 C230 739 211 743 192 743 C146 743 109 702 97 639 L153 639 Z " />
<glyph glyph-name="odieresis" unicode="&#xf6;" horiz-adv-x="573" d="M172 527 C78 527 10 490 -45 411 C-89 346 -119 250 -119 172 C-119 56 -36 -14 100 -14 C190 -14 262 26 315 105 C358 170 387 264 387 342 C387 457 306 527 172 527 L172 527 Z M174 458 C246 458 287 418 287 348 C287 262 248 158 194 98 C171 72 133 56 96 56 C22 56 -19 96 -19 168 C-19 252 21 357 75 416 C99 443 134 458 174 458 L174 458 Z M103 634 L200 634 L231 739 L134 739 L103 634 Z M277 634 L374 634 L405 739 L308 739 L277 634 Z " />
<glyph glyph-name="divide" unicode="&#xf7;" horiz-adv-x="565" d="M164 603 C135 603 111 579 111 550 C111 520 135 496 164 496 C194 496 218 520 218 550 C218 579 194 603 164 603 L164 603 Z M164 241 C135 241 111 217 111 188 C111 158 135 134 164 134 C194 134 218 158 218 188 C218 217 194 241 164 241 L164 241 Z M-65 408 L-65 329 L394 329 L394 408 L-65 408 Z " />
<glyph glyph-name="oslash" unicode="&#xf8;" horiz-adv-x="573" d="M390 545 L358 573 L299 498 C261 517 218 527 171 527 C80 527 10 489 -44 412 C-84 354 -120 237 -120 167 C-120 124 -97 71 -65 40 L-121 -30 L-88 -59 L-29 15 C4 -2 53 -13 98 -13 C190 -13 261 26 315 105 C354 163 389 278 389 348 C389 392 366 446 334 474 L390 545 Z M200 305 C237 351 245 361 274 406 C286 379 290 361 290 343 C290 271 245 157 194 98 C171 72 134 56 95 56 C64 56 38 64 16 81 C26 85 27 87 35 96 L200 305 Z M69 209 C31 162 25 152 -5 109 C-17 136 -21 153 -21 174 C-21 245 24 358 75 416 C98 443 134 458 174 458 C205 458 230 450 253 433 C242 427 240 425 231 413 L69 209 Z " />
<glyph glyph-name="ugrave" unicode="&#xf9;" horiz-adv-x="588" d="M438 514 L345 514 L273 273 C234 143 158 63 71 63 C22 63 -9 91 -9 137 C-9 153 -6 166 4 201 L14 233 L97 514 L1 514 L-84 225 C-102 163 -107 136 -107 109 C-107 36 -51 -10 38 -10 C112 -10 161 16 219 87 L224 85 C210 48 207 36 201 0 L290 0 C301 48 306 69 316 102 L438 514 Z M145 763 L240 610 L309 610 L255 763 L145 763 Z " />
<glyph glyph-name="uacute" unicode="&#xfa;" horiz-adv-x="588" d="M438 514 L345 514 L273 273 C234 143 158 63 71 63 C22 63 -9 91 -9 137 C-9 153 -6 166 4 201 L14 233 L97 514 L1 514 L-84 225 C-102 163 -107 136 -107 109 C-107 36 -51 -10 38 -10 C112 -10 161 16 219 87 L224 85 C210 48 207 36 201 0 L290 0 C301 48 306 69 316 102 L438 514 Z M182 610 L255 610 L407 763 L294 763 L182 610 Z " />
<glyph glyph-name="ucircumflex" unicode="&#xfb;" horiz-adv-x="588" d="M438 514 L345 514 L273 273 C234 143 158 63 71 63 C22 63 -9 91 -9 137 C-9 153 -6 166 4 201 L14 233 L97 514 L1 514 L-84 225 C-102 163 -107 136 -107 109 C-107 36 -51 -10 38 -10 C112 -10 161 16 219 87 L224 85 C210 48 207 36 201 0 L290 0 C301 48 306 69 316 102 L438 514 Z M95 610 L178 610 L225 664 C249 690 254 696 272 722 L275 722 C280 697 282 691 291 664 L310 610 L383 610 L330 763 L231 763 L95 610 Z " />
<glyph glyph-name="udieresis" unicode="&#xfc;" horiz-adv-x="588" d="M438 514 L345 514 L273 273 C234 143 158 63 71 63 C22 63 -9 91 -9 137 C-9 153 -6 166 4 201 L14 233 L97 514 L1 514 L-84 225 C-102 163 -107 136 -107 109 C-107 36 -51 -10 38 -10 C112 -10 161 16 219 87 L224 85 C210 48 207 36 201 0 L290 0 C301 48 306 69 316 102 L438 514 Z M111 634 L208 634 L239 739 L142 739 L111 634 Z M285 634 L382 634 L413 739 L316 739 L285 634 Z " />
<glyph glyph-name="yacute" unicode="&#xfd;" horiz-adv-x="506" d="M-134 -192 L-32 -192 L418 514 L316 514 L160 268 C108 185 97 168 55 91 L51 92 C44 180 42 201 30 296 L2 514 L-93 514 L-10 -5 L-134 -192 Z M141 610 L214 610 L366 763 L253 763 L141 610 Z " />
<glyph glyph-name="thorn" unicode="&#xfe;" horiz-adv-x="578" d="M166 736 L86 736 L-184 -182 L-104 -182 L-22 95 C-16 21 21 -12 98 -12 C182 -12 252 35 306 126 C353 205 391 331 391 407 C391 501 347 549 262 549 C190 549 127 512 80 441 L166 736 Z M222 488 C278 488 307 455 307 393 C307 341 287 261 257 190 C217 96 161 48 92 48 C35 48 4 80 4 141 C4 191 23 270 52 340 C93 438 150 488 222 488 L222 488 Z " />
<glyph glyph-name="ydieresis" unicode="&#xff;" horiz-adv-x="506" d="M-134 -192 L-32 -192 L418 514 L316 514 L160 268 C108 185 97 168 55 91 L51 92 C44 180 42 201 30 296 L2 514 L-93 514 L-10 -5 L-134 -192 Z M70 634 L167 634 L198 739 L101 739 L70 634 Z M244 634 L341 634 L372 739 L275 739 L244 634 Z " />
<glyph glyph-name="dotlessi" unicode="&#x131;" horiz-adv-x="243" d="M-153 0 L-58 0 L94 514 L-1 514 L-153 0 Z " />
<glyph glyph-name="Lslash" unicode="&#x141;" horiz-adv-x="519" d="M74 370 L231 425 L246 476 L167 448 C136 437 121 431 85 415 C105 478 113 501 129 558 L182 736 L82 736 L-23 380 L-108 350 L-123 300 L-80 315 C-63 321 -54 325 -33 335 C-54 271 -62 247 -78 192 L-135 0 L292 0 L317 86 L62 86 C27 86 18 86 -14 83 C-2 113 0 121 11 155 L74 370 Z " />
<glyph glyph-name="lslash" unicode="&#x142;" horiz-adv-x="279" d="M74 374 L165 407 L180 457 L138 442 C117 434 108 431 84 420 C105 482 112 505 129 562 L180 736 L85 736 L-18 386 L-117 351 L-132 300 L-86 317 C-64 325 -54 329 -28 341 C-49 278 -56 256 -74 198 L-132 0 L-36 0 L74 374 Z " />
<glyph glyph-name="OE" unicode="&#x152;" horiz-adv-x="893" d="M629 0 L655 91 L433 91 C398 91 389 91 357 88 C369 118 371 124 382 160 L435 342 L698 342 L723 430 L533 430 C498 430 490 430 458 427 C469 457 472 465 482 498 L525 645 L790 645 L817 736 L478 736 C473 736 464 736 453 737 C411 740 369 742 331 742 C206 742 132 716 65 648 C-27 555 -80 415 -80 269 C-80 178 -60 114 -17 68 C29 17 94 -3 213 -3 C239 -3 271 -2 299 -1 C311 0 320 0 325 0 L629 0 Z M261 90 C233 85 221 84 195 84 C82 84 28 142 28 266 C28 389 72 512 143 587 C189 635 258 661 341 661 C369 661 394 659 432 653 C423 636 421 632 415 612 L261 90 Z " />
<glyph glyph-name="oe" unicode="&#x153;" horiz-adv-x="918" d="M579 148 C556 86 517 58 457 58 C388 58 357 91 357 167 C357 183 358 197 362 213 C364 222 366 228 368 236 L369 240 L719 240 C733 290 739 326 739 368 C739 472 675 529 557 529 C474 529 410 499 360 438 L358 435 C324 494 255 527 168 527 C76 527 7 490 -46 411 C-91 346 -120 250 -120 172 C-120 58 -38 -13 94 -13 C170 -13 234 15 279 69 C307 13 365 -17 444 -17 C565 -17 652 43 685 148 L579 148 Z M171 458 C242 458 283 418 283 350 C283 263 245 158 191 98 C167 72 130 56 93 56 C20 56 -20 96 -20 168 C-20 251 19 357 73 416 C97 443 132 458 171 458 L171 458 Z M465 309 C426 309 419 309 385 304 C417 408 472 459 553 459 C612 459 643 428 643 368 C643 347 642 333 637 309 L465 309 Z " />
<glyph glyph-name="Scaron" unicode="&#x160;" horiz-adv-x="621" d="M476 545 L477 555 C479 571 480 588 480 597 C480 695 398 756 265 756 C105 756 -10 668 -10 547 C-10 460 26 419 186 330 C273 281 304 247 304 200 C304 121 224 65 112 65 C20 65 -24 101 -24 179 C-24 187 -23 199 -20 217 L-122 217 C-128 181 -130 164 -130 145 C-130 42 -42 -19 105 -19 C288 -19 412 75 412 213 C412 295 373 345 259 409 C158 466 145 474 123 497 C108 512 98 536 98 558 C98 624 164 671 256 671 C335 671 376 640 376 581 C376 573 376 565 375 555 L374 545 L476 545 Z M171 919 L223 766 L323 766 L459 919 L376 919 L328 866 C305 839 300 833 281 807 L279 807 C273 833 271 840 262 866 L243 919 L171 919 Z " />
<glyph glyph-name="scaron" unicode="&#x161;" horiz-adv-x="478" d="M307 371 C308 383 308 389 308 397 C308 486 256 528 145 528 C10 528 -68 470 -68 369 C-68 316 -40 282 36 244 C134 194 152 178 152 140 C152 87 110 56 38 56 C-27 56 -53 77 -53 129 C-53 138 -52 147 -50 164 L-147 164 C-152 140 -154 128 -154 112 C-154 28 -94 -14 26 -14 C171 -14 257 51 257 161 C257 221 231 253 148 292 C57 335 35 353 35 389 C35 430 74 459 130 459 C185 459 210 437 210 388 C210 386 209 377 209 371 L307 371 Z M86 763 L138 610 L238 610 L374 763 L291 763 L243 710 C220 683 215 677 196 651 L194 651 C188 677 186 684 177 710 L158 763 L86 763 Z " />
<glyph glyph-name="Ydieresis" unicode="&#x178;" horiz-adv-x="588" d="M-22 736 L112 261 L34 0 L134 0 L212 263 L572 736 L456 736 L270 486 C224 424 214 411 176 353 L173 354 C161 422 157 437 139 512 L84 736 L-22 736 Z M124 790 L221 790 L252 895 L155 895 L124 790 Z M298 790 L395 790 L426 895 L329 895 L298 790 Z " />
<glyph glyph-name="Zcaron" unicode="&#x17d;" horiz-adv-x="611" d="M-161 0 L366 0 L390 86 L150 86 C65 86 47 86 -29 81 L-30 84 C25 136 36 147 96 210 L509 644 L527 736 L30 736 L5 650 L213 650 C298 650 316 651 392 655 L393 652 C337 599 323 586 267 526 L-147 92 L-161 0 Z M165 919 L217 766 L317 766 L453 919 L370 919 L322 866 C299 839 294 833 275 807 L273 807 C267 833 265 840 256 866 L237 919 L165 919 Z " />
<glyph glyph-name="zcaron" unicode="&#x17e;" horiz-adv-x="473" d="M-174 0 L214 0 L233 69 L91 69 C20 69 6 69 -57 64 L-59 67 C0 120 14 133 75 194 L318 437 L331 514 L-42 514 L-62 445 L71 445 C139 445 152 445 212 450 L213 447 C155 394 141 380 81 320 L-160 77 L-174 0 Z M84 763 L136 610 L236 610 L372 763 L289 763 L241 710 C218 683 213 677 194 651 L192 651 C186 677 184 684 175 710 L156 763 L84 763 Z " />
<glyph glyph-name="florin" unicode="&#x192;" horiz-adv-x="386" d="M119 441 L229 441 L252 499 L197 499 C168 499 163 499 138 496 C146 510 148 514 155 530 L167 560 C211 667 226 684 284 684 C297 684 305 683 324 680 L353 748 C323 753 310 754 285 754 C183 754 132 711 79 578 L47 499 L-56 499 L-79 441 L-28 441 C-1 441 5 441 28 444 C10 407 7 399 -10 356 L-91 155 L-136 43 C-187 -84 -228 -126 -301 -126 C-312 -126 -323 -124 -346 -119 L-375 -186 C-343 -194 -327 -196 -303 -196 C-191 -196 -116 -133 -54 13 C-40 45 -19 97 10 169 L119 441 Z " />
<glyph glyph-name="circumflex" unicode="&#x2c6;" d="M-199 610 L-116 610 L-69 664 C-45 690 -40 696 -22 722 L-19 722 C-14 697 -12 691 -3 664 L16 610 L89 610 L36 763 L-63 763 L-199 610 Z " />
<glyph glyph-name="caron" unicode="&#x2c7;" d="M-153 763 L-101 610 L-1 610 L135 763 L52 763 L4 710 C-19 683 -24 677 -43 651 L-45 651 C-51 677 -53 684 -62 710 L-81 763 L-153 763 Z " />
<glyph glyph-name="breve" unicode="&#x2d8;" d="M-149 755 C-149 657 -115 618 -33 618 C44 618 105 672 125 755 L61 755 C43 709 13 686 -29 686 C-70 686 -89 707 -90 755 L-149 755 Z " />
<glyph glyph-name="dotaccent" unicode="&#x2d9;" d="M-93 636 L13 636 L43 736 L-64 736 L-93 636 Z " />
<glyph glyph-name="ring" unicode="&#x2da;" d="M-30 785 C-88 785 -132 741 -132 684 C-132 628 -90 587 -32 587 C25 587 68 630 68 687 C68 742 25 785 -30 785 L-30 785 Z M-32 735 C-3 735 17 715 17 686 C17 657 -3 636 -32 636 C-61 636 -81 656 -81 686 C-81 715 -61 735 -32 735 L-32 735 Z " />
<glyph glyph-name="ogonek" unicode="&#x2db;" d="M-225 3 C-314 -38 -345 -71 -345 -123 C-345 -173 -310 -197 -236 -197 C-221 -197 -207 -196 -180 -192 L-159 -124 C-186 -134 -199 -137 -214 -137 C-243 -137 -263 -120 -263 -95 C-263 -60 -239 -36 -166 3 L-225 3 Z " />
<glyph glyph-name="tilde" unicode="&#x2dc;" d="M-133 639 C-123 663 -111 672 -92 672 C-80 672 -56 664 -27 650 C1 637 14 633 31 633 C76 633 115 675 126 736 L72 736 C62 715 51 706 36 707 C19 708 -5 715 -34 729 C-56 739 -75 743 -94 743 C-140 743 -177 702 -189 639 L-133 639 Z " />
<glyph glyph-name="hungarumlaut" unicode="&#x2dd;" d="M-208 610 L-135 610 L17 763 L-96 763 L-208 610 Z M-35 610 L38 610 L190 763 L77 763 L-35 610 Z " />
<glyph glyph-name="endash" unicode="&#x2013;" horiz-adv-x="580" d="M-111 237 L375 237 L397 312 L-88 312 L-111 237 Z " />
<glyph glyph-name="emdash" unicode="&#x2014;" horiz-adv-x="903" d="M-110 237 L697 237 L720 312 L-87 312 L-110 237 Z " />
<glyph glyph-name="quoteleft" unicode="&#x2018;" horiz-adv-x="294" d="M-24 483 L101 483 L237 736 L158 736 L-24 483 Z " />
<glyph glyph-name="quoteright" unicode="&#x2019;" horiz-adv-x="294" d="M-26 483 L55 483 L234 736 L108 736 L-26 483 Z " />
<glyph glyph-name="quotesinglbase" unicode="&#x201a;" horiz-adv-x="279" d="M-231 -125 L-152 -125 L35 125 L-98 125 L-231 -125 Z " />
<glyph glyph-name="quotedblleft" unicode="&#x201c;" horiz-adv-x="455" d="M-38 483 L87 483 L222 736 L141 736 L-38 483 Z M132 483 L257 483 L392 736 L311 736 L132 483 Z " />
<glyph glyph-name="quotedblright" unicode="&#x201d;" horiz-adv-x="455" d="M-33 483 L48 483 L227 736 L101 736 L-33 483 Z M139 483 L218 483 L399 736 L273 736 L139 483 Z " />
<glyph glyph-name="quotedblbase" unicode="&#x201e;" horiz-adv-x="455" d="M-214 -125 L-133 -125 L44 125 L-81 125 L-214 -125 Z M-38 -125 L43 -125 L222 125 L95 125 L-38 -125 Z " />
<glyph glyph-name="dagger" unicode="&#x2020;" horiz-adv-x="527" d="M-40 494 L64 494 C100 494 108 494 141 497 C129 467 126 459 116 425 L-11 0 L80 0 L226 493 L401 493 L422 562 L318 563 C288 563 276 563 242 560 C254 589 256 595 267 631 L298 736 L208 736 L156 563 L-20 563 L-40 494 Z " />
<glyph glyph-name="daggerdbl" unicode="&#x2021;" horiz-adv-x="527" d="M62 243 L-114 243 L-134 174 L-30 174 C7 174 14 174 46 177 C34 147 32 140 21 105 L-10 0 L81 0 L132 174 L307 174 L327 243 L224 243 C189 243 180 243 148 240 C160 270 162 277 172 312 L226 493 L401 493 L422 562 L318 563 C288 563 276 563 242 560 C254 589 256 595 267 631 L298 736 L207 736 L156 563 L-20 563 L-40 494 L64 494 C99 494 108 494 140 497 C128 467 126 460 116 425 L62 243 Z " />
<glyph glyph-name="bullet" unicode="&#x2022;" horiz-adv-x="565" d="M164 552 C63 552 -20 469 -20 368 C-20 267 63 184 164 184 C265 184 348 267 348 368 C348 469 265 552 164 552 L164 552 Z " />
<glyph glyph-name="ellipsis" unicode="&#x2026;" horiz-adv-x="637" d="M-177 0 L-58 0 L-24 120 L-141 120 L-177 0 Z M35 0 L154 0 L189 120 L71 120 L35 0 Z M247 0 L366 0 L401 120 L283 120 L247 0 Z " />
<glyph glyph-name="perthousand" unicode="&#x2030;" horiz-adv-x="2091" d="M154 731 C47 731 -35 639 -35 517 C-35 418 14 365 105 365 C210 365 291 461 291 586 C291 678 241 731 154 731 L154 731 Z M3 -28 L72 -28 L604 747 L536 747 L3 -28 Z M149 673 C194 673 218 642 218 586 C218 496 168 423 107 423 C64 423 42 453 42 511 C42 598 91 673 149 673 L149 673 Z M515 361 C408 361 326 269 326 148 C326 48 375 -5 466 -5 C571 -5 652 91 652 216 C652 308 602 361 515 361 L515 361 Z M509 303 C554 303 578 272 578 215 C578 126 528 53 467 53 C423 53 401 83 401 140 C401 228 450 303 509 303 L509 303 Z M1005 731 C898 731 816 639 816 517 C816 418 865 365 956 365 C1061 365 1142 461 1142 586 C1142 678 1092 731 1005 731 L1005 731 Z M855 -28 L924 -28 L1456 747 L1388 747 L855 -28 Z M1001 673 C1045 673 1070 642 1070 586 C1070 497 1020 423 959 423 C915 423 893 453 893 511 C893 598 943 673 1001 673 L1001 673 Z M1366 361 C1259 361 1177 269 1177 148 C1177 48 1226 -5 1317 -5 C1422 -5 1503 91 1503 216 C1503 308 1453 361 1366 361 L1366 361 Z M1360 303 C1404 303 1429 272 1429 215 C1429 126 1379 53 1318 53 C1274 53 1252 83 1252 140 C1252 228 1301 303 1360 303 L1360 303 Z M1755 361 C1648 361 1566 268 1566 147 C1566 48 1615 -5 1706 -5 C1811 -5 1891 91 1891 216 C1891 308 1841 361 1755 361 L1755 361 Z M1748 303 C1793 303 1817 272 1817 215 C1817 126 1767 53 1706 53 C1663 53 1641 83 1641 140 C1641 228 1690 303 1748 303 L1748 303 Z " />
<glyph glyph-name="guilsinglleft" unicode="&#x2039;" horiz-adv-x="279" d="M-91 265 L-40 63 L34 63 L1 265 L149 466 L69 466 L-91 265 Z " />
<glyph glyph-name="guilsinglright" unicode="&#x203a;" horiz-adv-x="279" d="M-143 63 L-62 63 L97 265 L46 466 L-28 466 L5 265 L-143 63 Z " />
<glyph glyph-name="fraction" unicode="&#x2044;" horiz-adv-x="184" d="M180 711 L-307 0 L-240 0 L247 711 L180 711 Z " />
<glyph glyph-name="trademark" unicode="&#x2122;" horiz-adv-x="885" d="M-19 681 L42 681 C76 681 80 681 107 684 C95 654 93 647 83 613 L-4 317 L61 317 L169 681 L282 681 L298 736 L-3 736 L-19 681 Z M219 317 L285 317 L337 493 C363 579 370 606 389 693 L395 693 C394 667 394 644 394 634 C394 592 395 580 400 493 L411 317 L480 317 L591 492 C645 577 662 605 712 695 L717 693 C686 607 677 581 651 492 L600 317 L665 317 L788 736 L680 736 L574 568 C522 486 511 466 467 388 L463 389 L463 433 C463 476 462 505 458 568 L448 736 L343 736 L219 317 Z " />
<glyph glyph-name="minus" unicode="&#x2212;" horiz-adv-x="580" d="M-111 237 L375 237 L397 312 L-88 312 L-111 237 Z " />
<glyph glyph-name="fi" unicode="&#xfb01;" horiz-adv-x="578" d="M429 514 L174 514 C145 514 139 514 112 511 C119 524 120 528 124 542 L133 570 C155 646 182 668 250 668 L255 668 L275 668 L296 738 C258 742 241 743 218 743 C123 743 78 706 47 601 L22 514 L-77 514 L-96 448 L-47 448 C-19 448 -16 448 6 451 C-5 421 -8 413 -18 379 L-129 0 L-36 0 L97 447 L315 447 L182 0 L277 0 L429 514 Z M365 636 L471 636 L501 736 L395 736 L365 636 Z " />
<glyph glyph-name="fl" unicode="&#xfb02;" horiz-adv-x="578" d="M-137 0 L-44 0 L89 447 L204 447 L224 514 L166 514 C134 514 130 514 104 511 C111 524 112 527 116 542 L125 570 C147 646 174 668 242 668 L247 668 L267 668 L288 738 C250 742 233 743 210 743 C115 743 70 706 39 601 L14 514 L-85 514 L-104 448 L-55 448 C-27 448 -24 448 -2 451 C-13 421 -16 413 -26 379 L-137 0 Z M406 736 L189 0 L285 0 L501 736 L406 736 Z " />
</font>
</svg>
