<?xml version="1.0" encoding="UTF-8"?>
<svg xmlns="http://www.w3.org/2000/svg" xmlns:xlink="http://www.w3.org/1999/xlink" version="1.2" >
<font id="Univers Bold">
<font-face  font-family="Univers SB Bold" units-per-em="1000" ascent="736.084" descent="-158.691" font-style="normal" font-weight="700" font-stretch="normal" cap-height="750" x-height="500" underline-position="-81.5" underline-thickness="81" />
<missing-glyph  horiz-adv-x="233" d="" />
<glyph glyph-name="NULL" d="" />
<glyph glyph-name="CR" unicode="&#xd;" horiz-adv-x="250" d="" />
<glyph glyph-name="space" unicode="&#x20;" horiz-adv-x="233" d="" />
<glyph glyph-name="exclam" unicode="&#x21;" horiz-adv-x="327" d="M71 736 L104 215 L250 215 L288 736 L71 736 Z M86 0 L268 0 L268 151 L86 151 L86 0 Z " />
<glyph glyph-name="quotedbl" unicode="&#x22;" horiz-adv-x="445" d="M167 442 L183 736 L70 736 L86 442 L167 442 Z M360 442 L376 736 L263 736 L279 442 L360 442 Z " />
<glyph glyph-name="numbersign" unicode="&#x23;" horiz-adv-x="711" d="M634 293 L553 293 C530 293 525 293 505 290 C511 309 512 313 516 337 L533 445 L657 445 L669 524 L590 524 C567 524 562 524 542 521 C548 540 549 545 553 568 L579 736 L490 736 L457 524 L348 524 C325 524 320 524 300 521 C306 540 307 545 310 568 L337 736 L249 736 L215 524 L90 524 L78 445 L159 445 C182 445 186 445 207 448 C201 429 199 424 196 401 L179 293 L53 293 L41 214 L122 214 C145 214 150 214 170 217 C164 198 163 193 159 170 L132 0 L220 0 L254 214 L363 214 C386 214 391 214 411 217 C405 198 404 193 401 170 L374 0 L463 0 L497 214 L622 214 L634 293 Z M420 293 L311 293 C288 293 283 293 263 290 C269 309 270 314 274 337 L291 445 L400 445 C423 445 428 445 448 448 C442 429 441 425 437 402 L420 293 Z " />
<glyph glyph-name="dollar" unicode="&#x24;" horiz-adv-x="716" d="M308 -110 L403 -110 L403 -10 C587 6 679 83 679 222 C679 343 612 405 452 435 L380 449 C297 465 259 494 259 542 C259 586 295 614 349 614 C414 614 441 587 446 517 L654 517 C651 592 638 631 606 667 C565 714 503 738 403 747 L403 846 L308 846 L308 747 C139 737 45 656 45 522 C45 461 62 418 101 382 C148 338 209 315 344 293 C433 279 468 255 468 206 C468 156 430 127 366 127 C283 127 252 155 242 238 L32 238 C37 81 118 8 308 -10 L308 -110 Z " />
<glyph glyph-name="percent" unicode="&#x25;" horiz-adv-x="862" d="M199 739 C77 739 24 675 24 526 C24 396 84 324 192 324 C251 324 313 352 340 392 C362 423 370 464 370 537 C370 675 316 739 199 739 L199 739 Z M198 652 C231 652 240 627 240 533 C240 438 232 414 199 414 C166 414 157 439 157 533 C157 627 166 652 198 652 L198 652 Z M186 -18 L297 -18 L680 749 L568 749 L186 -18 Z M670 405 C548 405 495 341 495 192 C495 62 555 -10 663 -10 C722 -10 784 18 811 58 C833 89 841 130 841 203 C841 341 787 405 670 405 L670 405 Z M669 318 C702 318 711 293 711 199 C711 104 703 80 670 80 C637 80 628 105 628 199 C628 293 637 318 669 318 L669 318 Z " />
<glyph glyph-name="ampersand" unicode="&#x26;" horiz-adv-x="867" d="M627 0 L872 0 L721 157 C797 233 824 294 829 401 L660 401 C646 329 636 305 603 269 C597 282 595 284 584 295 L530 350 C516 363 513 366 499 376 C603 439 641 490 641 567 C641 682 547 747 380 747 C209 747 106 680 106 569 C106 498 140 446 218 397 L217 394 C92 358 36 298 36 200 C36 65 144 -13 330 -13 C446 -13 488 -2 583 51 L627 0 Z M446 183 C459 172 462 170 476 163 C436 124 409 112 356 112 C293 112 248 147 248 195 C248 226 263 244 312 274 C316 277 323 281 331 286 L446 183 Z M376 483 C326 523 307 547 307 574 C307 609 337 634 379 634 C421 634 451 609 451 574 C451 540 426 510 376 483 L376 483 Z " />
<glyph glyph-name="quotesingle" unicode="&#x27;" horiz-adv-x="251" d="M166 442 L182 736 L69 736 L85 442 L166 442 Z " />
<glyph glyph-name="parenleft" unicode="&#x28;" horiz-adv-x="302" d="M289 -156 C261 -65 250 -25 237 30 C214 128 202 218 202 291 C202 360 212 441 233 534 C246 590 259 637 289 736 L159 736 C69 535 38 421 38 284 C38 152 70 33 156 -156 L289 -156 Z " />
<glyph glyph-name="parenright" unicode="&#x29;" horiz-adv-x="302" d="M147 -156 C234 35 265 153 265 289 C265 419 232 540 144 736 L14 736 C40 649 53 606 64 559 C88 459 101 366 101 297 C101 168 80 57 14 -156 L147 -156 Z " />
<glyph glyph-name="asterisk" unicode="&#x2a;" horiz-adv-x="445" d="M33 510 L80 442 L131 476 C158 493 162 496 184 514 L186 513 C182 485 182 477 182 447 L182 386 L262 386 L262 446 C262 472 262 482 259 511 C282 495 290 490 313 476 L364 445 L412 510 L357 546 C330 565 324 568 297 582 L298 584 C323 592 328 594 355 607 L407 632 L367 708 L314 679 C292 666 283 661 259 645 C262 674 262 685 262 711 L262 772 L182 772 L182 713 C182 683 182 677 185 650 C161 665 154 668 127 681 L72 708 L36 632 L89 607 C115 594 122 592 147 584 L147 581 C120 567 112 562 87 546 L33 510 Z " />
<glyph glyph-name="plus" unicode="&#x2b;" horiz-adv-x="675" d="M54 422 L54 314 L256 314 C268 314 271 314 282 318 C278 307 278 304 278 292 L278 85 L396 85 L396 292 C396 304 396 307 392 318 C403 314 406 314 418 314 L621 314 L621 422 L418 422 C406 422 403 422 392 418 C396 429 396 432 396 444 L396 652 L278 652 L278 444 C278 432 278 429 282 418 C271 422 268 422 256 422 L54 422 Z " />
<glyph glyph-name="comma" unicode="&#x2c;" horiz-adv-x="315" d="M22 -120 L160 -120 L280 156 L86 156 L22 -120 Z " />
<glyph glyph-name="hyphen" unicode="&#x2d;" horiz-adv-x="358" d="M35 204 L324 204 L324 342 L35 342 L35 204 Z " />
<glyph glyph-name="period" unicode="&#x2e;" horiz-adv-x="289" d="M76 0 L255 0 L255 153 L76 153 L76 0 Z " />
<glyph glyph-name="slash" unicode="&#x2f;" horiz-adv-x="501" d="M14 0 L124 0 L488 736 L377 736 L14 0 Z " />
<glyph glyph-name="zero" unicode="0" horiz-adv-x="675" d="M335 740 C227 740 140 695 91 615 C61 565 36 457 36 375 C36 119 137 -8 340 -8 C421 -8 495 19 546 69 C606 127 638 229 638 364 C638 612 535 740 335 740 L335 740 Z M338 603 C364 603 390 589 406 565 C425 537 438 456 438 368 C438 192 411 129 334 129 C263 129 236 192 236 357 C236 467 243 523 262 556 C279 585 307 603 338 603 L338 603 Z " />
<glyph glyph-name="one" unicode="1" horiz-adv-x="675" d="M479 716 L325 716 C246 649 200 624 110 597 L110 435 C184 454 243 486 292 534 L295 532 C290 461 289 443 289 364 L289 0 L479 0 L479 716 Z " />
<glyph glyph-name="two" unicode="2" horiz-adv-x="675" d="M52 0 L622 0 L622 143 L457 143 C377 143 357 142 281 136 L280 140 C430 244 518 318 573 385 C608 426 622 466 622 522 C622 660 530 732 355 732 C170 732 70 657 65 511 L260 512 C270 572 292 595 340 595 C384 595 418 565 418 525 C418 455 354 382 169 240 L106 191 L52 151 L52 0 Z " />
<glyph glyph-name="three" unicode="3" horiz-adv-x="675" d="M29 212 C31 160 41 127 64 92 C109 27 208 -12 331 -12 C517 -12 632 69 632 200 C632 289 563 358 452 377 L452 382 C562 403 615 455 615 542 C615 665 510 738 334 738 C152 738 50 663 42 524 L244 524 C252 582 276 603 331 603 C385 603 420 571 420 522 C420 464 379 435 295 435 L231 435 L231 304 L298 304 C392 304 432 278 432 214 C432 160 393 127 331 127 C262 127 239 146 230 212 L29 212 Z " />
<glyph glyph-name="four" unicode="4" horiz-adv-x="675" d="M25 138 L342 138 C354 138 357 139 369 142 C365 131 365 127 365 116 L365 0 L544 0 L544 116 C544 128 544 131 540 142 C551 138 554 138 566 138 L654 138 L654 271 L566 271 C554 271 551 271 540 267 C544 278 544 281 544 293 L544 716 L326 716 L25 307 L25 138 Z M257 271 C205 271 194 271 147 267 L146 269 C188 319 194 325 243 389 L257 408 C304 469 320 490 364 557 L368 555 C363 492 362 473 362 408 L362 293 C362 282 363 278 366 267 C355 271 351 271 340 271 L257 271 Z " />
<glyph glyph-name="five" unicode="5" horiz-adv-x="675" d="M244 398 C254 440 256 455 259 494 L265 575 L587 575 L587 720 L86 721 L68 296 L267 296 C283 342 305 360 346 360 C398 360 432 317 432 251 C432 176 395 126 340 126 C292 126 260 157 257 207 L55 207 C58 151 65 124 85 91 C127 22 214 -13 339 -13 C530 -13 631 78 631 250 C631 401 547 494 412 494 C335 494 281 462 249 397 L244 398 Z " />
<glyph glyph-name="six" unicode="6" horiz-adv-x="675" d="M234 389 C234 470 239 509 255 545 C275 586 312 610 358 610 C412 610 444 584 449 537 L641 537 C640 585 632 612 610 642 C568 702 472 741 366 741 C244 741 153 694 96 603 C66 556 45 452 45 355 C45 112 146 -13 343 -13 C529 -13 641 82 641 239 C641 314 624 358 580 400 C535 444 474 467 405 467 C333 467 286 445 238 387 L234 389 Z M352 346 C417 346 454 305 454 234 C454 160 416 118 348 118 C285 118 247 160 247 232 C247 302 288 346 352 346 L352 346 Z " />
<glyph glyph-name="seven" unicode="7" horiz-adv-x="675" d="M58 568 L302 568 C349 568 367 568 418 571 C393 527 385 512 363 469 L122 0 L352 0 L618 574 L618 716 L58 716 L58 568 Z " />
<glyph glyph-name="eight" unicode="8" horiz-adv-x="675" d="M475 379 C575 403 616 452 616 544 C616 665 512 738 340 738 C166 738 63 667 63 546 C63 455 110 404 213 379 C83 345 35 296 35 195 C35 66 143 -13 321 -13 C455 -13 529 9 592 68 C630 105 644 138 644 193 C644 290 597 342 475 379 L475 379 Z M339 317 C406 317 451 275 451 215 C451 156 407 118 339 118 C269 118 228 154 228 217 C228 275 274 317 339 317 L339 317 Z M338 620 C393 620 431 583 431 529 C431 474 396 441 338 441 C283 441 248 475 248 529 C248 583 285 620 338 620 L338 620 Z " />
<glyph glyph-name="nine" unicode="9" horiz-adv-x="675" d="M447 340 C448 258 443 219 426 183 C407 142 369 118 323 118 C269 118 237 144 232 192 L40 192 C42 143 50 116 71 86 C114 26 209 -13 315 -13 C436 -13 528 34 585 125 C615 172 636 277 636 373 C636 616 535 741 338 741 C152 741 40 646 40 489 C40 415 57 370 101 329 C146 285 208 262 276 262 C349 262 396 284 443 342 L447 340 Z M333 610 C396 610 434 568 434 497 C434 427 393 383 329 383 C264 383 227 424 227 495 C227 568 265 610 333 610 L333 610 Z " />
<glyph glyph-name="colon" unicode="&#x3a;" horiz-adv-x="289" d="M76 0 L255 0 L255 153 L76 153 L76 0 Z M76 361 L255 361 L255 514 L76 514 L76 361 Z " />
<glyph glyph-name="semicolon" unicode="&#x3b;" horiz-adv-x="317" d="M22 -118 L160 -118 L283 156 L91 156 L22 -118 Z M81 361 L257 361 L257 514 L81 514 L81 361 Z " />
<glyph glyph-name="less" unicode="&#x3c;" horiz-adv-x="675" d="M566 679 L110 421 L110 314 L566 58 L566 180 L338 305 C280 336 269 342 216 367 L216 370 C269 394 280 400 338 431 L566 556 L566 679 Z " />
<glyph glyph-name="equal" unicode="&#x3d;" horiz-adv-x="675" d="M66 526 L66 418 L608 418 L608 526 L66 526 Z M66 318 L66 210 L608 210 L608 318 L66 318 Z " />
<glyph glyph-name="greater" unicode="&#x3e;" horiz-adv-x="675" d="M110 679 L110 556 L339 432 C397 400 409 394 462 370 L462 367 C409 342 397 336 339 305 L110 180 L110 58 L566 314 L566 421 L110 679 Z " />
<glyph glyph-name="question" unicode="&#x3f;" horiz-adv-x="527" d="M42 611 C112 623 132 626 161 626 C245 626 284 597 284 535 C284 496 270 476 188 395 C128 336 119 321 119 276 L119 197 L283 197 L283 245 C283 304 300 330 367 375 C461 438 492 482 492 555 C492 682 389 758 216 758 C165 758 122 754 42 741 L42 611 Z M111 0 L290 0 L290 153 L111 153 L111 0 Z " />
<glyph glyph-name="at" unicode="&#x40;" horiz-adv-x="852" d="M565 548 L558 513 C556 505 555 495 555 489 C555 481 555 476 556 465 L552 464 C529 530 490 561 429 561 C324 561 235 458 235 335 C235 230 302 154 392 154 C448 154 497 183 529 236 L533 235 C535 189 567 158 611 158 C714 158 805 283 805 424 C805 614 651 752 439 752 C222 752 47 581 47 370 C47 144 214 -16 452 -16 C543 -16 625 0 698 33 L679 98 C607 64 536 49 452 49 C254 49 121 178 121 369 C121 545 264 687 441 687 C616 687 735 579 735 421 C735 317 679 224 618 224 C593 224 577 242 577 270 C577 279 579 298 583 315 L628 548 L565 548 Z M438 489 C491 489 526 449 526 389 C526 296 474 225 407 225 C351 225 313 270 313 337 C313 420 370 489 438 489 L438 489 Z " />
<glyph glyph-name="A" unicode="A" horiz-adv-x="818" d="M-4 0 L203 0 L254 148 L541 148 L592 0 L822 0 L533 736 L282 736 L-4 0 Z M379 284 C338 284 331 284 296 281 C310 313 312 320 325 359 L349 430 C372 500 378 519 395 588 L400 588 C416 519 421 501 443 430 L467 356 C478 320 481 312 494 281 C460 284 451 284 414 284 L379 284 Z " />
<glyph glyph-name="B" unicode="B" horiz-adv-x="729" d="M68 0 L426 0 C589 0 694 79 694 200 C694 290 634 351 517 378 L517 383 C624 417 671 466 671 545 C671 663 572 736 411 736 L68 736 L68 0 Z M357 307 C445 307 484 281 484 223 C484 158 449 133 357 133 L300 133 C288 133 285 133 274 129 C278 140 278 143 278 155 L278 285 C278 297 278 300 274 311 C285 307 288 307 300 307 L357 307 Z M357 600 C429 600 468 572 468 518 C468 465 430 437 357 437 L300 437 C288 437 285 437 274 433 C278 444 278 447 278 459 L278 578 C278 590 278 593 274 604 C285 600 288 600 300 600 L357 600 Z " />
<glyph glyph-name="C" unicode="C" horiz-adv-x="747" d="M506 240 C495 158 467 131 394 131 C299 131 247 212 247 360 C247 514 299 601 392 601 C456 601 494 566 500 501 L713 501 C709 559 697 597 671 634 C621 705 517 748 396 748 C169 748 35 606 35 365 C35 125 165 -11 394 -11 C511 -11 620 30 672 94 C704 134 716 173 718 240 L506 240 Z " />
<glyph glyph-name="D" unicode="D" horiz-adv-x="790" d="M69 0 L343 0 C620 0 754 126 754 384 C754 603 609 736 371 736 L69 736 L69 0 Z M328 595 C476 595 544 523 544 365 C544 210 478 143 325 143 L301 143 C289 143 286 143 275 139 C279 150 279 153 279 165 L279 573 C279 585 279 588 275 599 C286 595 289 595 301 595 L328 595 Z " />
<glyph glyph-name="E" unicode="E" horiz-adv-x="627" d="M69 0 L591 0 L591 141 L301 141 C289 141 286 141 275 137 C279 148 279 151 279 163 L279 275 C279 287 279 290 275 301 C286 297 289 297 301 297 L565 297 L565 440 L301 440 C289 440 286 440 275 436 C279 447 279 450 279 462 L279 571 C279 583 279 586 275 597 C286 593 289 593 301 593 L583 593 L583 736 L69 736 L69 0 Z " />
<glyph glyph-name="F" unicode="F" horiz-adv-x="575" d="M69 0 L276 0 L276 262 C276 274 276 277 272 288 C284 284 287 284 299 284 L529 284 L529 427 L301 427 C289 427 286 427 275 423 C278 434 279 437 279 449 L279 573 C279 585 278 588 275 599 C286 595 289 595 301 595 L550 595 L550 736 L69 736 L69 0 Z " />
<glyph glyph-name="G" unicode="G" horiz-adv-x="793" d="M727 414 L397 414 L397 276 L518 276 C530 276 533 276 544 280 C540 269 540 266 540 254 L540 138 C502 131 466 127 440 127 C392 127 344 147 312 180 C272 220 253 284 253 375 C253 522 310 603 413 603 C492 603 524 577 532 509 L730 509 C723 660 607 748 415 748 C179 748 36 603 36 362 C36 244 69 152 135 86 C205 16 282 -11 415 -11 C501 -11 561 -5 727 23 L727 414 Z " />
<glyph glyph-name="H" unicode="H" horiz-adv-x="813" d="M70 0 L277 0 L277 264 C277 276 277 279 273 290 C284 286 287 286 299 286 L513 286 C525 286 528 286 539 290 C535 279 535 276 535 264 L535 0 L742 0 L742 736 L535 736 L535 464 C535 452 535 449 539 438 C528 442 525 442 513 442 L299 442 C287 442 284 442 273 438 C277 449 277 452 277 464 L277 736 L70 736 L70 0 Z " />
<glyph glyph-name="I" unicode="I" horiz-adv-x="348" d="M70 0 L277 0 L277 736 L70 736 L70 0 Z " />
<glyph glyph-name="J" unicode="J" horiz-adv-x="616" d="M550 736 L343 736 L343 220 C343 169 314 138 266 138 C214 138 196 163 192 240 L3 240 L3 202 C3 69 102 -12 264 -12 C441 -12 550 79 550 227 L550 736 Z " />
<glyph glyph-name="K" unicode="K" horiz-adv-x="765" d="M69 0 L276 0 L276 391 L520 0 L770 0 L495 417 L745 736 L510 736 L276 411 L276 736 L69 736 L69 0 Z " />
<glyph glyph-name="L" unicode="L" horiz-adv-x="583" d="M563 148 L299 148 C287 148 284 148 273 144 C277 155 277 158 277 170 L277 736 L70 736 L70 0 L563 0 L563 148 Z " />
<glyph glyph-name="M" unicode="M" horiz-adv-x="1010" d="M68 0 L250 0 L250 286 C250 431 249 466 243 601 L249 602 C279 469 288 434 325 295 L406 0 L597 0 L678 296 C716 435 725 470 755 602 L761 601 C755 466 754 434 754 286 L754 0 L943 0 L943 736 L624 736 L566 485 C539 368 533 339 514 228 L508 228 C488 339 482 368 454 485 L393 736 L68 736 L68 0 Z " />
<glyph glyph-name="N" unicode="N" horiz-adv-x="844" d="M70 0 L252 0 L252 283 C252 410 251 441 245 560 L250 561 C291 450 302 423 353 304 L484 0 L773 0 L773 736 L591 736 L591 469 C591 343 592 312 598 195 L593 194 C551 303 539 332 488 447 L359 736 L70 736 L70 0 Z " />
<glyph glyph-name="O" unicode="O" horiz-adv-x="821" d="M412 749 C300 749 193 710 132 647 C71 584 37 485 37 367 C37 124 175 -13 420 -13 C641 -13 784 136 784 368 C784 604 642 749 412 749 L412 749 Z M410 599 C514 599 569 520 569 371 C569 215 516 137 410 137 C305 137 252 215 252 371 C252 521 306 599 410 599 L410 599 Z " />
<glyph glyph-name="P" unicode="P" horiz-adv-x="714" d="M70 0 L277 0 L277 241 C277 253 277 256 273 267 C285 263 288 263 300 263 L380 263 C581 263 689 348 689 507 C689 648 588 736 426 736 L70 736 L70 0 Z M375 598 C443 598 482 564 482 504 C482 440 441 407 362 407 L302 407 C290 407 287 407 276 403 C279 414 280 417 280 429 L280 576 C280 588 279 591 276 602 C287 599 290 598 302 598 L375 598 Z " />
<glyph glyph-name="Q" unicode="Q" horiz-adv-x="846" d="M850 139 C842 140 834 140 833 140 C749 140 709 132 627 97 L624 102 C746 170 785 233 785 362 C785 601 641 749 409 749 C175 749 36 607 36 367 C36 129 173 -13 402 -13 C425 -13 445 -12 464 -10 L602 3 C620 5 645 6 673 6 C709 6 751 4 850 -3 L850 139 Z M408 599 C513 599 570 518 570 368 C570 217 514 137 408 137 C305 137 250 218 250 370 C250 518 306 599 408 599 L408 599 Z " />
<glyph glyph-name="R" unicode="R" horiz-adv-x="742" d="M68 0 L275 0 L275 266 C275 278 275 281 271 292 C281 288 284 288 294 288 L313 288 C423 288 451 272 460 202 L472 100 C477 64 484 41 502 0 L721 0 C703 44 697 74 688 161 C672 305 650 334 534 367 C646 401 692 452 692 547 C692 610 666 662 615 697 C575 726 532 736 452 736 L68 736 L68 0 Z M373 600 C449 600 484 572 484 510 C484 455 450 425 388 425 L300 425 C288 425 285 425 274 421 C277 432 278 435 278 447 L278 578 C278 590 277 593 274 604 C285 600 288 600 300 600 L373 600 Z " />
<glyph glyph-name="S" unicode="S" horiz-adv-x="713" d="M651 516 C648 579 641 609 620 644 C579 712 487 748 352 748 C156 748 43 665 43 521 C43 461 64 413 108 376 C149 340 200 323 345 295 C432 278 466 253 466 206 C466 157 423 123 361 123 C281 123 246 156 240 238 L30 238 C33 175 41 144 64 105 C110 29 213 -13 352 -13 C559 -13 677 74 677 227 C677 343 615 400 450 435 L378 450 C291 468 257 494 257 542 C257 585 293 614 347 614 C410 614 435 589 444 516 L651 516 Z " />
<glyph glyph-name="T" unicode="T" horiz-adv-x="683" d="M16 590 L216 590 C228 590 231 590 242 594 C238 583 238 580 238 568 L238 0 L445 0 L445 568 C445 580 445 583 441 594 C452 590 455 590 467 590 L668 590 L668 736 L16 736 L16 590 Z " />
<glyph glyph-name="U" unicode="U" horiz-adv-x="788" d="M724 736 L517 736 L517 279 C517 183 477 137 393 137 C309 137 269 183 269 279 L269 736 L62 736 L62 265 C62 206 77 152 106 105 C156 22 245 -18 380 -18 C599 -18 724 85 724 265 L724 736 Z " />
<glyph glyph-name="V" unicode="V" horiz-adv-x="762" d="M-1 736 L255 0 L517 0 L764 736 L564 736 L459 384 C427 280 421 256 398 158 L393 158 C370 255 364 279 333 384 L229 736 L-1 736 Z " />
<glyph glyph-name="W" unicode="W" horiz-adv-x="1174" d="M1174 736 L985 736 L909 434 C881 325 875 297 855 193 L850 193 C827 296 820 322 789 432 L702 736 L485 736 L401 441 C369 328 362 301 338 195 L333 195 C315 303 310 330 285 445 L221 736 L-5 736 L211 0 L435 0 L524 324 C553 432 559 458 581 560 L586 560 C608 459 615 434 646 325 L737 0 L962 0 L1174 736 Z " />
<glyph glyph-name="X" unicode="X" horiz-adv-x="816" d="M-4 0 L234 0 L341 168 C370 213 377 225 402 270 L404 270 C426 224 429 217 459 164 L551 0 L819 0 L548 385 L804 736 L564 736 L483 596 C452 544 446 533 422 484 L419 484 C396 533 390 543 360 597 L282 736 L11 736 L270 385 L-4 0 Z " />
<glyph glyph-name="Y" unicode="Y" horiz-adv-x="772" d="M-4 736 L277 273 L277 0 L489 0 L489 266 L775 736 L556 736 L462 553 C429 487 422 474 396 414 L393 414 C368 474 363 487 331 555 L244 736 L-4 736 Z " />
<glyph glyph-name="Z" unicode="Z" horiz-adv-x="683" d="M30 0 L651 0 L651 143 L432 143 C352 143 337 143 267 138 L266 141 C314 193 326 206 375 264 L641 580 L641 736 L53 736 L53 595 L236 595 C316 595 331 595 402 600 L403 597 C354 546 344 534 293 474 L30 163 L30 0 Z " />
<glyph glyph-name="bracketleft" unicode="&#x5b;" horiz-adv-x="330" d="M61 -156 L305 -156 L305 -56 L224 -56 C212 -56 209 -56 198 -60 C202 -49 202 -46 202 -34 L202 609 C202 621 202 624 198 635 C209 631 212 631 224 631 L305 631 L305 736 L61 736 L61 -156 Z " />
<glyph glyph-name="backslash" unicode="&#x5c;" horiz-adv-x="501" d="M488 0 L125 736 L14 736 L378 0 L488 0 Z " />
<glyph glyph-name="bracketright" unicode="&#x5d;" horiz-adv-x="330" d="M269 -156 L269 736 L25 736 L25 631 L106 631 C118 631 121 631 132 635 C128 624 128 620 128 609 L128 -34 C128 -45 128 -49 132 -60 C121 -56 118 -56 106 -56 L25 -56 L25 -156 L269 -156 Z " />
<glyph glyph-name="asciicircum" unicode="&#x5e;" horiz-adv-x="675" d="M624 368 L391 736 L283 736 L50 368 L169 368 L281 546 C309 591 314 600 337 641 C360 600 365 592 394 546 L505 368 L624 368 Z " />
<glyph glyph-name="underscore" unicode="&#x5f;" horiz-adv-x="542" d="M1 -82 L1 -163 L542 -163 L542 -82 L1 -82 Z " />
<glyph glyph-name="grave" unicode="&#x60;" d="M-186 739 L-45 593 L93 593 L-2 739 L-186 739 Z " />
<glyph glyph-name="a" unicode="a" horiz-adv-x="611" d="M380 67 C379 59 379 54 379 49 C379 45 380 38 381 31 L386 0 L564 0 C557 28 555 41 555 65 L555 335 C555 466 484 524 322 524 C156 524 67 467 64 358 L248 358 C254 406 274 427 314 427 C356 427 376 405 376 358 L376 334 C127 332 33 282 33 150 C33 52 105 -15 210 -15 C279 -15 335 13 377 68 L380 67 Z M376 205 C376 143 339 100 287 100 C248 100 222 125 222 163 C222 220 262 240 381 241 C377 234 376 232 376 222 L376 205 Z " />
<glyph glyph-name="b" unicode="b" horiz-adv-x="667" d="M234 0 L239 36 C240 43 241 51 241 56 C241 61 241 68 240 77 L244 78 C281 12 327 -14 405 -14 C480 -14 548 18 588 73 C616 113 633 182 633 263 C633 423 548 525 414 525 C344 525 297 501 250 441 L247 443 C251 500 252 514 252 577 L252 736 L63 736 L63 59 C63 50 62 44 59 17 C59 13 58 7 57 0 L234 0 Z M345 413 C406 413 436 363 436 259 C436 154 406 105 342 105 C280 105 255 149 255 257 C255 365 283 413 345 413 L345 413 Z " />
<glyph glyph-name="c" unicode="c" horiz-adv-x="609" d="M390 202 C383 126 365 100 317 100 C263 100 240 144 240 244 C240 365 263 414 321 414 C363 414 384 387 390 325 L580 325 C572 451 478 523 321 523 C141 523 33 422 33 252 C33 88 140 -12 316 -12 C476 -12 575 67 585 202 L390 202 Z " />
<glyph glyph-name="d" unicode="d" horiz-adv-x="667" d="M427 76 C426 67 426 62 426 56 C426 53 427 45 428 36 L433 0 L610 0 C605 31 604 44 604 60 L604 736 L415 736 L415 584 C415 517 416 503 420 442 L416 441 C374 500 329 524 257 524 C119 524 34 423 34 258 C34 89 116 -11 256 -11 C335 -11 383 14 424 77 L427 76 Z M321 412 C386 412 413 364 413 252 C413 152 382 102 319 102 C262 102 231 155 231 253 C231 362 259 412 321 412 L321 412 Z " />
<glyph glyph-name="e" unicode="e" horiz-adv-x="606" d="M393 171 C380 114 356 93 304 93 C244 93 220 128 216 220 C230 215 233 215 249 215 L572 215 L572 256 C572 425 476 522 310 522 C136 522 35 423 35 253 C35 79 130 -14 307 -14 C461 -14 560 56 569 171 L393 171 Z M249 317 C233 317 230 316 216 312 C221 384 251 421 305 421 C368 421 391 393 396 312 C384 316 381 317 366 317 L249 317 Z " />
<glyph glyph-name="f" unicode="f" horiz-adv-x="453" d="M21 389 L98 389 C110 389 113 389 124 393 C120 382 120 379 120 367 L120 0 L309 0 L309 367 C309 378 309 382 305 393 C316 389 319 389 331 389 L430 389 L430 511 L334 511 C322 511 319 511 308 507 C311 514 312 517 312 524 L312 538 C312 589 326 607 369 607 C377 607 392 606 406 605 C412 605 423 604 435 603 L435 731 C379 739 352 741 321 741 C186 741 120 686 120 574 L120 533 C120 521 120 518 124 507 C113 511 110 511 98 511 L21 511 L21 389 Z " />
<glyph glyph-name="g" unicode="g" horiz-adv-x="667" d="M426 97 C421 79 420 72 420 57 L420 23 C420 -57 389 -94 324 -94 C274 -94 255 -79 241 -28 L62 -28 C65 -148 144 -205 310 -205 C420 -205 504 -180 549 -134 C585 -98 605 -45 605 13 L605 461 C605 472 607 484 611 511 L433 511 L429 479 C428 471 427 465 427 461 C427 457 428 451 429 443 L426 442 C374 500 325 523 257 523 C120 523 33 423 33 266 C33 110 119 11 254 11 C329 11 386 41 421 98 L426 97 Z M324 415 C391 415 416 375 416 267 C416 167 389 126 322 126 C260 126 232 170 232 269 C232 368 261 415 324 415 L324 415 Z " />
<glyph glyph-name="h" unicode="h" horiz-adv-x="657" d="M62 0 L251 0 L251 312 C251 360 284 395 331 395 C381 395 410 365 410 312 L410 0 L599 0 L599 332 C599 449 525 522 408 522 C337 522 291 497 250 436 L245 437 C250 500 251 516 251 583 L251 736 L62 736 L62 0 Z " />
<glyph glyph-name="i" unicode="i" horiz-adv-x="315" d="M62 595 L251 595 L251 736 L62 736 L62 595 Z M62 0 L251 0 L251 511 L62 511 L62 0 Z " />
<glyph glyph-name="j" unicode="j" horiz-adv-x="320" d="M67 511 L67 0 C67 -61 53 -76 -2 -76 L-2 -201 C19 -202 37 -202 46 -202 C208 -202 256 -165 256 -39 L256 511 L67 511 Z M67 595 L256 595 L256 736 L67 736 L67 595 Z " />
<glyph glyph-name="k" unicode="k" horiz-adv-x="650" d="M62 0 L251 0 L251 281 L425 0 L653 0 L457 290 L629 511 L417 511 L251 286 L251 736 L62 736 L62 0 Z " />
<glyph glyph-name="l" unicode="l" horiz-adv-x="315" d="M62 0 L251 0 L251 736 L62 736 L62 0 Z " />
<glyph glyph-name="m" unicode="m" horiz-adv-x="1000" d="M238 511 L56 511 C61 481 62 468 62 445 L62 0 L251 0 L251 308 C251 357 286 395 331 395 C383 395 410 365 410 308 L410 0 L599 0 L599 313 C599 361 634 394 685 394 C732 394 758 364 758 309 L758 0 L947 0 L947 342 C947 454 872 524 753 524 C672 524 624 498 576 429 C538 492 484 522 407 522 C339 522 298 498 246 429 L243 430 C243 439 244 447 244 451 C244 459 244 465 243 473 L238 511 Z " />
<glyph glyph-name="n" unicode="n" horiz-adv-x="655" d="M58 511 C61 475 62 461 62 446 L62 0 L251 0 L251 312 C251 360 286 395 333 395 C383 395 410 366 410 312 L410 0 L599 0 L599 337 C599 450 525 522 409 522 C336 522 287 494 246 428 L242 429 C243 439 244 447 244 451 C244 459 244 464 243 473 L238 511 L58 511 Z " />
<glyph glyph-name="o" unicode="o" horiz-adv-x="662" d="M330 523 C144 523 33 423 33 255 C33 88 145 -12 332 -12 C519 -12 629 87 629 255 C629 425 519 523 330 523 L330 523 Z M333 415 C396 415 431 357 431 256 C431 153 396 96 332 96 C268 96 234 151 234 255 C234 361 268 415 333 415 L333 415 Z " />
<glyph glyph-name="p" unicode="p" horiz-adv-x="665" d="M56 511 C60 477 61 462 61 448 L61 -192 L250 -192 L250 -60 C250 -2 249 12 245 66 L248 67 C307 4 341 -13 409 -13 C546 -13 631 94 631 266 C631 423 546 522 412 522 C340 522 293 496 247 429 L243 429 C244 437 244 442 244 447 C244 452 243 462 241 473 L235 511 L56 511 Z M344 410 C402 410 433 359 433 263 C433 155 402 102 339 102 C278 102 249 154 249 261 C249 356 283 410 344 410 L344 410 Z " />
<glyph glyph-name="q" unicode="q" horiz-adv-x="665" d="M416 66 C412 10 411 -3 411 -65 L411 -192 L602 -192 L602 451 C602 461 603 474 605 495 L607 511 L426 511 L420 473 C418 461 417 451 417 446 C417 442 417 437 418 429 L415 429 C373 495 323 523 248 523 C115 523 31 424 31 268 C31 91 112 -13 252 -13 C322 -13 371 12 412 67 L416 66 Z M318 410 C379 410 413 355 413 255 C413 157 380 100 322 100 C257 100 229 147 229 256 C229 359 258 410 318 410 L318 410 Z " />
<glyph glyph-name="r" unicode="r" horiz-adv-x="450" d="M57 511 C61 477 62 462 62 445 L62 0 L251 0 L251 226 C251 314 303 357 410 357 C411 357 418 357 425 356 L425 516 C318 514 304 506 247 420 L243 421 C244 432 245 441 245 446 C245 454 245 460 243 470 L238 511 L57 511 Z " />
<glyph glyph-name="s" unicode="s" horiz-adv-x="563" d="M517 353 C515 467 435 525 281 525 C135 525 38 459 38 360 C38 288 83 245 185 220 C286 195 306 188 323 174 C336 164 342 153 342 141 C342 113 317 94 281 94 C237 94 218 117 218 169 L26 169 C27 119 31 96 46 73 C81 17 144 -7 270 -14 C425 -22 529 47 529 158 C529 254 498 276 282 332 C234 344 217 357 217 381 C217 407 243 427 277 427 C322 427 344 404 347 353 L517 353 Z " />
<glyph glyph-name="t" unicode="t" horiz-adv-x="453" d="M22 388 L94 388 C106 388 109 388 120 392 C116 381 116 378 116 366 L116 158 C116 36 161 -6 292 -6 C310 -6 346 -4 377 -2 L429 2 L429 121 L396 121 C314 121 305 128 305 196 L305 366 C305 378 305 381 301 392 C312 388 315 388 327 388 L426 388 L426 511 L327 511 C315 511 312 511 301 507 C305 518 305 521 305 533 L305 670 L116 588 L116 533 C116 521 116 518 120 507 C109 511 106 511 94 511 L22 511 L22 388 Z " />
<glyph glyph-name="u" unicode="u" horiz-adv-x="657" d="M413 86 C412 75 411 67 411 62 C411 54 411 48 413 38 L418 0 L601 0 C595 29 594 36 594 73 L594 511 L405 511 L405 202 C405 149 372 116 321 116 C271 116 246 144 246 202 L246 511 L57 511 L57 185 C57 49 113 -10 241 -10 C322 -10 370 17 409 87 L413 86 Z " />
<glyph glyph-name="v" unicode="v" horiz-adv-x="593" d="M-4 511 L190 0 L405 0 L597 511 L410 511 L359 341 C333 254 328 236 310 157 L306 157 C288 237 282 258 257 341 L206 511 L-4 511 Z " />
<glyph glyph-name="w" unicode="w" horiz-adv-x="928" d="M-1 511 L150 0 L367 0 L417 172 C442 259 447 280 465 361 L470 361 C484 280 488 262 510 172 L554 0 L771 0 L930 511 L756 511 L713 341 C691 255 686 235 671 154 L666 154 C652 235 648 255 626 341 L582 511 L370 511 L325 344 C302 259 298 239 283 159 L278 159 C264 239 260 260 239 344 L198 511 L-1 511 Z " />
<glyph glyph-name="x" unicode="x" horiz-adv-x="591" d="M-4 0 L201 0 L242 89 C262 134 266 144 281 186 L284 186 C299 145 302 136 323 89 L364 0 L594 0 L414 267 L576 511 L372 511 L340 438 C324 401 320 392 310 357 L306 357 C296 393 293 403 279 438 L249 511 L16 511 L174 267 L-4 0 Z " />
<glyph glyph-name="y" unicode="y" horiz-adv-x="596" d="M1 511 L211 -20 L139 -194 L318 -194 L594 511 L418 511 L364 331 C337 240 332 220 313 136 L308 136 C289 221 283 244 258 331 L206 511 L1 511 Z " />
<glyph glyph-name="z" unicode="z" horiz-adv-x="542" d="M32 0 L513 0 L513 125 L385 125 C321 125 308 125 250 120 L249 124 C304 176 317 188 374 249 L503 386 L503 511 L45 511 L45 386 L160 386 C218 386 230 386 282 391 L284 387 C229 336 217 324 158 262 L32 128 L32 0 Z " />
<glyph glyph-name="braceleft" unicode="&#x7b;" horiz-adv-x="368" d="M152 291 C228 316 255 350 255 422 L255 547 C255 611 269 629 319 629 L327 629 L327 736 L247 736 C154 736 113 687 113 574 L113 432 C113 379 96 355 51 344 L51 236 C96 225 113 201 113 148 L113 6 C113 -107 154 -156 247 -156 L327 -156 L327 -49 L317 -49 C269 -49 255 -31 255 33 L255 158 C255 230 228 264 152 289 L152 291 Z " />
<glyph glyph-name="bar" unicode="&#x7c;" horiz-adv-x="269" d="M83 736 L83 -221 L185 -221 L185 736 L83 736 Z " />
<glyph glyph-name="braceright" unicode="&#x7d;" horiz-adv-x="368" d="M216 289 C140 264 113 230 113 158 L113 33 C113 -31 99 -49 51 -49 L41 -49 L41 -156 L121 -156 C214 -156 255 -107 255 6 L255 148 C255 201 272 225 317 236 L317 344 C272 355 255 379 255 432 L255 574 C255 687 214 736 121 736 L41 736 L41 629 L49 629 C99 629 113 611 113 547 L113 422 C113 350 140 316 216 291 L216 289 Z " />
<glyph glyph-name="asciitilde" unicode="&#x7e;" horiz-adv-x="675" d="M115 286 C151 334 179 353 220 353 C242 353 280 341 322 321 L385 290 C407 280 440 272 465 272 C527 272 586 311 629 379 L559 451 C524 401 495 382 455 382 C433 382 399 391 373 403 L316 430 C263 455 235 463 208 463 C144 463 91 428 46 357 L115 286 Z " />
<glyph glyph-name="exclamdown" unicode="&#xa1;" horiz-adv-x="327" d="M37 -225 L257 -225 L224 292 L78 292 L37 -225 Z M63 358 L239 358 L239 511 L63 511 L63 358 Z " />
<glyph glyph-name="cent" unicode="&#xa2;" horiz-adv-x="609" d="M278 -110 L365 -110 L365 -10 C512 16 581 83 585 202 L391 202 C385 130 364 100 317 100 C265 100 242 144 242 245 C242 370 263 415 321 415 C362 415 383 388 391 325 L580 325 C573 440 504 503 365 521 L365 621 L278 621 L278 521 C113 496 35 410 35 253 C35 98 114 13 278 -10 L278 -110 Z " />
<glyph glyph-name="sterling" unicode="&#xa3;" horiz-adv-x="673" d="M34 0 L627 0 L627 120 L355 120 C343 120 340 120 329 116 C333 127 333 130 333 142 L333 326 C333 338 333 341 329 352 C340 348 343 348 355 348 L481 348 L481 471 L355 471 C344 471 340 470 329 467 C333 477 333 480 333 490 L333 509 C333 585 354 617 404 617 C453 617 474 592 481 527 L658 527 C656 609 643 650 606 686 C566 726 482 752 396 752 C234 752 146 684 146 558 L146 468 L39 468 L39 348 L119 348 C131 348 134 348 145 352 C141 341 141 338 141 326 L141 142 C141 130 141 127 145 116 C134 120 131 120 119 120 L34 120 L34 0 Z " />
<glyph glyph-name="currency" unicode="&#xa4;" horiz-adv-x="675" d="M451 562 C411 584 377 593 337 593 C297 593 263 584 223 562 L133 652 L53 572 L143 482 C121 443 112 409 112 368 C112 326 121 293 143 254 L53 164 L133 84 L223 174 C262 151 296 142 337 142 C378 142 412 151 451 173 L541 84 L621 164 L531 254 C554 292 563 326 563 368 C563 409 554 443 531 482 L621 572 L541 652 L451 562 Z M337 493 C407 493 463 437 463 367 C463 298 407 242 337 242 C267 242 212 298 212 369 C212 437 269 493 337 493 L337 493 Z " />
<glyph glyph-name="yen" unicode="&#xa5;" horiz-adv-x="698" d="M630 423 L560 423 C523 423 516 423 485 419 L483 421 C518 468 525 479 560 534 L691 736 L562 736 L406 487 C377 441 372 432 349 391 C326 433 320 444 293 487 L138 736 L7 736 L137 533 C169 484 179 469 214 421 L212 419 C180 423 173 423 137 423 L66 423 L66 367 L242 367 L266 330 C279 310 282 306 297 290 L295 288 C246 292 234 292 178 292 L66 292 L66 236 L269 236 C281 236 284 236 295 240 C291 229 291 226 291 214 L291 0 L406 0 L406 214 C406 226 406 229 402 240 C413 236 416 236 428 236 L630 236 L630 292 L518 292 C462 292 451 292 402 288 L400 290 C415 306 418 311 431 330 L455 367 L630 367 L630 423 Z " />
<glyph glyph-name="brokenbar" unicode="&#xa6;" horiz-adv-x="269" d="M83 736 L83 368 L185 368 L185 736 L83 736 Z M83 147 L83 -221 L185 -221 L185 147 L83 147 Z " />
<glyph glyph-name="section" unicode="&#xa7;" horiz-adv-x="570" d="M69 3 C156 -14 198 -19 255 -19 C436 -19 518 33 518 146 C518 194 499 218 438 248 L438 251 C502 279 532 320 532 379 C532 468 485 511 345 552 C286 569 258 587 259 607 C260 629 290 645 329 645 C377 645 404 641 476 623 L476 736 C387 751 340 756 270 756 C131 756 57 709 57 622 C57 570 86 532 150 501 L150 498 C63 463 35 430 35 362 C35 296 69 256 150 226 C178 215 222 199 230 197 C292 178 313 164 313 140 C313 114 276 96 223 96 C187 96 160 100 69 117 L69 3 Z M325 292 C243 325 216 346 216 381 C216 412 228 432 261 456 C344 418 361 403 361 366 C361 339 353 322 325 292 L325 292 Z " />
<glyph glyph-name="dieresis" unicode="&#xa8;" d="M-173 596 L-40 596 L-40 736 L-173 736 L-173 596 Z M39 596 L172 596 L172 736 L39 736 L39 596 Z " />
<glyph glyph-name="copyright" unicode="&#xa9;" horiz-adv-x="846" d="M496 300 C486 256 470 241 433 241 C378 241 353 280 353 365 C353 448 382 494 434 494 C468 494 489 475 491 439 L624 439 C617 532 550 584 436 584 C300 584 221 503 221 362 C221 230 300 152 436 152 C556 152 625 206 626 300 L496 300 Z M430 751 C210 751 37 582 37 368 C37 157 210 -15 424 -15 C637 -15 810 157 810 368 C810 576 637 751 430 751 L430 751 Z M429 690 C599 690 742 543 742 368 C742 190 600 46 424 46 C248 46 105 190 105 368 C105 548 248 690 429 690 L429 690 Z " />
<glyph glyph-name="ordfeminine" unicode="&#xaa;" horiz-adv-x="409" d="M249 354 C248 348 247 344 247 340 C247 338 247 336 248 333 L250 317 L368 317 L366 322 C362 338 361 345 361 359 L361 518 C361 596 316 633 219 633 C107 633 53 599 52 528 L172 528 L172 531 C176 557 186 568 209 568 C233 568 244 557 244 532 L244 521 C92 520 33 489 33 409 C33 350 79 308 146 308 C185 308 223 326 246 355 L249 354 Z M244 441 C244 407 223 383 193 383 C171 383 157 396 157 416 C157 448 179 458 249 459 C245 456 244 455 244 450 L244 441 Z " />
<glyph glyph-name="guillemotleft" unicode="&#xab;" horiz-adv-x="598" d="M35 262 L163 65 L327 65 L201 262 L327 461 L163 461 L35 262 Z M274 262 L404 65 L565 65 L443 262 L568 461 L404 461 L274 262 Z " />
<glyph glyph-name="logicalnot" unicode="&#xac;" horiz-adv-x="675" d="M65 542 L65 434 L472 434 C484 434 487 434 498 438 C494 427 494 424 494 412 L494 195 L610 195 L610 542 L65 542 Z " />
<glyph glyph-name="registered" unicode="&#xae;" horiz-adv-x="846" d="M430 751 C210 751 37 582 37 368 C37 157 210 -15 424 -15 C637 -15 810 157 810 368 C810 576 637 751 430 751 L430 751 Z M429 690 C599 690 742 543 742 368 C742 190 600 46 424 46 C248 46 105 190 105 368 C105 548 248 690 429 690 L429 690 Z M243 158 L372 158 L372 297 C372 308 371 310 367 319 C449 321 467 313 472 274 L479 217 C482 194 487 182 499 158 L630 158 C617 187 612 207 608 251 C600 327 585 348 525 365 L525 369 C590 389 615 417 615 471 C615 533 560 578 483 578 L243 578 L243 158 Z M373 473 C373 485 373 488 370 499 C380 495 383 495 395 495 L425 495 C465 495 486 479 486 449 C486 418 469 403 434 403 L395 403 C383 403 380 403 370 399 C373 410 373 413 373 425 L373 473 Z " />
<glyph glyph-name="macron" unicode="&#xaf;" d="M-152 619 L152 619 L152 719 L-152 719 L-152 619 Z " />
<glyph glyph-name="degree" unicode="&#xb0;" horiz-adv-x="389" d="M195 742 C108 742 37 672 37 586 C37 500 108 430 195 430 C282 430 353 500 353 586 C353 672 282 742 195 742 L195 742 Z M195 677 C246 677 287 636 287 586 C287 536 246 495 195 495 C144 495 103 536 103 586 C103 636 144 677 195 677 L195 677 Z " />
<glyph glyph-name="plusminus" unicode="&#xb1;" horiz-adv-x="675" d="M66 514 L66 406 L257 406 C268 406 272 406 283 410 C279 399 279 396 279 384 L279 224 L396 224 L396 384 C396 396 396 399 392 410 C403 406 406 406 418 406 L608 406 L608 514 L418 514 C406 514 403 514 392 510 C396 521 396 524 396 536 L396 695 L279 695 L279 536 C279 524 279 521 283 510 C272 514 269 514 257 514 L66 514 Z M66 154 L66 46 L608 46 L608 154 L66 154 Z " />
<glyph glyph-name="twosuperior" unicode="&#xb2;" horiz-adv-x="447" d="M45 295 L403 295 L403 387 L306 387 C258 387 244 386 197 380 L196 384 C358 491 403 539 403 607 C403 690 345 734 235 734 C119 734 57 688 53 601 L53 597 L180 597 C185 634 197 647 225 647 C251 647 270 631 270 609 C270 566 226 521 79 415 C64 404 53 396 46 391 L45 390 L45 295 Z " />
<glyph glyph-name="threesuperior" unicode="&#xb3;" horiz-adv-x="473" d="M45 416 C46 326 114 276 236 276 C352 276 423 325 423 406 C423 455 393 488 329 509 L329 512 C391 533 412 558 412 608 C412 683 347 726 235 726 C119 726 57 681 52 593 L184 593 C187 627 202 640 234 640 C264 640 285 623 285 597 C285 563 262 547 212 547 L169 547 L169 463 L214 463 C270 463 293 449 293 414 C293 383 271 365 234 365 C193 365 179 378 175 416 L45 416 Z " />
<glyph glyph-name="acute" unicode="&#xb4;" d="M-90 593 L43 593 L181 739 L-1 739 L-90 593 Z " />
<glyph glyph-name="mu" unicode="&#xb5;" horiz-adv-x="657" d="M566 531 L460 531 L460 248 C460 138 409 74 320 74 C269 74 229 96 211 134 C201 158 198 178 198 232 L198 531 L92 531 L92 -66 C92 -109 89 -147 82 -196 L78 -221 L184 -221 C188 -179 190 -156 190 -133 L190 -42 C190 3 189 14 184 56 L187 57 C191 53 194 49 196 47 C229 6 266 -14 310 -14 C386 -14 436 28 467 117 L473 116 C466 80 464 64 464 48 L464 0 L566 0 L566 531 Z " />
<glyph glyph-name="paragraph" unicode="&#xb6;" horiz-adv-x="642" d="M262 -221 L337 -221 L337 626 C337 638 337 641 333 652 C344 648 347 648 359 648 L409 648 C421 648 424 648 435 652 C431 641 431 638 431 626 L431 -221 L506 -221 L506 626 C506 638 506 641 502 652 C513 648 516 648 528 648 L615 648 L615 736 L289 736 C121 736 37 672 37 544 C37 438 120 358 230 358 C236 358 250 360 266 363 C262 351 262 348 262 335 L262 -221 Z " />
<glyph glyph-name="periodcentered" unicode="&#xb7;" horiz-adv-x="675" d="M338 462 C286 462 244 420 244 369 C244 317 286 275 338 275 C389 275 431 317 431 369 C431 420 389 462 338 462 L338 462 Z " />
<glyph glyph-name="periodcentered" unicode="&#xb7;" horiz-adv-x="675" d="M338 462 C286 462 244 420 244 369 C244 317 286 275 338 275 C389 275 431 317 431 369 C431 420 389 462 338 462 L338 462 Z " />
<glyph glyph-name="cedilla" unicode="&#xb8;" d="M-138 -207 C-83 -225 -56 -230 -22 -230 C64 -230 123 -189 123 -129 C123 -81 87 -46 37 -46 C23 -46 11 -49 -11 -58 L-13 -55 C3 -41 9 -35 20 -19 L43 13 L-26 13 L-77 -87 L-59 -105 C-35 -101 -30 -101 -21 -101 C5 -101 26 -115 26 -134 C26 -154 -2 -172 -34 -172 C-57 -172 -75 -168 -123 -153 L-138 -207 Z " />
<glyph glyph-name="onesuperior" unicode="&#xb9;" horiz-adv-x="343" d="M272 713 L177 713 C173 713 162 704 147 690 C131 675 86 654 45 642 L45 538 C91 551 127 570 154 596 L157 594 C152 527 151 512 151 436 L151 283 L272 283 L272 713 Z " />
<glyph glyph-name="ordmasculine" unicode="&#xba;" horiz-adv-x="440" d="M220 633 C103 633 33 572 33 471 C33 370 103 310 221 310 C338 310 407 370 407 471 C407 573 338 633 220 633 L220 633 Z M221 562 C258 562 278 530 278 472 C278 413 258 381 221 381 C184 381 164 412 164 471 C164 532 183 562 221 562 L221 562 Z " />
<glyph glyph-name="guillemotright" unicode="&#xbb;" horiz-adv-x="598" d="M35 461 L160 262 L38 65 L199 65 L329 262 L199 461 L35 461 Z M276 65 L440 65 L568 262 L440 461 L276 461 L402 262 L276 65 Z " />
<glyph glyph-name="onequarter" unicode="&#xbc;" horiz-adv-x="949" d="M273 713 L178 713 C174 713 163 704 148 690 C132 675 87 654 46 642 L46 538 C92 551 128 570 155 596 L158 594 C153 527 152 512 152 436 L152 283 L273 283 L273 713 Z M577 716 L221 0 L329 0 L685 716 L577 716 Z M518 81 L704 81 C716 81 719 81 731 85 C727 74 727 70 727 59 L727 0 L844 0 L844 59 C844 70 844 74 840 85 C851 81 854 81 866 81 L912 81 L912 167 L866 167 C854 167 851 167 840 163 C844 174 844 178 844 189 L844 430 L705 430 L518 186 L518 81 Z M731 325 C726 287 725 273 725 241 L725 189 C725 179 726 175 729 163 C718 167 715 167 703 167 L666 167 C637 167 629 167 602 163 L601 165 C660 228 681 254 727 326 L731 325 Z " />
<glyph glyph-name="onehalf" unicode="&#xbd;" horiz-adv-x="974" d="M272 713 L177 713 C173 713 162 704 147 690 C131 675 86 654 45 642 L45 538 C91 551 127 570 154 596 L157 594 C152 527 151 512 151 436 L151 283 L272 283 L272 713 Z M575 716 L219 0 L327 0 L683 716 L575 716 Z M572 0 L930 0 L930 92 L833 92 C786 92 771 91 724 84 L722 89 C734 97 743 102 749 106 C774 122 798 140 821 158 C873 198 895 220 915 251 C925 266 930 290 930 318 C930 396 869 440 761 440 C644 440 583 393 580 302 L706 302 C712 338 725 352 752 352 C779 352 797 336 797 313 C797 275 753 227 646 149 L606 120 L572 95 L572 0 Z " />
<glyph glyph-name="threequarters" unicode="&#xbe;" horiz-adv-x="1048" d="M45 416 C46 326 114 276 236 276 C352 276 423 325 423 406 C423 455 393 488 329 509 L329 512 C391 533 412 558 412 608 C412 683 347 726 235 726 C119 726 57 681 52 593 L184 593 C187 627 202 640 234 640 C264 640 285 623 285 597 C285 563 262 547 212 547 L169 547 L169 463 L214 463 C270 463 293 449 293 414 C293 383 271 365 234 365 C193 365 179 378 175 416 L45 416 Z M676 716 L320 0 L428 0 L784 716 L676 716 Z M616 81 L803 81 C815 81 818 81 829 85 C825 74 825 71 825 59 L825 0 L943 0 L943 59 C943 71 943 74 939 85 C950 81 953 81 965 81 L1010 81 L1010 167 L965 167 C953 167 950 167 939 163 C943 174 943 177 943 189 L943 430 L804 430 L616 186 L616 81 Z M829 325 C824 289 824 282 824 241 L824 189 C824 177 824 174 827 163 C817 167 814 167 802 167 L765 167 C735 167 728 167 701 163 L699 165 C763 232 782 257 825 326 L829 325 Z " />
<glyph glyph-name="questiondown" unicode="&#xbf;" horiz-adv-x="527" d="M485 -100 C417 -112 395 -115 366 -115 C283 -115 244 -86 244 -24 C244 15 258 35 339 116 C400 176 408 190 408 235 L408 314 L245 314 L245 266 C245 207 228 181 161 136 C67 73 36 29 36 -44 C36 -171 139 -247 312 -247 C362 -247 405 -243 485 -230 L485 -100 Z M416 511 L237 511 L237 358 L416 358 L416 511 Z " />
<glyph glyph-name="Agrave" unicode="&#xc0;" horiz-adv-x="818" d="M-4 0 L203 0 L254 148 L541 148 L592 0 L822 0 L533 736 L282 736 L-4 0 Z M379 284 C338 284 331 284 296 281 C310 313 312 320 325 359 L349 430 C372 500 378 519 395 588 L400 588 C416 519 421 501 443 430 L467 356 C478 320 481 312 494 281 C460 284 451 284 414 284 L379 284 Z M220 913 L361 767 L499 767 L404 913 L220 913 Z " />
<glyph glyph-name="Aacute" unicode="&#xc1;" horiz-adv-x="818" d="M-4 0 L203 0 L254 148 L541 148 L592 0 L822 0 L533 736 L282 736 L-4 0 Z M379 284 C338 284 331 284 296 281 C310 313 312 320 325 359 L349 430 C372 500 378 519 395 588 L400 588 C416 519 421 501 443 430 L467 356 C478 320 481 312 494 281 C460 284 451 284 414 284 L379 284 Z M316 767 L449 767 L587 913 L405 913 L316 767 Z " />
<glyph glyph-name="Acircumflex" unicode="&#xc2;" horiz-adv-x="818" d="M-4 0 L203 0 L254 148 L541 148 L592 0 L822 0 L533 736 L282 736 L-4 0 Z M379 284 C338 284 331 284 296 281 C310 313 312 320 325 359 L349 430 C372 500 378 519 395 588 L400 588 C416 519 421 501 443 430 L467 356 C478 320 481 312 494 281 C460 284 451 284 414 284 L379 284 Z M196 765 L334 765 L406 834 L475 765 L615 765 L475 913 L334 913 L196 765 Z " />
<glyph glyph-name="Atilde" unicode="&#xc3;" horiz-adv-x="818" d="M-4 0 L203 0 L254 148 L541 148 L592 0 L822 0 L533 736 L282 736 L-4 0 Z M379 284 C338 284 331 284 296 281 C310 313 312 320 325 359 L349 430 C372 500 378 519 395 588 L400 588 C416 519 421 501 443 430 L467 356 C478 320 481 312 494 281 C460 284 451 284 414 284 L379 284 Z M286 785 C304 807 311 812 324 812 C333 812 341 810 356 805 L396 790 C429 778 454 772 473 772 C532 772 578 824 583 898 L527 898 C511 878 504 874 487 874 C474 874 457 878 445 884 L414 898 C396 906 370 912 348 912 C283 912 239 864 230 785 L286 785 Z " />
<glyph glyph-name="Adieresis" unicode="&#xc4;" horiz-adv-x="818" d="M-4 0 L203 0 L254 148 L541 148 L592 0 L822 0 L533 736 L282 736 L-4 0 Z M379 284 C338 284 331 284 296 281 C310 313 312 320 325 359 L349 430 C372 500 378 519 395 588 L400 588 C416 519 421 501 443 430 L467 356 C478 320 481 312 494 281 C460 284 451 284 414 284 L379 284 Z M233 770 L366 770 L366 910 L233 910 L233 770 Z M445 770 L578 770 L578 910 L445 910 L445 770 Z " />
<glyph glyph-name="Aring" unicode="&#xc5;" horiz-adv-x="818" d="M-4 0 L203 0 L254 148 L541 148 L592 0 L822 0 L533 736 L282 736 L-4 0 Z M379 284 C338 284 331 284 296 281 C310 313 312 320 325 359 L349 430 C372 500 378 519 395 588 L400 588 C416 519 421 501 443 430 L467 356 C478 320 481 312 494 281 C460 284 451 284 414 284 L379 284 Z M406 944 C346 944 297 895 297 835 C297 775 346 726 406 726 C466 726 515 775 515 835 C515 895 466 944 406 944 L406 944 Z M406 872 C427 872 443 856 443 835 C443 815 426 798 406 798 C385 798 369 814 369 835 C369 856 385 872 406 872 L406 872 Z " />
<glyph glyph-name="AE" unicode="&#xc6;" horiz-adv-x="1041" d="M-5 0 L204 0 L276 143 L547 143 L555 0 L1008 0 L1008 146 L734 146 L722 268 C721 284 720 288 715 302 C730 299 734 299 750 299 L987 299 L987 442 L708 442 L697 565 C696 580 695 584 690 598 C705 595 709 595 725 595 L990 595 L990 736 L399 736 L-5 0 Z M444 284 C398 284 389 284 348 281 C373 323 377 332 403 382 L433 442 C475 523 483 541 515 616 L520 615 C519 593 519 575 519 564 C519 529 520 508 524 442 L533 308 C534 295 534 292 538 280 C526 284 523 284 510 284 L444 284 Z " />
<glyph glyph-name="Ccedilla" unicode="&#xc7;" horiz-adv-x="747" d="M297 -88 L314 -105 L330 -103 C338 -102 346 -101 352 -101 C378 -101 399 -115 399 -134 C399 -154 371 -172 339 -172 C316 -172 297 -168 250 -153 L235 -207 C291 -225 317 -230 351 -230 C438 -230 496 -189 496 -129 C496 -81 460 -46 410 -46 C396 -46 384 -49 362 -58 L360 -55 C376 -41 382 -35 393 -20 L399 -12 C502 -10 590 19 649 71 C696 111 716 160 718 240 L506 240 C495 157 467 130 394 130 C299 130 247 211 247 359 C247 514 299 601 392 601 C456 601 494 566 500 501 L713 501 C709 559 697 597 671 634 C621 705 517 748 396 748 C169 748 35 605 35 364 C35 144 137 18 336 -8 L297 -88 Z " />
<glyph glyph-name="Egrave" unicode="&#xc8;" horiz-adv-x="627" d="M69 0 L591 0 L591 141 L301 141 C289 141 286 141 275 137 C279 148 279 151 279 163 L279 275 C279 287 279 290 275 301 C286 297 289 297 301 297 L565 297 L565 440 L301 440 C289 440 286 440 275 436 C279 447 279 450 279 462 L279 571 C279 583 279 586 275 597 C286 593 289 593 301 593 L583 593 L583 736 L69 736 L69 0 Z M124 913 L265 767 L403 767 L308 913 L124 913 Z " />
<glyph glyph-name="Eacute" unicode="&#xc9;" horiz-adv-x="627" d="M69 0 L591 0 L591 141 L301 141 C289 141 286 141 275 137 C279 148 279 151 279 163 L279 275 C279 287 279 290 275 301 C286 297 289 297 301 297 L565 297 L565 440 L301 440 C289 440 286 440 275 436 C279 447 279 450 279 462 L279 571 C279 583 279 586 275 597 C286 593 289 593 301 593 L583 593 L583 736 L69 736 L69 0 Z M220 767 L353 767 L491 913 L309 913 L220 767 Z " />
<glyph glyph-name="Ecircumflex" unicode="&#xca;" horiz-adv-x="627" d="M69 0 L591 0 L591 141 L301 141 C289 141 286 141 275 137 C279 148 279 151 279 163 L279 275 C279 287 279 290 275 301 C286 297 289 297 301 297 L565 297 L565 440 L301 440 C289 440 286 440 275 436 C279 447 279 450 279 462 L279 571 C279 583 279 586 275 597 C286 593 289 593 301 593 L583 593 L583 736 L69 736 L69 0 Z M100 765 L238 765 L310 834 L379 765 L519 765 L379 913 L238 913 L100 765 Z " />
<glyph glyph-name="Edieresis" unicode="&#xcb;" horiz-adv-x="627" d="M69 0 L591 0 L591 141 L301 141 C289 141 286 141 275 137 C279 148 279 151 279 163 L279 275 C279 287 279 290 275 301 C286 297 289 297 301 297 L565 297 L565 440 L301 440 C289 440 286 440 275 436 C279 447 279 450 279 462 L279 571 C279 583 279 586 275 597 C286 593 289 593 301 593 L583 593 L583 736 L69 736 L69 0 Z M137 770 L270 770 L270 910 L137 910 L137 770 Z M349 770 L482 770 L482 910 L349 910 L349 770 Z " />
<glyph glyph-name="Igrave" unicode="&#xcc;" horiz-adv-x="348" d="M70 0 L277 0 L277 736 L70 736 L70 0 Z M-16 913 L125 767 L263 767 L168 913 L-16 913 Z " />
<glyph glyph-name="Iacute" unicode="&#xcd;" horiz-adv-x="348" d="M70 0 L277 0 L277 736 L70 736 L70 0 Z M80 767 L213 767 L351 913 L169 913 L80 767 Z " />
<glyph glyph-name="Icircumflex" unicode="&#xce;" horiz-adv-x="348" d="M70 0 L277 0 L277 736 L70 736 L70 0 Z M-40 765 L98 765 L170 834 L239 765 L379 765 L239 913 L98 913 L-40 765 Z " />
<glyph glyph-name="Idieresis" unicode="&#xcf;" horiz-adv-x="348" d="M70 0 L277 0 L277 736 L70 736 L70 0 Z M-3 770 L130 770 L130 910 L-3 910 L-3 770 Z M209 770 L342 770 L342 910 L209 910 L209 770 Z " />
<glyph glyph-name="Eth" unicode="&#xd0;" horiz-adv-x="798" d="M15 405 L15 339 L54 339 C66 339 69 339 80 343 C76 332 76 329 76 317 L76 0 L350 0 C627 0 761 126 761 385 C761 603 616 736 378 736 L76 736 L76 427 C76 415 76 412 80 401 C69 405 66 405 54 405 L15 405 Z M368 405 L308 405 C296 405 293 405 282 401 C286 412 286 415 286 427 L286 573 C286 585 286 588 282 599 C293 595 296 595 308 595 L335 595 C483 595 551 523 551 366 C551 211 485 143 332 143 L308 143 C296 143 293 143 282 139 C286 150 286 153 286 165 L286 317 C286 329 286 332 282 343 C293 339 296 339 308 339 L368 339 L368 405 Z " />
<glyph glyph-name="Ntilde" unicode="&#xd1;" horiz-adv-x="844" d="M70 0 L252 0 L252 283 C252 410 251 441 245 560 L250 561 C291 450 302 423 353 304 L484 0 L773 0 L773 736 L591 736 L591 469 C591 343 592 312 598 195 L593 194 C551 303 539 332 488 447 L359 736 L70 736 L70 0 Z M298 785 C316 807 323 812 336 812 C345 812 353 810 368 805 L408 790 C441 778 466 772 485 772 C544 772 590 824 595 898 L539 898 C523 878 516 874 499 874 C486 874 469 878 457 884 L426 898 C408 906 382 912 360 912 C295 912 251 864 242 785 L298 785 Z " />
<glyph glyph-name="Ograve" unicode="&#xd2;" horiz-adv-x="821" d="M412 749 C300 749 193 710 132 647 C71 584 37 485 37 367 C37 124 175 -13 420 -13 C641 -13 784 136 784 368 C784 604 642 749 412 749 L412 749 Z M410 599 C514 599 569 520 569 371 C569 215 516 137 410 137 C305 137 252 215 252 371 C252 521 306 599 410 599 L410 599 Z M221 913 L362 767 L500 767 L405 913 L221 913 Z " />
<glyph glyph-name="Oacute" unicode="&#xd3;" horiz-adv-x="821" d="M412 749 C300 749 193 710 132 647 C71 584 37 485 37 367 C37 124 175 -13 420 -13 C641 -13 784 136 784 368 C784 604 642 749 412 749 L412 749 Z M410 599 C514 599 569 520 569 371 C569 215 516 137 410 137 C305 137 252 215 252 371 C252 521 306 599 410 599 L410 599 Z M317 767 L450 767 L588 913 L406 913 L317 767 Z " />
<glyph glyph-name="Ocircumflex" unicode="&#xd4;" horiz-adv-x="821" d="M412 749 C300 749 193 710 132 647 C71 584 37 485 37 367 C37 124 175 -13 420 -13 C641 -13 784 136 784 368 C784 604 642 749 412 749 L412 749 Z M410 599 C514 599 569 520 569 371 C569 215 516 137 410 137 C305 137 252 215 252 371 C252 521 306 599 410 599 L410 599 Z M197 765 L335 765 L407 834 L476 765 L616 765 L476 913 L335 913 L197 765 Z " />
<glyph glyph-name="Otilde" unicode="&#xd5;" horiz-adv-x="821" d="M412 749 C300 749 193 710 132 647 C71 584 37 485 37 367 C37 124 175 -13 420 -13 C641 -13 784 136 784 368 C784 604 642 749 412 749 L412 749 Z M410 599 C514 599 569 520 569 371 C569 215 516 137 410 137 C305 137 252 215 252 371 C252 521 306 599 410 599 L410 599 Z M287 785 C305 807 312 812 325 812 C334 812 342 810 357 805 L397 790 C430 778 455 772 474 772 C533 772 579 824 584 898 L528 898 C512 878 505 874 488 874 C475 874 458 878 446 884 L415 898 C397 906 371 912 349 912 C284 912 240 864 231 785 L287 785 Z " />
<glyph glyph-name="Odieresis" unicode="&#xd6;" horiz-adv-x="821" d="M412 749 C300 749 193 710 132 647 C71 584 37 485 37 367 C37 124 175 -13 420 -13 C641 -13 784 136 784 368 C784 604 642 749 412 749 L412 749 Z M410 599 C514 599 569 520 569 371 C569 215 516 137 410 137 C305 137 252 215 252 371 C252 521 306 599 410 599 L410 599 Z M234 770 L367 770 L367 910 L234 910 L234 770 Z M446 770 L579 770 L579 910 L446 910 L446 770 Z " />
<glyph glyph-name="multiply" unicode="&#xd7;" horiz-adv-x="675" d="M159 627 L79 547 L242 384 C250 375 253 374 263 368 C253 363 250 361 242 353 L79 190 L159 109 L322 272 C331 281 332 283 338 293 C343 283 345 281 353 272 L516 109 L597 190 L418 368 L597 547 L516 627 L353 464 C345 456 343 453 338 444 C332 453 331 456 322 464 L159 627 Z " />
<glyph glyph-name="Oslash" unicode="&#xd8;" horiz-adv-x="821" d="M721 779 L649 823 L582 716 L579 717 C527 738 468 749 412 749 C174 749 37 610 37 367 C37 228 82 121 165 60 L101 -41 L171 -87 L239 20 C287 0 359 -13 417 -13 C642 -13 784 135 784 367 C784 504 741 605 654 674 L721 779 Z M464 375 C505 440 513 453 547 512 C561 471 569 419 569 366 C569 215 515 137 410 137 C379 137 350 145 328 160 L464 375 Z M350 351 C312 292 305 279 274 225 C261 256 252 314 252 371 C252 521 306 599 410 599 C444 599 467 592 497 573 C487 567 485 564 478 553 L350 351 Z " />
<glyph glyph-name="Ugrave" unicode="&#xd9;" horiz-adv-x="788" d="M724 736 L517 736 L517 279 C517 183 477 137 393 137 C309 137 269 183 269 279 L269 736 L62 736 L62 265 C62 206 77 152 106 105 C156 22 245 -18 380 -18 C599 -18 724 85 724 265 L724 736 Z M205 913 L346 767 L484 767 L389 913 L205 913 Z " />
<glyph glyph-name="Uacute" unicode="&#xda;" horiz-adv-x="788" d="M724 736 L517 736 L517 279 C517 183 477 137 393 137 C309 137 269 183 269 279 L269 736 L62 736 L62 265 C62 206 77 152 106 105 C156 22 245 -18 380 -18 C599 -18 724 85 724 265 L724 736 Z M301 767 L434 767 L572 913 L390 913 L301 767 Z " />
<glyph glyph-name="Ucircumflex" unicode="&#xdb;" horiz-adv-x="788" d="M724 736 L517 736 L517 279 C517 183 477 137 393 137 C309 137 269 183 269 279 L269 736 L62 736 L62 265 C62 206 77 152 106 105 C156 22 245 -18 380 -18 C599 -18 724 85 724 265 L724 736 Z M181 765 L319 765 L391 834 L460 765 L600 765 L460 913 L319 913 L181 765 Z " />
<glyph glyph-name="Udieresis" unicode="&#xdc;" horiz-adv-x="788" d="M724 736 L517 736 L517 279 C517 183 477 137 393 137 C309 137 269 183 269 279 L269 736 L62 736 L62 265 C62 206 77 152 106 105 C156 22 245 -18 380 -18 C599 -18 724 85 724 265 L724 736 Z M218 770 L351 770 L351 910 L218 910 L218 770 Z M430 770 L563 770 L563 910 L430 910 L430 770 Z " />
<glyph glyph-name="Yacute" unicode="&#xdd;" horiz-adv-x="772" d="M-4 736 L277 273 L277 0 L489 0 L489 266 L775 736 L556 736 L462 553 C429 487 422 474 396 414 L393 414 C368 474 363 487 331 555 L244 736 L-4 736 Z M293 767 L426 767 L564 913 L382 913 L293 767 Z " />
<glyph glyph-name="Thorn" unicode="&#xde;" horiz-adv-x="714" d="M115 736 L115 0 L231 0 L231 145 C231 152 230 158 227 171 C238 167 241 167 253 167 L394 167 C467 167 521 181 560 210 C614 250 644 312 644 385 C644 468 610 536 550 575 C511 600 465 609 379 609 L253 609 C242 609 238 609 227 605 C230 618 231 624 231 631 L231 736 L115 736 Z M380 517 C483 517 530 476 530 384 C530 297 479 255 373 255 L253 255 C241 255 238 254 226 251 C230 262 230 265 230 277 L230 495 C230 506 230 510 226 521 C238 518 241 517 253 517 L380 517 Z " />
<glyph glyph-name="germandbls" unicode="&#xdf;" horiz-adv-x="765" d="M60 0 L249 0 L249 488 C249 589 282 632 358 632 C411 632 450 602 450 561 C450 539 435 516 410 500 L374 476 C341 454 328 429 328 391 C328 331 357 298 443 260 C530 222 553 200 553 153 C553 114 535 90 506 90 C475 90 462 104 451 151 L282 151 C284 40 364 -25 498 -25 C655 -25 747 43 747 160 C747 218 721 261 666 291 L578 340 C543 359 521 384 521 405 C521 429 529 439 576 469 C622 498 639 524 639 566 C639 670 531 741 369 741 C158 741 60 664 60 497 L60 0 Z " />
<glyph glyph-name="agrave" unicode="&#xe0;" horiz-adv-x="611" d="M380 67 C379 59 379 54 379 49 C379 45 380 38 381 31 L386 0 L564 0 C557 28 555 41 555 65 L555 335 C555 466 484 524 322 524 C156 524 67 467 64 358 L248 358 C254 406 274 427 314 427 C356 427 376 405 376 358 L376 334 C127 332 33 282 33 150 C33 52 105 -15 210 -15 C279 -15 335 13 377 68 L380 67 Z M376 205 C376 143 339 100 287 100 C248 100 222 125 222 163 C222 220 262 240 381 241 C377 234 376 232 376 222 L376 205 Z M120 739 L261 593 L399 593 L304 739 L120 739 Z " />
<glyph glyph-name="aacute" unicode="&#xe1;" horiz-adv-x="611" d="M380 67 C379 59 379 54 379 49 C379 45 380 38 381 31 L386 0 L564 0 C557 28 555 41 555 65 L555 335 C555 466 484 524 322 524 C156 524 67 467 64 358 L248 358 C254 406 274 427 314 427 C356 427 376 405 376 358 L376 334 C127 332 33 282 33 150 C33 52 105 -15 210 -15 C279 -15 335 13 377 68 L380 67 Z M376 205 C376 143 339 100 287 100 C248 100 222 125 222 163 C222 220 262 240 381 241 C377 234 376 232 376 222 L376 205 Z M216 593 L349 593 L487 739 L305 739 L216 593 Z " />
<glyph glyph-name="acircumflex" unicode="&#xe2;" horiz-adv-x="611" d="M380 67 C379 59 379 54 379 49 C379 45 380 38 381 31 L386 0 L564 0 C557 28 555 41 555 65 L555 335 C555 466 484 524 322 524 C156 524 67 467 64 358 L248 358 C254 406 274 427 314 427 C356 427 376 405 376 358 L376 334 C127 332 33 282 33 150 C33 52 105 -15 210 -15 C279 -15 335 13 377 68 L380 67 Z M376 205 C376 143 339 100 287 100 C248 100 222 125 222 163 C222 220 262 240 381 241 C377 234 376 232 376 222 L376 205 Z M96 591 L234 591 L306 660 L375 591 L515 591 L375 739 L234 739 L96 591 Z " />
<glyph glyph-name="atilde" unicode="&#xe3;" horiz-adv-x="611" d="M380 67 C379 59 379 54 379 49 C379 45 380 38 381 31 L386 0 L564 0 C557 28 555 41 555 65 L555 335 C555 466 484 524 322 524 C156 524 67 467 64 358 L248 358 C254 406 274 427 314 427 C356 427 376 405 376 358 L376 334 C127 332 33 282 33 150 C33 52 105 -15 210 -15 C279 -15 335 13 377 68 L380 67 Z M376 205 C376 143 339 100 287 100 C248 100 222 125 222 163 C222 220 262 240 381 241 C377 234 376 232 376 222 L376 205 Z M186 611 C204 633 211 638 224 638 C233 638 241 636 256 631 L296 616 C329 604 354 598 373 598 C432 598 478 650 483 724 L427 724 C411 704 404 700 387 700 C374 700 357 704 345 710 L314 724 C296 732 270 738 248 738 C183 738 139 690 130 611 L186 611 Z " />
<glyph glyph-name="adieresis" unicode="&#xe4;" horiz-adv-x="611" d="M380 67 C379 59 379 54 379 49 C379 45 380 38 381 31 L386 0 L564 0 C557 28 555 41 555 65 L555 335 C555 466 484 524 322 524 C156 524 67 467 64 358 L248 358 C254 406 274 427 314 427 C356 427 376 405 376 358 L376 334 C127 332 33 282 33 150 C33 52 105 -15 210 -15 C279 -15 335 13 377 68 L380 67 Z M376 205 C376 143 339 100 287 100 C248 100 222 125 222 163 C222 220 262 240 381 241 C377 234 376 232 376 222 L376 205 Z M133 596 L266 596 L266 736 L133 736 L133 596 Z M345 596 L478 596 L478 736 L345 736 L345 596 Z " />
<glyph glyph-name="aring" unicode="&#xe5;" horiz-adv-x="611" d="M380 67 C379 59 379 54 379 49 C379 45 380 38 381 31 L386 0 L564 0 C557 28 555 41 555 65 L555 335 C555 466 484 524 322 524 C156 524 67 467 64 358 L248 358 C254 406 274 427 314 427 C356 427 376 405 376 358 L376 334 C127 332 33 282 33 150 C33 52 105 -15 210 -15 C279 -15 335 13 377 68 L380 67 Z M376 205 C376 143 339 100 287 100 C248 100 222 125 222 163 C222 220 262 240 381 241 C377 234 376 232 376 222 L376 205 Z M306 770 C246 770 197 721 197 661 C197 601 246 552 306 552 C366 552 415 601 415 661 C415 721 366 770 306 770 L306 770 Z M306 698 C327 698 343 682 343 661 C343 641 326 624 306 624 C285 624 269 640 269 661 C269 682 285 698 306 698 L306 698 Z " />
<glyph glyph-name="ae" unicode="&#xe6;" horiz-adv-x="941" d="M730 169 C714 106 697 91 647 91 C580 91 557 122 553 220 C566 215 569 215 585 215 L909 215 L909 243 C909 433 823 525 645 525 C575 525 533 512 474 473 C411 514 369 526 294 526 C150 526 66 463 63 353 L244 353 C250 409 267 428 309 428 C357 428 375 402 375 333 L375 324 C375 319 375 316 378 311 C367 315 364 315 352 315 L275 315 C190 315 144 309 115 295 C58 268 29 219 29 150 C29 44 98 -18 216 -18 C304 -18 372 8 438 67 C503 3 550 -16 641 -16 C812 -16 894 42 901 169 L730 169 Z M375 212 C375 136 347 100 287 100 C244 100 218 123 218 161 C218 207 256 230 331 230 L353 230 C364 230 368 230 378 234 C375 229 375 227 375 221 L375 212 Z M586 315 C571 315 568 314 556 310 C559 382 589 420 642 420 C699 420 725 388 730 310 C717 314 714 315 698 315 L586 315 Z " />
<glyph glyph-name="ccedilla" unicode="&#xe7;" horiz-adv-x="609" d="M228 -87 L245 -104 L261 -103 C269 -102 277 -101 283 -101 C309 -101 330 -115 330 -134 C330 -154 302 -172 270 -172 C247 -172 229 -168 181 -153 L166 -207 C222 -225 248 -230 282 -230 C369 -230 427 -189 427 -129 C427 -81 391 -46 341 -46 C327 -46 315 -49 293 -58 L291 -55 C308 -41 314 -34 324 -19 L330 -12 C485 -5 576 71 585 202 L390 202 C383 126 365 100 317 100 C263 100 240 144 240 244 C240 365 263 414 321 414 C363 414 384 387 390 325 L580 325 C572 451 478 523 321 523 C141 523 33 422 33 252 C33 103 114 12 267 -9 L228 -87 Z " />
<glyph glyph-name="egrave" unicode="&#xe8;" horiz-adv-x="606" d="M393 171 C380 114 356 93 304 93 C244 93 220 128 216 220 C230 215 233 215 249 215 L572 215 L572 256 C572 425 476 522 310 522 C136 522 35 423 35 253 C35 79 130 -14 307 -14 C461 -14 560 56 569 171 L393 171 Z M249 317 C233 317 230 316 216 312 C221 384 251 421 305 421 C368 421 391 393 396 312 C384 316 381 317 366 317 L249 317 Z M117 739 L258 593 L396 593 L301 739 L117 739 Z " />
<glyph glyph-name="eacute" unicode="&#xe9;" horiz-adv-x="606" d="M393 171 C380 114 356 93 304 93 C244 93 220 128 216 220 C230 215 233 215 249 215 L572 215 L572 256 C572 425 476 522 310 522 C136 522 35 423 35 253 C35 79 130 -14 307 -14 C461 -14 560 56 569 171 L393 171 Z M249 317 C233 317 230 316 216 312 C221 384 251 421 305 421 C368 421 391 393 396 312 C384 316 381 317 366 317 L249 317 Z M213 593 L346 593 L484 739 L302 739 L213 593 Z " />
<glyph glyph-name="ecircumflex" unicode="&#xea;" horiz-adv-x="606" d="M393 171 C380 114 356 93 304 93 C244 93 220 128 216 220 C230 215 233 215 249 215 L572 215 L572 256 C572 425 476 522 310 522 C136 522 35 423 35 253 C35 79 130 -14 307 -14 C461 -14 560 56 569 171 L393 171 Z M249 317 C233 317 230 316 216 312 C221 384 251 421 305 421 C368 421 391 393 396 312 C384 316 381 317 366 317 L249 317 Z M93 591 L231 591 L303 660 L372 591 L512 591 L372 739 L231 739 L93 591 Z " />
<glyph glyph-name="edieresis" unicode="&#xeb;" horiz-adv-x="606" d="M393 171 C380 114 356 93 304 93 C244 93 220 128 216 220 C230 215 233 215 249 215 L572 215 L572 256 C572 425 476 522 310 522 C136 522 35 423 35 253 C35 79 130 -14 307 -14 C461 -14 560 56 569 171 L393 171 Z M249 317 C233 317 230 316 216 312 C221 384 251 421 305 421 C368 421 391 393 396 312 C384 316 381 317 366 317 L249 317 Z M130 596 L263 596 L263 736 L130 736 L130 596 Z M342 596 L475 596 L475 736 L342 736 L342 596 Z " />
<glyph glyph-name="igrave" unicode="&#xec;" horiz-adv-x="315" d="M61 0 L253 0 L253 511 L61 511 L61 0 Z M-29 739 L112 593 L250 593 L155 739 L-29 739 Z " />
<glyph glyph-name="iacute" unicode="&#xed;" horiz-adv-x="315" d="M61 0 L253 0 L253 511 L61 511 L61 0 Z M67 593 L200 593 L338 739 L156 739 L67 593 Z " />
<glyph glyph-name="icircumflex" unicode="&#xee;" horiz-adv-x="315" d="M61 0 L253 0 L253 511 L61 511 L61 0 Z M-53 591 L85 591 L157 660 L226 591 L366 591 L226 739 L85 739 L-53 591 Z " />
<glyph glyph-name="idieresis" unicode="&#xef;" horiz-adv-x="315" d="M61 0 L253 0 L253 511 L61 511 L61 0 Z M-16 596 L117 596 L117 736 L-16 736 L-16 596 Z M196 596 L329 596 L329 736 L196 736 L196 596 Z " />
<glyph glyph-name="eth" unicode="&#xf0;" horiz-adv-x="662" d="M288 699 C245 714 191 727 147 733 L130 736 L100 676 C140 669 160 665 182 660 L214 651 C215 651 217 650 221 649 L221 646 C194 635 186 631 161 615 L108 583 L137 543 L274 627 C323 607 376 569 400 538 L428 501 C429 500 432 497 435 493 L431 489 C389 523 366 532 310 532 C180 532 89 419 89 258 C89 89 181 -14 333 -14 C485 -14 574 90 574 269 C574 467 493 609 341 678 L341 681 C366 691 372 694 398 710 L450 742 L421 782 L288 699 Z M332 461 C418 461 466 392 466 268 C466 135 419 63 333 63 C244 63 197 134 197 268 C197 391 246 461 332 461 L332 461 Z " />
<glyph glyph-name="ntilde" unicode="&#xf1;" horiz-adv-x="655" d="M58 511 C61 475 62 461 62 446 L62 0 L251 0 L251 312 C251 360 286 395 333 395 C383 395 410 366 410 312 L410 0 L599 0 L599 337 C599 450 525 522 409 522 C336 522 287 494 246 428 L242 429 C243 439 244 447 244 451 C244 459 244 464 243 473 L238 511 L58 511 Z M207 611 C225 633 232 638 245 638 C254 638 262 636 277 631 L317 616 C350 604 375 598 394 598 C453 598 499 650 504 724 L448 724 C432 704 425 700 408 700 C395 700 378 704 366 710 L335 724 C317 732 291 738 269 738 C204 738 160 690 151 611 L207 611 Z " />
<glyph glyph-name="ograve" unicode="&#xf2;" horiz-adv-x="662" d="M330 523 C144 523 33 423 33 255 C33 88 145 -12 332 -12 C519 -12 629 87 629 255 C629 425 519 523 330 523 L330 523 Z M333 415 C396 415 431 357 431 256 C431 153 396 96 332 96 C268 96 234 151 234 255 C234 361 268 415 333 415 L333 415 Z M145 739 L286 593 L424 593 L329 739 L145 739 Z " />
<glyph glyph-name="oacute" unicode="&#xf3;" horiz-adv-x="662" d="M330 523 C144 523 33 423 33 255 C33 88 145 -12 332 -12 C519 -12 629 87 629 255 C629 425 519 523 330 523 L330 523 Z M333 415 C396 415 431 357 431 256 C431 153 396 96 332 96 C268 96 234 151 234 255 C234 361 268 415 333 415 L333 415 Z M241 593 L374 593 L512 739 L330 739 L241 593 Z " />
<glyph glyph-name="ocircumflex" unicode="&#xf4;" horiz-adv-x="662" d="M330 523 C144 523 33 423 33 255 C33 88 145 -12 332 -12 C519 -12 629 87 629 255 C629 425 519 523 330 523 L330 523 Z M333 415 C396 415 431 357 431 256 C431 153 396 96 332 96 C268 96 234 151 234 255 C234 361 268 415 333 415 L333 415 Z M121 591 L259 591 L331 660 L400 591 L540 591 L400 739 L259 739 L121 591 Z " />
<glyph glyph-name="otilde" unicode="&#xf5;" horiz-adv-x="662" d="M330 523 C144 523 33 423 33 255 C33 88 145 -12 332 -12 C519 -12 629 87 629 255 C629 425 519 523 330 523 L330 523 Z M333 415 C396 415 431 357 431 256 C431 153 396 96 332 96 C268 96 234 151 234 255 C234 361 268 415 333 415 L333 415 Z M211 611 C229 633 236 638 249 638 C258 638 266 636 281 631 L321 616 C354 604 379 598 398 598 C457 598 503 650 508 724 L452 724 C436 704 429 700 412 700 C399 700 382 704 370 710 L339 724 C321 732 295 738 273 738 C208 738 164 690 155 611 L211 611 Z " />
<glyph glyph-name="odieresis" unicode="&#xf6;" horiz-adv-x="662" d="M330 523 C144 523 33 423 33 255 C33 88 145 -12 332 -12 C519 -12 629 87 629 255 C629 425 519 523 330 523 L330 523 Z M333 415 C396 415 431 357 431 256 C431 153 396 96 332 96 C268 96 234 151 234 255 C234 361 268 415 333 415 L333 415 Z M158 596 L291 596 L291 736 L158 736 L158 596 Z M370 596 L503 596 L503 736 L370 736 L370 596 Z " />
<glyph glyph-name="divide" unicode="&#xf7;" horiz-adv-x="675" d="M338 642 C297 642 265 610 265 570 C265 530 298 497 337 497 C377 497 410 530 410 570 C410 610 378 642 338 642 L338 642 Z M338 239 C298 239 265 206 265 167 C265 127 298 94 337 94 C377 94 410 127 410 167 C410 207 378 239 338 239 L338 239 Z M66 422 L66 314 L608 314 L608 422 L66 422 Z " />
<glyph glyph-name="oslash" unicode="&#xf8;" horiz-adv-x="662" d="M558 544 L498 587 L448 507 C411 518 373 523 330 523 C144 523 33 423 33 255 C33 156 73 79 147 32 L103 -37 L161 -75 L212 4 C249 -7 289 -12 332 -12 C519 -12 629 87 629 256 C629 354 587 435 512 478 C519 483 521 485 526 493 L558 544 Z M351 221 C386 276 393 286 420 336 C428 308 431 284 431 256 C431 153 396 96 332 96 C315 96 295 102 281 112 L351 221 Z M312 292 C278 238 271 227 244 178 C237 205 234 232 234 255 C234 361 267 415 333 415 C352 415 366 411 381 401 L312 292 Z " />
<glyph glyph-name="ugrave" unicode="&#xf9;" horiz-adv-x="657" d="M413 86 C412 75 411 67 411 62 C411 54 411 48 413 38 L418 0 L601 0 C595 29 594 36 594 73 L594 511 L405 511 L405 202 C405 149 372 116 321 116 C271 116 246 144 246 202 L246 511 L57 511 L57 185 C57 49 113 -10 241 -10 C322 -10 370 17 409 87 L413 86 Z M142 739 L283 593 L421 593 L326 739 L142 739 Z " />
<glyph glyph-name="uacute" unicode="&#xfa;" horiz-adv-x="657" d="M413 86 C412 75 411 67 411 62 C411 54 411 48 413 38 L418 0 L601 0 C595 29 594 36 594 73 L594 511 L405 511 L405 202 C405 149 372 116 321 116 C271 116 246 144 246 202 L246 511 L57 511 L57 185 C57 49 113 -10 241 -10 C322 -10 370 17 409 87 L413 86 Z M238 593 L371 593 L509 739 L327 739 L238 593 Z " />
<glyph glyph-name="ucircumflex" unicode="&#xfb;" horiz-adv-x="657" d="M413 86 C412 75 411 67 411 62 C411 54 411 48 413 38 L418 0 L601 0 C595 29 594 36 594 73 L594 511 L405 511 L405 202 C405 149 372 116 321 116 C271 116 246 144 246 202 L246 511 L57 511 L57 185 C57 49 113 -10 241 -10 C322 -10 370 17 409 87 L413 86 Z M118 591 L256 591 L328 660 L397 591 L537 591 L397 739 L256 739 L118 591 Z " />
<glyph glyph-name="udieresis" unicode="&#xfc;" horiz-adv-x="657" d="M413 86 C412 75 411 67 411 62 C411 54 411 48 413 38 L418 0 L601 0 C595 29 594 36 594 73 L594 511 L405 511 L405 202 C405 149 372 116 321 116 C271 116 246 144 246 202 L246 511 L57 511 L57 185 C57 49 113 -10 241 -10 C322 -10 370 17 409 87 L413 86 Z M155 596 L288 596 L288 736 L155 736 L155 596 Z M367 596 L500 596 L500 736 L367 736 L367 596 Z " />
<glyph glyph-name="yacute" unicode="&#xfd;" horiz-adv-x="596" d="M1 511 L211 -20 L139 -194 L318 -194 L594 511 L418 511 L364 331 C337 240 332 220 313 136 L308 136 C289 221 283 244 258 331 L206 511 L1 511 Z M208 593 L341 593 L479 739 L297 739 L208 593 Z " />
<glyph glyph-name="thorn" unicode="&#xfe;" horiz-adv-x="665" d="M216 736 L109 736 L109 -182 L216 -182 L216 -46 C216 20 215 41 207 108 L213 109 C246 25 297 -13 376 -13 C506 -13 585 92 585 265 C585 442 507 548 377 548 C298 548 238 502 212 423 L207 424 C215 497 216 524 216 591 L216 736 Z M346 465 C430 465 476 395 476 266 C476 137 430 68 345 68 C259 68 213 137 213 266 C213 396 259 465 346 465 L346 465 Z " />
<glyph glyph-name="ydieresis" unicode="&#xff;" horiz-adv-x="596" d="M1 511 L211 -20 L139 -194 L318 -194 L594 511 L418 511 L364 331 C337 240 332 220 313 136 L308 136 C289 221 283 244 258 331 L206 511 L1 511 Z M125 596 L258 596 L258 736 L125 736 L125 596 Z M337 596 L470 596 L470 736 L337 736 L337 596 Z " />
<glyph glyph-name="dotlessi" unicode="&#x131;" horiz-adv-x="315" d="M61 0 L253 0 L253 511 L61 511 L61 0 Z " />
<glyph glyph-name="Lslash" unicode="&#x141;" horiz-adv-x="578" d="M283 395 L363 421 L363 488 L323 475 C302 468 298 466 280 457 C283 492 283 499 283 539 L283 736 L76 736 L76 379 L10 352 L10 286 L43 299 C60 306 64 308 79 317 C76 276 76 267 76 221 L76 0 L559 0 L559 148 L305 148 C293 148 290 148 279 144 C283 155 283 158 283 170 L283 395 Z " />
<glyph glyph-name="lslash" unicode="&#x142;" horiz-adv-x="315" d="M251 387 L309 410 L309 476 L280 465 C265 459 261 457 248 449 C251 489 251 498 251 544 L251 736 L62 736 L62 377 L4 354 L4 288 L33 299 C48 305 52 307 65 315 C62 274 62 265 62 219 L62 0 L251 0 L251 387 Z " />
<glyph glyph-name="OE" unicode="&#x152;" horiz-adv-x="985" d="M949 0 L949 143 L693 143 C681 143 678 143 667 139 C671 150 671 153 671 165 L671 277 C671 289 671 292 667 303 C678 299 681 299 693 299 L919 299 L919 440 L693 440 C681 440 678 440 667 436 C671 447 671 450 671 462 L671 568 C671 580 671 583 667 594 C678 590 681 590 693 590 L936 590 L936 736 L525 736 C506 736 478 738 442 741 C410 744 377 746 359 746 C159 746 35 600 35 364 C35 233 67 141 137 74 C193 20 271 -10 353 -10 C374 -10 408 -8 442 -5 C478 -2 506 0 525 0 L949 0 Z M474 148 C445 140 431 138 406 138 C299 138 250 211 250 370 C250 526 301 598 411 598 C434 598 448 595 474 586 L474 148 Z " />
<glyph glyph-name="oe" unicode="&#x153;" horiz-adv-x="1000" d="M789 171 C774 113 751 92 703 92 C641 92 616 127 612 219 C625 215 628 214 644 214 L968 214 L968 255 C968 420 872 521 714 521 C642 521 593 506 531 467 C471 507 415 522 329 522 C142 522 33 424 33 254 C33 84 143 -15 331 -15 C405 -15 442 -5 526 38 C585 0 630 -13 705 -13 C862 -13 955 53 965 171 L789 171 Z M333 414 C397 414 429 360 429 254 C429 147 398 95 333 95 C269 95 236 149 236 254 C236 361 268 414 333 414 L333 414 Z M645 316 C629 316 626 316 612 311 C617 383 648 419 704 419 C730 419 757 406 772 388 C784 374 788 355 792 311 C778 316 775 316 759 316 L645 316 Z " />
<glyph glyph-name="Scaron" unicode="&#x160;" horiz-adv-x="713" d="M651 516 C648 579 641 609 620 644 C579 712 487 748 352 748 C156 748 43 665 43 521 C43 461 64 413 108 376 C149 340 200 323 345 295 C432 278 466 253 466 206 C466 157 423 123 361 123 C281 123 246 156 240 238 L30 238 C33 175 41 144 64 105 C110 29 213 -13 352 -13 C559 -13 677 74 677 227 C677 343 615 400 450 435 L378 450 C291 468 257 494 257 542 C257 585 293 614 347 614 C410 614 435 589 444 516 L651 516 Z M144 913 L285 765 L423 765 L563 913 L423 913 L354 844 L285 913 L144 913 Z " />
<glyph glyph-name="scaron" unicode="&#x161;" horiz-adv-x="563" d="M517 353 C515 467 435 525 281 525 C135 525 38 459 38 360 C38 288 83 245 185 220 C286 195 306 188 323 174 C336 164 342 153 342 141 C342 113 317 94 281 94 C237 94 218 117 218 169 L26 169 C27 119 31 96 46 73 C81 17 144 -7 270 -14 C425 -22 529 47 529 158 C529 254 498 276 282 332 C234 344 217 357 217 381 C217 407 243 427 277 427 C322 427 344 404 347 353 L517 353 Z M71 739 L212 591 L350 591 L490 739 L350 739 L281 670 L212 739 L71 739 Z " />
<glyph glyph-name="Ydieresis" unicode="&#x178;" horiz-adv-x="772" d="M-4 736 L277 273 L277 0 L489 0 L489 266 L775 736 L556 736 L462 553 C429 487 422 474 396 414 L393 414 C368 474 363 487 331 555 L244 736 L-4 736 Z M210 770 L343 770 L343 910 L210 910 L210 770 Z M422 770 L555 770 L555 910 L422 910 L422 770 Z " />
<glyph glyph-name="Zcaron" unicode="&#x17d;" horiz-adv-x="683" d="M30 0 L651 0 L651 143 L432 143 C352 143 337 143 267 138 L266 141 C314 193 326 206 375 264 L641 580 L641 736 L53 736 L53 595 L236 595 C316 595 331 595 402 600 L403 597 C354 546 344 534 293 474 L30 163 L30 0 Z M129 913 L270 765 L408 765 L548 913 L408 913 L339 844 L270 913 L129 913 Z " />
<glyph glyph-name="zcaron" unicode="&#x17e;" horiz-adv-x="542" d="M32 0 L513 0 L513 125 L385 125 C321 125 308 125 250 120 L249 124 C304 176 317 188 374 249 L503 386 L503 511 L45 511 L45 386 L160 386 C218 386 230 386 282 391 L284 387 C229 336 217 324 158 262 L32 128 L32 0 Z M61 739 L202 591 L340 591 L480 739 L340 739 L271 670 L202 739 L61 739 Z " />
<glyph glyph-name="florin" unicode="&#x192;" horiz-adv-x="455" d="M322 397 L395 397 L414 502 L376 502 C357 502 353 502 335 499 C340 509 341 512 343 523 L347 544 C360 610 374 628 413 628 C419 628 424 627 434 625 L456 738 C418 746 394 749 362 749 C243 749 195 702 172 565 L162 502 L88 502 L70 397 L106 397 C125 397 129 397 146 400 C139 379 138 375 133 350 L121 281 L101 164 C93 121 87 86 83 59 C63 -68 40 -102 -28 -102 C-36 -102 -45 -101 -61 -98 L-82 -211 C-43 -217 -24 -219 1 -219 C135 -219 208 -156 246 -9 C253 18 268 93 282 175 L322 397 Z " />
<glyph glyph-name="circumflex" unicode="&#x2c6;" d="M-210 591 L-72 591 L0 660 L69 591 L209 591 L69 739 L-72 739 L-210 591 Z " />
<glyph glyph-name="caron" unicode="&#x2c7;" d="M-210 739 L-69 591 L69 591 L209 739 L69 739 L0 670 L-69 739 L-210 739 Z " />
<glyph glyph-name="breve" unicode="&#x2d8;" d="M-170 736 C-161 634 -96 572 4 572 C98 572 161 633 170 736 L78 736 C68 686 44 665 -4 665 C-46 665 -69 687 -77 736 L-170 736 Z " />
<glyph glyph-name="dotaccent" unicode="&#x2d9;" d="M-95 595 L94 595 L94 736 L-95 736 L-95 595 Z " />
<glyph glyph-name="ring" unicode="&#x2da;" d="M0 770 C-60 770 -109 721 -109 661 C-109 601 -60 552 0 552 C60 552 109 601 109 661 C109 721 60 770 0 770 L0 770 Z M0 698 C21 698 37 682 37 661 C37 641 20 624 0 624 C-21 624 -37 640 -37 661 C-37 682 -21 698 0 698 L0 698 Z " />
<glyph glyph-name="ogonek" unicode="&#x2db;" d="M-10 3 C-76 -25 -102 -51 -102 -89 C-102 -146 -44 -189 34 -189 C53 -189 68 -188 103 -183 L103 -101 C90 -103 74 -104 67 -104 C33 -104 11 -85 11 -54 C11 -28 23 -17 70 3 L-10 3 Z " />
<glyph glyph-name="tilde" unicode="&#x2dc;" d="M-120 611 C-102 633 -95 638 -82 638 C-73 638 -65 636 -50 631 L-10 616 C23 604 48 598 67 598 C126 598 172 650 177 724 L121 724 C105 704 98 700 81 700 C68 700 51 704 39 710 L8 724 C-10 732 -36 738 -58 738 C-123 738 -167 690 -176 611 L-120 611 Z " />
<glyph glyph-name="hungarumlaut" unicode="&#x2dd;" d="M-109 739 L-198 593 L-80 593 L58 739 L-109 739 Z M111 739 L22 593 L140 593 L278 739 L111 739 Z " />
<glyph glyph-name="endash" unicode="&#x2013;" horiz-adv-x="647" d="M33 207 L611 207 L611 340 L33 340 L33 207 Z " />
<glyph glyph-name="emdash" unicode="&#x2014;" horiz-adv-x="921" d="M32 207 L884 207 L884 340 L32 340 L32 207 Z " />
<glyph glyph-name="quoteleft" unicode="&#x2018;" horiz-adv-x="325" d="M35 465 L227 465 L291 736 L153 736 L35 465 Z " />
<glyph glyph-name="quoteright" unicode="&#x2019;" horiz-adv-x="325" d="M35 463 L173 463 L291 736 L99 736 L35 463 Z " />
<glyph glyph-name="quotesinglbase" unicode="&#x201a;" horiz-adv-x="315" d="M22 -120 L160 -120 L280 156 L86 156 L22 -120 Z " />
<glyph glyph-name="quotedblleft" unicode="&#x201c;" horiz-adv-x="580" d="M33 465 L232 465 L299 736 L158 736 L33 465 Z M285 465 L484 465 L548 736 L407 736 L285 465 Z " />
<glyph glyph-name="quotedblright" unicode="&#x201d;" horiz-adv-x="580" d="M35 465 L176 465 L298 736 L99 736 L35 465 Z M549 736 L349 736 L283 465 L424 465 L549 736 Z " />
<glyph glyph-name="quotedblbase" unicode="&#x201e;" horiz-adv-x="580" d="M37 -118 L178 -118 L300 156 L101 156 L37 -118 Z M284 -120 L425 -120 L550 156 L350 156 L284 -120 Z " />
<glyph glyph-name="dagger" unicode="&#x2020;" horiz-adv-x="573" d="M35 447 L187 447 C198 447 202 448 212 451 C209 440 209 437 209 425 L209 0 L370 0 L370 428 C370 439 370 443 366 454 C377 450 380 450 392 450 L539 450 L539 578 L392 578 C380 578 377 577 366 574 C370 585 370 589 370 600 L370 736 L211 736 L211 597 C211 586 212 582 215 571 C204 575 201 575 189 575 L35 575 L35 447 Z " />
<glyph glyph-name="daggerdbl" unicode="&#x2021;" horiz-adv-x="573" d="M35 447 L187 447 C198 447 202 448 213 451 C210 440 209 436 209 425 L209 311 C209 299 209 296 213 286 C202 289 199 289 187 289 L35 289 L35 161 L187 161 C199 161 202 161 213 165 C209 154 209 151 209 139 L209 0 L370 0 L370 137 C370 149 370 152 366 162 C377 159 380 159 392 159 L539 159 L539 287 L392 287 C380 287 377 287 366 283 C370 294 370 297 370 308 L370 428 C370 439 370 443 366 454 C377 450 380 450 392 450 L539 450 L539 578 L392 578 C380 578 377 577 366 574 C370 585 370 589 370 600 L370 736 L209 736 L209 597 C209 586 210 582 213 571 C202 575 199 575 187 575 L35 575 L35 447 Z " />
<glyph glyph-name="bullet" unicode="&#x2022;" horiz-adv-x="675" d="M338 574 C225 574 132 482 132 369 C132 256 225 163 338 163 C450 163 543 256 543 369 C543 481 450 574 338 574 L338 574 Z " />
<glyph glyph-name="ellipsis" unicode="&#x2026;" horiz-adv-x="867" d="M76 0 L255 0 L255 153 L76 153 L76 0 Z M365 0 L544 0 L544 153 L365 153 L365 0 Z M654 0 L833 0 L833 153 L654 153 L654 0 Z " />
<glyph glyph-name="perthousand" unicode="&#x2030;" horiz-adv-x="2112" d="M199 739 C77 739 24 675 24 526 C24 396 84 324 192 324 C251 324 313 352 340 392 C362 423 370 464 370 537 C370 675 316 739 199 739 L199 739 Z M198 652 C231 652 240 627 240 533 C240 438 232 414 199 414 C166 414 157 439 157 533 C157 627 166 652 198 652 L198 652 Z M186 -18 L297 -18 L680 749 L568 749 L186 -18 Z M670 405 C548 405 495 341 495 192 C495 62 555 -10 663 -10 C722 -10 784 18 811 58 C833 89 841 130 841 203 C841 341 787 405 670 405 L670 405 Z M669 318 C702 318 711 293 711 199 C711 104 703 80 670 80 C637 80 628 105 628 199 C628 293 637 318 669 318 L669 318 Z M1061 739 C939 739 886 675 886 526 C886 396 946 324 1054 324 C1113 324 1175 352 1202 392 C1224 423 1232 464 1232 537 C1232 675 1178 739 1061 739 L1061 739 Z M1060 652 C1093 652 1102 627 1102 533 C1102 438 1094 414 1061 414 C1028 414 1019 439 1019 533 C1019 627 1028 652 1060 652 L1060 652 Z M1047 -18 L1159 -18 L1542 749 L1430 749 L1047 -18 Z M1532 405 C1410 405 1357 341 1357 192 C1357 62 1417 -10 1525 -10 C1584 -10 1646 18 1673 58 C1695 89 1703 130 1703 203 C1703 341 1649 405 1532 405 L1532 405 Z M1531 318 C1564 318 1573 293 1573 199 C1573 104 1565 80 1532 80 C1499 80 1490 105 1490 199 C1490 293 1499 318 1531 318 L1531 318 Z M1923 405 C1800 405 1747 341 1747 192 C1747 62 1807 -10 1916 -10 C1975 -10 2037 18 2064 58 C2086 89 2094 130 2094 203 C2094 341 2040 405 1923 405 L1923 405 Z M1923 318 C1955 318 1964 293 1964 199 C1964 104 1956 80 1923 80 C1889 80 1880 105 1880 199 C1880 293 1889 318 1923 318 L1923 318 Z " />
<glyph glyph-name="guilsinglleft" unicode="&#x2039;" horiz-adv-x="361" d="M35 266 L165 64 L327 64 L201 261 L321 463 L158 463 L35 266 Z " />
<glyph glyph-name="guilsinglright" unicode="&#x203a;" horiz-adv-x="361" d="M35 64 L196 64 L327 266 L204 463 L40 463 L160 261 L35 64 Z " />
<glyph glyph-name="fraction" unicode="&#x2044;" horiz-adv-x="169" d="M209 716 L-147 0 L-39 0 L317 716 L209 716 Z " />
<glyph glyph-name="trademark" unicode="&#x2122;" horiz-adv-x="1028" d="M17 647 L125 647 C137 647 140 647 151 651 C147 640 147 637 147 625 L147 317 L276 317 L276 625 C276 637 276 640 272 651 C283 647 286 647 298 647 L406 647 L406 736 L17 736 L17 647 Z M446 317 L560 317 L560 465 C560 541 559 566 553 643 L559 644 C575 566 581 542 602 465 L645 317 L762 317 L804 466 C826 539 832 565 848 644 L854 643 C848 566 847 541 847 466 L847 317 L965 317 L965 736 L772 736 L740 605 C724 537 721 521 711 456 L706 456 C696 521 692 541 676 605 L643 736 L446 736 L446 317 Z " />
<glyph glyph-name="minus" unicode="&#x2212;" horiz-adv-x="647" d="M33 207 L611 207 L611 340 L33 340 L33 207 Z " />
<glyph glyph-name="fi" unicode="&#xfb01;" horiz-adv-x="721" d="M658 511 L334 511 C322 511 319 511 308 507 C311 514 312 517 312 524 L312 538 C312 589 325 607 364 607 C379 607 409 605 435 603 L435 731 C394 738 367 741 334 741 C162 741 117 693 120 511 L21 511 L21 388 L98 388 C110 388 113 388 124 392 C120 381 120 378 120 366 L120 0 L309 0 L309 366 C309 377 309 381 305 392 C316 388 319 388 331 388 L446 388 C458 388 462 388 473 392 C469 381 469 378 469 366 L469 0 L658 0 L658 511 Z M469 595 L658 595 L658 736 L469 736 L469 595 Z " />
<glyph glyph-name="fl" unicode="&#xfb02;" horiz-adv-x="721" d="M309 0 L309 367 C309 378 309 382 305 393 C316 389 319 389 331 389 L430 389 L430 511 L334 511 C322 511 319 511 308 507 C311 514 312 517 312 524 L312 538 C312 589 326 607 364 607 C379 607 409 605 435 603 L435 731 C394 738 367 741 334 741 C162 741 117 693 120 511 L21 511 L21 389 L98 389 C110 389 113 389 124 393 C120 382 120 379 120 367 L120 0 L309 0 Z M469 736 L469 0 L658 0 L658 736 L469 736 Z " />
</font>
</svg>
