<?xml version="1.0" encoding="UTF-8"?>
<svg xmlns="http://www.w3.org/2000/svg" xmlns:xlink="http://www.w3.org/1999/xlink" version="1.2" >
<font id="Univers Roman">
<font-face  font-family="Univers SB Roman" units-per-em="1000" ascent="736.084" descent="-158.691" font-style="normal" font-weight="400" font-stretch="normal" cap-height="750" x-height="500" underline-position="-94.5" underline-thickness="55" />
<missing-glyph  horiz-adv-x="256" d="" />
<glyph glyph-name="NULL" d="" />
<glyph glyph-name="CR" unicode="&#xd;" horiz-adv-x="250" d="" />
<glyph glyph-name="space" unicode="&#x20;" horiz-adv-x="256" d="" />
<glyph glyph-name="exclam" unicode="&#x21;" horiz-adv-x="271" d="M99 736 L118 169 L192 169 L212 736 L99 736 Z M102 0 L209 0 L209 105 L102 105 L102 0 Z " />
<glyph glyph-name="quotedbl" unicode="&#x22;" horiz-adv-x="399" d="M141 442 L152 736 L74 736 L85 442 L141 442 Z M314 442 L325 736 L246 736 L258 442 L314 442 Z " />
<glyph glyph-name="numbersign" unicode="&#x23;" horiz-adv-x="611" d="M537 294 L471 294 C448 294 443 294 423 291 C429 310 430 315 434 338 L450 444 L559 444 L567 499 L503 499 C480 499 476 499 455 496 C461 515 463 520 466 543 L497 736 L435 736 L397 499 L301 499 C278 499 273 499 252 496 C259 515 260 520 263 543 L294 736 L233 736 L195 499 L85 499 L76 444 L142 444 C165 444 170 444 190 447 C184 428 183 423 180 400 L163 294 L53 294 L44 238 L110 238 C133 238 137 238 158 241 C152 222 151 217 147 194 L116 0 L177 0 L215 238 L312 238 C335 238 340 238 360 241 C354 222 353 216 349 195 L318 0 L380 0 L418 238 L528 238 L537 294 Z M365 294 L268 294 C245 294 240 294 220 291 C226 310 227 316 231 338 L248 444 L344 444 C367 444 372 444 393 447 C386 428 385 423 382 400 L365 294 Z " />
<glyph glyph-name="dollar" unicode="&#x24;" horiz-adv-x="629" d="M35 220 C39 66 112 -2 288 -14 L288 -129 L339 -129 L339 -13 C493 1 583 85 583 215 C583 327 525 377 339 423 L339 625 C339 644 339 648 334 664 C421 656 458 625 467 550 L569 550 C565 614 553 646 518 681 C474 726 426 744 339 751 L339 866 L288 866 L288 751 C143 735 49 650 49 534 C49 429 109 378 288 332 L288 120 C288 97 289 93 293 72 C180 87 143 122 138 220 L35 220 Z M339 251 C339 285 339 291 334 321 C448 293 479 267 479 200 C479 127 431 85 334 73 C338 93 339 98 339 121 L339 251 Z M288 501 C288 468 288 462 293 434 C195 457 155 488 155 542 C155 612 204 655 293 664 C288 646 288 642 288 621 L288 501 Z " />
<glyph glyph-name="percent" unicode="&#x25;" horiz-adv-x="790" d="M130 -20 L199 -20 L654 744 L585 744 L130 -20 Z M594 354 C494 354 430 284 430 174 C430 60 493 -10 595 -10 C691 -10 755 62 755 170 C755 284 694 354 594 354 L594 354 Z M593 292 C645 292 676 247 676 171 C676 93 646 50 592 50 C540 50 509 95 509 171 C509 247 541 292 593 292 L593 292 Z M197 732 C97 732 33 662 33 552 C33 438 96 368 198 368 C294 368 358 440 358 548 C358 662 297 732 197 732 L197 732 Z M196 670 C248 670 279 625 279 549 C279 471 249 428 195 428 C144 428 113 473 113 549 C113 625 144 670 196 670 L196 670 Z " />
<glyph glyph-name="ampersand" unicode="&#x26;" horiz-adv-x="762" d="M622 0 L755 0 L593 163 C648 234 669 309 672 447 L673 468 L584 468 C581 345 569 287 530 220 C511 246 507 251 480 277 L387 371 C367 391 363 395 343 410 C451 477 491 529 491 602 C491 694 423 750 310 750 C192 750 118 689 118 592 C118 532 146 479 205 423 L195 416 C97 354 48 278 48 191 C48 69 143 -14 281 -14 C379 -14 448 14 533 89 L622 0 Z M475 147 C421 91 362 63 298 63 C210 63 146 119 146 195 C146 256 180 307 259 363 L475 147 Z M291 466 C232 532 217 557 217 594 C217 640 257 675 309 675 C360 675 393 645 393 598 C393 553 370 523 291 466 L291 466 Z " />
<glyph glyph-name="quotesingle" unicode="&#x27;" horiz-adv-x="228" d="M142 442 L153 736 L75 736 L86 442 L142 442 Z " />
<glyph glyph-name="parenleft" unicode="&#x28;" horiz-adv-x="284" d="M165 735 L157 716 C79 528 48 401 48 275 C48 170 64 95 121 -72 C146 -143 155 -169 168 -197 L234 -197 L227 -170 C224 -155 217 -130 206 -93 C158 81 141 179 141 276 C141 320 146 373 155 431 C164 486 176 536 203 634 C212 666 220 693 225 712 L231 735 L165 735 Z " />
<glyph glyph-name="parenright" unicode="&#x29;" horiz-adv-x="284" d="M119 736 L52 736 L58 712 C64 692 71 665 79 634 C105 541 117 491 124 444 C135 381 141 320 141 272 C141 175 125 78 79 -94 C66 -144 62 -161 53 -197 L120 -197 C135 -161 153 -110 177 -35 C222 113 234 175 234 271 C234 399 204 523 126 717 L119 736 Z " />
<glyph glyph-name="asterisk" unicode="&#x2a;" horiz-adv-x="506" d="M73 498 L104 444 L166 478 C193 494 203 499 231 517 C228 484 228 471 228 442 L228 371 L289 371 L289 442 C289 471 289 484 286 517 C314 499 324 494 351 479 L413 444 L441 499 L374 536 C340 555 334 558 302 571 L302 574 C334 588 341 591 374 610 L441 647 L413 701 L351 667 C325 653 315 647 286 629 C289 662 289 675 289 704 L289 775 L228 775 L228 704 C228 675 228 662 231 629 C202 647 192 653 166 667 L104 701 L75 647 L142 610 C178 591 184 588 216 574 L216 572 C183 558 175 554 142 536 L73 498 Z " />
<glyph glyph-name="plus" unicode="&#x2b;" horiz-adv-x="550" d="M45 405 L45 331 L213 331 C225 331 228 331 239 335 C235 324 235 321 235 309 L235 138 L315 138 L315 309 C315 321 315 324 311 335 C322 331 325 331 337 331 L505 331 L505 405 L337 405 C325 405 322 405 311 401 C315 412 315 415 315 427 L315 598 L235 598 L235 427 C235 415 235 412 239 401 C228 405 225 405 213 405 L45 405 Z " />
<glyph glyph-name="comma" unicode="&#x2c;" horiz-adv-x="258" d="M29 -125 L101 -125 L208 123 L96 123 L29 -125 Z " />
<glyph glyph-name="hyphen" unicode="&#x2d;" horiz-adv-x="371" d="M53 233 L319 233 L319 317 L53 317 L53 233 Z " />
<glyph glyph-name="period" unicode="&#x2e;" horiz-adv-x="207" d="M49 0 L159 0 L159 115 L49 115 L49 0 Z " />
<glyph glyph-name="slash" unicode="&#x2f;" horiz-adv-x="458" d="M46 0 L130 0 L412 736 L327 736 L46 0 Z " />
<glyph glyph-name="zero" unicode="0" horiz-adv-x="550" d="M274 723 C205 723 144 691 102 633 C63 577 41 480 41 357 C41 110 120 -12 280 -12 C428 -12 508 116 508 354 C508 473 491 561 457 617 C415 685 350 723 274 723 L274 723 Z M274 641 C367 641 410 552 410 355 C410 160 367 69 273 69 C182 69 139 161 139 359 C139 549 183 641 274 641 L274 641 Z " />
<glyph glyph-name="one" unicode="1" horiz-adv-x="550" d="M118 504 C188 532 233 559 282 604 L285 602 C280 532 279 516 279 436 L279 0 L376 0 L376 711 L281 711 L257 692 C197 644 179 633 118 601 L118 504 Z " />
<glyph glyph-name="two" unicode="2" horiz-adv-x="550" d="M54 0 L496 0 L496 82 L333 82 C250 82 234 81 162 77 L160 80 C214 128 225 139 283 197 L396 312 C464 381 494 444 494 520 C494 642 409 722 280 722 C146 722 73 649 65 511 L170 511 C172 595 210 637 282 637 C349 637 393 590 393 518 C393 463 366 413 299 345 L54 95 L54 0 Z " />
<glyph glyph-name="three" unicode="3" horiz-adv-x="550" d="M35 189 C39 59 121 -13 264 -13 C410 -13 507 70 507 196 C507 286 457 343 359 366 L359 371 C447 396 492 450 492 531 C492 646 403 723 269 723 C134 723 50 650 45 527 L148 527 C153 595 202 637 275 637 C346 637 392 594 392 527 C392 448 337 407 230 407 L209 407 L209 325 L230 325 C285 325 326 318 347 304 C383 281 405 241 405 197 C405 124 350 73 269 73 C187 73 142 113 140 189 L35 189 Z " />
<glyph glyph-name="four" unicode="4" horiz-adv-x="550" d="M20 153 L312 153 C324 153 327 153 338 157 C334 146 334 142 334 131 L334 0 L429 0 L429 131 C429 143 429 146 425 157 C436 153 439 153 451 153 L526 153 L526 235 L451 235 C439 235 436 235 425 231 C429 242 429 245 429 257 L429 711 L314 711 L20 275 L20 153 Z M214 237 C151 237 142 237 89 234 L88 236 C125 283 132 293 170 350 L214 415 C275 505 286 524 336 607 L340 606 C335 524 334 501 334 415 L334 259 C334 248 334 245 338 234 C327 237 324 237 312 237 L214 237 Z " />
<glyph glyph-name="five" unicode="5" horiz-adv-x="550" d="M54 174 C56 62 140 -11 268 -11 C413 -11 503 85 503 238 C503 377 422 467 297 467 C233 467 195 446 153 387 L149 389 C157 442 159 458 161 514 L167 629 L468 629 L468 710 L82 711 L65 292 L158 292 C168 350 215 385 280 385 C359 385 408 325 408 231 C408 135 357 77 273 77 C206 77 165 111 158 174 L54 174 Z " />
<glyph glyph-name="six" unicode="6" horiz-adv-x="550" d="M137 339 C139 361 139 365 140 386 C143 558 195 643 298 643 C367 643 403 610 409 540 L514 540 C507 660 435 723 307 723 C208 723 149 695 102 627 C58 562 41 484 41 342 C41 220 54 151 86 97 C128 26 198 -12 287 -12 C425 -12 518 81 518 218 C518 349 432 439 305 439 C227 439 175 406 142 338 L137 339 Z M286 362 C365 362 418 301 418 211 C418 124 367 66 290 66 C210 66 153 129 153 217 C153 303 207 362 286 362 L286 362 Z " />
<glyph glyph-name="seven" unicode="7" horiz-adv-x="550" d="M38 621 L303 621 C352 621 362 621 407 624 C386 584 380 572 362 530 L125 0 L241 0 L498 616 L498 711 L38 711 L38 621 Z " />
<glyph glyph-name="eight" unicode="8" horiz-adv-x="550" d="M364 372 C456 396 503 450 503 531 C503 646 411 723 274 723 C135 723 43 646 43 530 C43 449 92 395 185 372 C87 347 33 283 33 190 C33 68 127 -12 271 -12 C421 -12 516 67 516 191 C516 284 466 344 364 372 L364 372 Z M273 329 C357 329 414 274 414 194 C414 120 356 66 276 66 C194 66 135 119 135 194 C135 273 193 329 273 329 L273 329 Z M273 645 C350 645 403 599 403 531 C403 463 351 417 275 417 C197 417 143 464 143 531 C143 598 197 645 273 645 L273 645 Z " />
<glyph glyph-name="nine" unicode="9" horiz-adv-x="550" d="M415 373 C413 354 413 351 412 325 C408 152 357 70 254 70 C185 70 149 102 143 172 L38 172 C48 50 117 -11 245 -11 C428 -11 511 105 511 358 C511 493 500 558 467 614 C424 685 354 723 265 723 C128 723 34 631 34 497 C34 361 118 273 247 273 C325 273 377 305 411 374 L415 373 Z M261 645 C342 645 399 582 399 495 C399 409 345 350 266 350 C186 350 133 410 133 500 C133 588 184 645 261 645 L261 645 Z " />
<glyph glyph-name="colon" unicode="&#x3a;" horiz-adv-x="240" d="M80 0 L190 0 L190 115 L80 115 L80 0 Z M80 399 L190 399 L190 514 L80 514 L80 399 Z " />
<glyph glyph-name="semicolon" unicode="&#x3b;" horiz-adv-x="251" d="M34 -125 L106 -125 L214 123 L101 123 L34 -125 Z M86 399 L196 399 L196 514 L86 514 L86 399 Z " />
<glyph glyph-name="less" unicode="&#x3c;" horiz-adv-x="550" d="M462 626 L87 404 L87 332 L462 111 L462 193 L265 308 C215 336 203 343 155 367 L155 369 C203 393 215 400 265 429 L462 543 L462 626 Z " />
<glyph glyph-name="equal" unicode="&#x3d;" horiz-adv-x="550" d="M52 493 L52 419 L499 419 L499 493 L52 493 Z M52 317 L52 243 L499 243 L499 317 L52 317 Z " />
<glyph glyph-name="greater" unicode="&#x3e;" horiz-adv-x="550" d="M87 626 L87 543 L285 429 C338 398 347 393 395 369 L395 367 C347 343 338 339 285 308 L87 193 L87 111 L462 332 L462 404 L87 626 Z " />
<glyph glyph-name="question" unicode="&#x3f;" horiz-adv-x="458" d="M126 0 L233 0 L233 105 L126 105 L126 0 Z M138 166 L222 166 L222 266 C222 285 232 303 256 327 L325 397 C383 455 411 510 411 569 C411 681 322 747 172 747 C124 747 89 741 38 726 L38 636 C104 653 142 659 183 659 C253 659 303 615 303 554 C303 505 276 464 183 371 C146 335 138 317 138 276 L138 166 Z " />
<glyph glyph-name="at" unicode="&#x40;" horiz-adv-x="844" d="M570 547 L562 507 C560 496 559 484 559 473 C559 467 559 461 560 451 L555 451 C532 526 493 561 429 561 C318 561 233 461 233 332 C233 229 299 153 389 153 C446 153 493 183 528 243 L532 241 C533 189 562 156 609 156 C706 156 795 282 795 419 C795 612 644 750 434 750 C219 750 48 581 48 369 C48 145 215 -14 452 -14 C543 -14 624 4 705 43 L689 89 C606 50 538 34 451 34 C245 34 102 171 102 368 C102 555 249 702 436 702 C616 702 744 585 744 421 C744 305 682 204 611 204 C583 204 564 225 564 257 C564 267 567 288 570 307 L617 547 L570 547 Z M433 509 C494 509 532 465 532 393 C532 286 474 205 399 205 C333 205 290 258 290 337 C290 431 355 509 433 509 L433 509 Z " />
<glyph glyph-name="A" unicode="A" horiz-adv-x="719" d="M524 189 L602 0 L709 0 L414 736 L306 736 L5 0 L111 0 L188 189 L524 189 Z M307 276 C262 276 254 276 216 273 C232 308 235 315 250 357 L288 458 C320 544 328 565 353 647 L357 647 C382 565 389 547 422 458 L460 357 C476 316 479 308 495 273 C456 276 448 276 404 276 L307 276 Z " />
<glyph glyph-name="B" unicode="B" horiz-adv-x="644" d="M83 0 L321 0 C401 0 444 6 484 22 C555 49 594 112 594 198 C594 304 545 365 443 384 C529 405 576 463 576 551 C576 617 547 671 494 703 C453 728 412 736 324 736 L83 736 L83 0 Z M334 339 C445 339 488 303 488 211 C488 123 444 87 339 87 L205 87 C193 87 190 87 179 83 C183 94 183 97 183 109 L183 317 C183 329 183 332 179 343 C190 339 193 339 205 339 L334 339 Z M329 649 C428 649 471 615 471 536 C471 461 428 426 334 426 L205 426 C193 426 190 426 179 422 C183 433 183 436 183 448 L183 627 C183 639 183 642 179 653 C190 649 193 649 205 649 L329 649 Z " />
<glyph glyph-name="C" unicode="C" horiz-adv-x="662" d="M515 194 C496 111 446 73 356 73 C227 73 156 175 156 360 C156 560 225 664 357 664 C443 664 493 625 510 545 L620 545 C607 675 512 748 357 748 C162 748 49 609 49 367 C49 121 157 -13 354 -13 C509 -13 612 65 628 194 L515 194 Z " />
<glyph glyph-name="D" unicode="D" horiz-adv-x="714" d="M83 0 L301 0 C427 0 507 26 567 84 C632 149 663 240 663 370 C663 495 631 583 563 651 C500 713 433 736 313 736 L83 736 L83 0 Z M315 649 C474 649 556 552 556 364 C556 260 535 194 485 143 C447 103 394 87 299 87 L205 87 C193 87 190 87 179 83 C183 94 183 97 183 109 L183 627 C183 639 183 642 179 653 C190 649 193 649 205 649 L315 649 Z " />
<glyph glyph-name="E" unicode="E" horiz-adv-x="580" d="M84 0 L534 0 L534 91 L206 91 C194 91 191 91 180 87 C184 98 184 101 184 113 L184 312 C184 324 184 327 180 338 C191 334 194 334 206 334 L516 334 L516 422 L206 422 C194 422 191 422 180 418 C184 429 184 432 184 444 L184 623 C184 635 184 638 180 649 C191 645 194 645 206 645 L531 645 L531 736 L84 736 L84 0 Z " />
<glyph glyph-name="F" unicode="F" horiz-adv-x="540" d="M84 0 L184 0 L184 312 C184 324 184 327 180 338 C191 334 194 334 206 334 L491 334 L491 422 L206 422 C194 422 191 422 180 418 C184 429 184 432 184 444 L184 623 C184 635 184 638 180 649 C191 645 194 645 206 645 L509 645 L509 736 L84 736 L84 0 Z " />
<glyph glyph-name="G" unicode="G" horiz-adv-x="739" d="M660 394 L402 394 L402 310 L543 310 C555 310 558 310 569 314 C565 303 565 300 565 288 L565 92 C530 76 484 68 432 68 C243 68 156 162 156 367 C156 559 240 666 391 666 C482 666 538 626 553 552 L660 552 C648 678 556 747 400 747 C182 747 49 600 49 361 C49 227 89 129 173 61 C236 10 310 -12 422 -12 C518 -12 589 1 660 32 L660 394 Z " />
<glyph glyph-name="H" unicode="H" horiz-adv-x="706" d="M84 0 L184 0 L184 311 C184 323 184 326 180 337 C191 333 194 333 206 333 L499 333 C511 333 514 333 525 337 C521 326 521 323 521 311 L521 0 L621 0 L621 736 L521 736 L521 444 C521 432 521 429 525 418 C514 422 511 422 499 422 L206 422 C194 422 191 422 180 418 C184 429 184 432 184 444 L184 736 L84 736 L84 0 Z " />
<glyph glyph-name="I" unicode="I" horiz-adv-x="271" d="M84 0 L184 0 L184 736 L84 736 L84 0 Z " />
<glyph glyph-name="J" unicode="J" horiz-adv-x="529" d="M15 202 C19 62 89 -8 226 -8 C362 -8 447 74 447 205 L447 736 L347 736 L347 230 C347 121 315 79 233 79 C157 79 125 114 119 202 L15 202 Z " />
<glyph glyph-name="K" unicode="K" horiz-adv-x="657" d="M85 0 L185 0 L185 388 L523 0 L658 0 L303 404 L625 736 L495 736 L185 414 L185 736 L85 736 L85 0 Z " />
<glyph glyph-name="L" unicode="L" horiz-adv-x="540" d="M84 0 L516 0 L516 91 L206 91 C194 91 191 91 180 87 C184 98 184 101 184 113 L184 736 L84 736 L84 0 Z " />
<glyph glyph-name="M" unicode="M" horiz-adv-x="923" d="M185 0 L185 383 C185 520 184 552 178 679 L184 680 C219 558 229 527 274 398 L412 0 L513 0 L650 397 C695 527 705 558 740 680 L746 679 C740 552 739 519 739 382 L739 0 L839 0 L839 736 L675 736 L532 329 C500 237 493 216 468 129 L464 129 C439 215 432 237 400 329 L256 736 L85 736 L85 0 L185 0 Z " />
<glyph glyph-name="N" unicode="N" horiz-adv-x="744" d="M84 0 L176 0 L176 388 C176 504 175 529 169 633 L174 634 C222 541 235 517 293 420 L539 0 L659 0 L659 736 L567 736 L567 379 C567 262 568 238 574 134 L569 132 C521 225 509 247 450 347 L222 736 L84 736 L84 0 Z " />
<glyph glyph-name="O" unicode="O" horiz-adv-x="747" d="M374 748 C162 748 45 610 45 362 C45 120 163 -13 376 -13 C585 -13 701 123 701 369 C701 615 586 748 374 748 L374 748 Z M375 667 C518 667 593 564 593 369 C593 165 521 68 371 68 C228 68 152 170 152 365 C152 565 227 667 375 667 L375 667 Z " />
<glyph glyph-name="P" unicode="P" horiz-adv-x="611" d="M83 0 L183 0 L183 300 C183 312 183 315 179 326 C190 322 193 322 205 322 L341 322 C487 322 570 397 570 529 C570 607 544 660 487 699 C446 727 404 736 317 736 L83 736 L83 0 Z M316 649 C424 649 470 613 470 529 C470 446 422 409 316 409 L205 409 C193 409 190 409 179 405 C183 416 183 419 183 431 L183 627 C183 639 183 642 179 653 C190 649 193 649 205 649 L316 649 Z " />
<glyph glyph-name="Q" unicode="Q" horiz-adv-x="754" d="M559 63 C663 135 702 219 702 367 C702 616 589 748 376 748 C165 748 48 611 48 364 C48 127 162 -10 360 -10 C395 -10 429 -9 470 -6 L541 -1 C551 0 559 0 565 0 L749 0 L749 79 L713 79 C664 79 624 74 561 58 L559 63 Z M374 666 C434 666 492 644 528 608 C570 565 594 478 594 373 C594 170 522 69 376 69 C231 69 155 171 155 367 C155 563 230 666 374 666 L374 666 Z " />
<glyph glyph-name="R" unicode="R" horiz-adv-x="655" d="M84 0 L184 0 L184 310 C184 322 184 325 180 336 C191 332 194 332 206 332 L332 332 C426 332 451 307 465 198 C479 94 482 74 497 0 L604 0 L600 15 C583 79 576 116 564 202 C549 317 529 350 458 375 C542 400 586 459 586 549 C586 616 558 671 507 702 C467 727 418 736 330 736 L84 736 L84 0 Z M337 649 C439 649 481 615 481 532 C481 454 437 418 343 418 L206 418 C194 418 191 418 180 414 C184 425 184 428 184 440 L184 627 C184 639 184 642 180 653 C191 649 194 649 206 649 L337 649 Z " />
<glyph glyph-name="S" unicode="S" horiz-adv-x="632" d="M38 220 C44 54 123 -14 312 -14 C477 -14 584 76 584 215 C584 334 520 384 308 432 C200 456 158 487 158 542 C158 617 220 665 315 665 C414 665 461 631 470 550 L572 550 C564 680 476 751 324 751 C167 751 52 659 52 534 C52 429 109 379 282 335 C453 291 480 272 480 199 C480 122 416 72 317 72 C200 72 147 117 142 220 L38 220 Z " />
<glyph glyph-name="T" unicode="T" horiz-adv-x="619" d="M20 645 L236 645 C248 645 251 645 262 649 C258 638 258 635 258 623 L258 0 L358 0 L358 623 C358 635 358 638 354 649 C365 645 368 645 380 645 L595 645 L595 736 L20 736 L20 645 Z " />
<glyph glyph-name="U" unicode="U" horiz-adv-x="739" d="M663 736 L563 736 L563 312 C563 243 556 198 539 165 C513 114 447 82 369 82 C303 82 242 108 212 149 C187 182 177 229 177 312 L177 736 L77 736 L77 292 C77 182 95 124 146 74 C205 17 275 -10 370 -10 C465 -10 539 17 594 74 C644 125 663 185 663 293 L663 736 Z " />
<glyph glyph-name="V" unicode="V" horiz-adv-x="655" d="M13 736 L266 0 L381 0 L642 736 L536 736 L392 309 C360 214 353 191 328 102 L324 102 C300 191 293 214 261 310 L120 736 L13 736 Z " />
<glyph glyph-name="W" unicode="W" horiz-adv-x="995" d="M506 633 C526 530 532 506 561 395 L665 0 L777 0 L984 736 L886 736 L784 354 C754 240 748 216 727 113 L722 113 C700 217 694 244 665 354 L564 736 L448 736 L338 350 C307 240 301 215 278 113 L273 113 C252 216 245 242 217 351 L115 736 L10 736 L217 0 L328 0 L440 396 C472 506 478 531 501 633 L506 633 Z " />
<glyph glyph-name="X" unicode="X" horiz-adv-x="683" d="M560 0 L683 0 L412 383 L671 736 L553 736 L401 517 C375 480 371 474 351 441 C331 474 327 480 301 518 L152 736 L29 736 L283 385 L0 0 L119 0 L294 248 C320 285 324 291 344 325 C364 291 367 285 393 247 L560 0 Z " />
<glyph glyph-name="Y" unicode="Y" horiz-adv-x="683" d="M122 736 L7 736 L292 291 L292 0 L392 0 L392 291 L673 736 L560 736 L403 473 C379 432 370 417 346 372 C321 416 314 428 287 472 L122 736 Z " />
<glyph glyph-name="Z" unicode="Z" horiz-adv-x="624" d="M43 0 L580 0 L580 91 L303 91 C230 91 214 91 149 87 L147 89 C190 139 200 151 245 209 L572 636 L572 736 L58 736 L58 645 L311 645 C384 645 399 645 465 649 L466 647 C423 597 414 585 369 527 L43 102 L43 0 Z " />
<glyph glyph-name="bracketleft" unicode="&#x5b;" horiz-adv-x="314" d="M77 736 L77 -197 L269 -197 L269 -130 L181 -130 C169 -130 166 -130 155 -134 C159 -123 159 -120 159 -108 L159 647 C159 659 159 662 155 673 C166 669 169 669 181 669 L269 669 L269 736 L77 736 Z " />
<glyph glyph-name="backslash" unicode="&#x5c;" horiz-adv-x="458" d="M412 0 L130 736 L46 736 L327 0 L412 0 Z " />
<glyph glyph-name="bracketright" unicode="&#x5d;" horiz-adv-x="315" d="M238 736 L46 736 L46 669 L134 669 C146 669 149 669 160 673 C156 662 156 659 156 647 L156 -108 C156 -120 156 -123 160 -134 C149 -130 146 -130 134 -130 L46 -130 L46 -197 L238 -197 L238 736 Z " />
<glyph glyph-name="asciicircum" unicode="&#x5e;" horiz-adv-x="550" d="M509 368 L309 736 L240 736 L41 368 L114 368 L211 549 C242 606 249 619 274 673 L276 673 C301 619 308 606 338 548 L436 368 L509 368 Z " />
<glyph glyph-name="underscore" unicode="&#x5f;" horiz-adv-x="442" d="M0 -95 L0 -150 L442 -150 L442 -95 L0 -95 Z " />
<glyph glyph-name="grave" unicode="&#x60;" d="M-133 758 L-3 605 L66 605 L-15 758 L-133 758 Z " />
<glyph glyph-name="a" unicode="a" horiz-adv-x="534" d="M376 73 L376 57 L376 28 L377 0 L468 0 C461 64 460 89 460 142 L460 330 C460 385 454 426 443 448 C416 501 357 528 266 528 C137 528 74 477 69 371 L164 371 C168 428 204 458 268 458 C340 458 365 427 365 340 L365 330 C365 323 366 321 369 315 C358 319 355 319 343 319 L291 319 C138 319 44 249 44 136 C44 43 111 -17 214 -17 C286 -17 342 15 371 74 L376 73 Z M365 227 C365 185 360 147 351 126 C333 87 288 60 239 60 C180 60 140 94 140 144 C140 219 198 250 337 250 L351 250 C359 250 361 251 369 254 C366 248 365 245 365 239 L365 227 Z " />
<glyph glyph-name="b" unicode="b" horiz-adv-x="593" d="M76 0 L166 0 L166 15 L165 44 L165 73 L169 75 C206 18 256 -8 327 -8 C468 -8 549 90 549 262 C549 431 472 522 329 522 C256 522 212 498 172 434 L167 436 C172 501 173 517 173 588 L173 736 L79 736 L79 153 C79 133 79 107 78 75 L76 0 Z M314 454 C401 454 449 385 449 259 C449 135 398 62 312 62 C220 62 173 128 173 257 C173 383 223 454 314 454 L314 454 Z " />
<glyph glyph-name="c" unicode="c" horiz-adv-x="499" d="M379 171 C374 100 337 62 272 62 C186 62 140 128 140 253 C140 381 185 452 268 452 C329 452 369 412 373 348 L468 348 C463 460 389 527 269 527 C187 527 134 502 94 445 C61 398 41 325 41 252 C41 189 56 128 82 83 C120 17 179 -13 268 -13 C392 -13 468 55 473 171 L379 171 Z " />
<glyph glyph-name="d" unicode="d" horiz-adv-x="601" d="M288 454 C379 454 427 387 427 260 C427 132 377 63 286 63 C199 63 148 136 148 260 C148 386 197 454 288 454 L288 454 Z M433 77 L433 43 L433 14 L433 0 L526 0 C522 28 521 50 521 104 L521 736 L426 736 L426 592 C426 525 427 506 432 442 L427 441 C390 498 345 522 273 522 C128 522 48 430 48 263 C48 87 125 -8 268 -8 C345 -8 386 14 429 78 L433 77 Z " />
<glyph glyph-name="e" unicode="e" horiz-adv-x="550" d="M399 164 C391 99 349 63 282 63 C190 63 149 118 145 246 C154 242 157 241 168 241 L504 241 L504 269 C504 439 429 527 284 527 C133 527 47 428 47 252 C47 83 130 -11 281 -11 C406 -11 488 57 494 164 L399 164 Z M182 310 C164 310 161 309 146 305 C154 403 200 454 282 454 C364 454 407 405 410 305 C399 309 396 310 383 310 L182 310 Z " />
<glyph glyph-name="f" unicode="f" horiz-adv-x="350" d="M20 445 L95 445 C107 445 110 445 121 449 C117 438 117 435 117 423 L117 0 L212 0 L212 423 C212 435 212 438 208 449 C219 445 222 445 234 445 L327 445 L327 514 L234 514 C222 514 219 514 208 510 C212 521 212 524 212 536 L212 572 C212 644 233 667 298 667 C306 667 315 667 337 665 L337 741 C304 745 289 746 266 746 C168 746 117 696 117 597 L117 536 C117 524 117 521 121 510 C110 514 107 514 95 514 L20 514 L20 445 Z " />
<glyph glyph-name="g" unicode="g" horiz-adv-x="588" d="M422 102 C418 84 417 77 417 61 L417 26 C417 -84 378 -133 289 -133 C216 -133 182 -105 177 -39 L70 -39 C77 -152 141 -203 275 -203 C434 -203 512 -130 512 21 L512 410 C512 419 513 442 515 476 C515 484 516 497 517 514 L425 514 L423 481 L422 470 C422 465 423 456 426 443 L422 442 C379 503 339 525 269 525 C133 525 47 427 47 270 C47 110 124 19 260 19 C332 19 375 42 418 103 L422 102 Z M283 455 C364 455 419 382 419 273 C419 167 364 92 286 92 C201 92 147 162 147 271 C147 382 201 455 283 455 L283 455 Z " />
<glyph glyph-name="h" unicode="h" horiz-adv-x="583" d="M77 0 L172 0 L172 295 C172 389 223 446 308 446 C379 446 417 402 417 320 L417 0 L512 0 L512 322 C512 453 447 524 327 524 C255 524 212 501 171 439 L166 440 C171 503 172 519 172 586 L172 736 L77 736 L77 0 Z " />
<glyph glyph-name="i" unicode="i" horiz-adv-x="253" d="M68 626 L181 626 L181 736 L68 736 L68 626 Z M77 0 L172 0 L172 514 L77 514 L77 0 Z " />
<glyph glyph-name="j" unicode="j" horiz-adv-x="256" d="M84 514 L84 -41 C84 -115 66 -135 0 -136 L-8 -136 L-8 -203 C15 -205 27 -206 42 -206 C139 -206 179 -164 179 -63 L179 514 L84 514 Z M77 626 L190 626 L190 736 L77 736 L77 626 Z " />
<glyph glyph-name="k" unicode="k" horiz-adv-x="496" d="M77 0 L172 0 L172 275 L371 0 L492 0 L274 290 L481 514 L361 514 L172 304 L172 736 L77 736 L77 0 Z " />
<glyph glyph-name="l" unicode="l" horiz-adv-x="248" d="M77 0 L172 0 L172 736 L77 736 L77 0 Z " />
<glyph glyph-name="m" unicode="m" horiz-adv-x="908" d="M72 514 C75 467 76 446 76 385 L76 0 L171 0 L171 295 C171 389 220 447 299 447 C370 447 408 403 408 320 L408 0 L503 0 L503 295 C503 389 552 447 631 447 C699 447 740 399 740 320 L740 0 L835 0 L835 322 C835 452 768 524 648 524 C577 524 535 498 489 426 C450 494 400 524 325 524 C254 524 214 501 169 435 L166 436 L166 470 L166 514 L72 514 Z " />
<glyph glyph-name="n" unicode="n" horiz-adv-x="583" d="M74 514 C77 467 78 446 78 385 L78 0 L172 0 L172 295 C172 390 223 447 308 447 C378 447 418 401 418 320 L418 0 L513 0 L513 322 C513 455 449 524 325 524 C249 524 209 501 171 434 L167 435 L167 470 L167 514 L74 514 Z " />
<glyph glyph-name="o" unicode="o" horiz-adv-x="591" d="M295 527 C141 527 46 424 46 256 C46 87 136 -14 286 -14 C448 -14 544 87 544 257 C544 426 451 527 295 527 L295 527 Z M302 454 C392 454 445 383 445 263 C445 132 391 60 292 60 C196 60 145 129 145 257 C145 386 199 454 302 454 L302 454 Z " />
<glyph glyph-name="p" unicode="p" horiz-adv-x="604" d="M76 514 L78 438 C79 409 79 383 79 360 L79 -197 L174 -197 L174 -62 C174 3 173 18 168 78 L173 79 C211 16 256 -9 331 -9 C475 -9 555 83 555 251 C555 424 473 522 328 522 C256 522 207 496 170 439 L166 440 L166 469 L166 498 L167 514 L76 514 Z M313 452 C403 452 455 379 455 253 C455 130 404 59 316 59 C223 59 174 128 174 262 C174 388 221 452 313 452 L313 452 Z " />
<glyph glyph-name="q" unicode="q" horiz-adv-x="606" d="M290 451 C381 451 430 381 430 253 C430 128 381 60 292 60 C198 60 148 127 148 254 C148 378 200 451 290 451 L290 451 Z M435 72 C430 13 429 -2 429 -65 L429 -197 L524 -197 L524 410 C524 463 525 488 529 514 L436 514 L436 500 L436 471 L436 437 L432 436 C389 500 348 522 270 522 C126 522 49 427 49 251 C49 84 129 -8 274 -8 C348 -8 394 16 430 73 L435 72 Z " />
<glyph glyph-name="r" unicode="r" horiz-adv-x="373" d="M72 514 C75 457 76 435 76 385 L76 0 L170 0 L170 256 C170 382 207 430 304 430 C318 430 327 429 349 427 L349 519 C338 520 328 520 323 520 C246 520 212 500 169 429 L165 430 L165 514 L72 514 Z " />
<glyph glyph-name="s" unicode="s" horiz-adv-x="483" d="M33 156 C36 44 103 -12 232 -12 C365 -12 444 50 444 153 C444 193 431 225 405 247 C371 276 339 288 220 317 C161 331 142 347 142 382 C142 425 182 454 241 454 C302 454 331 428 335 373 L429 373 C428 474 364 527 245 527 C125 527 43 463 43 370 C43 284 94 244 247 212 C320 197 344 179 344 139 C344 96 300 64 242 64 C173 64 135 96 133 156 L33 156 Z " />
<glyph glyph-name="t" unicode="t" horiz-adv-x="340" d="M20 445 L87 445 C99 445 102 445 113 449 C109 438 109 435 109 423 L109 124 C109 33 148 -6 238 -6 C261 -6 282 -3 316 4 L316 74 C296 72 287 71 277 71 C219 71 204 90 204 161 L204 423 C204 435 204 438 200 449 C211 445 214 445 226 445 L319 445 L319 514 L226 514 C214 514 211 514 200 510 C204 521 204 524 204 536 L204 655 L109 619 L109 536 C109 524 109 521 113 510 C102 514 99 514 87 514 L20 514 L20 445 Z " />
<glyph glyph-name="u" unicode="u" horiz-adv-x="588" d="M514 0 C510 27 509 51 509 104 L509 514 L414 514 L414 219 C414 120 368 67 284 67 C211 67 169 113 169 194 L169 514 L74 514 L74 192 C74 61 140 -10 260 -10 C332 -10 376 15 416 80 L420 79 L421 44 L421 0 L514 0 Z " />
<glyph glyph-name="v" unicode="v" horiz-adv-x="547" d="M11 514 L222 0 L317 0 L539 514 L436 514 L342 278 C308 195 301 176 275 98 L272 98 C246 175 241 192 207 278 L115 514 L11 514 Z " />
<glyph glyph-name="w" unicode="w" horiz-adv-x="829" d="M6 514 L177 0 L286 0 L350 210 C382 316 388 338 412 435 L416 435 C438 338 443 315 473 210 L531 0 L639 0 L817 514 L722 514 L656 313 C624 213 617 190 592 97 L588 97 C568 190 561 214 534 313 L478 514 L356 514 L296 313 C266 214 259 190 237 98 L233 98 C209 190 202 214 172 313 L108 514 L6 514 Z " />
<glyph glyph-name="x" unicode="x" horiz-adv-x="542" d="M11 0 L120 0 L223 141 C247 173 252 179 271 210 C289 179 293 172 316 139 L414 0 L531 0 L334 263 L529 514 L419 514 L326 389 C303 359 297 351 278 321 C260 352 255 359 233 391 L148 514 L30 514 L214 266 L11 0 Z " />
<glyph glyph-name="y" unicode="y" horiz-adv-x="547" d="M12 514 L228 -2 L145 -197 L240 -197 L537 514 L437 514 L344 275 C311 190 304 171 279 92 L275 92 C249 171 242 191 209 275 L116 514 L12 514 Z " />
<glyph glyph-name="z" unicode="z" horiz-adv-x="465" d="M45 0 L424 0 L424 69 L280 69 C209 69 195 69 132 65 L130 67 C175 118 185 129 231 188 L411 417 L411 514 L58 514 L58 445 L189 445 C253 445 267 445 324 449 L326 446 C281 396 271 384 225 326 L45 97 L45 0 Z " />
<glyph glyph-name="braceleft" unicode="&#x7b;" horiz-adv-x="343" d="M122 271 C179 295 198 328 198 398 L198 567 C198 644 223 673 288 673 C289 673 293 673 297 672 L297 736 L245 736 C155 736 118 688 118 572 L118 402 C118 341 102 316 55 302 L55 237 C102 223 118 198 118 137 L118 -33 C118 -149 155 -197 245 -197 L297 -197 L297 -133 C293 -134 290 -134 289 -134 C223 -134 198 -105 198 -28 L198 141 C198 211 178 244 122 268 L122 271 Z " />
<glyph glyph-name="bar" unicode="&#x7c;" horiz-adv-x="240" d="M85 736 L85 -221 L156 -221 L156 736 L85 736 Z " />
<glyph glyph-name="braceright" unicode="&#x7d;" horiz-adv-x="343" d="M220 268 C164 244 144 211 144 141 L144 -28 C144 -105 119 -134 53 -134 C52 -134 49 -134 45 -133 L45 -197 L96 -197 C187 -197 224 -149 224 -33 L224 137 C224 197 240 223 287 237 L287 302 C240 316 224 342 224 402 L224 572 C224 688 187 736 96 736 L45 736 L45 672 C49 673 53 673 54 673 C119 673 144 643 144 567 L144 398 C144 328 164 295 220 271 L220 268 Z " />
<glyph glyph-name="asciitilde" unicode="&#x7e;" horiz-adv-x="550" d="M84 305 C118 357 139 374 174 374 C194 374 225 362 257 341 L313 306 C329 295 359 287 380 287 C426 287 468 318 510 384 L466 432 C431 377 411 362 372 362 C346 362 332 368 268 408 C222 437 193 449 169 449 C121 449 85 423 39 352 L84 305 Z " />
<glyph glyph-name="exclamdown" unicode="&#xa1;" horiz-adv-x="279" d="M76 409 L183 409 L183 514 L76 514 L76 409 Z M73 -222 L186 -222 L166 345 L92 345 L73 -222 Z " />
<glyph glyph-name="cent" unicode="&#xa2;" horiz-adv-x="519" d="M288 393 C288 422 288 427 283 452 C341 442 369 409 373 348 L468 348 C463 456 401 518 288 527 L288 625 L242 625 L242 525 C184 519 152 505 120 471 C72 422 45 342 45 252 C45 168 70 92 113 45 C144 12 180 -4 242 -11 L242 -111 L288 -111 L288 -12 C403 -4 467 59 472 171 L377 171 C373 102 344 69 283 62 C287 82 288 87 288 111 L288 393 Z M242 143 C242 105 242 98 247 64 C176 83 144 142 144 253 C144 368 177 432 247 450 C242 416 242 408 242 369 L242 143 Z " />
<glyph glyph-name="sterling" unicode="&#xa3;" horiz-adv-x="573" d="M40 0 L524 0 L524 84 L244 84 C232 84 229 84 218 80 C222 91 222 94 222 106 L222 343 C222 355 222 358 218 369 C229 365 232 365 244 365 L390 365 L390 449 L244 449 C232 449 229 449 218 445 C222 456 222 459 222 471 L222 524 C222 623 254 665 327 665 C388 665 427 631 435 570 L535 570 C524 635 519 650 499 677 C463 727 403 754 329 754 C205 754 127 677 127 555 L127 471 C127 459 127 456 131 445 C120 449 117 449 105 449 L40 449 L40 365 L105 365 C117 365 120 365 131 369 C127 358 127 355 127 343 L127 106 C127 94 127 91 131 80 C120 84 117 84 105 84 L40 84 L40 0 Z " />
<glyph glyph-name="currency" unicode="&#xa4;" horiz-adv-x="550" d="M380 527 C344 549 312 558 275 558 C238 558 206 549 171 527 L95 602 L41 548 L116 473 C95 438 85 406 85 368 C85 330 94 298 116 264 L41 189 L95 134 L171 209 C205 187 237 178 275 178 C313 178 345 187 380 209 L455 134 L509 189 L434 264 C456 298 466 330 466 368 C466 406 456 438 434 473 L509 548 L455 602 L380 527 Z M275 487 C341 487 395 433 395 368 C395 302 342 249 275 249 C209 249 156 302 156 369 C156 434 209 487 275 487 L275 487 Z " />
<glyph glyph-name="yen" unicode="&#xa5;" horiz-adv-x="675" d="M607 423 L532 423 C494 423 487 423 453 419 L452 421 C488 469 495 479 533 535 L667 736 L579 736 L390 451 C365 413 359 403 337 366 C316 403 309 413 284 452 L97 736 L7 736 L141 535 C174 484 185 470 221 421 L220 419 C186 423 179 423 140 423 L65 423 L65 382 L241 382 L269 340 C283 319 287 315 303 297 L301 295 C250 299 239 299 181 299 L65 299 L65 258 L275 258 C287 258 290 258 301 262 C297 251 297 247 297 236 L297 0 L376 0 L376 236 C376 248 376 251 372 262 C383 258 386 258 398 258 L607 258 L607 299 L492 299 C434 299 422 299 371 295 L370 297 C386 315 390 319 404 340 L432 382 L607 382 L607 423 Z " />
<glyph glyph-name="brokenbar" unicode="&#xa6;" horiz-adv-x="240" d="M85 736 L85 368 L156 368 L156 736 L85 736 Z M85 147 L85 -221 L156 -221 L156 147 L85 147 Z " />
<glyph glyph-name="section" unicode="&#xa7;" horiz-adv-x="442" d="M59 -2 C101 -19 139 -26 188 -26 C312 -26 392 36 392 131 C392 190 357 231 284 256 L284 259 C350 287 392 338 392 392 C392 448 362 482 289 510 L216 538 C178 552 162 570 162 600 C162 640 194 662 252 662 C293 662 329 652 363 631 L363 709 C327 727 288 736 242 736 C134 736 60 679 60 594 C60 543 91 505 153 480 L153 476 C81 443 45 397 45 341 C45 276 82 244 197 208 C266 186 290 165 290 129 C290 85 251 54 193 54 C143 54 100 65 59 90 L59 -2 Z M215 452 C281 433 302 414 302 373 C302 333 277 307 217 283 C157 306 135 328 135 362 C135 405 164 438 215 452 L215 452 Z " />
<glyph glyph-name="dieresis" unicode="&#xa8;" d="M-149 627 L-47 627 L-47 736 L-149 736 L-149 627 Z M48 627 L150 627 L150 736 L48 736 L48 627 Z " />
<glyph glyph-name="copyright" unicode="&#xa9;" horiz-adv-x="857" d="M434 747 C216 747 45 580 45 368 C45 159 216 -11 428 -11 C640 -11 811 159 811 368 C811 574 639 747 434 747 L434 747 Z M433 697 C608 697 754 547 754 368 C754 186 608 39 428 39 C248 39 102 186 102 368 C102 552 248 697 433 697 L433 697 Z M520 275 C509 227 483 207 433 207 C357 207 319 261 319 369 C319 474 359 531 433 531 C482 531 509 510 518 463 L589 463 C583 542 527 585 432 585 C319 585 249 505 249 375 L249 358 C249 228 317 152 433 152 C524 152 583 198 593 275 L520 275 Z " />
<glyph glyph-name="ordfeminine" unicode="&#xaa;" horiz-adv-x="414" d="M272 335 L272 318 L272 299 L272 295 L335 295 L335 299 L333 320 C331 338 330 357 330 382 L330 493 C330 583 298 614 207 614 C124 614 84 582 82 514 L148 514 C148 515 148 517 148 517 C151 549 171 565 208 565 C250 565 264 549 264 499 L264 495 C264 492 265 490 268 486 C258 490 255 490 243 490 L222 490 C126 490 66 448 66 379 C66 322 109 285 175 285 C214 285 246 298 265 322 L267 324 C268 325 268 327 268 330 C268 332 268 334 269 336 L272 335 Z M264 432 C264 368 241 338 190 338 C156 338 133 356 133 383 C133 425 167 442 250 442 L257 442 C262 442 264 443 268 446 C265 442 264 440 264 437 L264 432 Z " />
<glyph glyph-name="guillemotleft" unicode="&#xab;" horiz-adv-x="476" d="M44 263 L151 65 L233 65 L141 263 L233 464 L151 464 L44 263 Z M237 263 L344 65 L426 65 L334 263 L426 464 L344 464 L237 263 Z " />
<glyph glyph-name="logicalnot" unicode="&#xac;" horiz-adv-x="550" d="M50 507 L50 433 L400 433 C412 433 415 433 426 437 C422 426 422 423 422 411 L422 230 L500 230 L500 507 L50 507 Z " />
<glyph glyph-name="registered" unicode="&#xae;" horiz-adv-x="857" d="M434 747 C216 747 45 580 45 368 C45 159 216 -11 428 -11 C640 -11 811 159 811 368 C811 574 639 747 434 747 L434 747 Z M433 697 C608 697 754 547 754 368 C754 186 608 39 428 39 C248 39 102 186 102 368 C102 552 248 697 433 697 L433 697 Z M283 158 L349 158 L349 323 C349 335 349 338 345 349 C356 345 359 345 371 345 L432 345 C482 345 497 330 504 273 C509 235 513 211 525 158 L596 158 L592 171 C581 209 579 220 570 275 C560 338 548 357 510 370 L510 373 C563 394 584 422 584 471 C584 544 535 578 431 578 L283 578 L283 158 Z M349 500 C349 512 349 515 345 526 C356 522 359 522 371 522 L435 522 C492 522 515 504 515 461 C515 419 491 400 438 400 L371 400 C359 400 356 400 345 396 C349 407 349 410 349 422 L349 500 Z " />
<glyph glyph-name="macron" unicode="&#xaf;" d="M-148 649 L149 649 L149 717 L-148 717 L-148 649 Z " />
<glyph glyph-name="degree" unicode="&#xb0;" horiz-adv-x="396" d="M198 744 C113 744 45 677 45 595 C45 513 113 446 198 446 C282 446 350 513 350 595 C350 677 282 744 198 744 L198 744 Z M198 697 C255 697 302 651 302 595 C302 539 255 493 198 493 C140 493 93 539 93 595 C93 651 140 697 198 697 L198 697 Z " />
<glyph glyph-name="plusminus" unicode="&#xb1;" horiz-adv-x="550" d="M52 470 L52 396 L214 396 C226 396 229 396 240 400 C236 389 236 386 236 374 L236 231 L314 231 L314 374 C314 385 314 389 310 400 C321 396 324 396 336 396 L499 396 L499 470 L336 470 C324 470 321 470 310 466 C314 477 314 481 314 492 L314 639 L236 639 L236 492 C236 480 236 477 240 466 C229 470 226 470 214 470 L52 470 Z M52 150 L52 76 L499 76 L499 150 L52 150 Z " />
<glyph glyph-name="twosuperior" unicode="&#xb2;" horiz-adv-x="384" d="M52 294 L331 294 L331 350 L233 350 C184 350 173 349 128 345 L126 348 C160 375 168 382 202 415 L269 480 C311 521 330 559 330 605 C330 679 276 728 194 728 C110 728 64 684 59 600 L59 596 L130 596 C131 646 152 670 196 670 C235 670 261 644 261 604 C261 572 245 545 204 504 L52 355 L52 294 Z " />
<glyph glyph-name="threesuperior" unicode="&#xb3;" horiz-adv-x="384" d="M39 403 C41 321 91 276 184 276 C275 276 337 327 337 402 C337 454 309 488 253 503 L252 506 C309 530 328 555 328 603 C328 670 270 718 189 718 C100 718 48 673 45 595 L116 595 C118 636 146 660 191 660 C232 660 259 636 259 599 C259 554 227 531 162 531 L146 531 L146 476 L162 476 C234 476 267 454 267 405 C267 362 235 334 187 334 C137 334 112 357 111 403 L39 403 Z " />
<glyph glyph-name="acute" unicode="&#xb4;" d="M-67 605 L2 605 L132 758 L15 758 L-67 605 Z " />
<glyph glyph-name="mu" unicode="&#xb5;" horiz-adv-x="588" d="M517 530 L443 530 L443 240 C443 122 381 46 285 46 C245 46 208 59 185 82 C153 113 144 143 144 224 L144 530 L70 530 L70 -97 C70 -128 68 -152 63 -200 C62 -204 61 -212 60 -221 L134 -221 L135 -203 C138 -179 139 -155 139 -139 L139 -39 C139 10 138 23 132 70 L136 71 C139 67 141 64 143 61 C180 9 223 -15 278 -15 C360 -15 412 28 449 128 L455 126 C448 91 446 74 446 53 L446 0 L517 0 L517 530 Z " />
<glyph glyph-name="paragraph" unicode="&#xb6;" horiz-adv-x="616" d="M264 -221 L317 -221 L317 653 C317 665 317 668 313 679 C324 675 327 675 339 675 L397 675 C409 675 412 675 423 679 C419 668 419 665 419 653 L419 -221 L472 -221 L472 653 C472 665 472 668 468 679 C479 675 482 675 494 675 L594 675 L594 736 L283 736 C214 736 170 728 133 710 C73 680 38 621 38 551 C38 448 121 369 229 369 C237 369 251 370 268 373 C264 362 264 359 264 347 L264 -221 Z " />
<glyph glyph-name="periodcentered" unicode="&#xb7;" horiz-adv-x="550" d="M275 437 C237 437 206 406 206 368 C206 330 237 299 275 299 C313 299 344 330 344 368 C344 406 313 437 275 437 L275 437 Z " />
<glyph glyph-name="periodcentered" unicode="&#xb7;" horiz-adv-x="550" d="M275 437 C237 437 206 406 206 368 C206 330 237 299 275 299 C313 299 344 330 344 368 C344 406 313 437 275 437 L275 437 Z " />
<glyph glyph-name="cedilla" unicode="&#xb8;" d="M-110 -197 C-66 -212 -37 -218 -4 -218 C61 -218 110 -179 110 -126 C110 -84 76 -52 31 -52 C20 -52 12 -53 -5 -57 L-7 -55 C6 -43 9 -39 18 -24 L36 5 L-10 5 L-67 -77 L-56 -100 C-33 -97 -25 -96 -15 -96 C13 -96 33 -111 33 -132 C33 -154 11 -171 -19 -171 C-41 -171 -62 -167 -92 -155 L-110 -197 Z " />
<glyph glyph-name="onesuperior" unicode="&#xb9;" horiz-adv-x="302" d="M46 580 C86 595 102 604 147 637 L150 636 C145 577 145 565 145 498 L145 284 L212 284 L212 711 L150 711 C147 711 140 706 133 698 C121 687 79 661 46 645 L46 580 Z " />
<glyph glyph-name="ordmasculine" unicode="&#xba;" horiz-adv-x="407" d="M202 621 C108 621 46 557 46 460 C46 358 105 295 201 295 C297 295 360 359 360 458 C360 556 298 621 202 621 L202 621 Z M201 570 C257 570 291 528 291 457 C291 386 258 346 200 346 C146 346 115 387 115 459 C115 528 148 570 201 570 L201 570 Z " />
<glyph glyph-name="guillemotright" unicode="&#xbb;" horiz-adv-x="476" d="M47 65 L129 65 L236 263 L129 464 L47 464 L139 263 L47 65 Z M240 65 L321 65 L429 263 L321 464 L240 464 L332 263 L240 65 Z " />
<glyph glyph-name="onequarter" unicode="&#xbc;" horiz-adv-x="823" d="M48 580 C88 595 104 604 149 637 L152 636 C147 577 147 565 147 498 L147 284 L214 284 L214 711 L152 711 C149 711 142 706 135 698 C123 687 81 661 48 645 L48 580 Z M590 711 L167 0 L232 0 L655 711 L590 711 Z M470 91 L641 91 C653 91 656 91 667 95 C663 84 663 80 663 69 L663 0 L729 0 L729 69 C729 81 729 84 725 95 C736 91 740 91 751 91 L789 91 L789 146 L751 146 C740 146 736 146 725 142 C729 153 729 157 729 168 L729 427 L652 427 L470 168 L470 91 Z M520 146 C580 221 624 283 665 355 L669 354 C664 307 663 293 663 245 L663 170 C663 159 664 155 667 144 C655 147 651 148 641 148 L595 148 C562 148 553 147 521 144 L520 146 Z " />
<glyph glyph-name="onehalf" unicode="&#xbd;" horiz-adv-x="872" d="M47 580 C87 595 103 604 148 637 L151 636 C146 577 146 565 146 498 L146 284 L213 284 L213 711 L151 711 C148 711 141 706 134 698 C122 687 80 661 47 645 L47 580 Z M589 711 L165 0 L231 0 L654 711 L589 711 Z M539 0 L819 0 L819 56 L721 56 C672 56 660 55 615 51 L613 54 C647 81 655 88 689 121 L756 185 C798 227 817 265 817 310 C817 386 764 434 679 434 C596 434 550 388 546 302 L617 302 C619 352 639 376 682 376 C722 376 748 350 748 311 C748 277 733 252 691 210 L539 61 L539 0 Z " />
<glyph glyph-name="threequarters" unicode="&#xbe;" horiz-adv-x="890" d="M658 711 L235 0 L300 0 L724 711 L658 711 Z M40 403 C42 321 92 276 185 276 C276 276 338 327 338 402 C338 454 310 488 254 503 L253 506 C310 530 329 555 329 603 C329 670 271 718 190 718 C101 718 49 673 46 595 L117 595 C119 636 147 660 192 660 C233 660 260 636 260 599 C260 554 228 531 163 531 L147 531 L147 476 L163 476 C235 476 268 454 268 405 C268 362 236 334 188 334 C138 334 113 357 112 403 L40 403 Z M538 91 L709 91 C721 91 724 91 735 95 C731 84 731 81 731 69 L731 0 L797 0 L797 69 C797 80 797 84 793 95 C804 91 808 91 819 91 L857 91 L857 146 L819 146 C808 146 804 146 793 142 C796 154 797 157 797 168 L797 427 L720 427 L538 168 L538 91 Z M663 148 C630 148 621 147 589 144 L588 146 C648 220 691 282 733 355 L737 354 C732 307 731 294 731 245 L731 170 C731 158 731 155 735 144 C724 147 720 148 709 148 L663 148 Z " />
<glyph glyph-name="questiondown" unicode="&#xbf;" horiz-adv-x="458" d="M422 -123 C352 -141 320 -146 277 -146 C207 -146 156 -102 156 -41 C156 7 181 45 277 143 C315 182 322 196 322 238 L322 348 L237 348 L237 248 C237 227 231 216 203 187 C65 44 48 17 48 -55 C48 -166 140 -234 289 -234 C341 -234 377 -228 422 -212 L422 -123 Z M226 409 L333 409 L333 514 L226 514 L226 409 Z " />
<glyph glyph-name="Agrave" unicode="&#xc0;" horiz-adv-x="719" d="M524 189 L602 0 L709 0 L414 736 L306 736 L5 0 L111 0 L188 189 L524 189 Z M307 276 C262 276 254 276 216 273 C232 308 235 315 250 357 L288 458 C320 544 328 565 353 647 L357 647 C382 565 389 547 422 458 L460 357 C476 316 479 308 495 273 C456 276 448 276 404 276 L307 276 Z M232 924 L362 771 L431 771 L350 924 L232 924 Z " />
<glyph glyph-name="Aacute" unicode="&#xc1;" horiz-adv-x="719" d="M524 189 L602 0 L709 0 L414 736 L306 736 L5 0 L111 0 L188 189 L524 189 Z M307 276 C262 276 254 276 216 273 C232 308 235 315 250 357 L288 458 C320 544 328 565 353 647 L357 647 C382 565 389 547 422 458 L460 357 C476 316 479 308 495 273 C456 276 448 276 404 276 L307 276 Z M298 771 L367 771 L497 924 L380 924 L298 771 Z " />
<glyph glyph-name="Acircumflex" unicode="&#xc2;" horiz-adv-x="719" d="M524 189 L602 0 L709 0 L414 736 L306 736 L5 0 L111 0 L188 189 L524 189 Z M307 276 C262 276 254 276 216 273 C232 308 235 315 250 357 L288 458 C320 544 328 565 353 647 L357 647 C382 565 389 547 422 458 L460 357 C476 316 479 308 495 273 C456 276 448 276 404 276 L307 276 Z M221 772 L304 772 L334 820 C349 843 352 849 364 873 C376 849 380 843 394 820 L424 772 L510 772 L413 923 L317 923 L221 772 Z " />
<glyph glyph-name="Atilde" unicode="&#xc3;" horiz-adv-x="719" d="M524 189 L602 0 L709 0 L414 736 L306 736 L5 0 L111 0 L188 189 L524 189 Z M307 276 C262 276 254 276 216 273 C232 308 235 315 250 357 L288 458 C320 544 328 565 353 647 L357 647 C382 565 389 547 422 458 L460 357 C476 316 479 308 495 273 C456 276 448 276 404 276 L307 276 Z M253 790 C261 821 273 832 302 832 C317 832 327 829 352 816 C393 796 415 789 433 789 C488 789 522 831 526 905 L478 905 C471 876 459 864 437 864 C420 864 399 871 361 889 C333 903 322 906 303 906 C246 906 208 861 204 790 L253 790 Z " />
<glyph glyph-name="Adieresis" unicode="&#xc4;" horiz-adv-x="719" d="M524 189 L602 0 L709 0 L414 736 L306 736 L5 0 L111 0 L188 189 L524 189 Z M307 276 C262 276 254 276 216 273 C232 308 235 315 250 357 L288 458 C320 544 328 565 353 647 L357 647 C382 565 389 547 422 458 L460 357 C476 316 479 308 495 273 C456 276 448 276 404 276 L307 276 Z M216 793 L318 793 L318 902 L216 902 L216 793 Z M413 793 L515 793 L515 902 L413 902 L413 793 Z " />
<glyph glyph-name="Aring" unicode="&#xc5;" horiz-adv-x="719" d="M524 189 L602 0 L709 0 L414 736 L306 736 L5 0 L111 0 L188 189 L524 189 Z M307 276 C262 276 254 276 216 273 C232 308 235 315 250 357 L288 458 C320 544 328 565 353 647 L357 647 C382 565 389 547 422 458 L460 357 C476 316 479 308 495 273 C456 276 448 276 404 276 L307 276 Z M367 940 C309 940 267 898 267 840 C267 784 308 744 364 744 C423 744 463 784 463 842 C463 899 423 940 367 940 L367 940 Z M365 891 C393 891 412 872 412 843 C412 813 393 794 365 794 C337 794 318 814 318 843 C318 872 337 891 365 891 L365 891 Z " />
<glyph glyph-name="AE" unicode="&#xc6;" horiz-adv-x="910" d="M0 0 L105 0 L194 184 L496 184 L521 0 L863 0 L863 91 L608 91 L580 294 C577 316 577 319 571 337 C590 334 595 334 615 334 L841 334 L841 422 L563 422 L537 605 C534 626 533 630 528 648 C547 645 552 645 572 645 L852 645 L852 736 L370 736 L0 0 Z M348 276 C294 276 283 276 236 273 C259 315 262 321 288 373 L335 468 C382 562 392 585 430 674 L435 674 C441 586 443 566 457 468 L478 315 C480 294 481 290 487 273 C468 276 463 276 443 276 L348 276 Z " />
<glyph glyph-name="Ccedilla" unicode="&#xc7;" horiz-adv-x="662" d="M265 -77 L276 -100 C298 -97 306 -96 316 -96 C345 -96 365 -111 365 -132 C365 -154 342 -171 312 -171 C290 -171 270 -167 239 -155 L222 -197 C264 -212 295 -218 328 -218 C393 -218 442 -179 442 -126 C442 -84 408 -52 363 -52 C351 -52 343 -53 326 -58 L325 -55 C337 -43 340 -40 349 -24 L357 -13 C512 -10 612 66 628 194 L515 194 C496 111 446 73 356 73 C227 73 156 175 156 361 C156 560 225 664 357 664 C443 664 493 625 510 545 L620 545 C607 675 512 748 357 748 C162 748 49 609 49 367 C49 139 136 14 311 -10 L265 -77 Z " />
<glyph glyph-name="Egrave" unicode="&#xc8;" horiz-adv-x="580" d="M84 0 L534 0 L534 91 L206 91 C194 91 191 91 180 87 C184 98 184 101 184 113 L184 312 C184 324 184 327 180 338 C191 334 194 334 206 334 L516 334 L516 422 L206 422 C194 422 191 422 180 418 C184 429 184 432 184 444 L184 623 C184 635 184 638 180 649 C191 645 194 645 206 645 L531 645 L531 736 L84 736 L84 0 Z M157 924 L287 771 L356 771 L275 924 L157 924 Z " />
<glyph glyph-name="Eacute" unicode="&#xc9;" horiz-adv-x="580" d="M84 0 L534 0 L534 91 L206 91 C194 91 191 91 180 87 C184 98 184 101 184 113 L184 312 C184 324 184 327 180 338 C191 334 194 334 206 334 L516 334 L516 422 L206 422 C194 422 191 422 180 418 C184 429 184 432 184 444 L184 623 C184 635 184 638 180 649 C191 645 194 645 206 645 L531 645 L531 736 L84 736 L84 0 Z M223 771 L292 771 L422 924 L305 924 L223 771 Z " />
<glyph glyph-name="Ecircumflex" unicode="&#xca;" horiz-adv-x="580" d="M84 0 L534 0 L534 91 L206 91 C194 91 191 91 180 87 C184 98 184 101 184 113 L184 312 C184 324 184 327 180 338 C191 334 194 334 206 334 L516 334 L516 422 L206 422 C194 422 191 422 180 418 C184 429 184 432 184 444 L184 623 C184 635 184 638 180 649 C191 645 194 645 206 645 L531 645 L531 736 L84 736 L84 0 Z M146 772 L229 772 L259 820 C274 843 277 849 289 873 C301 849 305 843 319 820 L349 772 L435 772 L338 923 L242 923 L146 772 Z " />
<glyph glyph-name="Edieresis" unicode="&#xcb;" horiz-adv-x="580" d="M84 0 L534 0 L534 91 L206 91 C194 91 191 91 180 87 C184 98 184 101 184 113 L184 312 C184 324 184 327 180 338 C191 334 194 334 206 334 L516 334 L516 422 L206 422 C194 422 191 422 180 418 C184 429 184 432 184 444 L184 623 C184 635 184 638 180 649 C191 645 194 645 206 645 L531 645 L531 736 L84 736 L84 0 Z M141 793 L243 793 L243 902 L141 902 L141 793 Z M338 793 L440 793 L440 902 L338 902 L338 793 Z " />
<glyph glyph-name="Igrave" unicode="&#xcc;" horiz-adv-x="271" d="M84 0 L184 0 L184 736 L84 736 L84 0 Z M2 924 L132 771 L201 771 L120 924 L2 924 Z " />
<glyph glyph-name="Iacute" unicode="&#xcd;" horiz-adv-x="271" d="M84 0 L184 0 L184 736 L84 736 L84 0 Z M68 771 L137 771 L267 924 L150 924 L68 771 Z " />
<glyph glyph-name="Icircumflex" unicode="&#xce;" horiz-adv-x="271" d="M84 0 L184 0 L184 736 L84 736 L84 0 Z M-9 772 L74 772 L104 820 C119 843 122 849 134 873 C146 849 150 843 164 820 L194 772 L280 772 L183 923 L87 923 L-9 772 Z " />
<glyph glyph-name="Idieresis" unicode="&#xcf;" horiz-adv-x="271" d="M84 0 L184 0 L184 736 L84 736 L84 0 Z M-14 793 L88 793 L88 902 L-14 902 L-14 793 Z M183 793 L285 793 L285 902 L183 902 L183 793 Z " />
<glyph glyph-name="Eth" unicode="&#xd0;" horiz-adv-x="721" d="M16 398 L16 350 L68 350 C80 350 83 350 94 354 C90 343 90 340 90 328 L90 0 L308 0 C434 0 514 25 574 84 C639 150 670 240 670 370 C670 495 639 583 570 651 C507 713 440 736 320 736 L90 736 L90 420 C90 408 90 405 94 394 C83 398 80 398 68 398 L16 398 Z M329 398 L212 398 C200 398 197 398 186 394 C190 405 190 408 190 420 L190 627 C190 639 190 642 186 653 C197 649 200 649 212 649 L322 649 C481 649 563 552 563 364 C563 260 542 194 492 143 C454 103 401 87 306 87 L212 87 C200 87 197 87 186 83 C190 94 190 97 190 109 L190 328 C190 340 190 343 186 354 C197 350 200 350 212 350 L329 350 L329 398 Z " />
<glyph glyph-name="Ntilde" unicode="&#xd1;" horiz-adv-x="744" d="M84 0 L176 0 L176 388 C176 504 175 529 169 633 L174 634 C222 541 235 517 293 420 L539 0 L659 0 L659 736 L567 736 L567 379 C567 262 568 238 574 134 L569 132 C521 225 509 247 450 347 L222 736 L84 736 L84 0 Z M260 790 C268 821 280 832 309 832 C324 832 334 829 359 816 C400 796 422 789 440 789 C495 789 529 831 533 905 L485 905 C478 876 466 864 444 864 C427 864 406 871 368 889 C340 903 329 906 310 906 C253 906 215 861 211 790 L260 790 Z " />
<glyph glyph-name="Ograve" unicode="&#xd2;" horiz-adv-x="747" d="M374 748 C162 748 45 610 45 362 C45 120 163 -13 376 -13 C585 -13 701 123 701 369 C701 615 586 748 374 748 L374 748 Z M375 667 C518 667 593 564 593 369 C593 165 521 68 371 68 C228 68 152 170 152 365 C152 565 227 667 375 667 L375 667 Z M240 924 L370 771 L439 771 L358 924 L240 924 Z " />
<glyph glyph-name="Oacute" unicode="&#xd3;" horiz-adv-x="747" d="M374 748 C162 748 45 610 45 362 C45 120 163 -13 376 -13 C585 -13 701 123 701 369 C701 615 586 748 374 748 L374 748 Z M375 667 C518 667 593 564 593 369 C593 165 521 68 371 68 C228 68 152 170 152 365 C152 565 227 667 375 667 L375 667 Z M306 771 L375 771 L505 924 L388 924 L306 771 Z " />
<glyph glyph-name="Ocircumflex" unicode="&#xd4;" horiz-adv-x="747" d="M374 748 C162 748 45 610 45 362 C45 120 163 -13 376 -13 C585 -13 701 123 701 369 C701 615 586 748 374 748 L374 748 Z M375 667 C518 667 593 564 593 369 C593 165 521 68 371 68 C228 68 152 170 152 365 C152 565 227 667 375 667 L375 667 Z M229 772 L312 772 L342 820 C357 843 360 849 372 873 C384 849 388 843 402 820 L432 772 L518 772 L421 923 L325 923 L229 772 Z " />
<glyph glyph-name="Otilde" unicode="&#xd5;" horiz-adv-x="747" d="M374 748 C162 748 45 610 45 362 C45 120 163 -13 376 -13 C585 -13 701 123 701 369 C701 615 586 748 374 748 L374 748 Z M375 667 C518 667 593 564 593 369 C593 165 521 68 371 68 C228 68 152 170 152 365 C152 565 227 667 375 667 L375 667 Z M261 790 C269 821 281 832 310 832 C325 832 335 829 360 816 C401 796 423 789 441 789 C496 789 530 831 534 905 L486 905 C479 876 467 864 445 864 C428 864 407 871 369 889 C341 903 330 906 311 906 C254 906 216 861 212 790 L261 790 Z " />
<glyph glyph-name="Odieresis" unicode="&#xd6;" horiz-adv-x="747" d="M374 748 C162 748 45 610 45 362 C45 120 163 -13 376 -13 C585 -13 701 123 701 369 C701 615 586 748 374 748 L374 748 Z M375 667 C518 667 593 564 593 369 C593 165 521 68 371 68 C228 68 152 170 152 365 C152 565 227 667 375 667 L375 667 Z M224 793 L326 793 L326 902 L224 902 L224 793 Z M421 793 L523 793 L523 902 L421 902 L421 793 Z " />
<glyph glyph-name="multiply" unicode="&#xd7;" horiz-adv-x="550" d="M119 578 L65 523 L205 384 C213 375 216 374 225 368 C216 363 213 361 205 353 L65 213 L119 158 L275 314 L430 158 L485 213 L345 353 C336 361 334 363 324 368 C334 374 336 375 345 384 L485 523 L430 578 L275 423 L119 578 Z " />
<glyph glyph-name="Oslash" unicode="&#xd8;" horiz-adv-x="747" d="M61 22 L102 -14 L161 58 C222 7 283 -13 375 -13 C589 -13 703 119 703 366 C703 484 683 561 630 640 L692 716 L650 749 L593 679 C533 726 466 747 378 747 C166 747 48 610 48 365 C48 253 72 168 123 98 L61 22 Z M262 269 C226 225 220 217 192 176 C164 235 155 281 155 367 C155 562 230 664 375 664 C441 664 492 644 532 603 L262 269 Z M489 465 C526 511 532 519 561 561 C586 506 595 453 595 364 C595 167 522 69 375 69 C309 69 263 88 221 133 L489 465 Z " />
<glyph glyph-name="Ugrave" unicode="&#xd9;" horiz-adv-x="739" d="M663 736 L563 736 L563 312 C563 243 556 198 539 165 C513 114 447 82 369 82 C303 82 242 108 212 149 C187 182 177 229 177 312 L177 736 L77 736 L77 292 C77 182 95 124 146 74 C205 17 275 -10 370 -10 C465 -10 539 17 594 74 C644 125 663 185 663 293 L663 736 Z M237 924 L367 771 L436 771 L355 924 L237 924 Z " />
<glyph glyph-name="Uacute" unicode="&#xda;" horiz-adv-x="739" d="M663 736 L563 736 L563 312 C563 243 556 198 539 165 C513 114 447 82 369 82 C303 82 242 108 212 149 C187 182 177 229 177 312 L177 736 L77 736 L77 292 C77 182 95 124 146 74 C205 17 275 -10 370 -10 C465 -10 539 17 594 74 C644 125 663 185 663 293 L663 736 Z M303 771 L372 771 L502 924 L385 924 L303 771 Z " />
<glyph glyph-name="Ucircumflex" unicode="&#xdb;" horiz-adv-x="739" d="M663 736 L563 736 L563 312 C563 243 556 198 539 165 C513 114 447 82 369 82 C303 82 242 108 212 149 C187 182 177 229 177 312 L177 736 L77 736 L77 292 C77 182 95 124 146 74 C205 17 275 -10 370 -10 C465 -10 539 17 594 74 C644 125 663 185 663 293 L663 736 Z M226 772 L309 772 L339 820 C354 843 357 849 369 873 C381 849 385 843 399 820 L429 772 L515 772 L418 923 L322 923 L226 772 Z " />
<glyph glyph-name="Udieresis" unicode="&#xdc;" horiz-adv-x="739" d="M663 736 L563 736 L563 312 C563 243 556 198 539 165 C513 114 447 82 369 82 C303 82 242 108 212 149 C187 182 177 229 177 312 L177 736 L77 736 L77 292 C77 182 95 124 146 74 C205 17 275 -10 370 -10 C465 -10 539 17 594 74 C644 125 663 185 663 293 L663 736 Z M221 793 L323 793 L323 902 L221 902 L221 793 Z M418 793 L520 793 L520 902 L418 902 L418 793 Z " />
<glyph glyph-name="Yacute" unicode="&#xdd;" horiz-adv-x="683" d="M122 736 L7 736 L292 291 L292 0 L392 0 L392 291 L673 736 L560 736 L403 473 C379 432 370 417 346 372 C321 416 314 428 287 472 L122 736 Z M274 771 L343 771 L473 924 L356 924 L274 771 Z " />
<glyph glyph-name="Thorn" unicode="&#xde;" horiz-adv-x="611" d="M101 736 L101 0 L181 0 L181 158 C181 166 180 172 177 184 C188 180 192 180 203 180 L312 180 C383 180 431 190 466 212 C524 248 557 312 557 387 C557 471 525 537 467 572 C432 594 391 602 321 602 L203 602 C191 602 188 602 177 598 C180 610 181 616 181 624 L181 736 L101 736 Z M318 541 C426 541 476 492 476 387 C476 288 420 240 302 240 L203 240 C191 240 188 240 176 236 C180 247 180 250 180 262 L180 519 C180 531 180 534 176 545 C188 542 191 541 203 541 L318 541 Z " />
<glyph glyph-name="germandbls" unicode="&#xdf;" horiz-adv-x="624" d="M74 0 L169 0 L169 531 C169 638 206 684 292 684 C366 684 406 651 406 589 C406 567 392 546 355 515 C300 467 284 443 284 407 C284 368 308 326 343 304 L435 246 C475 220 494 191 494 155 C494 101 459 65 406 65 C353 65 325 93 322 148 L228 148 C231 43 287 -8 400 -8 C514 -8 589 60 589 165 C589 236 558 275 450 344 C403 373 386 391 386 413 C386 437 400 454 452 496 C493 528 506 552 506 593 C506 692 431 752 306 752 C141 752 74 690 74 537 L74 0 Z " />
<glyph glyph-name="agrave" unicode="&#xe0;" horiz-adv-x="534" d="M376 73 L376 57 L376 28 L377 0 L468 0 C461 64 460 89 460 142 L460 330 C460 385 454 426 443 448 C416 501 357 528 266 528 C137 528 74 477 69 371 L164 371 C168 428 204 458 268 458 C340 458 365 427 365 340 L365 330 C365 323 366 321 369 315 C358 319 355 319 343 319 L291 319 C138 319 44 249 44 136 C44 43 111 -17 214 -17 C286 -17 342 15 371 74 L376 73 Z M365 227 C365 185 360 147 351 126 C333 87 288 60 239 60 C180 60 140 94 140 144 C140 219 198 250 337 250 L351 250 C359 250 361 251 369 254 C366 248 365 245 365 239 L365 227 Z M135 758 L265 605 L334 605 L253 758 L135 758 Z " />
<glyph glyph-name="aacute" unicode="&#xe1;" horiz-adv-x="534" d="M376 73 L376 57 L376 28 L377 0 L468 0 C461 64 460 89 460 142 L460 330 C460 385 454 426 443 448 C416 501 357 528 266 528 C137 528 74 477 69 371 L164 371 C168 428 204 458 268 458 C340 458 365 427 365 340 L365 330 C365 323 366 321 369 315 C358 319 355 319 343 319 L291 319 C138 319 44 249 44 136 C44 43 111 -17 214 -17 C286 -17 342 15 371 74 L376 73 Z M365 227 C365 185 360 147 351 126 C333 87 288 60 239 60 C180 60 140 94 140 144 C140 219 198 250 337 250 L351 250 C359 250 361 251 369 254 C366 248 365 245 365 239 L365 227 Z M201 605 L270 605 L400 758 L283 758 L201 605 Z " />
<glyph glyph-name="acircumflex" unicode="&#xe2;" horiz-adv-x="534" d="M376 73 L376 57 L376 28 L377 0 L468 0 C461 64 460 89 460 142 L460 330 C460 385 454 426 443 448 C416 501 357 528 266 528 C137 528 74 477 69 371 L164 371 C168 428 204 458 268 458 C340 458 365 427 365 340 L365 330 C365 323 366 321 369 315 C358 319 355 319 343 319 L291 319 C138 319 44 249 44 136 C44 43 111 -17 214 -17 C286 -17 342 15 371 74 L376 73 Z M365 227 C365 185 360 147 351 126 C333 87 288 60 239 60 C180 60 140 94 140 144 C140 219 198 250 337 250 L351 250 C359 250 361 251 369 254 C366 248 365 245 365 239 L365 227 Z M124 606 L207 606 L237 654 C252 677 255 683 267 707 C279 683 283 677 297 654 L327 606 L413 606 L316 757 L220 757 L124 606 Z " />
<glyph glyph-name="atilde" unicode="&#xe3;" horiz-adv-x="534" d="M376 73 L376 57 L376 28 L377 0 L468 0 C461 64 460 89 460 142 L460 330 C460 385 454 426 443 448 C416 501 357 528 266 528 C137 528 74 477 69 371 L164 371 C168 428 204 458 268 458 C340 458 365 427 365 340 L365 330 C365 323 366 321 369 315 C358 319 355 319 343 319 L291 319 C138 319 44 249 44 136 C44 43 111 -17 214 -17 C286 -17 342 15 371 74 L376 73 Z M365 227 C365 185 360 147 351 126 C333 87 288 60 239 60 C180 60 140 94 140 144 C140 219 198 250 337 250 L351 250 C359 250 361 251 369 254 C366 248 365 245 365 239 L365 227 Z M156 624 C164 655 176 666 205 666 C220 666 230 663 255 650 C296 630 318 623 336 623 C391 623 425 665 429 739 L381 739 C374 710 362 698 340 698 C323 698 302 705 264 723 C236 737 225 740 206 740 C149 740 111 695 107 624 L156 624 Z " />
<glyph glyph-name="adieresis" unicode="&#xe4;" horiz-adv-x="534" d="M376 73 L376 57 L376 28 L377 0 L468 0 C461 64 460 89 460 142 L460 330 C460 385 454 426 443 448 C416 501 357 528 266 528 C137 528 74 477 69 371 L164 371 C168 428 204 458 268 458 C340 458 365 427 365 340 L365 330 C365 323 366 321 369 315 C358 319 355 319 343 319 L291 319 C138 319 44 249 44 136 C44 43 111 -17 214 -17 C286 -17 342 15 371 74 L376 73 Z M365 227 C365 185 360 147 351 126 C333 87 288 60 239 60 C180 60 140 94 140 144 C140 219 198 250 337 250 L351 250 C359 250 361 251 369 254 C366 248 365 245 365 239 L365 227 Z M119 627 L221 627 L221 736 L119 736 L119 627 Z M316 627 L418 627 L418 736 L316 736 L316 627 Z " />
<glyph glyph-name="aring" unicode="&#xe5;" horiz-adv-x="534" d="M376 73 L376 57 L376 28 L377 0 L468 0 C461 64 460 89 460 142 L460 330 C460 385 454 426 443 448 C416 501 357 528 266 528 C137 528 74 477 69 371 L164 371 C168 428 204 458 268 458 C340 458 365 427 365 340 L365 330 C365 323 366 321 369 315 C358 319 355 319 343 319 L291 319 C138 319 44 249 44 136 C44 43 111 -17 214 -17 C286 -17 342 15 371 74 L376 73 Z M365 227 C365 185 360 147 351 126 C333 87 288 60 239 60 C180 60 140 94 140 144 C140 219 198 250 337 250 L351 250 C359 250 361 251 369 254 C366 248 365 245 365 239 L365 227 Z M270 774 C212 774 170 732 170 674 C170 618 211 578 267 578 C326 578 366 618 366 676 C366 733 326 774 270 774 L270 774 Z M268 725 C296 725 315 706 315 677 C315 647 296 628 268 628 C240 628 221 648 221 677 C221 706 240 725 268 725 L268 725 Z " />
<glyph glyph-name="ae" unicode="&#xe6;" horiz-adv-x="864" d="M714 164 C706 100 662 62 593 62 C500 62 461 114 456 246 C466 241 468 241 480 241 L818 241 L818 269 C818 440 742 527 593 527 C522 527 475 508 429 460 C398 506 346 528 270 528 C133 528 69 479 64 371 L159 371 C163 428 200 458 265 458 C342 458 363 429 363 326 L363 318 C363 313 364 311 367 306 C356 310 352 310 341 310 L289 310 C134 310 37 241 37 132 C37 43 107 -17 211 -17 C291 -17 342 9 402 82 C460 13 508 -11 590 -11 C719 -11 803 56 808 164 L714 164 Z M363 241 L363 228 C363 175 356 136 343 116 C321 81 280 60 235 60 C176 60 133 93 133 139 C133 175 159 209 198 225 C228 236 267 241 332 241 L363 241 Z M492 310 C475 310 471 309 456 305 C464 403 511 454 592 454 C674 454 717 404 721 305 C710 309 707 310 694 310 L492 310 Z " />
<glyph glyph-name="ccedilla" unicode="&#xe7;" horiz-adv-x="499" d="M183 -77 L193 -100 C216 -97 223 -96 234 -96 C262 -96 282 -111 282 -132 C282 -155 260 -171 230 -171 C208 -171 188 -167 157 -155 L139 -197 C183 -212 212 -218 246 -218 C310 -218 359 -179 359 -126 C359 -84 326 -52 280 -52 C269 -52 261 -53 244 -58 L243 -55 C255 -43 258 -39 267 -24 L274 -13 C396 -10 468 56 473 171 L379 171 C374 100 337 62 272 62 C186 62 140 128 140 253 C140 382 185 452 268 452 C329 452 369 412 373 348 L468 348 C463 460 389 527 269 527 C187 527 134 502 94 445 C61 398 41 325 41 252 C41 99 107 7 229 -11 L183 -77 Z " />
<glyph glyph-name="egrave" unicode="&#xe8;" horiz-adv-x="550" d="M399 164 C391 99 349 63 282 63 C190 63 149 118 145 246 C154 242 157 241 168 241 L504 241 L504 269 C504 439 429 527 284 527 C133 527 47 428 47 252 C47 83 130 -11 281 -11 C406 -11 488 57 494 164 L399 164 Z M182 310 C164 310 161 309 146 305 C154 403 200 454 282 454 C364 454 407 405 410 305 C399 309 396 310 383 310 L182 310 Z M142 758 L272 605 L341 605 L260 758 L142 758 Z " />
<glyph glyph-name="eacute" unicode="&#xe9;" horiz-adv-x="550" d="M399 164 C391 99 349 63 282 63 C190 63 149 118 145 246 C154 242 157 241 168 241 L504 241 L504 269 C504 439 429 527 284 527 C133 527 47 428 47 252 C47 83 130 -11 281 -11 C406 -11 488 57 494 164 L399 164 Z M182 310 C164 310 161 309 146 305 C154 403 200 454 282 454 C364 454 407 405 410 305 C399 309 396 310 383 310 L182 310 Z M208 605 L277 605 L407 758 L290 758 L208 605 Z " />
<glyph glyph-name="ecircumflex" unicode="&#xea;" horiz-adv-x="550" d="M399 164 C391 99 349 63 282 63 C190 63 149 118 145 246 C154 242 157 241 168 241 L504 241 L504 269 C504 439 429 527 284 527 C133 527 47 428 47 252 C47 83 130 -11 281 -11 C406 -11 488 57 494 164 L399 164 Z M182 310 C164 310 161 309 146 305 C154 403 200 454 282 454 C364 454 407 405 410 305 C399 309 396 310 383 310 L182 310 Z M131 606 L214 606 L244 654 C259 677 262 683 274 707 C286 683 290 677 304 654 L334 606 L420 606 L323 757 L227 757 L131 606 Z " />
<glyph glyph-name="edieresis" unicode="&#xeb;" horiz-adv-x="550" d="M399 164 C391 99 349 63 282 63 C190 63 149 118 145 246 C154 242 157 241 168 241 L504 241 L504 269 C504 439 429 527 284 527 C133 527 47 428 47 252 C47 83 130 -11 281 -11 C406 -11 488 57 494 164 L399 164 Z M182 310 C164 310 161 309 146 305 C154 403 200 454 282 454 C364 454 407 405 410 305 C399 309 396 310 383 310 L182 310 Z M126 627 L228 627 L228 736 L126 736 L126 627 Z M323 627 L425 627 L425 736 L323 736 L323 627 Z " />
<glyph glyph-name="igrave" unicode="&#xec;" horiz-adv-x="248" d="M77 0 L172 0 L172 514 L77 514 L77 0 Z M-9 758 L121 605 L190 605 L109 758 L-9 758 Z " />
<glyph glyph-name="iacute" unicode="&#xed;" horiz-adv-x="248" d="M77 0 L172 0 L172 514 L77 514 L77 0 Z M57 605 L126 605 L256 758 L139 758 L57 605 Z " />
<glyph glyph-name="icircumflex" unicode="&#xee;" horiz-adv-x="248" d="M77 0 L172 0 L172 514 L77 514 L77 0 Z M-20 606 L63 606 L93 654 C108 677 111 683 123 707 C135 683 139 677 153 654 L183 606 L269 606 L172 757 L76 757 L-20 606 Z " />
<glyph glyph-name="idieresis" unicode="&#xef;" horiz-adv-x="248" d="M77 0 L172 0 L172 514 L77 514 L77 0 Z M-25 627 L77 627 L77 736 L-25 736 L-25 627 Z M172 627 L274 627 L274 736 L172 736 L172 627 Z " />
<glyph glyph-name="eth" unicode="&#xf0;" horiz-adv-x="591" d="M302 666 C327 677 332 680 359 696 L411 727 L390 757 L266 683 C257 686 249 690 217 701 C178 715 170 716 120 727 L96 685 C148 672 174 664 215 646 C189 635 183 632 156 616 L102 583 L123 552 L253 631 C289 614 345 572 365 545 L393 508 C393 508 395 505 398 502 L394 498 C366 526 339 536 291 536 C162 536 87 437 87 266 C87 84 160 -13 297 -13 C432 -13 504 86 504 270 C504 453 433 592 302 664 L302 666 Z M297 488 C386 488 429 416 429 265 C429 118 384 41 298 41 C206 41 163 115 163 273 C163 414 209 488 297 488 L297 488 Z " />
<glyph glyph-name="ntilde" unicode="&#xf1;" horiz-adv-x="583" d="M74 514 C77 467 78 446 78 385 L78 0 L172 0 L172 295 C172 390 223 447 308 447 C378 447 418 401 418 320 L418 0 L513 0 L513 322 C513 455 449 524 325 524 C249 524 209 501 171 434 L167 435 L167 470 L167 514 L74 514 Z M180 624 C188 655 200 666 229 666 C244 666 254 663 279 650 C320 630 342 623 360 623 C415 623 449 665 453 739 L405 739 C398 710 386 698 364 698 C347 698 326 705 288 723 C260 737 249 740 230 740 C173 740 135 695 131 624 L180 624 Z " />
<glyph glyph-name="ograve" unicode="&#xf2;" horiz-adv-x="591" d="M295 527 C141 527 46 424 46 256 C46 87 136 -14 286 -14 C448 -14 544 87 544 257 C544 426 451 527 295 527 L295 527 Z M302 454 C392 454 445 383 445 263 C445 132 391 60 292 60 C196 60 145 129 145 257 C145 386 199 454 302 454 L302 454 Z M162 758 L292 605 L361 605 L280 758 L162 758 Z " />
<glyph glyph-name="oacute" unicode="&#xf3;" horiz-adv-x="591" d="M295 527 C141 527 46 424 46 256 C46 87 136 -14 286 -14 C448 -14 544 87 544 257 C544 426 451 527 295 527 L295 527 Z M302 454 C392 454 445 383 445 263 C445 132 391 60 292 60 C196 60 145 129 145 257 C145 386 199 454 302 454 L302 454 Z M228 605 L297 605 L427 758 L310 758 L228 605 Z " />
<glyph glyph-name="ocircumflex" unicode="&#xf4;" horiz-adv-x="591" d="M295 527 C141 527 46 424 46 256 C46 87 136 -14 286 -14 C448 -14 544 87 544 257 C544 426 451 527 295 527 L295 527 Z M302 454 C392 454 445 383 445 263 C445 132 391 60 292 60 C196 60 145 129 145 257 C145 386 199 454 302 454 L302 454 Z M151 606 L234 606 L264 654 C279 677 282 683 294 707 C306 683 310 677 324 654 L354 606 L440 606 L343 757 L247 757 L151 606 Z " />
<glyph glyph-name="otilde" unicode="&#xf5;" horiz-adv-x="591" d="M295 527 C141 527 46 424 46 256 C46 87 136 -14 286 -14 C448 -14 544 87 544 257 C544 426 451 527 295 527 L295 527 Z M302 454 C392 454 445 383 445 263 C445 132 391 60 292 60 C196 60 145 129 145 257 C145 386 199 454 302 454 L302 454 Z M183 624 C191 655 203 666 232 666 C247 666 257 663 282 650 C323 630 345 623 363 623 C418 623 452 665 456 739 L408 739 C401 710 389 698 367 698 C350 698 329 705 291 723 C263 737 252 740 233 740 C176 740 138 695 134 624 L183 624 Z " />
<glyph glyph-name="odieresis" unicode="&#xf6;" horiz-adv-x="591" d="M295 527 C141 527 46 424 46 256 C46 87 136 -14 286 -14 C448 -14 544 87 544 257 C544 426 451 527 295 527 L295 527 Z M302 454 C392 454 445 383 445 263 C445 132 391 60 292 60 C196 60 145 129 145 257 C145 386 199 454 302 454 L302 454 Z M146 627 L248 627 L248 736 L146 736 L146 627 Z M343 627 L445 627 L445 736 L343 736 L343 627 Z " />
<glyph glyph-name="divide" unicode="&#xf7;" horiz-adv-x="550" d="M275 597 C248 597 225 574 225 547 C225 519 248 496 276 496 C303 496 326 519 326 547 C326 574 303 597 275 597 L275 597 Z M275 241 C248 241 225 218 225 191 C225 163 248 140 276 140 C303 140 326 163 326 191 C326 218 303 241 275 241 L275 241 Z M52 405 L52 331 L499 331 L499 405 L52 405 Z " />
<glyph glyph-name="oslash" unicode="&#xf8;" horiz-adv-x="591" d="M503 551 L447 481 C404 511 353 527 297 527 C146 527 47 421 47 259 C47 181 68 116 112 61 L54 -12 L89 -38 L144 31 C184 1 231 -14 289 -14 C447 -14 545 89 545 256 C545 332 522 400 479 451 L537 524 L503 551 Z M343 280 C381 328 387 336 416 380 C437 332 445 299 445 254 C445 131 390 60 294 60 C253 60 224 71 198 98 L343 280 Z M245 228 C210 183 203 174 174 132 C154 177 147 209 147 258 C147 378 204 453 295 453 C335 453 367 440 393 414 L245 228 Z " />
<glyph glyph-name="ugrave" unicode="&#xf9;" horiz-adv-x="588" d="M514 0 C510 27 509 51 509 104 L509 514 L414 514 L414 219 C414 120 368 67 284 67 C211 67 169 113 169 194 L169 514 L74 514 L74 192 C74 61 140 -10 260 -10 C332 -10 376 15 416 80 L420 79 L421 44 L421 0 L514 0 Z M161 758 L291 605 L360 605 L279 758 L161 758 Z " />
<glyph glyph-name="uacute" unicode="&#xfa;" horiz-adv-x="588" d="M514 0 C510 27 509 51 509 104 L509 514 L414 514 L414 219 C414 120 368 67 284 67 C211 67 169 113 169 194 L169 514 L74 514 L74 192 C74 61 140 -10 260 -10 C332 -10 376 15 416 80 L420 79 L421 44 L421 0 L514 0 Z M227 605 L296 605 L426 758 L309 758 L227 605 Z " />
<glyph glyph-name="ucircumflex" unicode="&#xfb;" horiz-adv-x="588" d="M514 0 C510 27 509 51 509 104 L509 514 L414 514 L414 219 C414 120 368 67 284 67 C211 67 169 113 169 194 L169 514 L74 514 L74 192 C74 61 140 -10 260 -10 C332 -10 376 15 416 80 L420 79 L421 44 L421 0 L514 0 Z M150 606 L233 606 L263 654 C278 677 281 683 293 707 C305 683 309 677 323 654 L353 606 L439 606 L342 757 L246 757 L150 606 Z " />
<glyph glyph-name="udieresis" unicode="&#xfc;" horiz-adv-x="588" d="M514 0 C510 27 509 51 509 104 L509 514 L414 514 L414 219 C414 120 368 67 284 67 C211 67 169 113 169 194 L169 514 L74 514 L74 192 C74 61 140 -10 260 -10 C332 -10 376 15 416 80 L420 79 L421 44 L421 0 L514 0 Z M145 627 L247 627 L247 736 L145 736 L145 627 Z M342 627 L444 627 L444 736 L342 736 L342 627 Z " />
<glyph glyph-name="yacute" unicode="&#xfd;" horiz-adv-x="547" d="M12 514 L228 -2 L145 -197 L240 -197 L537 514 L437 514 L344 275 C311 190 304 171 279 92 L275 92 C249 171 242 191 209 275 L116 514 L12 514 Z M207 605 L276 605 L406 758 L289 758 L207 605 Z " />
<glyph glyph-name="thorn" unicode="&#xfe;" horiz-adv-x="604" d="M187 736 L112 736 L112 -183 L187 -183 L187 96 C214 22 261 -12 338 -12 C456 -12 520 86 520 269 C520 454 457 550 337 550 C265 550 212 511 187 441 L187 736 Z M315 492 C401 492 443 419 443 267 C443 119 400 45 315 45 C227 45 185 117 185 267 C185 419 227 492 315 492 L315 492 Z " />
<glyph glyph-name="ydieresis" unicode="&#xff;" horiz-adv-x="547" d="M12 514 L228 -2 L145 -197 L240 -197 L537 514 L437 514 L344 275 C311 190 304 171 279 92 L275 92 C249 171 242 191 209 275 L116 514 L12 514 Z M125 627 L227 627 L227 736 L125 736 L125 627 Z M322 627 L424 627 L424 736 L322 736 L322 627 Z " />
<glyph glyph-name="dotlessi" unicode="&#x131;" horiz-adv-x="248" d="M77 0 L172 0 L172 514 L77 514 L77 0 Z " />
<glyph glyph-name="Lslash" unicode="&#x141;" horiz-adv-x="547" d="M192 371 L329 426 L329 474 L261 446 C225 432 219 430 189 415 C192 455 192 464 192 510 L192 736 L92 736 L92 380 L16 350 L16 302 L54 317 C74 325 78 327 95 336 C92 296 92 287 92 241 L92 0 L524 0 L524 91 L214 91 C202 91 199 91 188 87 C192 98 192 101 192 113 L192 371 Z " />
<glyph glyph-name="lslash" unicode="&#x142;" horiz-adv-x="274" d="M184 373 L267 405 L267 453 L230 439 C211 432 202 428 181 417 C184 457 184 466 184 512 L184 736 L89 736 L89 383 L7 351 L7 304 L44 318 C63 325 71 329 92 340 C89 299 89 291 89 245 L89 0 L184 0 L184 373 Z " />
<glyph glyph-name="OE" unicode="&#x152;" horiz-adv-x="985" d="M927 334 L927 422 L628 422 C616 422 613 422 602 418 C606 429 606 432 606 444 L606 623 C606 635 606 638 602 649 C613 645 616 645 628 645 L939 645 L939 736 L491 736 C487 736 478 736 465 737 C452 738 437 738 422 738 C312 738 233 719 181 680 C93 614 48 510 48 372 C48 233 96 123 185 57 C240 16 312 -2 423 -2 C440 -2 452 -2 465 -1 C478 0 487 0 491 0 L938 0 L938 91 L628 91 C616 91 613 91 602 87 C606 98 606 101 606 113 L606 312 C606 324 606 327 602 338 C613 334 616 334 628 334 L927 334 Z M506 87 C476 86 447 85 425 85 C240 85 156 174 156 370 C156 565 237 653 416 653 C435 653 447 653 472 652 L506 650 L506 87 Z " />
<glyph glyph-name="oe" unicode="&#x153;" horiz-adv-x="913" d="M792 164 C784 99 741 62 675 62 C630 62 595 78 570 109 C550 136 542 167 538 246 C549 242 552 241 564 241 L897 241 L897 269 C897 439 822 527 677 527 C590 527 535 499 487 431 C439 496 375 527 291 527 C140 527 45 423 45 256 C45 92 141 -14 289 -14 C368 -14 438 19 486 81 C531 19 592 -11 675 -11 C799 -11 881 57 887 164 L792 164 Z M292 453 C384 453 440 379 440 256 C440 137 383 60 294 60 C198 60 145 130 145 257 C145 383 197 453 292 453 L292 453 Z M575 310 C557 310 554 309 538 305 C547 403 593 454 674 454 C757 454 799 405 803 305 C792 309 789 310 775 310 L575 310 Z " />
<glyph glyph-name="Scaron" unicode="&#x160;" horiz-adv-x="632" d="M38 220 C44 54 123 -14 312 -14 C477 -14 584 76 584 215 C584 334 520 384 308 432 C200 456 158 487 158 542 C158 617 220 665 315 665 C414 665 461 631 470 550 L572 550 C564 680 476 751 324 751 C167 751 52 659 52 534 C52 429 109 379 282 335 C453 291 480 272 480 199 C480 122 416 72 317 72 C200 72 147 117 142 220 L38 220 Z M172 923 L269 772 L365 772 L461 923 L378 923 L348 875 C332 849 329 845 318 822 C306 845 304 849 288 875 L258 923 L172 923 Z " />
<glyph glyph-name="scaron" unicode="&#x161;" horiz-adv-x="483" d="M33 156 C36 44 103 -12 232 -12 C365 -12 444 50 444 153 C444 193 431 225 405 247 C371 276 339 288 220 317 C161 331 142 347 142 382 C142 425 182 454 241 454 C302 454 331 428 335 373 L429 373 C428 474 364 527 245 527 C125 527 43 463 43 370 C43 284 94 244 247 212 C320 197 344 179 344 139 C344 96 300 64 242 64 C173 64 135 96 133 156 L33 156 Z M97 757 L194 606 L290 606 L386 757 L303 757 L273 709 C257 683 254 679 243 656 C231 679 229 683 213 709 L183 757 L97 757 Z " />
<glyph glyph-name="Ydieresis" unicode="&#x178;" horiz-adv-x="683" d="M122 736 L7 736 L292 291 L292 0 L392 0 L392 291 L673 736 L560 736 L403 473 C379 432 370 417 346 372 C321 416 314 428 287 472 L122 736 Z M192 793 L294 793 L294 902 L192 902 L192 793 Z M389 793 L491 793 L491 902 L389 902 L389 793 Z " />
<glyph glyph-name="Zcaron" unicode="&#x17d;" horiz-adv-x="624" d="M43 0 L580 0 L580 91 L303 91 C230 91 214 91 149 87 L147 89 C190 139 200 151 245 209 L572 636 L572 736 L58 736 L58 645 L311 645 C384 645 399 645 465 649 L466 647 C423 597 414 585 369 527 L43 102 L43 0 Z M168 923 L265 772 L361 772 L457 923 L374 923 L344 875 C328 849 325 845 314 822 C302 845 300 849 284 875 L254 923 L168 923 Z " />
<glyph glyph-name="zcaron" unicode="&#x17e;" horiz-adv-x="465" d="M45 0 L424 0 L424 69 L280 69 C209 69 195 69 132 65 L130 67 C175 118 185 129 231 188 L411 417 L411 514 L58 514 L58 445 L189 445 C253 445 267 445 324 449 L326 446 C281 396 271 384 225 326 L45 97 L45 0 Z M89 757 L186 606 L282 606 L378 757 L295 757 L265 709 C249 683 246 679 235 656 C223 679 221 683 205 709 L175 757 L89 757 Z " />
<glyph glyph-name="florin" unicode="&#x192;" horiz-adv-x="399" d="M236 434 L346 434 L356 492 L294 492 C269 492 264 492 242 489 C247 503 248 506 251 523 L257 553 C270 628 270 627 278 646 C290 671 313 684 349 684 C359 684 369 683 388 679 L399 741 C368 747 356 748 330 748 C284 748 248 735 221 708 C193 680 182 651 168 571 L154 492 L51 492 L41 434 L96 434 C121 434 126 434 148 437 C141 416 140 411 136 387 L117 283 L91 133 L71 21 C49 -104 16 -151 -52 -151 C-66 -151 -77 -149 -108 -143 L-119 -208 C-86 -215 -70 -217 -45 -217 C32 -217 87 -186 117 -126 C145 -72 151 -48 185 148 L236 434 Z " />
<glyph glyph-name="circumflex" unicode="&#x2c6;" d="M-144 606 L-61 606 L-31 654 C-16 677 -13 683 -1 707 C11 683 15 677 29 654 L59 606 L145 606 L48 757 L-48 757 L-144 606 Z " />
<glyph glyph-name="caron" unicode="&#x2c7;" d="M-144 757 L-47 606 L49 606 L145 757 L62 757 L32 709 C16 683 13 679 2 656 C-10 679 -12 683 -28 709 L-58 757 L-144 757 Z " />
<glyph glyph-name="breve" unicode="&#x2d8;" d="M-142 746 C-138 665 -86 617 -2 617 C84 617 138 666 142 746 L79 746 C67 702 42 683 -1 683 C-43 683 -67 702 -79 746 L-142 746 Z " />
<glyph glyph-name="dotaccent" unicode="&#x2d9;" d="M-56 626 L57 626 L57 736 L-56 736 L-56 626 Z " />
<glyph glyph-name="ring" unicode="&#x2da;" d="M2 774 C-56 774 -98 732 -98 674 C-98 618 -57 578 -1 578 C58 578 98 618 98 676 C98 733 58 774 2 774 L2 774 Z M0 725 C28 725 47 706 47 677 C47 647 28 628 0 628 C-28 628 -47 648 -47 677 C-47 706 -28 725 0 725 L0 725 Z " />
<glyph glyph-name="ogonek" unicode="&#x2db;" d="M-3 3 C-69 -31 -89 -54 -89 -95 C-89 -155 -43 -190 37 -190 C52 -190 63 -189 88 -186 L88 -123 C76 -126 71 -127 59 -127 C16 -127 -7 -109 -7 -74 C-7 -49 9 -29 55 3 L-3 3 Z " />
<glyph glyph-name="tilde" unicode="&#x2dc;" d="M-112 624 C-104 655 -92 666 -63 666 C-48 666 -38 663 -13 650 C28 630 50 623 68 623 C123 623 157 665 161 739 L113 739 C106 710 94 698 72 698 C55 698 34 705 -4 723 C-32 737 -43 740 -62 740 C-119 740 -157 695 -161 624 L-112 624 Z " />
<glyph glyph-name="hungarumlaut" unicode="&#x2dd;" d="M-149 605 L-80 605 L50 758 L-67 758 L-149 605 Z M28 605 L97 605 L228 758 L110 758 L28 605 Z " />
<glyph glyph-name="endash" unicode="&#x2013;" horiz-adv-x="639" d="M45 238 L590 238 L590 312 L45 312 L45 238 Z " />
<glyph glyph-name="emdash" unicode="&#x2014;" horiz-adv-x="923" d="M45 238 L874 238 L874 312 L45 312 L45 238 Z " />
<glyph glyph-name="quoteleft" unicode="&#x2018;" horiz-adv-x="286" d="M50 489 L169 489 L235 736 L164 736 L50 489 Z " />
<glyph glyph-name="quoteright" unicode="&#x2019;" horiz-adv-x="281" d="M49 489 L121 489 L234 736 L116 736 L49 489 Z " />
<glyph glyph-name="quotesinglbase" unicode="&#x201a;" horiz-adv-x="258" d="M29 -125 L101 -125 L208 123 L96 123 L29 -125 Z " />
<glyph glyph-name="quotedblleft" unicode="&#x201c;" horiz-adv-x="465" d="M47 489 L165 489 L231 736 L160 736 L47 489 Z M233 489 L351 489 L417 736 L346 736 L233 489 Z " />
<glyph glyph-name="quotedblright" unicode="&#x201d;" horiz-adv-x="463" d="M46 489 L118 489 L230 736 L111 736 L46 489 Z M232 489 L304 489 L418 736 L299 736 L232 489 Z " />
<glyph glyph-name="quotedblbase" unicode="&#x201e;" horiz-adv-x="440" d="M31 -125 L103 -125 L218 123 L99 123 L31 -125 Z M217 -125 L289 -125 L400 123 L281 123 L217 -125 Z " />
<glyph glyph-name="dagger" unicode="&#x2020;" horiz-adv-x="506" d="M41 488 L188 488 C200 488 203 488 214 492 C210 481 210 478 210 466 L210 0 L292 0 L292 466 C292 478 292 481 288 492 C299 488 302 488 314 488 L460 488 L460 565 L314 565 C302 565 299 565 288 561 C292 572 292 575 292 587 L292 736 L210 736 L210 587 C210 575 210 572 214 561 C203 565 200 565 188 565 L41 565 L41 488 Z " />
<glyph glyph-name="daggerdbl" unicode="&#x2021;" horiz-adv-x="506" d="M41 488 L188 488 C200 488 203 488 214 492 C210 481 210 478 210 466 L210 270 C210 258 210 255 214 244 C203 248 200 248 188 248 L41 248 L41 171 L188 171 C200 171 203 171 214 175 C210 164 210 161 210 149 L210 0 L292 0 L292 149 C292 161 292 164 288 175 C299 171 302 171 314 171 L460 171 L460 248 L314 248 C302 248 299 248 288 244 C292 255 292 258 292 270 L292 466 C292 478 292 481 288 492 C299 488 302 488 314 488 L460 488 L460 565 L314 565 C302 565 299 565 288 561 C292 572 292 575 292 587 L292 736 L210 736 L210 587 C210 575 210 572 214 561 C203 565 200 565 188 565 L41 565 L41 488 Z " />
<glyph glyph-name="bullet" unicode="&#x2022;" horiz-adv-x="550" d="M275 549 C175 549 94 468 94 368 C94 269 176 187 275 187 C374 187 456 269 456 368 C456 468 375 549 275 549 L275 549 Z " />
<glyph glyph-name="ellipsis" unicode="&#x2026;" horiz-adv-x="621" d="M49 0 L159 0 L159 115 L49 115 L49 0 Z M256 0 L366 0 L366 115 L256 115 L256 0 Z M463 0 L573 0 L573 115 L463 115 L463 0 Z " />
<glyph glyph-name="perthousand" unicode="&#x2030;" horiz-adv-x="1964" d="M130 -20 L199 -20 L654 744 L585 744 L130 -20 Z M594 354 C494 354 430 284 430 174 C430 60 493 -10 595 -10 C691 -10 755 62 755 170 C755 284 694 354 594 354 L594 354 Z M593 292 C645 292 676 247 676 171 C676 93 646 50 592 50 C540 50 509 95 509 171 C509 247 541 292 593 292 L593 292 Z M197 732 C97 732 33 662 33 552 C33 438 96 368 198 368 C294 368 358 440 358 548 C358 662 297 732 197 732 L197 732 Z M196 670 C248 670 279 625 279 549 C279 471 249 428 195 428 C144 428 113 473 113 549 C113 625 144 670 196 670 L196 670 Z M920 -20 L989 -20 L1445 744 L1376 744 L920 -20 Z M1384 354 C1284 354 1220 284 1220 174 C1220 60 1283 -10 1385 -10 C1481 -10 1545 62 1545 170 C1545 284 1484 354 1384 354 L1384 354 Z M1383 292 C1435 292 1466 247 1466 171 C1466 93 1436 50 1382 50 C1330 50 1299 95 1299 171 C1299 247 1331 292 1383 292 L1383 292 Z M987 732 C887 732 823 662 823 552 C823 438 886 368 988 368 C1084 368 1148 440 1148 548 C1148 662 1087 732 987 732 L987 732 Z M986 670 C1038 670 1069 625 1069 549 C1069 471 1039 428 985 428 C934 428 903 473 903 549 C903 625 934 670 986 670 L986 670 Z M1774 292 C1825 292 1856 247 1856 171 C1856 94 1826 51 1773 51 C1721 51 1690 96 1690 172 C1690 247 1721 292 1774 292 L1774 292 Z M1774 354 C1674 354 1610 284 1610 174 C1610 60 1673 -10 1775 -10 C1871 -10 1935 62 1935 170 C1935 284 1873 354 1774 354 L1774 354 Z " />
<glyph glyph-name="guilsinglleft" unicode="&#x2039;" horiz-adv-x="284" d="M47 263 L154 65 L236 65 L144 263 L236 464 L154 464 L47 263 Z " />
<glyph glyph-name="guilsinglright" unicode="&#x203a;" horiz-adv-x="284" d="M47 65 L129 65 L236 263 L129 464 L47 464 L139 263 L47 65 Z " />
<glyph glyph-name="fraction" unicode="&#x2044;" horiz-adv-x="184" d="M271 711 L-152 0 L-87 0 L337 711 L271 711 Z " />
<glyph glyph-name="trademark" unicode="&#x2122;" horiz-adv-x="926" d="M21 678 L138 678 C150 678 153 678 164 682 C160 671 160 668 160 656 L160 317 L226 317 L226 656 C226 668 226 671 222 682 C233 678 236 678 248 678 L365 678 L365 736 L21 736 L21 678 Z M409 317 L470 317 L470 491 C470 580 469 604 463 690 L469 691 C493 604 501 581 534 491 L597 317 L662 317 L725 491 C757 579 765 604 789 691 L795 690 C789 604 788 580 788 491 L788 317 L849 317 L849 736 L752 736 L691 573 C661 492 656 474 633 399 L629 399 C607 474 601 493 571 573 L511 736 L409 736 L409 317 Z " />
<glyph glyph-name="minus" unicode="&#x2212;" horiz-adv-x="639" d="M45 238 L590 238 L590 312 L45 312 L45 238 Z " />
<glyph glyph-name="fi" unicode="&#xfb01;" horiz-adv-x="609" d="M527 514 L235 514 C223 514 220 514 209 510 C213 521 213 524 213 536 L213 572 C213 644 233 666 298 666 L301 666 L338 665 L338 741 C307 745 289 746 269 746 C166 746 118 699 118 597 L118 514 L21 514 L21 445 L96 445 C108 445 111 445 122 449 C118 438 118 435 118 423 L118 0 L213 0 L213 423 C213 435 213 438 209 449 C220 445 223 445 235 445 L432 445 L432 0 L527 0 L527 514 Z M423 626 L536 626 L536 736 L423 736 L423 626 Z " />
<glyph glyph-name="fl" unicode="&#xfb02;" horiz-adv-x="603" d="M118 0 L213 0 L213 423 C213 435 213 438 209 449 C220 445 223 445 235 445 L328 445 L328 514 L235 514 C223 514 220 514 209 510 C213 521 213 524 213 536 L213 572 C213 644 233 666 298 666 L301 666 L338 665 L338 741 C307 745 290 746 269 746 C166 746 118 699 118 597 L118 514 L21 514 L21 445 L96 445 C108 445 111 445 122 449 C118 438 118 435 118 423 L118 0 Z M432 736 L432 0 L527 0 L527 736 L432 736 Z " />
</font>
</svg>
