<?xml version="1.0" encoding="UTF-8"?>
<svg xmlns="http://www.w3.org/2000/svg" xmlns:xlink="http://www.w3.org/1999/xlink" version="1.2" >
<font id="Univers Bold Italic">
<font-face  font-family="Univers SB BolIta" units-per-em="1000" ascent="736.084" descent="-158.691" font-style="normal" font-weight="700" font-stretch="normal" slope="-16" cap-height="750" x-height="500" underline-position="-81.5" underline-thickness="81" />
<missing-glyph  horiz-adv-x="233" d="" />
<glyph glyph-name="NULL" d="" />
<glyph glyph-name="CR" unicode="&#xd;" horiz-adv-x="250" d="" />
<glyph glyph-name="space" unicode="&#x20;" horiz-adv-x="233" d="" />
<glyph glyph-name="exclam" unicode="&#x21;" horiz-adv-x="327" d="M-131 0 L39 0 L80 136 L-91 136 L-131 0 Z M-67 182 L74 182 L281 736 L63 736 L-67 182 Z " />
<glyph glyph-name="quotedbl" unicode="&#x22;" horiz-adv-x="445" d="M71 442 L174 736 L61 736 L-10 442 L71 442 Z M264 442 L366 736 L253 736 L183 442 L264 442 Z " />
<glyph glyph-name="numbersign" unicode="&#x23;" horiz-adv-x="716" d="M499 293 L436 293 C404 293 397 293 369 290 C387 323 390 331 408 369 L443 446 L567 446 L603 525 L541 525 C509 525 502 525 474 522 C495 562 499 570 520 616 L574 736 L485 736 L389 525 L312 525 C273 525 265 525 231 522 C251 562 256 570 276 616 L331 736 L243 736 L147 525 L21 525 L-15 446 L48 446 C80 446 87 446 115 449 C98 416 94 408 76 369 L42 293 L-84 293 L-120 214 L-57 214 C-25 214 -18 214 10 217 C-10 177 -14 169 -36 122 L-91 0 L-3 0 L94 214 L171 214 C210 214 218 214 253 217 C232 177 228 169 207 122 L152 0 L241 0 L338 214 L464 214 L499 293 Z M284 293 L207 293 C168 293 160 293 125 290 C143 323 147 331 165 369 L199 446 L276 446 C315 446 323 446 358 449 C340 416 336 408 319 369 L284 293 Z " />
<glyph glyph-name="dollar" unicode="&#x24;" horiz-adv-x="739" d="M85 -120 L166 -120 L187 -28 C403 -19 535 75 535 221 C535 311 486 361 306 451 C233 487 206 513 206 549 C206 593 242 618 305 618 C378 618 408 592 411 527 L609 527 C613 537 614 541 614 555 C614 668 551 726 401 751 C407 762 408 765 411 779 L429 854 L347 854 L327 761 C206 757 143 742 86 703 C23 660 -12 601 -12 537 C-12 460 37 394 130 346 L273 272 C311 252 328 230 328 201 C328 150 277 118 194 118 C116 118 77 145 77 199 C77 205 78 211 80 228 L-136 228 C-142 206 -144 194 -144 174 C-144 60 -50 -13 110 -25 C103 -43 102 -46 97 -68 L85 -120 Z " />
<glyph glyph-name="percent" unicode="&#x25;" horiz-adv-x="795" d="M-101 10 L29 10 L663 734 L535 734 L-101 10 Z M170 753 C46 753 -41 665 -41 540 C-41 463 12 422 111 422 C229 422 317 515 317 638 C317 714 268 753 170 753 L170 753 Z M165 687 C186 687 202 670 202 648 C202 613 178 540 156 509 C144 492 130 484 112 484 C89 484 76 499 76 526 C76 574 98 639 125 669 C135 680 150 687 165 687 L165 687 Z M454 324 C329 324 242 237 242 111 C242 34 295 -7 394 -7 C511 -7 599 86 599 208 C599 284 549 324 454 324 L454 324 Z M446 258 C468 258 484 242 484 219 C484 196 474 156 459 118 C452 102 445 86 440 80 C429 63 414 55 396 55 C371 55 360 68 360 98 C360 183 400 258 446 258 L446 258 Z " />
<glyph glyph-name="ampersand" unicode="&#x26;" horiz-adv-x="854" d="M444 0 L638 0 L534 138 C622 221 659 270 699 361 C718 403 728 439 733 475 L582 475 C548 364 513 299 450 239 C443 256 440 261 428 277 L384 335 C369 356 365 360 349 376 C446 422 482 445 522 487 C548 515 566 558 566 594 C566 689 476 750 337 750 C175 750 51 666 51 555 C51 508 78 458 129 408 C-47 343 -133 264 -133 164 C-133 52 -26 -25 130 -25 C222 -25 305 -3 405 49 L444 0 Z M317 162 C325 152 327 150 337 145 C279 102 221 81 159 81 C99 81 59 115 59 166 C59 221 90 250 206 304 L317 162 Z M279 476 C241 521 232 538 232 563 C232 612 267 645 318 645 C361 645 393 618 393 581 C393 540 366 515 279 476 L279 476 Z " />
<glyph glyph-name="quotesingle" unicode="&#x27;" horiz-adv-x="253" d="M71 442 L174 736 L61 736 L-10 442 L71 442 Z " />
<glyph glyph-name="parenleft" unicode="&#x28;" horiz-adv-x="286" d="M115 736 C-70 476 -127 312 -127 44 C-127 -24 -124 -72 -115 -156 L0 -156 L0 -114 C0 216 90 506 263 736 L115 736 Z " />
<glyph glyph-name="parenright" unicode="&#x29;" horiz-adv-x="297" d="M-108 -156 C79 106 134 260 134 522 C134 599 131 650 122 736 L8 736 C6 609 3 550 -6 473 C-23 325 -70 171 -141 25 C-178 -50 -200 -85 -256 -156 L-108 -156 Z " />
<glyph glyph-name="asterisk" unicode="&#x2a;" horiz-adv-x="478" d="M-33 533 L0 460 L61 486 C91 499 98 503 124 518 L127 516 C115 488 112 481 103 449 L85 386 L170 386 L189 449 C198 481 200 487 206 516 C227 497 231 493 257 473 L307 435 L361 502 L314 538 C292 555 286 559 262 573 L262 575 C294 586 302 589 336 604 L404 634 L374 709 L312 682 C283 670 274 665 247 649 L245 651 C257 677 259 684 269 714 L287 772 L200 772 L182 712 C173 682 171 675 166 647 C145 666 139 671 115 689 L67 726 L14 661 L58 626 C77 611 84 606 106 591 C73 579 60 574 34 562 L-33 533 Z " />
<glyph glyph-name="plus" unicode="&#x2b;" horiz-adv-x="680" d="M-63 422 L-63 314 L142 314 C154 314 157 314 168 318 C164 307 164 304 164 292 L164 82 L282 82 L282 292 C282 304 282 307 278 318 C289 314 292 314 304 314 L509 314 L509 422 L304 422 C292 422 289 422 278 418 C282 429 282 432 282 444 L282 654 L164 654 L164 444 C164 432 164 429 168 418 C157 422 154 422 142 422 L-63 422 Z " />
<glyph glyph-name="comma" unicode="&#x2c;" horiz-adv-x="304" d="M-229 -87 L-81 -87 L88 141 L-93 141 L-229 -87 Z " />
<glyph glyph-name="hyphen" unicode="&#x2d;" horiz-adv-x="348" d="M146 204 L187 342 L-91 342 L-131 204 L146 204 Z " />
<glyph glyph-name="period" unicode="&#x2e;" horiz-adv-x="284" d="M-149 0 L25 0 L66 141 L-108 141 L-149 0 Z " />
<glyph glyph-name="slash" unicode="&#x2f;" horiz-adv-x="412" d="M-218 0 L-89 0 L393 736 L265 736 L-218 0 Z " />
<glyph glyph-name="zero" unicode="0" horiz-adv-x="680" d="M310 745 C187 745 92 692 15 580 C-56 477 -99 341 -99 221 C-99 72 -5 -19 148 -19 C269 -19 381 51 451 172 C508 269 542 395 542 511 C542 666 463 745 310 745 L310 745 Z M286 608 C330 608 356 572 353 515 C348 418 308 281 259 197 C233 150 194 119 162 119 C120 119 94 152 94 206 C94 313 133 451 186 534 C215 581 253 608 286 608 L286 608 Z " />
<glyph glyph-name="one" unicode="1" horiz-adv-x="680" d="M34 458 C112 479 147 495 201 534 L204 531 C174 451 167 430 140 340 L39 0 L244 0 L453 736 L291 736 C225 675 186 651 72 598 L34 458 Z " />
<glyph glyph-name="two" unicode="2" horiz-adv-x="680" d="M-154 0 L413 0 L454 133 L295 133 C216 133 197 132 124 125 L123 130 C206 184 245 210 268 226 C339 274 387 310 418 341 C500 419 536 484 536 554 C536 676 432 751 264 751 C89 751 12 691 -21 532 L165 532 C180 594 208 621 260 621 C308 621 341 590 341 545 C341 447 224 343 -116 142 L-154 0 Z " />
<glyph glyph-name="three" unicode="3" horiz-adv-x="680" d="M341 369 C446 381 536 468 536 557 C536 670 435 745 283 745 C118 745 21 671 -3 529 L179 529 C195 590 225 615 279 615 C329 615 360 586 360 540 C360 476 299 435 203 435 C194 435 186 435 165 436 L129 310 L151 310 C234 310 279 278 279 218 C279 154 229 107 161 107 C103 107 67 137 67 186 C67 195 68 203 71 217 L-116 217 C-121 197 -123 187 -123 170 C-123 53 -21 -20 142 -20 C328 -20 465 77 465 209 C465 284 429 329 340 364 L341 369 Z " />
<glyph glyph-name="four" unicode="4" horiz-adv-x="680" d="M-171 136 L97 136 C131 136 139 136 171 139 C159 110 157 103 147 69 L128 0 L315 0 L356 136 L478 136 L517 269 L456 269 C425 269 418 269 390 266 C402 296 404 303 414 338 L530 729 L284 729 L-138 280 L-171 136 Z M206 269 L108 269 C58 269 47 268 2 264 L1 267 C56 319 68 331 126 393 L153 422 C227 500 242 517 304 592 L308 589 C281 518 274 498 252 422 L206 269 Z " />
<glyph glyph-name="five" unicode="5" horiz-adv-x="680" d="M139 424 C157 461 162 474 172 510 L194 586 L506 586 L547 729 L65 729 L-60 302 L125 302 C147 348 179 371 223 371 C271 371 298 338 298 278 C298 191 239 118 168 118 C122 118 95 146 95 194 C95 201 96 206 98 215 L-90 215 C-94 200 -95 192 -95 176 C-95 56 -2 -15 154 -15 C262 -15 336 13 402 79 C461 140 494 218 494 298 C494 419 416 502 302 502 C242 502 198 480 143 421 L139 424 Z " />
<glyph glyph-name="six" unicode="6" horiz-adv-x="680" d="M136 426 C189 587 235 637 330 637 C384 637 410 615 415 563 L581 563 C583 572 584 576 584 585 C584 689 500 747 348 747 C211 747 98 695 25 599 C-48 502 -100 341 -100 210 C-100 71 7 -20 172 -20 C277 -20 369 17 426 83 C475 140 507 218 507 284 C507 401 423 476 290 476 C230 476 185 460 139 423 L136 426 Z M229 360 C285 360 314 328 314 266 C314 175 253 102 175 102 C125 102 92 139 92 194 C92 285 154 360 229 360 L229 360 Z " />
<glyph glyph-name="seven" unicode="7" horiz-adv-x="680" d="M-44 0 L185 0 L524 579 L567 729 L30 729 L-11 588 L201 588 C266 588 279 588 336 592 L337 590 C304 543 296 532 261 478 L-44 0 Z " />
<glyph glyph-name="eight" unicode="8" horiz-adv-x="680" d="M363 383 C483 405 554 473 554 565 C554 671 443 746 286 746 C122 746 -4 656 -4 539 C-4 468 34 417 105 391 C27 379 -12 364 -55 328 C-103 290 -129 238 -129 183 C-129 63 -13 -20 156 -20 C343 -20 483 86 483 227 C483 307 457 340 363 383 L363 383 Z M189 321 C259 321 307 284 307 231 C307 163 249 112 172 112 C95 112 50 147 50 207 C50 272 110 321 189 321 L189 321 Z M282 618 C341 618 377 590 377 544 C377 488 329 446 266 446 C209 446 168 478 168 522 C168 579 214 618 282 618 L282 618 Z " />
<glyph glyph-name="nine" unicode="9" horiz-adv-x="680" d="M-132 169 C-132 103 -124 74 -101 47 C-63 4 7 -19 101 -19 C251 -19 353 30 425 138 C491 234 531 373 531 499 C531 653 431 746 264 746 C86 746 -41 630 -41 469 C-41 355 45 272 164 272 C228 272 281 295 323 340 L327 337 C284 177 218 102 119 102 C62 102 32 125 30 169 L-132 169 Z M265 624 C316 624 345 593 345 535 C345 457 291 393 225 393 C178 393 144 427 144 473 C144 555 199 624 265 624 L265 624 Z " />
<glyph glyph-name="colon" unicode="&#x3a;" horiz-adv-x="284" d="M-150 0 L24 0 L65 141 L-109 141 L-150 0 Z M-44 364 L130 364 L170 499 L-4 499 L-44 364 Z " />
<glyph glyph-name="semicolon" unicode="&#x3b;" horiz-adv-x="307" d="M-221 -87 L-75 -87 L94 141 L-78 141 L-221 -87 Z M175 499 L-5 499 L-45 364 L134 364 L175 499 Z " />
<glyph glyph-name="less" unicode="&#x3c;" horiz-adv-x="680" d="M414 681 L-45 421 L-45 314 L414 56 L414 179 L183 305 C127 336 114 342 61 367 L61 370 C114 394 127 401 183 431 L414 558 L414 681 Z " />
<glyph glyph-name="equal" unicode="&#x3d;" horiz-adv-x="680" d="M-50 527 L-50 419 L496 419 L496 527 L-50 527 Z M-50 318 L-50 210 L496 210 L496 318 L-50 318 Z " />
<glyph glyph-name="greater" unicode="&#x3e;" horiz-adv-x="680" d="M31 681 L31 558 L263 432 C323 399 333 394 385 370 L385 367 C333 342 323 337 263 305 L31 179 L31 56 L490 314 L490 421 L31 681 Z " />
<glyph glyph-name="question" unicode="&#x3f;" horiz-adv-x="540" d="M-102 0 L74 0 L109 120 L-67 120 L-102 0 Z M-38 171 L122 171 L141 234 L164 250 C241 304 311 357 345 386 C406 440 436 498 436 564 C436 681 330 753 158 753 C105 753 68 747 22 732 L-15 603 C25 621 61 629 107 629 C197 629 248 599 248 546 C248 486 192 430 -2 295 L-38 171 Z " />
<glyph glyph-name="at" unicode="&#x40;" horiz-adv-x="834" d="M450 548 L443 513 C441 505 440 495 440 489 C440 481 440 476 441 465 L437 464 C414 530 375 561 314 561 C209 561 120 458 120 335 C120 230 187 154 277 154 C333 154 382 183 414 236 L418 235 C420 189 452 158 496 158 C599 158 690 283 690 424 C690 614 536 752 324 752 C107 752 -68 581 -68 370 C-68 144 99 -16 337 -16 C428 -16 510 0 583 33 L564 98 C492 64 421 49 337 49 C139 49 6 178 6 369 C6 545 149 687 326 687 C501 687 620 579 620 421 C620 317 564 224 503 224 C478 224 462 242 462 270 C462 279 464 298 468 315 L513 548 L450 548 Z M323 489 C376 489 411 449 411 389 C411 296 359 225 292 225 C236 225 198 270 198 337 C198 420 255 489 323 489 L323 489 Z " />
<glyph glyph-name="A" unicode="A" horiz-adv-x="785" d="M-231 0 L-10 0 L72 136 L349 136 L356 0 L568 0 L490 736 L280 736 L-231 0 Z M251 279 C214 279 198 279 156 276 C187 324 197 341 224 386 L245 421 C287 492 296 509 330 577 L335 575 C333 541 333 519 333 498 C333 484 334 455 335 421 L341 300 C341 289 342 286 346 275 C335 279 332 279 321 279 L251 279 Z " />
<glyph glyph-name="B" unicode="B" horiz-adv-x="744" d="M-164 0 L222 0 C301 0 358 9 406 28 C494 63 549 145 549 242 C549 322 509 361 405 385 L406 390 C464 399 493 410 525 433 C575 470 606 529 606 587 C606 688 534 736 381 736 L52 736 L-164 0 Z M138 315 L258 315 C320 315 349 294 349 248 C349 186 294 148 204 148 L146 148 C117 148 110 148 84 145 C96 176 98 183 109 218 L138 315 Z M220 595 L330 595 C390 595 413 580 413 540 C413 484 364 453 278 453 L228 453 C202 453 196 453 173 450 C185 480 188 487 198 521 L220 595 Z " />
<glyph glyph-name="C" unicode="C" horiz-adv-x="747" d="M345 217 C312 153 267 122 208 122 C145 122 105 166 105 235 C105 319 145 442 196 512 C242 576 295 609 351 609 C400 609 430 581 430 536 C430 531 430 525 428 509 L627 509 C630 526 631 537 631 551 C631 688 547 756 377 756 C243 756 146 720 70 641 C-36 531 -103 368 -103 221 C-103 69 3 -22 181 -22 C374 -22 532 80 554 217 L345 217 Z " />
<glyph glyph-name="D" unicode="D" horiz-adv-x="823" d="M-153 0 L164 0 C295 0 406 23 470 63 C589 137 674 305 674 467 C674 558 635 642 572 687 C524 722 459 736 353 736 L63 736 L-153 0 Z M228 588 L328 588 C425 588 465 549 465 452 C465 320 402 199 314 162 C284 149 234 141 185 141 L141 141 C119 141 114 141 94 138 C105 167 107 173 117 209 L228 588 Z " />
<glyph glyph-name="E" unicode="E" horiz-adv-x="642" d="M-157 0 L386 0 L427 141 L165 141 C129 141 121 141 88 138 C100 168 103 177 113 210 L142 307 L455 307 L496 448 L254 448 C219 448 211 448 179 445 C191 474 193 481 203 516 L227 595 L548 595 L588 736 L59 736 L-157 0 Z " />
<glyph glyph-name="F" unicode="F" horiz-adv-x="601" d="M-157 0 L51 0 L138 294 L420 294 L462 437 L253 437 C217 437 209 437 176 434 C188 464 190 469 201 506 L228 595 L527 595 L568 736 L59 736 L-157 0 Z " />
<glyph glyph-name="G" unicode="G" horiz-adv-x="777" d="M605 404 L292 404 L256 271 L324 271 C358 271 366 271 397 274 C386 247 383 240 374 208 L356 146 C313 131 284 126 246 126 C157 126 106 175 106 260 C106 336 143 444 194 515 C244 584 300 618 365 618 C425 618 460 589 460 540 C460 533 459 525 456 509 L635 509 C640 528 641 538 641 557 C641 609 625 653 594 682 C545 729 458 758 365 758 C252 758 148 717 73 642 C-33 537 -98 387 -98 249 C-98 86 18 -19 200 -19 C296 -19 390 -2 496 33 L605 404 Z " />
<glyph glyph-name="H" unicode="H" horiz-adv-x="788" d="M-155 0 L53 0 L143 304 L301 304 C336 304 344 304 376 307 C364 277 362 269 352 236 L283 0 L491 0 L707 736 L499 736 L417 458 L259 458 C224 458 216 458 184 455 C196 485 198 491 208 526 L270 736 L61 736 L-155 0 Z " />
<glyph glyph-name="I" unicode="I" horiz-adv-x="348" d="M-155 0 L53 0 L270 736 L61 736 L-155 0 Z " />
<glyph glyph-name="J" unicode="J" horiz-adv-x="642" d="M567 736 L359 736 L232 304 L223 272 C195 168 166 130 113 130 C74 130 55 151 55 194 C55 203 56 213 58 232 L-158 232 C-162 215 -164 202 -164 187 C-164 116 -152 78 -119 45 C-79 4 -4 -19 88 -19 C271 -19 371 65 431 269 L443 311 L567 736 Z " />
<glyph glyph-name="K" unicode="K" horiz-adv-x="762" d="M-157 0 L52 0 L170 401 L297 0 L522 0 L369 406 L692 736 L457 736 L174 417 L269 736 L61 736 L-157 0 Z " />
<glyph glyph-name="L" unicode="L" horiz-adv-x="603" d="M-157 0 L361 0 L400 141 L165 141 C130 141 122 141 90 138 C101 168 104 175 114 209 L268 736 L59 736 L-157 0 Z " />
<glyph glyph-name="M" unicode="M" horiz-adv-x="1087" d="M-160 0 L32 0 L129 330 C168 465 178 500 209 630 L215 629 C209 496 208 462 208 318 L208 0 L405 0 L625 357 C700 480 719 512 785 632 L790 629 C745 501 735 467 693 327 L596 0 L788 0 L1008 736 L680 736 L466 387 C426 322 415 303 382 236 L377 238 C384 311 385 331 385 410 L385 736 L56 736 L-160 0 Z " />
<glyph glyph-name="N" unicode="N" horiz-adv-x="780" d="M-158 0 L20 0 L99 270 C135 392 143 420 170 533 L175 533 C185 416 188 384 205 262 L241 0 L490 0 L706 736 L529 736 L449 464 C413 343 406 314 379 200 L374 201 C364 317 360 348 343 472 L307 736 L59 736 L-158 0 Z " />
<glyph glyph-name="O" unicode="O" horiz-adv-x="806" d="M364 754 C164 754 17 648 -59 449 C-84 384 -98 316 -98 260 C-98 82 15 -21 210 -21 C334 -21 450 23 519 97 C610 193 668 345 668 488 C668 659 559 754 364 754 L364 754 Z M353 614 C427 614 476 565 476 492 C476 386 426 259 351 175 C318 139 272 118 222 118 C146 118 97 165 97 238 C97 329 139 455 192 524 C238 584 292 614 353 614 L353 614 Z " />
<glyph glyph-name="P" unicode="P" horiz-adv-x="711" d="M-155 0 L53 0 L131 263 L277 263 C361 263 426 277 472 306 C553 355 606 454 606 556 C606 616 581 666 535 699 C497 726 452 736 362 736 L61 736 L-155 0 Z M230 598 L313 598 C373 598 398 577 398 527 C398 450 349 404 267 404 L220 404 C195 404 190 404 168 401 C180 431 182 437 193 473 L230 598 Z " />
<glyph glyph-name="Q" unicode="Q" horiz-adv-x="836" d="M453 100 C592 201 667 339 667 497 C667 664 565 754 375 754 C246 754 141 713 63 633 C-36 531 -97 382 -97 241 C-97 75 9 -19 196 -19 C234 -19 285 -16 335 -11 C412 -2 440 0 463 0 L616 0 L655 138 L598 138 C532 138 499 128 456 95 L453 100 Z M364 614 C429 614 477 565 477 498 C477 393 423 262 345 176 C311 140 265 119 216 119 C142 119 95 164 95 235 C95 322 140 450 195 520 C243 581 302 614 364 614 L364 614 Z " />
<glyph glyph-name="R" unicode="R" horiz-adv-x="731" d="M-155 0 L54 0 L139 289 L213 289 C267 289 285 270 285 211 L285 88 C285 49 288 26 299 0 L501 0 C493 21 491 32 491 53 L491 238 C491 308 466 344 405 359 C530 369 610 453 610 574 C610 640 575 693 518 716 C480 731 441 736 358 736 L61 736 L-155 0 Z M230 598 L312 598 C379 598 405 580 405 533 C405 468 350 432 249 432 L215 432 C197 432 193 432 177 429 C189 459 191 464 201 500 L230 598 Z " />
<glyph glyph-name="S" unicode="S" horiz-adv-x="726" d="M585 537 C588 547 589 554 589 566 C589 683 483 755 311 755 C108 755 -30 658 -30 515 C-30 413 23 368 255 272 C303 252 318 236 318 205 C318 154 267 122 187 122 C115 122 73 148 73 191 C73 197 73 202 75 215 L-141 215 C-145 200 -146 193 -146 177 C-146 46 -49 -19 149 -19 C387 -19 524 71 524 225 C524 276 508 320 477 354 C447 386 411 406 302 450 C197 492 185 501 185 540 C185 585 226 614 290 614 C355 614 386 590 389 537 L585 537 Z " />
<glyph glyph-name="T" unicode="T" horiz-adv-x="621" d="M-44 595 L83 595 C118 595 126 595 158 598 C147 568 144 561 134 527 L-20 0 L187 0 L363 595 L561 595 L602 736 L-3 736 L-44 595 Z " />
<glyph glyph-name="U" unicode="U" horiz-adv-x="767" d="M696 736 L488 736 L353 274 C322 168 275 122 197 122 C144 122 110 150 110 193 C110 212 120 258 136 314 L259 736 L51 736 L-67 335 C-84 277 -93 226 -93 189 C-93 59 13 -21 184 -21 C295 -21 395 15 457 76 C504 123 535 185 568 299 L696 736 Z " />
<glyph glyph-name="V" unicode="V" horiz-adv-x="690" d="M-28 736 L64 0 L238 0 L678 736 L458 736 L317 465 C264 362 253 340 210 245 L205 246 L205 283 L204 368 C204 383 204 390 203 417 C202 442 201 466 199 491 L187 736 L-28 736 Z " />
<glyph glyph-name="W" unicode="W" horiz-adv-x="1072" d="M-17 736 L55 0 L252 0 L371 272 C420 383 431 408 470 511 L475 511 C475 400 476 371 484 252 L500 0 L698 0 L1063 736 L865 736 L752 488 C703 381 692 355 652 253 L647 254 C647 361 646 388 638 503 L624 736 L430 736 L321 488 C273 380 263 354 224 252 L219 253 C217 360 216 385 207 503 L190 736 L-17 736 Z " />
<glyph glyph-name="X" unicode="X" horiz-adv-x="790" d="M-186 0 L80 0 L180 130 C214 174 222 185 251 228 L253 227 C271 179 276 166 298 115 L348 0 L582 0 L398 368 L724 736 L469 736 L373 618 C340 577 333 568 304 529 C287 574 282 585 260 633 L213 736 L-15 736 L159 391 L-186 0 Z " />
<glyph glyph-name="Y" unicode="Y" horiz-adv-x="736" d="M-26 736 L127 243 L56 0 L264 0 L336 241 L721 736 L483 736 L358 550 C308 477 300 464 261 398 L257 398 C246 473 243 490 226 571 L191 736 L-26 736 Z " />
<glyph glyph-name="Z" unicode="Z" horiz-adv-x="716" d="M-168 0 L469 0 L511 148 L314 148 C219 148 200 147 115 143 L113 146 C180 198 195 211 266 274 L592 560 L620 736 L28 736 L-16 588 L157 588 C244 588 262 589 340 593 L341 590 C274 538 260 526 187 462 L-135 180 L-168 0 Z " />
<glyph glyph-name="bracketleft" unicode="&#x5b;" horiz-adv-x="350" d="M-199 -156 L53 -156 L83 -54 L33 -54 C7 -54 1 -54 -22 -57 C-10 -27 -8 -20 3 15 L186 636 L286 636 L316 736 L63 736 L-199 -156 Z " />
<glyph glyph-name="backslash" unicode="&#x5c;" horiz-adv-x="411" d="M179 0 L129 736 L1 736 L50 0 L179 0 Z " />
<glyph glyph-name="bracketright" unicode="&#x5d;" horiz-adv-x="356" d="M-241 -156 L12 -156 L275 736 L23 736 L-9 634 L42 634 C68 634 74 634 98 637 C86 607 83 599 73 565 L-111 -56 L-212 -56 L-241 -156 Z " />
<glyph glyph-name="asciicircum" unicode="&#x5e;" horiz-adv-x="680" d="M517 368 L282 736 L174 736 L-61 368 L59 368 L172 547 C200 591 205 601 228 641 C251 601 257 591 284 547 L397 368 L517 368 Z " />
<glyph glyph-name="underscore" unicode="&#x5f;" horiz-adv-x="545" d="M-245 -82 L-269 -163 L276 -163 L300 -82 L-245 -82 Z " />
<glyph glyph-name="grave" unicode="&#x60;" d="M-174 719 L-100 573 L31 573 L-21 719 L-174 719 Z " />
<glyph glyph-name="a" unicode="a" horiz-adv-x="647" d="M204 61 C191 35 188 26 188 8 L188 0 L368 0 C377 47 382 71 387 88 L399 124 L456 324 C460 336 464 370 464 386 C464 479 383 529 234 529 C151 529 73 514 31 490 C-15 462 -36 433 -57 368 L135 368 C150 415 173 433 216 433 C255 433 277 416 277 385 C277 373 275 355 272 347 L265 325 L194 325 C108 325 31 314 -23 294 C-99 267 -153 195 -153 123 C-153 36 -87 -19 19 -19 C99 -19 144 2 199 63 L204 61 Z M218 238 C228 238 230 239 238 243 C205 141 162 94 104 94 C68 94 44 116 44 149 C44 208 96 238 199 238 L218 238 Z " />
<glyph glyph-name="b" unicode="b" horiz-adv-x="660" d="M-162 0 L8 0 L16 28 C20 41 21 47 21 61 L25 62 C54 7 102 -17 182 -17 C277 -17 352 23 412 107 C460 173 488 258 488 335 C488 453 415 525 296 525 C244 525 205 509 162 472 L158 474 C180 531 185 546 203 607 L241 736 L54 736 L-162 0 Z M230 423 C274 423 298 400 298 360 C298 278 259 175 204 114 C186 94 161 83 136 83 C98 83 78 108 78 156 C78 201 102 283 130 337 C162 399 190 423 230 423 L230 423 Z " />
<glyph glyph-name="c" unicode="c" horiz-adv-x="619" d="M221 171 C191 109 163 85 121 85 C83 85 65 108 65 156 C65 197 87 269 119 330 C156 402 183 427 225 427 C256 427 278 402 278 365 C278 353 276 344 271 320 L456 320 C459 334 459 340 459 354 C459 467 378 530 235 530 C127 530 45 500 -15 437 C-88 361 -131 256 -131 155 C-131 42 -45 -22 107 -22 C277 -22 382 44 415 171 L221 171 Z " />
<glyph glyph-name="d" unicode="d" horiz-adv-x="660" d="M222 69 C212 41 210 32 207 0 L379 0 C389 66 392 79 405 124 L584 736 L398 736 L346 561 C330 504 326 492 316 439 L312 439 C283 499 236 528 168 528 C11 528 -130 357 -130 166 C-130 49 -67 -17 43 -17 C118 -17 170 10 217 72 L222 69 Z M210 428 C250 428 273 400 273 351 C273 270 240 178 192 124 C172 101 144 88 116 88 C80 88 58 112 58 151 C58 207 80 289 111 344 C144 403 173 428 210 428 L210 428 Z " />
<glyph glyph-name="e" unicode="e" horiz-adv-x="647" d="M232 164 C207 109 177 85 130 85 C89 85 64 111 64 154 C64 173 66 184 76 212 L444 212 C471 279 478 307 478 351 C478 456 373 531 228 531 C25 531 -132 373 -132 169 C-132 116 -117 74 -90 45 C-51 6 29 -19 120 -19 C292 -19 387 36 432 164 L232 164 Z M195 319 C155 319 146 318 110 314 C143 398 174 429 224 429 C267 429 292 405 292 365 C292 348 288 336 278 319 L195 319 Z " />
<glyph glyph-name="f" unicode="f" horiz-adv-x="409" d="M-134 0 L53 0 L166 386 L279 386 L316 511 L256 511 C230 511 223 511 199 508 C205 519 206 522 210 535 L218 558 C230 599 272 627 320 627 C334 627 345 626 370 622 L403 743 C347 749 314 751 270 751 C140 751 71 700 36 578 L17 511 L-62 511 L-99 386 L-60 386 C-39 386 -35 386 -16 389 C-25 367 -27 361 -35 337 L-134 0 Z " />
<glyph glyph-name="g" unicode="g" horiz-adv-x="660" d="M520 511 L332 511 L322 477 C317 461 316 454 315 436 L311 436 C284 494 228 527 156 527 C1 527 -130 362 -130 167 C-130 55 -67 -9 41 -9 C100 -9 153 12 195 51 L199 48 C169 -73 129 -121 57 -121 C20 -121 0 -105 0 -77 C0 -74 0 -69 1 -64 L-204 -64 C-204 -76 -205 -92 -205 -97 C-205 -136 -197 -156 -175 -176 C-140 -208 -63 -227 25 -227 C169 -227 264 -189 317 -110 C346 -68 361 -29 395 84 L520 511 Z M203 401 C240 401 268 366 265 323 C261 272 236 197 212 162 C189 129 164 114 131 114 C96 114 77 138 77 185 C77 292 140 401 203 401 L203 401 Z " />
<glyph glyph-name="h" unicode="h" horiz-adv-x="662" d="M-162 0 L25 0 L104 267 C132 360 181 413 238 413 C266 413 289 392 289 367 C289 347 282 308 271 271 L191 0 L379 0 L477 339 C484 360 488 387 488 403 C488 479 431 530 345 530 C274 530 215 504 154 446 L151 449 C174 511 180 528 199 594 L241 736 L54 736 L-162 0 Z " />
<glyph glyph-name="i" unicode="i" horiz-adv-x="312" d="M-166 0 L21 0 L172 511 L-15 511 L-166 0 Z M7 585 L193 585 L234 726 L48 726 L7 585 Z " />
<glyph glyph-name="j" unicode="j" horiz-adv-x="315" d="M-304 -179 C-254 -182 -240 -183 -215 -183 C-139 -183 -83 -164 -42 -126 C-15 -100 7 -53 31 28 L172 511 L-15 511 L-148 53 C-172 -28 -194 -48 -259 -49 L-268 -49 L-304 -179 Z M8 585 L195 585 L236 726 L49 726 L8 585 Z " />
<glyph glyph-name="k" unicode="k" horiz-adv-x="642" d="M-163 0 L24 0 L106 279 L223 0 L421 0 L296 283 L526 511 L309 511 L111 294 L240 736 L53 736 L-163 0 Z " />
<glyph glyph-name="l" unicode="l" horiz-adv-x="317" d="M-160 0 L27 0 L243 736 L56 736 L-160 0 Z " />
<glyph glyph-name="m" unicode="m" horiz-adv-x="1013" d="M-165 0 L22 0 L100 267 C126 356 177 413 232 413 C262 413 284 394 284 368 C284 347 278 317 265 271 L185 0 L372 0 L451 267 C475 348 535 414 585 414 C617 414 638 397 638 371 C638 355 634 334 628 313 L536 0 L722 0 L824 340 C832 367 836 391 836 409 C836 479 771 529 681 529 C604 529 554 506 481 434 C453 498 403 529 326 529 C264 529 223 509 149 445 L146 447 C156 473 158 482 161 511 L-23 511 L-28 484 C-36 441 -41 419 -51 387 L-165 0 Z " />
<glyph glyph-name="n" unicode="n" horiz-adv-x="662" d="M-158 0 L29 0 L107 267 C132 353 185 412 237 412 C268 412 291 392 291 365 C291 348 288 329 279 300 L270 271 L191 0 L378 0 L470 313 L479 345 C485 364 488 385 488 407 C488 481 429 530 339 530 C275 530 223 506 156 446 L153 448 C162 477 165 488 167 511 L-16 511 L-24 471 C-31 435 -38 407 -44 387 L-158 0 Z " />
<glyph glyph-name="o" unicode="o" horiz-adv-x="657" d="M227 531 C120 531 34 501 -23 444 C-92 375 -132 275 -132 173 C-132 41 -51 -21 123 -21 C234 -21 313 8 376 70 C441 135 482 233 482 326 C482 460 394 531 227 531 L227 531 Z M220 425 C264 425 291 399 289 359 C284 273 249 174 200 114 C185 95 162 85 134 85 C87 85 65 111 65 165 C65 211 86 287 115 341 C147 402 176 425 220 425 L220 425 Z " />
<glyph glyph-name="p" unicode="p" horiz-adv-x="660" d="M-216 -179 L-29 -179 L7 -53 C24 4 27 16 38 69 L42 70 C71 7 111 -17 183 -17 C345 -17 486 150 486 343 C486 455 417 528 311 528 C249 528 197 502 144 444 L140 446 C150 477 153 487 158 511 L-20 511 C-34 443 -38 429 -50 387 L-216 -179 Z M236 422 C273 422 299 397 299 361 C299 301 268 201 230 137 C208 101 181 83 149 83 C108 83 82 113 82 161 C82 293 158 422 236 422 L236 422 Z " />
<glyph glyph-name="q" unicode="q" horiz-adv-x="662" d="M200 31 C182 -14 178 -26 164 -75 L135 -179 L319 -179 L523 511 L351 511 L343 482 C339 469 338 464 337 448 L334 448 C302 503 252 528 174 528 C94 528 21 494 -30 432 C-91 358 -128 259 -128 169 C-128 60 -51 -17 58 -17 C107 -17 148 -2 196 34 L200 31 Z M221 428 C260 428 287 401 287 361 C287 288 244 173 197 119 C180 99 150 85 123 85 C82 85 63 109 63 161 C63 211 86 287 117 342 C151 403 181 428 221 428 L221 428 Z " />
<glyph glyph-name="r" unicode="r" horiz-adv-x="437" d="M-160 0 L27 0 L92 221 C118 310 173 354 259 354 C269 354 276 353 292 351 L341 523 C235 523 199 505 139 423 L135 425 C147 465 150 479 154 511 L-18 511 C-32 440 -37 418 -46 387 L-160 0 Z " />
<glyph glyph-name="s" unicode="s" horiz-adv-x="560" d="M395 363 C399 372 400 379 400 390 C400 438 383 471 348 493 C310 518 243 534 178 534 C24 534 -78 467 -78 367 C-78 309 -24 253 75 207 C134 180 155 160 155 134 C155 106 129 87 90 87 C46 87 21 111 21 153 C21 158 22 162 24 169 L-161 169 C-164 154 -166 144 -166 131 C-166 78 -151 45 -118 22 C-80 -3 -4 -20 67 -20 C247 -20 346 43 346 156 C346 230 319 256 154 337 C125 352 115 363 115 382 C115 410 137 430 167 430 C198 430 216 413 216 382 C216 377 216 372 214 363 L395 363 Z " />
<glyph glyph-name="t" unicode="t" horiz-adv-x="440" d="M-109 386 L-64 386 C-41 386 -36 386 -15 389 C-27 359 -30 351 -40 317 L-67 228 C-82 177 -89 139 -89 110 C-89 35 -32 -13 59 -13 C113 -13 160 -5 203 10 L239 135 C234 134 231 134 228 133 C190 124 184 123 167 123 C129 123 110 137 110 166 C110 184 114 204 124 238 L167 386 L305 386 L342 511 L273 511 C239 511 231 511 200 508 C212 538 214 545 224 579 L249 664 L50 621 L18 511 L-72 511 L-109 386 Z " />
<glyph glyph-name="u" unicode="u" horiz-adv-x="670" d="M522 511 L336 511 L258 244 C233 158 180 99 127 99 C96 99 73 119 73 146 C73 164 76 182 85 211 L94 240 L173 511 L-13 511 L-105 198 L-115 166 C-121 147 -124 126 -124 104 C-124 30 -65 -19 25 -19 C90 -19 142 6 210 69 L214 67 C203 36 200 25 197 0 L381 0 C395 73 401 99 408 124 L522 511 Z " />
<glyph glyph-name="v" unicode="v" horiz-adv-x="570" d="M-91 511 L-30 0 L178 0 L484 511 L272 511 L196 356 C158 280 149 259 118 183 L113 184 C118 243 119 271 119 304 L118 356 L116 511 L-91 511 Z " />
<glyph glyph-name="w" unicode="w" horiz-adv-x="903" d="M-98 511 L-30 0 L174 0 L251 167 C290 252 299 273 329 354 L334 353 C332 305 330 263 330 243 L330 213 C330 197 331 183 331 167 L334 0 L539 0 L820 511 L623 511 L553 354 C518 273 510 254 482 177 L477 178 C479 224 481 269 481 285 L481 354 L477 511 L259 511 L187 355 C150 276 142 256 113 179 L108 180 C110 218 111 252 111 267 C111 290 111 314 109 355 L104 511 L-98 511 Z " />
<glyph glyph-name="x" unicode="x" horiz-adv-x="606" d="M-224 0 L5 0 L68 65 C96 94 102 101 127 130 C138 101 141 95 157 63 L188 0 L405 0 L255 258 L519 511 L294 511 L238 451 C211 423 204 415 181 386 C170 415 166 423 152 451 L123 511 L-84 511 L55 266 L-224 0 Z " />
<glyph glyph-name="y" unicode="y" horiz-adv-x="568" d="M-141 -187 L66 -187 L486 511 L278 511 L200 356 C159 277 151 259 120 184 L115 185 C117 231 119 269 119 289 C119 302 119 322 118 356 L115 511 L-95 511 L-23 2 L-141 -187 Z " />
<glyph glyph-name="z" unicode="z" horiz-adv-x="558" d="M409 511 L-56 511 L-93 381 L40 381 C107 381 123 381 185 387 L187 383 C110 336 90 323 11 268 L-151 156 L-197 0 L297 0 L334 129 L200 129 C132 129 116 129 54 123 L53 127 C127 173 147 185 223 238 L379 347 L409 511 Z " />
<glyph glyph-name="braceleft" unicode="&#x7b;" horiz-adv-x="371" d="M309 736 L228 736 C135 736 79 686 47 574 L6 432 C-10 379 -34 355 -82 344 L-114 236 C-84 228 -71 213 -71 189 C-71 176 -72 167 -78 148 L-120 6 C-129 -24 -133 -51 -133 -74 C-133 -130 -102 -156 -34 -156 L47 -156 L78 -49 L69 -49 C42 -49 31 -40 31 -17 C31 -11 32 -7 37 15 C39 25 41 31 41 33 L78 158 C83 177 86 192 86 206 C86 250 67 270 3 289 L45 292 C104 316 135 353 156 422 L192 547 L198 568 C211 612 231 629 269 629 L277 629 L309 736 Z " />
<glyph glyph-name="bar" unicode="&#x7c;" horiz-adv-x="271" d="M76 736 L-206 -221 L-104 -221 L178 736 L76 736 Z " />
<glyph glyph-name="braceright" unicode="&#x7d;" horiz-adv-x="371" d="M43 736 L11 629 L20 629 C48 629 59 620 59 597 C59 590 54 567 49 547 L12 422 C5 396 1 374 1 356 C1 324 12 308 46 291 L87 288 C-1 264 -45 227 -66 158 L-102 33 C-121 -31 -138 -49 -179 -49 L-187 -49 L-219 -156 L-139 -156 C-45 -156 10 -107 43 6 L85 148 C100 201 124 225 172 236 L204 344 C175 352 161 367 161 391 C161 404 163 413 168 432 L209 574 C219 607 223 630 223 653 C223 710 192 736 123 736 L43 736 Z " />
<glyph glyph-name="asciitilde" unicode="&#x7e;" horiz-adv-x="680" d="M-2 286 C34 335 63 354 103 354 C126 354 165 342 207 322 L271 290 C293 280 326 272 351 272 C413 272 474 311 516 379 L446 451 C411 401 382 382 341 382 C319 382 284 391 258 403 L201 430 C146 456 119 464 91 464 C27 464 -26 429 -71 357 L-2 286 Z " />
<glyph glyph-name="exclamdown" unicode="&#xa1;" horiz-adv-x="325" d="M-252 -225 L-35 -225 L96 330 L-45 330 L-252 -225 Z M-50 376 L121 376 L161 511 L-10 511 L-50 376 Z " />
<glyph glyph-name="cent" unicode="&#xa2;" horiz-adv-x="616" d="M323 619 L237 619 L211 531 L207 531 C106 527 32 496 -23 437 C-91 365 -132 262 -132 167 C-132 104 -106 51 -59 21 C-31 3 -5 -6 52 -15 C44 -29 43 -32 38 -48 L20 -110 L105 -110 L132 -22 C234 -13 285 3 332 40 C374 73 402 122 408 171 L214 171 C188 109 162 85 123 85 C84 85 65 110 65 161 C65 200 86 272 114 330 C149 402 175 427 217 427 C249 427 271 401 271 361 C271 351 270 342 266 320 L451 320 C453 332 453 337 453 347 C453 443 397 504 291 522 C298 537 300 541 305 558 L323 619 Z " />
<glyph glyph-name="sterling" unicode="&#xa3;" horiz-adv-x="693" d="M-48 120 L-156 120 L-191 0 L402 0 L438 120 L215 120 C180 120 172 120 139 117 C151 147 153 154 164 189 L211 348 L359 348 L395 471 L318 471 C284 471 275 471 242 468 C248 477 249 480 252 490 L258 509 C280 585 311 617 362 617 C397 617 417 598 417 564 C417 556 416 547 412 527 L588 527 C599 569 604 594 604 614 C604 654 591 685 566 705 C532 733 461 752 393 752 C230 752 123 684 86 558 L59 468 L-48 468 L-84 348 L-32 348 C-7 348 -1 348 23 351 C11 321 9 314 -1 279 L-48 120 Z " />
<glyph glyph-name="currency" unicode="&#xa4;" horiz-adv-x="680" d="M338 563 C298 585 264 594 223 594 C182 594 148 585 108 563 L17 654 L-63 574 L28 483 C6 443 -3 409 -3 368 C-3 326 6 292 28 253 L-63 162 L17 82 L108 172 C147 150 182 141 223 141 C265 141 299 150 338 172 L429 82 L509 162 L418 253 C441 292 450 326 450 368 C450 409 441 443 418 483 L509 574 L429 654 L338 563 Z M223 495 C294 495 351 438 351 367 C351 297 294 240 223 240 C152 240 96 297 96 369 C96 438 153 495 223 495 L223 495 Z " />
<glyph glyph-name="yen" unicode="&#xa5;" horiz-adv-x="698" d="M529 423 L458 423 C422 423 414 422 381 418 L379 421 C434 473 446 485 504 547 L682 736 L553 736 L320 484 C280 440 273 431 240 391 L237 391 C224 442 220 456 203 509 L129 736 L-2 736 L80 500 C93 462 96 454 111 420 C79 423 73 423 36 423 L-35 423 L-51 367 L124 367 L137 330 C144 309 146 306 155 289 C118 292 110 292 68 292 L-74 292 L-90 236 L63 236 C98 236 106 236 138 239 C126 209 124 201 114 168 L65 0 L180 0 L249 236 L474 236 L490 292 L378 292 C321 292 309 292 259 287 L257 290 C278 306 283 310 301 330 L337 367 L512 367 L529 423 Z " />
<glyph glyph-name="brokenbar" unicode="&#xa6;" horiz-adv-x="271" d="M76 736 L-33 368 L70 368 L178 736 L76 736 Z M-98 147 L-206 -221 L-104 -221 L5 147 L-98 147 Z " />
<glyph glyph-name="section" unicode="&#xa7;" horiz-adv-x="519" d="M-180 20 C-115 3 -29 -8 44 -8 C191 -8 292 53 292 142 C292 183 273 217 229 256 C311 289 357 337 357 391 C357 443 325 483 255 519 C210 542 192 560 192 583 C192 618 233 643 291 643 C334 643 360 636 408 611 L435 704 C371 739 308 755 229 755 C98 755 0 689 0 600 C0 565 16 537 58 497 C-29 472 -85 416 -85 354 C-85 294 -61 266 30 223 C75 202 97 180 97 156 C97 122 56 98 -2 98 C-51 98 -84 103 -154 122 L-180 20 Z M143 312 C76 337 62 348 62 378 C62 408 87 426 146 442 C190 427 210 407 210 377 C210 351 190 331 143 312 L143 312 Z " />
<glyph glyph-name="dieresis" unicode="&#xa8;" d="M-248 578 L-97 578 L-60 708 L-211 708 L-248 578 Z M-38 578 L115 578 L152 708 L1 708 L-38 578 Z " />
<glyph glyph-name="copyright" unicode="&#xa9;" horiz-adv-x="869" d="M390 300 C380 256 364 241 327 241 C272 241 247 280 247 365 C247 448 276 494 328 494 C362 494 383 475 385 439 L518 439 C511 532 444 584 330 584 C194 584 115 503 115 362 C115 230 194 152 330 152 C450 152 519 206 520 300 L390 300 Z M324 751 C104 751 -69 582 -69 368 C-69 157 104 -15 318 -15 C531 -15 704 157 704 368 C704 576 531 751 324 751 L324 751 Z M323 690 C493 690 636 543 636 368 C636 190 494 46 318 46 C142 46 -1 190 -1 368 C-1 548 142 690 323 690 L323 690 Z " />
<glyph glyph-name="ordfeminine" unicode="&#xaa;" horiz-adv-x="430" d="M141 349 C139 346 138 345 137 344 C133 338 132 337 132 330 L132 326 L132 321 L132 317 L249 317 C253 337 258 362 261 371 L268 393 L304 510 C306 519 309 539 309 549 C309 606 258 637 164 637 C54 637 5 611 -19 539 L-20 534 L106 534 L106 537 C115 563 128 573 153 573 C175 573 187 564 187 548 C187 540 186 532 184 526 L180 516 L139 516 C-1 516 -78 472 -78 393 C-78 341 -36 306 27 306 C80 306 126 323 135 346 C136 347 137 349 137 351 L141 349 Z M151 457 C156 457 158 458 162 462 C142 406 117 380 84 380 C64 380 51 391 51 408 C51 441 81 457 142 457 L151 457 Z " />
<glyph glyph-name="guillemotleft" unicode="&#xab;" horiz-adv-x="537" d="M-113 262 L-46 83 L92 83 L28 262 L179 443 L40 443 L-113 262 Z M94 262 L161 83 L299 83 L235 262 L386 443 L248 443 L94 262 Z " />
<glyph glyph-name="logicalnot" unicode="&#xac;" horiz-adv-x="680" d="M-52 542 L-52 434 L359 434 C371 434 374 434 385 438 C381 427 381 424 381 412 L381 194 L497 194 L497 542 L-52 542 Z " />
<glyph glyph-name="registered" unicode="&#xae;" horiz-adv-x="869" d="M324 751 C104 751 -69 582 -69 368 C-69 157 104 -15 318 -15 C531 -15 704 157 704 368 C704 576 531 751 324 751 L324 751 Z M323 690 C493 690 636 543 636 368 C636 190 494 46 318 46 C142 46 -1 190 -1 368 C-1 548 142 690 323 690 L323 690 Z M137 158 L266 158 L266 297 C266 308 265 310 261 319 C343 321 361 313 366 274 L373 217 C376 194 381 182 393 158 L524 158 C511 187 506 207 502 251 C494 327 479 348 419 365 L419 369 C484 389 509 417 509 471 C509 533 454 578 377 578 L137 578 L137 158 Z M267 473 C267 485 267 488 264 499 C274 495 277 495 289 495 L319 495 C359 495 380 479 380 449 C380 418 363 403 328 403 L289 403 C277 403 274 403 264 399 C267 410 267 413 267 425 L267 473 Z " />
<glyph glyph-name="macron" unicode="&#xaf;" d="M-212 601 L100 601 L129 698 L-183 698 L-212 601 Z " />
<glyph glyph-name="degree" unicode="&#xb0;" horiz-adv-x="391" d="M143 742 C56 742 -15 672 -15 586 C-15 500 56 430 143 430 C230 430 301 500 301 586 C301 672 230 742 143 742 L143 742 Z M143 677 C194 677 235 636 235 586 C235 536 194 495 143 495 C92 495 51 536 51 586 C51 636 92 677 143 677 L143 677 Z " />
<glyph glyph-name="plusminus" unicode="&#xb1;" horiz-adv-x="680" d="M139 697 L139 536 C139 524 139 521 143 510 C132 514 129 514 117 514 L-68 514 L-68 406 L117 406 C128 406 132 406 143 410 C139 399 139 396 139 384 L139 224 L256 224 L256 384 C256 396 256 399 252 410 C263 406 267 406 278 406 L464 406 L464 514 L278 514 C266 514 263 514 252 510 C256 521 256 524 256 536 L256 697 L139 697 Z M461 154 L-66 154 L-66 46 L461 46 L461 154 Z " />
<glyph glyph-name="twosuperior" unicode="&#xb2;" horiz-adv-x="476" d="M-72 294 L285 294 L312 380 L218 380 C172 380 157 379 111 372 L110 377 C157 406 177 418 191 427 C235 455 265 477 285 495 C338 542 361 582 361 625 C361 699 296 745 190 745 C81 745 32 709 11 612 L10 608 L132 608 L133 611 C141 646 158 661 187 661 C216 661 234 645 234 619 C234 591 215 561 175 528 C126 487 46 436 -45 385 L-47 384 L-72 294 Z " />
<glyph glyph-name="threesuperior" unicode="&#xb3;" horiz-adv-x="476" d="M244 513 C322 536 357 572 357 626 C357 692 291 738 198 738 C92 738 31 692 18 604 L137 604 C146 641 161 654 194 654 C222 654 242 638 242 614 C242 577 209 556 151 556 C145 556 137 556 124 557 L100 475 L116 475 L118 475 C161 480 194 457 194 422 C194 386 166 361 126 361 C93 361 72 379 72 407 C72 412 73 417 74 427 L-48 427 C-52 413 -53 406 -53 398 C-53 324 10 279 114 279 C232 279 316 337 316 420 C316 461 294 489 244 510 L244 513 Z " />
<glyph glyph-name="acute" unicode="&#xb4;" d="M-172 573 L-31 573 L132 713 L-31 713 L-172 573 Z " />
<glyph glyph-name="mu" unicode="&#xb5;" horiz-adv-x="670" d="M502 531 L396 531 L313 248 C281 138 210 74 122 74 C63 74 30 102 30 151 C30 170 34 190 46 232 L135 531 L29 531 L-147 -66 C-162 -117 -176 -152 -207 -221 L-101 -221 C-85 -181 -76 -156 -69 -133 L-42 -42 C-29 2 -27 13 -19 55 L-16 56 C-14 51 -11 48 -10 45 C12 6 44 -14 86 -14 C164 -14 227 28 282 119 L288 116 C268 75 262 62 258 48 L244 0 L346 0 L502 531 Z " />
<glyph glyph-name="paragraph" unicode="&#xb6;" horiz-adv-x="642" d="M-28 -221 L47 -221 L303 648 L350 648 C374 648 379 648 401 651 C389 621 387 614 377 579 L141 -221 L216 -221 L472 648 L581 648 L607 736 L281 736 C187 736 124 720 71 682 C6 637 -36 559 -36 486 C-36 412 25 359 112 359 C119 359 131 360 147 362 C135 332 133 326 122 289 L-28 -221 Z " />
<glyph glyph-name="periodcentered" unicode="&#xb7;" horiz-adv-x="680" d="M223 462 C171 462 129 420 129 369 C129 317 171 275 223 275 C274 275 316 317 316 369 C316 420 274 462 223 462 L223 462 Z " />
<glyph glyph-name="periodcentered" unicode="&#xb7;" horiz-adv-x="680" d="M223 462 C171 462 129 420 129 369 C129 317 171 275 223 275 C274 275 316 317 316 369 C316 420 274 462 223 462 L223 462 Z " />
<glyph glyph-name="cedilla" unicode="&#xb8;" d="M-391 -223 C-342 -240 -304 -247 -260 -247 C-178 -247 -113 -198 -113 -137 C-113 -93 -151 -61 -202 -61 C-215 -61 -225 -63 -245 -71 L-247 -68 C-235 -55 -232 -50 -224 -35 L-209 -3 L-268 -3 L-316 -101 L-299 -123 C-280 -117 -271 -115 -256 -115 C-228 -115 -211 -128 -211 -149 C-211 -172 -235 -188 -270 -188 C-298 -188 -324 -184 -371 -172 L-391 -223 Z " />
<glyph glyph-name="onesuperior" unicode="&#xb9;" horiz-adv-x="350" d="M-10 561 C39 574 62 584 93 606 L96 603 C70 537 65 522 42 445 L-3 292 L130 292 L256 733 L150 733 C109 696 86 682 14 650 L-10 561 Z " />
<glyph glyph-name="ordmasculine" unicode="&#xba;" horiz-adv-x="437" d="M160 638 C93 638 40 620 4 586 C-38 545 -64 484 -64 423 C-64 343 -13 305 97 305 C166 305 215 322 255 360 C296 399 321 457 321 513 C321 595 265 638 160 638 L160 638 Z M157 568 C181 568 195 555 195 534 C195 491 170 425 141 391 C133 381 119 375 104 375 C77 375 65 389 65 419 C65 445 78 488 95 520 C114 555 131 568 157 568 L157 568 Z " />
<glyph glyph-name="guillemotright" unicode="&#xbb;" horiz-adv-x="519" d="M-154 83 L-16 83 L138 262 L71 443 L-67 443 L-2 262 L-154 83 Z M51 83 L189 83 L343 262 L276 443 L138 443 L203 262 L51 83 Z " />
<glyph glyph-name="onequarter" unicode="&#xbc;" horiz-adv-x="1030" d="M-10 561 C39 574 62 584 93 606 L96 603 C70 537 65 522 42 445 L-3 292 L130 292 L256 733 L150 733 C109 696 86 682 14 650 L-10 561 Z M-4 0 L120 0 L761 729 L636 729 L-4 0 Z M383 80 L521 80 C560 80 564 80 595 83 C587 65 585 60 579 40 L568 0 L690 0 L715 80 L790 80 L815 166 L777 166 C757 166 753 166 735 163 C747 193 750 201 759 234 L819 437 L663 437 L404 170 L383 80 Z M497 164 C566 224 619 279 672 347 L677 344 C658 304 654 291 641 248 L616 166 L561 166 C533 166 526 165 499 161 L497 164 Z " />
<glyph glyph-name="onehalf" unicode="&#xbd;" horiz-adv-x="1092" d="M-10 561 C39 574 62 584 93 606 L96 603 C70 537 65 522 42 445 L-3 292 L130 292 L256 733 L150 733 C109 696 86 682 14 650 L-10 561 Z M-5 0 L119 0 L760 729 L636 729 L-5 0 Z M458 0 L815 0 L842 86 L747 86 C700 86 686 85 640 78 L638 83 C722 135 748 152 787 180 C851 228 887 282 887 331 C887 405 821 451 716 451 C602 451 544 405 542 314 L662 314 C664 350 680 367 711 367 C739 367 759 349 759 326 C759 268 691 209 482 89 L458 0 Z " />
<glyph glyph-name="threequarters" unicode="&#xbe;" horiz-adv-x="1130" d="M243 513 C321 536 356 572 356 626 C356 692 290 738 197 738 C91 738 30 692 17 604 L136 604 C145 641 160 654 193 654 C221 654 241 638 241 614 C241 577 208 556 150 556 C144 556 136 556 123 557 L99 475 L115 475 L117 475 C160 480 193 457 193 422 C193 386 165 361 125 361 C92 361 71 379 71 407 C71 412 72 417 73 427 L-49 427 C-53 413 -54 406 -54 398 C-54 324 9 279 113 279 C231 279 315 337 315 420 C315 461 293 489 243 510 L243 513 Z M98 0 L222 0 L863 729 L739 729 L98 0 Z M485 80 L623 80 C662 80 666 80 697 83 C689 65 687 60 681 40 L670 0 L792 0 L817 80 L892 80 L917 166 L879 166 C859 166 855 166 837 163 C849 193 852 201 861 234 L921 437 L765 437 L506 170 L485 80 Z M599 164 C668 224 720 279 774 347 L779 344 C760 304 756 291 743 248 L718 166 L663 166 C635 166 628 165 601 161 L599 164 Z " />
<glyph glyph-name="questiondown" unicode="&#xbf;" horiz-adv-x="540" d="M255 -92 C208 -109 167 -116 122 -116 C35 -116 -10 -88 -10 -34 C-10 -8 5 23 28 49 C65 89 123 135 168 159 C229 192 233 195 240 220 L274 340 L114 340 L97 280 C89 254 75 243 -11 195 C-134 128 -199 43 -199 -52 C-199 -171 -96 -242 76 -242 C127 -242 165 -237 215 -222 L255 -92 Z M127 391 L304 391 L338 511 L161 511 L127 391 Z " />
<glyph glyph-name="Agrave" unicode="&#xc0;" horiz-adv-x="785" d="M-231 0 L-10 0 L72 136 L349 136 L356 0 L568 0 L490 736 L280 736 L-231 0 Z M251 279 C214 279 198 279 156 276 C187 324 197 341 224 386 L245 421 C287 492 296 509 330 577 L335 575 C333 541 333 519 333 498 C333 484 334 455 335 421 L341 300 C341 289 342 286 346 275 C335 279 332 279 321 279 L251 279 Z M280 916 L354 770 L485 770 L433 916 L280 916 Z " />
<glyph glyph-name="Aacute" unicode="&#xc1;" horiz-adv-x="785" d="M-231 0 L-10 0 L72 136 L349 136 L356 0 L568 0 L490 736 L280 736 L-231 0 Z M251 279 C214 279 198 279 156 276 C187 324 197 341 224 386 L245 421 C287 492 296 509 330 577 L335 575 C333 541 333 519 333 498 C333 484 334 455 335 421 L341 300 C341 289 342 286 346 275 C335 279 332 279 321 279 L251 279 Z M282 770 L423 770 L586 910 L423 910 L282 770 Z " />
<glyph glyph-name="Acircumflex" unicode="&#xc2;" horiz-adv-x="785" d="M-231 0 L-10 0 L72 136 L349 136 L356 0 L568 0 L490 736 L280 736 L-231 0 Z M251 279 C214 279 198 279 156 276 C187 324 197 341 224 386 L245 421 C287 492 296 509 330 577 L335 575 C333 541 333 519 333 498 C333 484 334 455 335 421 L341 300 C341 289 342 286 346 275 C335 279 332 279 321 279 L251 279 Z M203 770 L349 770 L376 799 C389 814 392 818 403 835 L405 834 C406 819 406 815 410 799 L418 770 L546 770 L501 911 L346 911 L203 770 Z " />
<glyph glyph-name="Atilde" unicode="&#xc3;" horiz-adv-x="785" d="M-231 0 L-10 0 L72 136 L349 136 L356 0 L568 0 L490 736 L280 736 L-231 0 Z M251 279 C214 279 198 279 156 276 C187 324 197 341 224 386 L245 421 C287 492 296 509 330 577 L335 575 C333 541 333 519 333 498 C333 484 334 455 335 421 L341 300 C341 289 342 286 346 275 C335 279 332 279 321 279 L251 279 Z M274 782 C293 809 307 820 322 820 C334 820 349 814 389 795 C436 772 449 768 472 768 C523 768 575 818 584 877 L535 900 C518 876 503 865 488 865 C479 865 466 869 454 876 L417 898 C395 911 371 918 352 918 C299 918 246 872 225 807 L274 782 Z " />
<glyph glyph-name="Adieresis" unicode="&#xc4;" horiz-adv-x="785" d="M-231 0 L-10 0 L72 136 L349 136 L356 0 L568 0 L490 736 L280 736 L-231 0 Z M251 279 C214 279 198 279 156 276 C187 324 197 341 224 386 L245 421 C287 492 296 509 330 577 L335 575 C333 541 333 519 333 498 C333 484 334 455 335 421 L341 300 C341 289 342 286 346 275 C335 279 332 279 321 279 L251 279 Z M206 775 L357 775 L394 905 L243 905 L206 775 Z M416 775 L569 775 L606 905 L455 905 L416 775 Z " />
<glyph glyph-name="Aring" unicode="&#xc5;" horiz-adv-x="785" d="M-231 0 L-10 0 L72 136 L349 136 L356 0 L568 0 L490 736 L280 736 L-231 0 Z M251 279 C214 279 198 279 156 276 C187 324 197 341 224 386 L245 421 C287 492 296 509 330 577 L335 575 C333 541 333 519 333 498 C333 484 334 455 335 421 L341 300 C341 289 342 286 346 275 C335 279 332 279 321 279 L251 279 Z M407 951 C345 951 295 901 295 839 C295 778 345 728 407 728 C468 728 518 778 518 839 C518 901 468 951 407 951 L407 951 Z M407 877 C427 877 444 860 444 840 C444 819 427 802 407 802 C386 802 369 819 369 840 C369 860 386 877 407 877 L407 877 Z " />
<glyph glyph-name="AE" unicode="&#xc6;" horiz-adv-x="964" d="M-228 0 L1 0 L94 148 L255 148 C278 148 283 148 303 151 C297 132 296 128 292 105 L276 0 L708 0 L748 141 L536 141 C514 141 509 141 489 138 C495 157 496 161 500 183 L520 314 L777 314 L818 455 L587 455 C563 455 559 455 538 452 C544 472 545 477 549 500 L565 595 L861 595 L902 736 L283 736 L-228 0 Z M322 294 L253 294 C223 294 212 294 179 291 C211 339 221 355 250 402 L277 446 C328 530 337 545 376 620 L381 618 C363 544 358 522 346 446 L322 294 Z " />
<glyph glyph-name="Ccedilla" unicode="&#xc7;" horiz-adv-x="747" d="M57 -101 L74 -123 C93 -118 102 -116 116 -116 C144 -116 161 -129 161 -150 C161 -172 137 -188 102 -188 C75 -188 48 -184 2 -172 L-18 -223 C32 -240 69 -247 113 -247 C195 -247 259 -199 259 -137 C259 -94 222 -62 171 -62 C158 -62 148 -64 128 -71 L126 -69 C138 -55 141 -51 149 -35 L155 -21 C167 -22 175 -22 181 -22 C374 -22 532 80 554 217 L345 217 C312 153 267 122 208 122 C145 122 105 166 105 235 C105 319 145 442 196 512 C242 576 295 609 351 609 C400 609 430 581 430 536 C430 531 430 525 428 509 L627 509 C630 526 631 537 631 551 C631 688 547 756 377 756 C243 756 146 720 70 641 C-36 531 -103 368 -103 222 C-103 93 -36 14 99 -14 L57 -101 Z " />
<glyph glyph-name="Egrave" unicode="&#xc8;" horiz-adv-x="642" d="M-157 0 L386 0 L427 141 L165 141 C129 141 121 141 88 138 C100 168 103 177 113 210 L142 307 L455 307 L496 448 L254 448 C219 448 211 448 179 445 C191 474 193 481 203 516 L227 595 L548 595 L588 736 L59 736 L-157 0 Z M201 916 L275 770 L406 770 L354 916 L201 916 Z " />
<glyph glyph-name="Eacute" unicode="&#xc9;" horiz-adv-x="642" d="M-157 0 L386 0 L427 141 L165 141 C129 141 121 141 88 138 C100 168 103 177 113 210 L142 307 L455 307 L496 448 L254 448 C219 448 211 448 179 445 C191 474 193 481 203 516 L227 595 L548 595 L588 736 L59 736 L-157 0 Z M203 770 L344 770 L507 910 L344 910 L203 770 Z " />
<glyph glyph-name="Ecircumflex" unicode="&#xca;" horiz-adv-x="642" d="M-157 0 L386 0 L427 141 L165 141 C129 141 121 141 88 138 C100 168 103 177 113 210 L142 307 L455 307 L496 448 L254 448 C219 448 211 448 179 445 C191 474 193 481 203 516 L227 595 L548 595 L588 736 L59 736 L-157 0 Z M124 770 L270 770 L297 799 C310 814 313 818 324 835 L326 834 C327 819 327 815 331 799 L339 770 L467 770 L422 911 L267 911 L124 770 Z " />
<glyph glyph-name="Edieresis" unicode="&#xcb;" horiz-adv-x="642" d="M-157 0 L386 0 L427 141 L165 141 C129 141 121 141 88 138 C100 168 103 177 113 210 L142 307 L455 307 L496 448 L254 448 C219 448 211 448 179 445 C191 474 193 481 203 516 L227 595 L548 595 L588 736 L59 736 L-157 0 Z M127 775 L278 775 L315 905 L164 905 L127 775 Z M337 775 L490 775 L527 905 L376 905 L337 775 Z " />
<glyph glyph-name="Igrave" unicode="&#xcc;" horiz-adv-x="348" d="M-155 0 L53 0 L270 736 L61 736 L-155 0 Z M54 916 L128 770 L259 770 L207 916 L54 916 Z " />
<glyph glyph-name="Iacute" unicode="&#xcd;" horiz-adv-x="348" d="M-155 0 L53 0 L270 736 L61 736 L-155 0 Z M56 770 L197 770 L360 910 L197 910 L56 770 Z " />
<glyph glyph-name="Icircumflex" unicode="&#xce;" horiz-adv-x="348" d="M-155 0 L53 0 L270 736 L61 736 L-155 0 Z M-23 770 L123 770 L150 799 C163 814 166 818 177 835 L179 834 C180 819 180 815 184 799 L192 770 L320 770 L275 911 L120 911 L-23 770 Z " />
<glyph glyph-name="Idieresis" unicode="&#xcf;" horiz-adv-x="348" d="M-155 0 L53 0 L270 736 L61 736 L-155 0 Z M-20 775 L131 775 L168 905 L17 905 L-20 775 Z M190 775 L343 775 L380 905 L229 905 L190 775 Z " />
<glyph glyph-name="Eth" unicode="&#xd0;" horiz-adv-x="831" d="M-27 405 L-92 405 L-111 339 L-79 339 C-62 339 -58 339 -42 342 C-54 312 -57 304 -67 271 L-146 0 L171 0 C302 0 413 23 477 63 C596 137 681 305 681 466 C681 558 642 642 579 687 C531 722 466 736 360 736 L70 736 L-27 405 Z M254 405 L218 405 C199 405 195 405 178 402 C189 432 191 438 202 473 L235 588 L335 588 C432 588 472 549 472 452 C472 320 409 199 321 162 C291 149 241 141 192 141 L148 141 C126 141 121 141 101 138 C112 168 115 175 125 209 L162 339 L235 339 L254 405 Z " />
<glyph glyph-name="Ntilde" unicode="&#xd1;" horiz-adv-x="780" d="M-158 0 L20 0 L99 270 C135 392 143 420 170 533 L175 533 C185 416 188 384 205 262 L241 0 L490 0 L706 736 L529 736 L449 464 C413 343 406 314 379 200 L374 201 C364 317 360 348 343 472 L307 736 L59 736 L-158 0 Z M264 782 C283 809 297 820 312 820 C324 820 339 814 379 795 C426 772 439 768 462 768 C513 768 565 818 574 877 L525 900 C508 876 493 865 478 865 C469 865 456 869 444 876 L407 898 C385 911 361 918 342 918 C289 918 236 872 215 807 L264 782 Z " />
<glyph glyph-name="Ograve" unicode="&#xd2;" horiz-adv-x="806" d="M364 754 C164 754 17 648 -59 449 C-84 384 -98 316 -98 260 C-98 82 15 -21 210 -21 C334 -21 450 23 519 97 C610 193 668 345 668 488 C668 659 559 754 364 754 L364 754 Z M353 614 C427 614 476 565 476 492 C476 386 426 259 351 175 C318 139 272 118 222 118 C146 118 97 165 97 238 C97 329 139 455 192 524 C238 584 292 614 353 614 L353 614 Z M282 916 L356 770 L487 770 L435 916 L282 916 Z " />
<glyph glyph-name="Oacute" unicode="&#xd3;" horiz-adv-x="806" d="M364 754 C164 754 17 648 -59 449 C-84 384 -98 316 -98 260 C-98 82 15 -21 210 -21 C334 -21 450 23 519 97 C610 193 668 345 668 488 C668 659 559 754 364 754 L364 754 Z M353 614 C427 614 476 565 476 492 C476 386 426 259 351 175 C318 139 272 118 222 118 C146 118 97 165 97 238 C97 329 139 455 192 524 C238 584 292 614 353 614 L353 614 Z M284 770 L425 770 L588 910 L425 910 L284 770 Z " />
<glyph glyph-name="Ocircumflex" unicode="&#xd4;" horiz-adv-x="806" d="M364 754 C164 754 17 648 -59 449 C-84 384 -98 316 -98 260 C-98 82 15 -21 210 -21 C334 -21 450 23 519 97 C610 193 668 345 668 488 C668 659 559 754 364 754 L364 754 Z M353 614 C427 614 476 565 476 492 C476 386 426 259 351 175 C318 139 272 118 222 118 C146 118 97 165 97 238 C97 329 139 455 192 524 C238 584 292 614 353 614 L353 614 Z M205 770 L351 770 L378 799 C391 814 394 818 405 835 L407 834 C408 819 408 815 412 799 L420 770 L548 770 L503 911 L348 911 L205 770 Z " />
<glyph glyph-name="Otilde" unicode="&#xd5;" horiz-adv-x="806" d="M364 754 C164 754 17 648 -59 449 C-84 384 -98 316 -98 260 C-98 82 15 -21 210 -21 C334 -21 450 23 519 97 C610 193 668 345 668 488 C668 659 559 754 364 754 L364 754 Z M353 614 C427 614 476 565 476 492 C476 386 426 259 351 175 C318 139 272 118 222 118 C146 118 97 165 97 238 C97 329 139 455 192 524 C238 584 292 614 353 614 L353 614 Z M276 782 C295 809 309 820 324 820 C336 820 351 814 391 795 C438 772 451 768 474 768 C525 768 577 818 586 877 L537 900 C520 876 505 865 490 865 C481 865 468 869 456 876 L419 898 C397 911 373 918 354 918 C301 918 248 872 227 807 L276 782 Z " />
<glyph glyph-name="Odieresis" unicode="&#xd6;" horiz-adv-x="806" d="M364 754 C164 754 17 648 -59 449 C-84 384 -98 316 -98 260 C-98 82 15 -21 210 -21 C334 -21 450 23 519 97 C610 193 668 345 668 488 C668 659 559 754 364 754 L364 754 Z M353 614 C427 614 476 565 476 492 C476 386 426 259 351 175 C318 139 272 118 222 118 C146 118 97 165 97 238 C97 329 139 455 192 524 C238 584 292 614 353 614 L353 614 Z M208 775 L359 775 L396 905 L245 905 L208 775 Z M418 775 L571 775 L608 905 L457 905 L418 775 Z " />
<glyph glyph-name="multiply" unicode="&#xd7;" horiz-adv-x="680" d="M42 629 L-38 548 L126 384 C135 375 137 374 147 368 C137 363 135 361 126 353 L-38 188 L42 108 L222 288 L403 108 L483 188 L319 353 C310 361 308 363 298 368 C308 374 310 375 319 384 L483 548 L403 629 L222 449 L42 629 Z " />
<glyph glyph-name="Oslash" unicode="&#xd8;" horiz-adv-x="808" d="M673 733 L621 781 L556 710 C503 739 436 754 365 754 C165 754 16 646 -58 449 C-82 385 -97 312 -97 258 C-97 189 -75 122 -35 75 L-101 4 L-46 -41 L18 28 C70 -6 125 -20 206 -20 C414 -20 554 77 628 273 C654 344 669 417 669 481 C669 556 648 620 610 665 L673 733 Z M371 407 C419 459 430 472 472 522 C474 511 475 505 475 497 C475 386 426 260 351 176 C318 139 273 119 221 119 C182 119 155 129 133 152 L371 407 Z M215 343 C161 285 149 272 102 216 C101 225 100 232 100 235 C100 330 140 453 194 525 C240 584 293 614 354 614 C392 614 417 604 443 581 C432 576 429 574 420 565 L215 343 Z " />
<glyph glyph-name="Ugrave" unicode="&#xd9;" horiz-adv-x="767" d="M696 736 L488 736 L353 274 C322 168 275 122 197 122 C144 122 110 150 110 193 C110 212 120 258 136 314 L259 736 L51 736 L-67 335 C-84 277 -93 226 -93 189 C-93 59 13 -21 184 -21 C295 -21 395 15 457 76 C504 123 535 185 568 299 L696 736 Z M263 916 L337 770 L468 770 L416 916 L263 916 Z " />
<glyph glyph-name="Uacute" unicode="&#xda;" horiz-adv-x="767" d="M696 736 L488 736 L353 274 C322 168 275 122 197 122 C144 122 110 150 110 193 C110 212 120 258 136 314 L259 736 L51 736 L-67 335 C-84 277 -93 226 -93 189 C-93 59 13 -21 184 -21 C295 -21 395 15 457 76 C504 123 535 185 568 299 L696 736 Z M265 770 L406 770 L569 910 L406 910 L265 770 Z " />
<glyph glyph-name="Ucircumflex" unicode="&#xdb;" horiz-adv-x="767" d="M696 736 L488 736 L353 274 C322 168 275 122 197 122 C144 122 110 150 110 193 C110 212 120 258 136 314 L259 736 L51 736 L-67 335 C-84 277 -93 226 -93 189 C-93 59 13 -21 184 -21 C295 -21 395 15 457 76 C504 123 535 185 568 299 L696 736 Z M186 770 L332 770 L359 799 C372 814 375 818 386 835 L388 834 C389 819 389 815 393 799 L401 770 L529 770 L484 911 L329 911 L186 770 Z " />
<glyph glyph-name="Udieresis" unicode="&#xdc;" horiz-adv-x="767" d="M696 736 L488 736 L353 274 C322 168 275 122 197 122 C144 122 110 150 110 193 C110 212 120 258 136 314 L259 736 L51 736 L-67 335 C-84 277 -93 226 -93 189 C-93 59 13 -21 184 -21 C295 -21 395 15 457 76 C504 123 535 185 568 299 L696 736 Z M189 775 L340 775 L377 905 L226 905 L189 775 Z M399 775 L552 775 L589 905 L438 905 L399 775 Z " />
<glyph glyph-name="Yacute" unicode="&#xdd;" horiz-adv-x="736" d="M-26 736 L127 243 L56 0 L264 0 L336 241 L721 736 L483 736 L358 550 C308 477 300 464 261 398 L257 398 C246 473 243 490 226 571 L191 736 L-26 736 Z M251 770 L392 770 L555 910 L392 910 L251 770 Z " />
<glyph glyph-name="Thorn" unicode="&#xde;" horiz-adv-x="711" d="M104 736 L-113 0 L3 0 L52 166 L216 166 C301 166 364 184 418 224 C496 282 543 372 543 464 C543 517 517 564 474 587 C445 602 402 609 331 609 L253 609 C218 609 210 609 178 606 C189 634 191 640 201 673 L219 736 L104 736 Z M155 517 L305 517 C389 517 424 492 424 433 C424 378 394 320 349 287 C316 263 282 254 221 254 L149 254 C113 254 105 254 73 251 C85 281 87 288 97 323 L155 517 Z " />
<glyph glyph-name="germandbls" unicode="&#xdf;" horiz-adv-x="795" d="M-161 0 L26 0 L156 440 L165 472 C196 588 240 637 312 637 C350 637 374 619 374 591 C374 557 352 534 299 511 C221 477 193 445 193 388 C193 346 223 292 261 265 L340 210 C365 193 377 173 377 153 C377 124 357 104 329 104 C304 104 287 119 287 141 C287 142 287 149 288 159 C288 161 288 163 289 166 L99 166 C94 146 92 135 92 118 C92 30 165 -20 294 -20 C459 -20 585 63 585 171 C585 231 564 258 468 319 C417 351 395 376 395 402 C395 433 412 454 452 471 L504 494 C558 517 580 547 580 597 C580 649 553 693 505 723 C474 742 394 758 330 758 C218 758 155 741 98 697 C42 654 19 613 -15 492 C-18 483 -23 465 -31 440 L-161 0 Z " />
<glyph glyph-name="agrave" unicode="&#xe0;" horiz-adv-x="647" d="M204 61 C191 35 188 26 188 8 L188 0 L368 0 C377 47 382 71 387 88 L399 124 L456 324 C460 336 464 370 464 386 C464 479 383 529 234 529 C151 529 73 514 31 490 C-15 462 -36 433 -57 368 L135 368 C150 415 173 433 216 433 C255 433 277 416 277 385 C277 373 275 355 272 347 L265 325 L194 325 C108 325 31 314 -23 294 C-99 267 -153 195 -153 123 C-153 36 -87 -19 19 -19 C99 -19 144 2 199 63 L204 61 Z M218 238 C228 238 230 239 238 243 C205 141 162 94 104 94 C68 94 44 116 44 149 C44 208 96 238 199 238 L218 238 Z M150 719 L224 573 L355 573 L303 719 L150 719 Z " />
<glyph glyph-name="aacute" unicode="&#xe1;" horiz-adv-x="647" d="M204 61 C191 35 188 26 188 8 L188 0 L368 0 C377 47 382 71 387 88 L399 124 L456 324 C460 336 464 370 464 386 C464 479 383 529 234 529 C151 529 73 514 31 490 C-15 462 -36 433 -57 368 L135 368 C150 415 173 433 216 433 C255 433 277 416 277 385 C277 373 275 355 272 347 L265 325 L194 325 C108 325 31 314 -23 294 C-99 267 -153 195 -153 123 C-153 36 -87 -19 19 -19 C99 -19 144 2 199 63 L204 61 Z M218 238 C228 238 230 239 238 243 C205 141 162 94 104 94 C68 94 44 116 44 149 C44 208 96 238 199 238 L218 238 Z M152 573 L293 573 L456 713 L293 713 L152 573 Z " />
<glyph glyph-name="acircumflex" unicode="&#xe2;" horiz-adv-x="647" d="M204 61 C191 35 188 26 188 8 L188 0 L368 0 C377 47 382 71 387 88 L399 124 L456 324 C460 336 464 370 464 386 C464 479 383 529 234 529 C151 529 73 514 31 490 C-15 462 -36 433 -57 368 L135 368 C150 415 173 433 216 433 C255 433 277 416 277 385 C277 373 275 355 272 347 L265 325 L194 325 C108 325 31 314 -23 294 C-99 267 -153 195 -153 123 C-153 36 -87 -19 19 -19 C99 -19 144 2 199 63 L204 61 Z M218 238 C228 238 230 239 238 243 C205 141 162 94 104 94 C68 94 44 116 44 149 C44 208 96 238 199 238 L218 238 Z M73 573 L219 573 L246 602 C259 617 262 621 273 638 L275 637 C276 622 276 618 280 602 L288 573 L416 573 L371 714 L216 714 L73 573 Z " />
<glyph glyph-name="atilde" unicode="&#xe3;" horiz-adv-x="647" d="M204 61 C191 35 188 26 188 8 L188 0 L368 0 C377 47 382 71 387 88 L399 124 L456 324 C460 336 464 370 464 386 C464 479 383 529 234 529 C151 529 73 514 31 490 C-15 462 -36 433 -57 368 L135 368 C150 415 173 433 216 433 C255 433 277 416 277 385 C277 373 275 355 272 347 L265 325 L194 325 C108 325 31 314 -23 294 C-99 267 -153 195 -153 123 C-153 36 -87 -19 19 -19 C99 -19 144 2 199 63 L204 61 Z M218 238 C228 238 230 239 238 243 C205 141 162 94 104 94 C68 94 44 116 44 149 C44 208 96 238 199 238 L218 238 Z M144 585 C163 612 177 623 192 623 C204 623 219 617 259 598 C306 575 319 571 342 571 C393 571 445 621 454 680 L405 703 C388 679 373 668 358 668 C349 668 336 672 324 679 L287 701 C265 714 241 721 222 721 C169 721 116 675 95 610 L144 585 Z " />
<glyph glyph-name="adieresis" unicode="&#xe4;" horiz-adv-x="647" d="M204 61 C191 35 188 26 188 8 L188 0 L368 0 C377 47 382 71 387 88 L399 124 L456 324 C460 336 464 370 464 386 C464 479 383 529 234 529 C151 529 73 514 31 490 C-15 462 -36 433 -57 368 L135 368 C150 415 173 433 216 433 C255 433 277 416 277 385 C277 373 275 355 272 347 L265 325 L194 325 C108 325 31 314 -23 294 C-99 267 -153 195 -153 123 C-153 36 -87 -19 19 -19 C99 -19 144 2 199 63 L204 61 Z M218 238 C228 238 230 239 238 243 C205 141 162 94 104 94 C68 94 44 116 44 149 C44 208 96 238 199 238 L218 238 Z M76 578 L227 578 L264 708 L113 708 L76 578 Z M286 578 L439 578 L476 708 L325 708 L286 578 Z " />
<glyph glyph-name="aring" unicode="&#xe5;" horiz-adv-x="647" d="M204 61 C191 35 188 26 188 8 L188 0 L368 0 C377 47 382 71 387 88 L399 124 L456 324 C460 336 464 370 464 386 C464 479 383 529 234 529 C151 529 73 514 31 490 C-15 462 -36 433 -57 368 L135 368 C150 415 173 433 216 433 C255 433 277 416 277 385 C277 373 275 355 272 347 L265 325 L194 325 C108 325 31 314 -23 294 C-99 267 -153 195 -153 123 C-153 36 -87 -19 19 -19 C99 -19 144 2 199 63 L204 61 Z M218 238 C228 238 230 239 238 243 C205 141 162 94 104 94 C68 94 44 116 44 149 C44 208 96 238 199 238 L218 238 Z M277 754 C215 754 165 704 165 642 C165 581 215 531 277 531 C338 531 388 581 388 642 C388 704 338 754 277 754 L277 754 Z M277 680 C297 680 314 663 314 643 C314 622 297 605 277 605 C256 605 239 622 239 643 C239 663 256 680 277 680 L277 680 Z " />
<glyph glyph-name="ae" unicode="&#xe6;" horiz-adv-x="992" d="M580 164 C564 116 525 86 479 86 C442 86 422 111 422 156 C422 176 424 190 431 217 L794 217 C815 272 822 307 822 350 C822 463 735 530 587 530 C505 530 473 522 403 486 C350 520 308 531 228 531 C142 531 66 514 27 486 C-6 462 -28 432 -57 368 L135 368 C148 413 173 433 216 433 C254 433 275 414 275 377 C275 362 273 351 265 327 L183 327 C-27 327 -153 252 -153 127 C-153 34 -81 -19 46 -19 C129 -19 196 3 255 51 C314 2 381 -19 475 -19 C628 -19 732 42 784 164 L580 164 Z M200 240 C215 240 220 241 236 245 C211 145 164 91 100 91 C65 91 42 115 42 150 C42 202 95 240 165 240 L200 240 Z M549 324 C509 324 501 324 465 319 C490 399 526 436 579 436 C619 436 641 413 641 370 C641 355 638 343 631 324 L549 324 Z " />
<glyph glyph-name="ccedilla" unicode="&#xe7;" horiz-adv-x="619" d="M-7 -101 L10 -123 C29 -118 38 -116 53 -116 C81 -116 98 -129 98 -150 C98 -173 74 -188 39 -188 C11 -188 -15 -184 -61 -172 L-82 -223 C-32 -240 5 -247 50 -247 C131 -247 196 -199 196 -137 C196 -94 158 -62 107 -62 C94 -62 84 -64 64 -71 L62 -69 C74 -55 77 -51 85 -35 L91 -22 L107 -22 C277 -22 382 44 415 171 L221 171 C191 109 163 85 121 85 C83 85 65 108 65 156 C65 197 87 269 119 330 C156 402 183 427 225 427 C256 427 278 402 278 365 C278 353 276 344 271 320 L456 320 C459 334 459 340 459 354 C459 467 378 530 235 530 C127 530 45 500 -15 437 C-88 362 -131 256 -131 156 C-131 60 -76 4 35 -16 L-7 -101 Z " />
<glyph glyph-name="egrave" unicode="&#xe8;" horiz-adv-x="647" d="M232 164 C207 109 177 85 130 85 C89 85 64 111 64 154 C64 173 66 184 76 212 L444 212 C471 279 478 307 478 351 C478 456 373 531 228 531 C25 531 -132 373 -132 169 C-132 116 -117 74 -90 45 C-51 6 29 -19 120 -19 C292 -19 387 36 432 164 L232 164 Z M195 319 C155 319 146 318 110 314 C143 398 174 429 224 429 C267 429 292 405 292 365 C292 348 288 336 278 319 L195 319 Z M149 719 L223 573 L354 573 L302 719 L149 719 Z " />
<glyph glyph-name="eacute" unicode="&#xe9;" horiz-adv-x="647" d="M232 164 C207 109 177 85 130 85 C89 85 64 111 64 154 C64 173 66 184 76 212 L444 212 C471 279 478 307 478 351 C478 456 373 531 228 531 C25 531 -132 373 -132 169 C-132 116 -117 74 -90 45 C-51 6 29 -19 120 -19 C292 -19 387 36 432 164 L232 164 Z M195 319 C155 319 146 318 110 314 C143 398 174 429 224 429 C267 429 292 405 292 365 C292 348 288 336 278 319 L195 319 Z M151 573 L292 573 L455 713 L292 713 L151 573 Z " />
<glyph glyph-name="ecircumflex" unicode="&#xea;" horiz-adv-x="647" d="M232 164 C207 109 177 85 130 85 C89 85 64 111 64 154 C64 173 66 184 76 212 L444 212 C471 279 478 307 478 351 C478 456 373 531 228 531 C25 531 -132 373 -132 169 C-132 116 -117 74 -90 45 C-51 6 29 -19 120 -19 C292 -19 387 36 432 164 L232 164 Z M195 319 C155 319 146 318 110 314 C143 398 174 429 224 429 C267 429 292 405 292 365 C292 348 288 336 278 319 L195 319 Z M72 573 L218 573 L245 602 C258 617 261 621 272 638 L274 637 C275 622 275 618 279 602 L287 573 L415 573 L370 714 L215 714 L72 573 Z " />
<glyph glyph-name="edieresis" unicode="&#xeb;" horiz-adv-x="647" d="M232 164 C207 109 177 85 130 85 C89 85 64 111 64 154 C64 173 66 184 76 212 L444 212 C471 279 478 307 478 351 C478 456 373 531 228 531 C25 531 -132 373 -132 169 C-132 116 -117 74 -90 45 C-51 6 29 -19 120 -19 C292 -19 387 36 432 164 L232 164 Z M195 319 C155 319 146 318 110 314 C143 398 174 429 224 429 C267 429 292 405 292 365 C292 348 288 336 278 319 L195 319 Z M75 578 L226 578 L263 708 L112 708 L75 578 Z M285 578 L438 578 L475 708 L324 708 L285 578 Z " />
<glyph glyph-name="igrave" unicode="&#xec;" horiz-adv-x="312" d="M-167 0 L20 0 L171 511 L-16 511 L-167 0 Z M-18 719 L56 573 L187 573 L135 719 L-18 719 Z " />
<glyph glyph-name="iacute" unicode="&#xed;" horiz-adv-x="312" d="M-167 0 L20 0 L171 511 L-16 511 L-167 0 Z M-16 573 L125 573 L288 713 L125 713 L-16 573 Z " />
<glyph glyph-name="icircumflex" unicode="&#xee;" horiz-adv-x="312" d="M-167 0 L20 0 L171 511 L-16 511 L-167 0 Z M-95 573 L51 573 L78 602 C91 617 94 621 105 638 L107 637 C108 622 108 618 112 602 L120 573 L248 573 L203 714 L48 714 L-95 573 Z " />
<glyph glyph-name="idieresis" unicode="&#xef;" horiz-adv-x="312" d="M-167 0 L20 0 L171 511 L-16 511 L-167 0 Z M-92 578 L59 578 L96 708 L-55 708 L-92 578 Z M118 578 L271 578 L308 708 L157 708 L118 578 Z " />
<glyph glyph-name="eth" unicode="&#xf0;" horiz-adv-x="657" d="M265 700 L260 701 C211 718 176 727 134 733 L118 736 L70 676 C109 669 129 665 148 660 L178 651 L184 649 L185 645 C153 635 144 631 113 615 L51 583 L68 543 L230 628 C287 601 314 571 346 502 C347 500 348 497 350 494 L346 491 C315 523 292 532 238 532 C73 532 -80 347 -80 147 C-80 44 -14 -14 100 -14 C213 -14 315 46 375 149 C423 232 453 343 453 439 C453 551 406 631 313 679 L313 681 C342 692 350 695 379 711 L440 742 L423 782 L265 700 Z M240 461 C302 461 334 428 334 363 C334 313 315 243 287 185 C247 106 190 63 123 63 C61 63 29 97 29 164 C29 213 48 285 74 339 C114 418 172 461 240 461 L240 461 Z " />
<glyph glyph-name="ntilde" unicode="&#xf1;" horiz-adv-x="662" d="M-158 0 L29 0 L107 267 C132 353 185 412 237 412 C268 412 291 392 291 365 C291 348 288 329 279 300 L270 271 L191 0 L378 0 L470 313 L479 345 C485 364 488 385 488 407 C488 481 429 530 339 530 C275 530 223 506 156 446 L153 448 C162 477 165 488 167 511 L-16 511 L-24 471 C-31 435 -38 407 -44 387 L-158 0 Z M151 585 C170 612 184 623 199 623 C211 623 226 617 266 598 C313 575 326 571 349 571 C400 571 452 621 461 680 L412 703 C395 679 380 668 365 668 C356 668 343 672 331 679 L294 701 C272 714 248 721 229 721 C176 721 123 675 102 610 L151 585 Z " />
<glyph glyph-name="ograve" unicode="&#xf2;" horiz-adv-x="657" d="M227 531 C120 531 34 501 -23 444 C-92 375 -132 275 -132 173 C-132 41 -51 -21 123 -21 C234 -21 313 8 376 70 C441 135 482 233 482 326 C482 460 394 531 227 531 L227 531 Z M220 425 C264 425 291 399 289 359 C284 273 249 174 200 114 C185 95 162 85 134 85 C87 85 65 111 65 165 C65 211 86 287 115 341 C147 402 176 425 220 425 L220 425 Z M155 719 L229 573 L360 573 L308 719 L155 719 Z " />
<glyph glyph-name="oacute" unicode="&#xf3;" horiz-adv-x="657" d="M227 531 C120 531 34 501 -23 444 C-92 375 -132 275 -132 173 C-132 41 -51 -21 123 -21 C234 -21 313 8 376 70 C441 135 482 233 482 326 C482 460 394 531 227 531 L227 531 Z M220 425 C264 425 291 399 289 359 C284 273 249 174 200 114 C185 95 162 85 134 85 C87 85 65 111 65 165 C65 211 86 287 115 341 C147 402 176 425 220 425 L220 425 Z M157 573 L298 573 L461 713 L298 713 L157 573 Z " />
<glyph glyph-name="ocircumflex" unicode="&#xf4;" horiz-adv-x="657" d="M227 531 C120 531 34 501 -23 444 C-92 375 -132 275 -132 173 C-132 41 -51 -21 123 -21 C234 -21 313 8 376 70 C441 135 482 233 482 326 C482 460 394 531 227 531 L227 531 Z M220 425 C264 425 291 399 289 359 C284 273 249 174 200 114 C185 95 162 85 134 85 C87 85 65 111 65 165 C65 211 86 287 115 341 C147 402 176 425 220 425 L220 425 Z M78 573 L224 573 L251 602 C264 617 267 621 278 638 L280 637 C281 622 281 618 285 602 L293 573 L421 573 L376 714 L221 714 L78 573 Z " />
<glyph glyph-name="otilde" unicode="&#xf5;" horiz-adv-x="657" d="M227 531 C120 531 34 501 -23 444 C-92 375 -132 275 -132 173 C-132 41 -51 -21 123 -21 C234 -21 313 8 376 70 C441 135 482 233 482 326 C482 460 394 531 227 531 L227 531 Z M220 425 C264 425 291 399 289 359 C284 273 249 174 200 114 C185 95 162 85 134 85 C87 85 65 111 65 165 C65 211 86 287 115 341 C147 402 176 425 220 425 L220 425 Z M149 585 C168 612 182 623 197 623 C209 623 224 617 264 598 C311 575 324 571 347 571 C398 571 450 621 459 680 L410 703 C393 679 378 668 363 668 C354 668 341 672 329 679 L292 701 C270 714 246 721 227 721 C174 721 121 675 100 610 L149 585 Z " />
<glyph glyph-name="odieresis" unicode="&#xf6;" horiz-adv-x="657" d="M227 531 C120 531 34 501 -23 444 C-92 375 -132 275 -132 173 C-132 41 -51 -21 123 -21 C234 -21 313 8 376 70 C441 135 482 233 482 326 C482 460 394 531 227 531 L227 531 Z M220 425 C264 425 291 399 289 359 C284 273 249 174 200 114 C185 95 162 85 134 85 C87 85 65 111 65 165 C65 211 86 287 115 341 C147 402 176 425 220 425 L220 425 Z M81 578 L232 578 L269 708 L118 708 L81 578 Z M291 578 L444 578 L481 708 L330 708 L291 578 Z " />
<glyph glyph-name="divide" unicode="&#xf7;" horiz-adv-x="680" d="M223 642 C184 642 151 610 151 570 C151 530 184 497 223 497 C263 497 296 530 296 570 C296 610 264 642 223 642 L223 642 Z M223 239 C184 239 151 206 151 167 C151 127 184 94 223 94 C263 94 296 127 296 167 C296 207 264 239 223 239 L223 239 Z M-50 422 L-50 314 L496 314 L496 422 L-50 422 Z " />
<glyph glyph-name="oslash" unicode="&#xf8;" horiz-adv-x="644" d="M471 522 L425 563 L370 506 C328 522 276 531 224 531 C117 531 35 502 -23 445 C-90 377 -130 275 -130 174 C-130 114 -116 74 -84 38 L-127 -7 L-83 -52 L-30 3 C4 -12 56 -20 110 -20 C229 -20 304 6 368 71 C433 136 472 233 472 326 C472 384 454 435 422 470 L471 522 Z M178 218 C229 271 238 281 281 329 C271 272 257 223 239 184 C206 113 176 86 130 86 C106 86 87 95 76 112 L178 218 Z M168 298 C121 249 109 236 66 188 C71 226 79 257 96 301 C128 386 165 425 216 425 C241 425 258 418 270 403 L168 298 Z " />
<glyph glyph-name="ugrave" unicode="&#xf9;" horiz-adv-x="670" d="M522 511 L336 511 L258 244 C233 158 180 99 127 99 C96 99 73 119 73 146 C73 164 76 182 85 211 L94 240 L173 511 L-13 511 L-105 198 L-115 166 C-121 147 -124 126 -124 104 C-124 30 -65 -19 25 -19 C90 -19 142 6 210 69 L214 67 C203 36 200 25 197 0 L381 0 C395 73 401 99 408 124 L522 511 Z M161 719 L235 573 L366 573 L314 719 L161 719 Z " />
<glyph glyph-name="uacute" unicode="&#xfa;" horiz-adv-x="670" d="M522 511 L336 511 L258 244 C233 158 180 99 127 99 C96 99 73 119 73 146 C73 164 76 182 85 211 L94 240 L173 511 L-13 511 L-105 198 L-115 166 C-121 147 -124 126 -124 104 C-124 30 -65 -19 25 -19 C90 -19 142 6 210 69 L214 67 C203 36 200 25 197 0 L381 0 C395 73 401 99 408 124 L522 511 Z M163 573 L304 573 L467 713 L304 713 L163 573 Z " />
<glyph glyph-name="ucircumflex" unicode="&#xfb;" horiz-adv-x="670" d="M522 511 L336 511 L258 244 C233 158 180 99 127 99 C96 99 73 119 73 146 C73 164 76 182 85 211 L94 240 L173 511 L-13 511 L-105 198 L-115 166 C-121 147 -124 126 -124 104 C-124 30 -65 -19 25 -19 C90 -19 142 6 210 69 L214 67 C203 36 200 25 197 0 L381 0 C395 73 401 99 408 124 L522 511 Z M84 573 L230 573 L257 602 C270 617 273 621 284 638 L286 637 C287 622 287 618 291 602 L299 573 L427 573 L382 714 L227 714 L84 573 Z " />
<glyph glyph-name="udieresis" unicode="&#xfc;" horiz-adv-x="670" d="M522 511 L336 511 L258 244 C233 158 180 99 127 99 C96 99 73 119 73 146 C73 164 76 182 85 211 L94 240 L173 511 L-13 511 L-105 198 L-115 166 C-121 147 -124 126 -124 104 C-124 30 -65 -19 25 -19 C90 -19 142 6 210 69 L214 67 C203 36 200 25 197 0 L381 0 C395 73 401 99 408 124 L522 511 Z M87 578 L238 578 L275 708 L124 708 L87 578 Z M297 578 L450 578 L487 708 L336 708 L297 578 Z " />
<glyph glyph-name="yacute" unicode="&#xfd;" horiz-adv-x="568" d="M-141 -187 L66 -187 L486 511 L278 511 L200 356 C159 277 151 259 120 184 L115 185 C117 231 119 269 119 289 C119 302 119 322 118 356 L115 511 L-95 511 L-23 2 L-141 -187 Z M112 573 L253 573 L416 713 L253 713 L112 573 Z " />
<glyph glyph-name="thorn" unicode="&#xfe;" horiz-adv-x="660" d="M204 736 L97 736 L-173 -182 L-66 -182 L-26 -46 C-6 19 -1 41 11 109 L16 109 C28 24 68 -13 148 -13 C219 -13 289 22 342 84 C408 161 458 293 458 390 C458 491 405 548 310 548 C229 548 155 501 108 421 L103 423 C132 495 141 520 162 591 L204 736 Z M255 464 C314 464 345 430 345 365 C345 319 326 247 300 192 C261 111 204 68 137 68 C77 68 45 102 45 165 C45 212 63 282 90 338 C130 422 185 464 255 464 L255 464 Z " />
<glyph glyph-name="ydieresis" unicode="&#xff;" horiz-adv-x="568" d="M-141 -187 L66 -187 L486 511 L278 511 L200 356 C159 277 151 259 120 184 L115 185 C117 231 119 269 119 289 C119 302 119 322 118 356 L115 511 L-95 511 L-23 2 L-141 -187 Z M36 578 L187 578 L224 708 L73 708 L36 578 Z M246 578 L399 578 L436 708 L285 708 L246 578 Z " />
<glyph glyph-name="dotlessi" unicode="&#x131;" horiz-adv-x="312" d="M-167 0 L20 0 L171 511 L-16 511 L-167 0 Z " />
<glyph glyph-name="Lslash" unicode="&#x141;" horiz-adv-x="611" d="M176 394 L259 424 L279 490 L237 475 C220 470 211 466 191 456 C211 518 219 542 235 597 L276 736 L67 736 L-38 377 L-107 353 L-126 286 L-92 299 C-79 303 -71 307 -53 316 C-75 252 -82 227 -98 173 L-149 0 L369 0 L408 141 L173 141 C138 141 130 141 98 138 C109 168 112 175 122 209 L176 394 Z " />
<glyph glyph-name="lslash" unicode="&#x142;" horiz-adv-x="320" d="M146 388 L207 410 L227 476 L196 465 C183 461 176 458 161 450 C182 512 189 536 206 592 L248 736 L61 736 L-44 379 L-114 354 L-134 288 L-98 300 C-84 305 -77 309 -59 318 C-80 255 -87 233 -104 175 L-155 0 L32 0 L146 388 Z " />
<glyph glyph-name="OE" unicode="&#x152;" horiz-adv-x="1026" d="M766 0 L808 143 L574 143 C540 143 532 143 501 140 C512 169 514 175 524 209 L552 310 L835 310 L878 453 L663 453 C628 453 620 453 588 450 C600 480 602 486 612 521 L633 593 L920 593 L962 736 L516 736 C505 736 481 738 419 743 C388 745 358 747 342 747 C263 747 185 724 121 681 C-6 597 -99 412 -99 243 C-99 83 2 -19 161 -19 C186 -19 220 -16 255 -11 C316 -2 339 0 357 0 L766 0 Z M298 148 C270 122 234 106 203 106 C141 106 100 153 100 223 C100 411 225 618 340 618 C371 618 399 607 421 585 L298 148 Z " />
<glyph glyph-name="oe" unicode="&#x153;" horiz-adv-x="1000" d="M408 483 C365 515 303 531 225 531 C116 531 35 503 -23 445 C-90 377 -131 275 -131 174 C-131 44 -51 -20 111 -20 C183 -20 267 -3 315 22 C341 -6 387 -20 452 -20 C647 -20 747 35 790 164 L586 164 C562 109 530 85 483 85 C438 85 417 107 417 153 C417 173 419 188 426 212 L803 212 C823 269 830 300 830 340 C830 462 742 530 585 530 C508 530 460 518 411 485 L408 483 Z M552 322 C509 322 501 322 464 317 C501 404 529 431 581 431 C626 431 648 409 648 365 C648 350 646 339 639 322 L552 322 Z M217 425 C259 425 284 401 284 362 C284 286 245 176 196 115 C181 96 158 86 131 86 C87 86 66 112 66 166 C66 212 87 288 115 341 C146 402 174 425 217 425 L217 425 Z " />
<glyph glyph-name="Scaron" unicode="&#x160;" horiz-adv-x="726" d="M585 537 C588 547 589 554 589 566 C589 683 483 755 311 755 C108 755 -30 658 -30 515 C-30 413 23 368 255 272 C303 252 318 236 318 205 C318 154 267 122 187 122 C115 122 73 148 73 191 C73 197 73 202 75 215 L-141 215 C-145 200 -146 193 -146 177 C-146 46 -49 -19 149 -19 C387 -19 524 71 524 225 C524 276 508 320 477 354 C447 386 411 406 302 450 C197 492 185 501 185 540 C185 585 226 614 290 614 C355 614 386 590 389 537 L585 537 Z M227 911 L276 770 L432 770 L571 911 L424 911 L398 880 C386 865 382 860 373 843 L370 844 C369 860 368 865 364 880 L355 911 L227 911 Z " />
<glyph glyph-name="scaron" unicode="&#x161;" horiz-adv-x="560" d="M395 363 C399 372 400 379 400 390 C400 438 383 471 348 493 C310 518 243 534 178 534 C24 534 -78 467 -78 367 C-78 309 -24 253 75 207 C134 180 155 160 155 134 C155 106 129 87 90 87 C46 87 21 111 21 153 C21 158 22 162 24 169 L-161 169 C-164 154 -166 144 -166 131 C-166 78 -151 45 -118 22 C-80 -3 -4 -20 67 -20 C247 -20 346 43 346 156 C346 230 319 256 154 337 C125 352 115 363 115 382 C115 410 137 430 167 430 C198 430 216 413 216 382 C216 377 216 372 214 363 L395 363 Z M90 714 L139 573 L295 573 L434 714 L287 714 L261 683 C249 668 245 663 236 646 L233 647 C232 663 231 668 227 683 L218 714 L90 714 Z " />
<glyph glyph-name="Ydieresis" unicode="&#x178;" horiz-adv-x="736" d="M-26 736 L127 243 L56 0 L264 0 L336 241 L721 736 L483 736 L358 550 C308 477 300 464 261 398 L257 398 C246 473 243 490 226 571 L191 736 L-26 736 Z M175 775 L326 775 L363 905 L212 905 L175 775 Z M385 775 L538 775 L575 905 L424 905 L385 775 Z " />
<glyph glyph-name="Zcaron" unicode="&#x17d;" horiz-adv-x="716" d="M-168 0 L469 0 L511 148 L314 148 C219 148 200 147 115 143 L113 146 C180 198 195 211 266 274 L592 560 L620 736 L28 736 L-16 588 L157 588 C244 588 262 589 340 593 L341 590 C274 538 260 526 187 462 L-135 180 L-168 0 Z M222 911 L271 770 L427 770 L566 911 L419 911 L393 880 C381 865 377 860 368 843 L365 844 C364 860 363 865 359 880 L350 911 L222 911 Z " />
<glyph glyph-name="zcaron" unicode="&#x17e;" horiz-adv-x="558" d="M409 511 L-56 511 L-93 381 L40 381 C107 381 123 381 185 387 L187 383 C110 336 90 323 11 268 L-151 156 L-197 0 L297 0 L334 129 L200 129 C132 129 116 129 54 123 L53 127 C127 173 147 185 223 238 L379 347 L409 511 Z M89 714 L138 573 L294 573 L433 714 L286 714 L260 683 C248 668 244 663 235 646 L232 647 C231 663 230 668 226 683 L217 714 L89 714 Z " />
<glyph glyph-name="florin" unicode="&#x192;" horiz-adv-x="460" d="M180 353 L293 353 L338 470 L282 470 C252 470 246 470 221 467 C230 483 232 487 238 505 L252 541 C277 606 308 629 370 629 C385 629 392 629 409 627 L454 743 C412 751 375 754 329 754 C195 754 113 686 51 526 L30 470 L-74 470 L-119 353 L-67 353 C-40 353 -35 353 -11 356 C-28 320 -31 312 -47 270 L-140 29 C-178 -71 -198 -89 -269 -89 C-287 -89 -290 -89 -308 -87 L-353 -203 C-319 -211 -285 -214 -238 -214 C-102 -214 -37 -168 28 -28 C44 8 75 81 92 124 L180 353 Z " />
<glyph glyph-name="circumflex" unicode="&#x2c6;" d="M-251 573 L-105 573 L-78 602 C-65 617 -62 621 -51 638 L-49 637 C-48 622 -48 618 -44 602 L-36 573 L92 573 L47 714 L-108 714 L-251 573 Z " />
<glyph glyph-name="caron" unicode="&#x2c7;" d="M-190 714 L-141 573 L15 573 L154 714 L7 714 L-19 683 C-31 668 -35 663 -44 646 L-47 647 C-48 663 -49 668 -53 683 L-62 714 L-190 714 Z " />
<glyph glyph-name="breve" unicode="&#x2d8;" d="M-196 713 C-195 611 -153 564 -66 564 C19 564 85 618 119 713 L20 713 C1 674 -24 656 -58 656 C-90 656 -105 673 -107 713 L-196 713 Z " />
<glyph glyph-name="dotaccent" unicode="&#x2d9;" d="M-156 573 L31 573 L72 714 L-115 714 L-156 573 Z " />
<glyph glyph-name="ring" unicode="&#x2da;" d="M-47 754 C-109 754 -159 704 -159 642 C-159 581 -109 531 -47 531 C14 531 64 581 64 642 C64 704 14 754 -47 754 L-47 754 Z M-47 680 C-27 680 -10 663 -10 643 C-10 622 -27 605 -47 605 C-68 605 -85 622 -85 643 C-85 663 -68 680 -47 680 L-47 680 Z " />
<glyph glyph-name="ogonek" unicode="&#x2db;" d="M-205 0 C-281 -24 -326 -67 -326 -116 C-326 -171 -285 -197 -198 -197 C-184 -197 -171 -196 -147 -193 L-119 -100 C-133 -103 -137 -104 -151 -104 C-182 -104 -197 -92 -197 -67 C-197 -38 -178 -19 -132 0 L-205 0 Z " />
<glyph glyph-name="tilde" unicode="&#x2dc;" d="M-180 585 C-161 612 -147 623 -132 623 C-120 623 -105 617 -65 598 C-18 575 -5 571 18 571 C69 571 121 621 130 680 L81 703 C64 679 49 668 34 668 C25 668 12 672 0 679 L-37 701 C-59 714 -83 721 -102 721 C-155 721 -208 675 -229 610 L-180 585 Z " />
<glyph glyph-name="hungarumlaut" unicode="&#x2dd;" d="M-291 573 L-150 573 L13 713 L-150 713 L-291 573 Z M-57 573 L84 573 L248 713 L84 713 L-57 573 Z " />
<glyph glyph-name="endash" unicode="&#x2013;" horiz-adv-x="655" d="M-129 212 L454 212 L490 335 L-93 335 L-129 212 Z " />
<glyph glyph-name="emdash" unicode="&#x2014;" horiz-adv-x="897" d="M-128 212 L697 212 L733 335 L-92 335 L-128 212 Z " />
<glyph glyph-name="quoteleft" unicode="&#x2018;" horiz-adv-x="315" d="M-43 509 L128 509 L272 736 L126 736 L-43 509 Z " />
<glyph glyph-name="quoteright" unicode="&#x2019;" horiz-adv-x="315" d="M-43 509 L103 509 L272 736 L100 736 L-43 509 Z " />
<glyph glyph-name="quotesinglbase" unicode="&#x201a;" horiz-adv-x="304" d="M-229 -87 L-81 -87 L88 141 L-93 141 L-229 -87 Z " />
<glyph glyph-name="quotedblleft" unicode="&#x201c;" horiz-adv-x="537" d="M-41 509 L130 509 L274 736 L128 736 L-41 509 Z M178 509 L350 509 L493 736 L347 736 L178 509 Z " />
<glyph glyph-name="quotedblright" unicode="&#x201d;" horiz-adv-x="534" d="M-41 509 L105 509 L274 736 L102 736 L-41 509 Z M178 509 L324 509 L493 736 L321 736 L178 509 Z " />
<glyph glyph-name="quotedblbase" unicode="&#x201e;" horiz-adv-x="534" d="M-215 -87 L-69 -87 L100 141 L-72 141 L-215 -87 Z M4 -87 L150 -87 L319 141 L148 141 L4 -87 Z " />
<glyph glyph-name="dagger" unicode="&#x2020;" horiz-adv-x="568" d="M-65 422 L23 422 C58 422 66 422 98 425 C87 395 84 389 74 354 L-29 0 L151 0 L275 422 L434 422 L468 540 L381 540 C346 540 338 540 306 537 C317 567 319 573 330 608 L367 736 L187 736 L129 540 L-30 540 L-65 422 Z " />
<glyph glyph-name="daggerdbl" unicode="&#x2021;" horiz-adv-x="568" d="M367 736 L187 736 L133 550 L-26 550 L-61 432 L27 432 C62 432 70 432 102 435 C91 407 87 396 79 368 L59 305 L-99 305 L-134 187 L-47 187 C-12 187 -4 187 29 190 C17 159 13 148 5 119 L-29 0 L152 0 L205 187 L365 187 L399 305 L311 305 C276 305 268 305 236 302 C247 330 252 342 260 368 L280 432 L438 432 L472 550 L385 550 C350 550 342 550 310 547 C322 578 326 589 334 618 L367 736 Z " />
<glyph glyph-name="bullet" unicode="&#x2022;" horiz-adv-x="680" d="M223 574 C110 574 17 481 17 368 C17 255 110 162 223 162 C336 162 429 255 429 368 C429 481 336 574 223 574 L223 574 Z " />
<glyph glyph-name="ellipsis" unicode="&#x2026;" horiz-adv-x="852" d="M-149 0 L25 0 L66 141 L-108 141 L-149 0 Z M135 0 L309 0 L350 141 L176 141 L135 0 Z M419 0 L592 0 L634 141 L460 141 L419 0 Z " />
<glyph glyph-name="perthousand" unicode="&#x2030;" horiz-adv-x="1982" d="M-101 10 L29 10 L663 734 L535 734 L-101 10 Z M170 753 C46 753 -41 665 -41 540 C-41 463 12 422 111 422 C229 422 317 515 317 638 C317 714 268 753 170 753 L170 753 Z M165 687 C186 687 202 670 202 648 C202 613 178 540 156 509 C144 492 130 484 112 484 C89 484 76 499 76 526 C76 574 98 639 125 669 C135 680 150 687 165 687 L165 687 Z M454 324 C329 324 242 237 242 111 C242 34 295 -7 394 -7 C511 -7 599 86 599 208 C599 284 549 324 454 324 L454 324 Z M446 258 C468 258 484 242 484 219 C484 196 474 156 459 118 C452 102 445 86 440 80 C429 63 414 55 396 55 C371 55 360 68 360 98 C360 183 400 258 446 258 L446 258 Z M694 10 L825 10 L1459 734 L1331 734 L694 10 Z M966 753 C842 753 755 665 755 540 C755 463 808 422 907 422 C1024 422 1112 515 1112 638 C1112 714 1063 753 966 753 L966 753 Z M960 687 C981 687 997 670 997 648 C997 613 973 541 952 509 C940 492 926 484 908 484 C885 484 872 499 872 526 C872 574 894 639 921 669 C930 680 946 687 960 687 L960 687 Z M1249 324 C1124 324 1037 237 1037 111 C1037 34 1090 -7 1189 -7 C1306 -7 1394 86 1394 208 C1394 284 1344 324 1249 324 L1249 324 Z M1241 258 C1263 258 1279 242 1279 219 C1279 195 1269 156 1254 118 C1247 102 1239 86 1235 80 C1224 63 1209 55 1191 55 C1166 55 1155 68 1155 98 C1155 183 1195 258 1241 258 L1241 258 Z M1640 324 C1515 324 1428 237 1428 111 C1428 34 1481 -7 1580 -7 C1697 -7 1786 86 1786 208 C1786 284 1736 324 1640 324 L1640 324 Z M1636 259 C1660 259 1673 241 1671 212 C1665 135 1619 55 1580 55 C1557 55 1546 69 1546 98 C1546 189 1585 259 1636 259 L1636 259 Z " />
<glyph glyph-name="guilsinglleft" unicode="&#x2039;" horiz-adv-x="327" d="M-117 262 L-50 83 L88 83 L24 262 L175 443 L36 443 L-117 262 Z " />
<glyph glyph-name="guilsinglright" unicode="&#x203a;" horiz-adv-x="314" d="M-149 83 L-11 83 L143 262 L76 443 L-62 443 L3 262 L-149 83 Z " />
<glyph glyph-name="fraction" unicode="&#x2044;" horiz-adv-x="169" d="M-416 0 L-292 0 L349 729 L225 729 L-416 0 Z " />
<glyph glyph-name="trademark" unicode="&#x2122;" horiz-adv-x="1020" d="M-27 650 L31 650 C63 650 67 650 93 653 C81 623 79 615 69 582 L-8 317 L120 317 L218 650 L334 650 L359 736 L-2 736 L-27 650 Z M260 317 L379 317 L426 475 C449 554 455 579 473 660 L479 659 C474 600 473 570 473 538 L474 475 L476 317 L597 317 L696 476 C746 555 761 580 806 663 L811 661 C781 582 773 557 749 476 L702 317 L821 317 L947 736 L748 736 L667 606 C626 541 617 525 583 461 L579 462 C583 508 584 531 584 556 L583 606 L581 736 L383 736 L260 317 Z " />
<glyph glyph-name="minus" unicode="&#x2212;" horiz-adv-x="655" d="M-129 212 L454 212 L490 335 L-93 335 L-129 212 Z " />
<glyph glyph-name="fi" unicode="&#xfb01;" horiz-adv-x="693" d="M552 511 L282 511 C247 511 236 510 201 506 C225 596 255 627 321 627 C334 627 346 626 370 622 L403 743 C348 749 313 751 270 751 C130 751 71 702 28 549 L17 511 L-62 511 L-99 386 L-60 386 C-37 386 -34 386 -16 389 C-28 359 -30 352 -40 318 L-134 0 L53 0 L166 386 L257 386 C294 386 301 386 333 389 C321 359 318 351 308 317 L215 0 L401 0 L552 511 Z M387 585 L574 585 L615 726 L428 726 L387 585 Z " />
<glyph glyph-name="fl" unicode="&#xfb02;" horiz-adv-x="693" d="M-61 511 L-98 386 L-59 386 C-36 386 -33 386 -15 389 C-27 359 -29 352 -39 318 L-133 0 L54 0 L167 386 L280 386 L317 511 L267 511 C245 511 233 510 202 506 C226 596 256 627 322 627 C336 627 347 626 371 622 L404 743 C349 749 314 751 271 751 C131 751 71 702 29 549 L18 511 L-61 511 Z M432 736 L216 0 L402 0 L619 736 L432 736 Z " />
</font>
</svg>
